<svg width="64" height="64" viewBox="0 0 64 64" fill="none" xmlns="http://www.w3.org/2000/svg">
<path d="M36.4421 26.0532H46.5521V30.1032C46.5521 31.3904 46.0415 32.6251 45.1322 33.5362C44.2229 34.4474 42.9893 34.9606 41.7021 34.9632H22.2721C20.984 34.9606 19.7493 34.4477 18.8385 33.5368C17.9276 32.626 17.4148 31.3914 17.4121 30.1032V26.0532H36.4121H36.4421Z" fill="white"/>
<path d="M42.8121 12.7432C44.0741 12.9855 45.1883 13.7187 45.9101 14.7817C46.632 15.8448 46.9024 17.1509 46.6621 18.4132L45.9521 22.3532L17.4221 16.7432L18.2321 12.7432C18.3508 12.119 18.5915 11.5244 18.9404 10.9934C19.2893 10.4624 19.7396 10.0055 20.2653 9.64879C20.7911 9.29208 21.3821 9.04261 22.0044 8.91467C22.6268 8.78673 23.2683 8.78284 23.8921 8.90321L42.8121 12.7432Z" fill="#F9C801"/>
<path d="M31.6822 56.4036C31.3372 56.3962 31.0084 56.261 30.7643 56.0262C30.5203 55.7913 30.3798 55.475 30.3722 55.1429V35.6751C30.3563 35.4996 30.3784 35.3229 30.4373 35.1561C30.4962 34.9894 30.5904 34.8362 30.7141 34.7064C30.8377 34.5765 30.9881 34.4728 31.1556 34.4019C31.3231 34.331 31.5042 34.2944 31.6872 34.2944C31.8702 34.2944 32.0512 34.331 32.2188 34.4019C32.3863 34.4728 32.5366 34.5765 32.6603 34.7064C32.784 34.8362 32.8782 34.9894 32.9371 35.1561C32.9959 35.3229 33.0181 35.4996 33.0022 35.6751V55.1429C32.997 55.4774 32.8559 55.7966 32.6092 56.0322C32.3625 56.2678 32.0298 56.4011 31.6822 56.4036Z" fill="black"/>
<path d="M20.7621 56.4036C20.619 56.4074 20.4774 56.3742 20.3521 56.3074C20.1901 56.2597 20.0399 56.1808 19.9106 56.0755C19.7812 55.9703 19.6755 55.8408 19.5997 55.695C19.524 55.5492 19.4798 55.3901 19.4699 55.2274C19.46 55.0647 19.4846 54.9017 19.5421 54.7484L24.1021 40.8332V40.7369L25.8221 35.3768C25.8647 35.2118 25.9424 35.0572 26.0502 34.9225C26.1579 34.7878 26.2935 34.6761 26.4483 34.5943C26.6032 34.5125 26.7739 34.4624 26.9499 34.4472C27.1258 34.432 27.3031 34.452 27.4706 34.506C27.6381 34.5599 27.7922 34.6466 27.9231 34.7607C28.0541 34.8747 28.1591 35.0136 28.2316 35.1687C28.3041 35.3237 28.3424 35.4914 28.3442 35.6614C28.346 35.8314 28.3113 35.9999 28.2421 36.1563L26.5221 41.6127V41.7089L21.9721 55.7684C21.8663 55.9839 21.6921 56.1615 21.4746 56.2757C21.2572 56.3898 21.0077 56.4346 20.7621 56.4036Z" fill="black"/>
<path d="M42.2723 56.4036C41.9979 56.404 41.7308 56.319 41.5109 56.1611C41.291 56.0032 41.1301 55.7811 41.0523 55.5279L36.5423 41.5068V41.4106L34.8223 35.9638C34.7149 35.6512 34.7409 35.3103 34.8947 35.0161C35.0485 34.7219 35.3174 34.4986 35.6423 34.3952C35.9672 34.2919 36.3214 34.3169 36.6271 34.4649C36.9328 34.6129 37.1649 34.8717 37.2723 35.1844L38.9923 40.5349V40.6311L43.5423 54.6522C43.6369 54.9624 43.6059 55.2956 43.4557 55.5848C43.3054 55.874 43.047 56.0978 42.7323 56.2111C42.5123 56.4036 42.4123 56.4036 42.2723 56.4036Z" fill="black"/>
<path d="M32.1923 45.7432C31.997 45.7445 31.8042 45.6988 31.6302 45.61C31.4561 45.5213 31.306 45.3921 31.1923 45.2332C31.0919 45.0942 31.0201 44.9367 30.9808 44.7698C30.9416 44.6029 30.9357 44.4299 30.9636 44.2608C30.9915 44.0916 31.0525 43.9296 31.1433 43.7842C31.234 43.6387 31.3526 43.5126 31.4923 43.4132L36.5523 39.5732C36.6948 39.4741 36.8554 39.4039 37.025 39.3669C37.1946 39.3298 37.3698 39.3265 37.5406 39.3571C37.7115 39.3878 37.8747 39.4518 38.0208 39.5455C38.1669 39.6392 38.2932 39.7607 38.3923 39.9032C38.4914 40.0457 38.5616 40.2063 38.5986 40.3759C38.6357 40.5455 38.639 40.7207 38.6084 40.8915C38.5777 41.0624 38.5137 41.2256 38.42 41.3717C38.3263 41.5178 38.2048 41.6441 38.0623 41.7432L33.0023 45.5932C32.74 45.6784 32.4677 45.7289 32.1923 45.7432Z" fill="black"/>
<path d="M30.8722 45.7432C30.7408 45.7467 30.6101 45.7218 30.4893 45.67C30.3684 45.6182 30.2603 45.5408 30.1722 45.4432L25.1122 41.5932C24.831 41.3917 24.6415 41.0867 24.5852 40.7453C24.529 40.404 24.6106 40.0543 24.8122 39.7732C25.0137 39.4921 25.3187 39.3025 25.66 39.2463C26.0014 39.19 26.351 39.2717 26.6322 39.4732L31.6822 43.3132C31.8226 43.4119 31.9421 43.5374 32.0338 43.6825C32.1255 43.8276 32.1875 43.9894 32.2164 44.1586C32.2452 44.3278 32.2402 44.5011 32.2017 44.6683C32.1633 44.8356 32.092 44.9936 31.9922 45.1332C31.8671 45.3163 31.7004 45.4671 31.5057 45.5732C31.311 45.6792 31.0938 45.7375 30.8722 45.7432Z" fill="black"/>
<path d="M52.9323 56.4032H15.1923C14.8633 56.3745 14.5571 56.2235 14.3339 55.9801C14.1108 55.7366 13.9871 55.4184 13.9871 55.0882C13.9871 54.758 14.1108 54.4398 14.3339 54.1963C14.5571 53.9529 14.8633 53.8019 15.1923 53.7732H52.9323C53.2612 53.8019 53.5675 53.9529 53.7906 54.1963C54.0137 54.4398 54.1375 54.758 54.1375 55.0882C54.1375 55.4184 54.0137 55.7366 53.7906 55.9801C53.5675 56.2235 53.2612 56.3745 52.9323 56.4032Z" fill="black"/>
<path d="M41.7022 36.1732H22.3822C21.5825 36.1759 20.79 36.0209 20.0501 35.7173C19.3103 35.4137 18.6374 34.9673 18.0701 34.4037C17.5027 33.84 17.0519 33.1701 16.7434 32.4323C16.435 31.6944 16.2748 30.903 16.2722 30.1032V26.0532C16.2748 25.8786 16.3118 25.7061 16.3811 25.5458C16.4503 25.3854 16.5505 25.2402 16.6759 25.1186C16.8012 24.9969 16.9493 24.9012 17.1117 24.8368C17.2741 24.7724 17.4476 24.7406 17.6222 24.7432H46.6222C46.9672 24.7509 47.296 24.8913 47.5401 25.1354C47.7841 25.3794 47.9246 25.7082 47.9322 26.0532V30.1032C47.883 31.7252 47.2059 33.2646 46.0436 34.397C44.8814 35.5294 43.3249 36.1662 41.7022 36.1732ZM18.7022 27.3732V30.1032C18.6981 30.5718 18.7879 31.0364 18.9663 31.4697C19.1446 31.903 19.4079 32.2962 19.7406 32.6261C20.0734 32.9561 20.4688 33.216 20.9036 33.3907C21.3384 33.5654 21.8037 33.6513 22.2722 33.6432H41.7022C42.1703 33.6499 42.6351 33.5631 43.0693 33.3879C43.5035 33.2128 43.8983 32.9527 44.2308 32.6231C44.5632 32.2934 44.8266 31.9008 45.0054 31.4681C45.1842 31.0354 45.2749 30.5714 45.2722 30.1032V27.3732H18.7022Z" fill="black"/>
<path d="M45.9521 23.5332H45.7421L17.1221 17.9632C16.7884 17.8934 16.4959 17.6944 16.3085 17.4095C16.1211 17.1247 16.0541 16.7773 16.1221 16.4432L16.9321 12.5032C17.202 11.1056 17.9468 9.84427 19.0403 8.93301C20.1338 8.02175 21.5088 7.51662 22.9321 7.50321C23.3413 7.48645 23.7511 7.52004 24.1521 7.60321L43.1521 11.3532C43.9565 11.4948 44.7228 11.8017 45.4027 12.2543C46.0825 12.707 46.6612 13.2957 47.1021 13.9832C47.5483 14.6432 47.8585 15.3855 48.0148 16.1667C48.171 16.9479 48.1701 17.7524 48.0121 18.5332L47.2021 22.4732C47.0984 22.7773 46.9275 23.0542 46.7021 23.2832C46.4712 23.4156 46.2163 23.5006 45.9521 23.5332ZM18.8421 15.7432L44.9421 20.7932L45.4421 18.0632C45.6287 17.1227 45.4499 16.1465 44.9421 15.3332C44.6796 14.9328 44.3371 14.5911 43.9361 14.3295C43.5351 14.0679 43.0843 13.8921 42.6121 13.8132L23.6121 10.0732C23.4121 10.0732 23.1121 9.97321 22.9021 9.97321C22.0662 9.98384 21.259 10.2803 20.615 10.8134C19.9709 11.3465 19.5288 12.084 19.3621 12.9032L18.8421 15.7432Z" fill="black"/>
<path d="M17.4222 17.9632H17.2722L11.0522 16.7432C10.7249 16.6687 10.4395 16.4695 10.2567 16.1879C10.0738 15.9064 10.008 15.5646 10.0731 15.2353C10.1382 14.906 10.3291 14.615 10.6052 14.4241C10.8814 14.2333 11.2211 14.1576 11.5522 14.2132L17.7222 15.4232C18.0559 15.493 18.3484 15.6921 18.5358 15.9769C18.7232 16.2617 18.7902 16.6091 18.7222 16.9432C18.6292 17.2219 18.4564 17.467 18.2253 17.6484C17.9942 17.8297 17.715 17.9392 17.4222 17.9632Z" fill="black"/>
<path d="M21.2722 29.9032C20.9254 29.8955 20.5952 29.7536 20.3509 29.5075C20.1066 29.2613 19.9672 28.93 19.9622 28.5832V26.0532C19.9909 25.7242 20.1418 25.418 20.3853 25.1949C20.6287 24.9718 20.9469 24.848 21.2772 24.848C21.6074 24.848 21.9256 24.9718 22.169 25.1949C22.4125 25.418 22.5634 25.7242 22.5922 26.0532V28.5832C22.5845 28.9309 22.443 29.2622 22.1971 29.5081C21.9512 29.754 21.6198 29.8956 21.2722 29.9032Z" fill="black"/>
<path d="M25.1122 29.9032C24.7646 29.8956 24.4332 29.754 24.1873 29.5081C23.9414 29.2622 23.7999 28.9309 23.7922 28.5832V26.0532C23.821 25.7242 23.9719 25.418 24.2154 25.1949C24.4588 24.9718 24.777 24.848 25.1072 24.848C25.4375 24.848 25.7557 24.9718 25.9991 25.1949C26.2426 25.418 26.3935 25.7242 26.4222 26.0532V28.5832C26.4012 28.9247 26.2567 29.2469 26.0157 29.4898C25.7747 29.7327 25.4536 29.8796 25.1122 29.9032Z" fill="black"/>
<path d="M28.8522 29.9032C28.5055 29.8955 28.1753 29.7536 27.931 29.5075C27.6867 29.2613 27.5473 28.93 27.5422 28.5832V26.0532C27.571 25.7242 27.7219 25.418 27.9654 25.1949C28.2088 24.9718 28.527 24.848 28.8572 24.848C29.1875 24.848 29.5057 24.9718 29.7491 25.1949C29.9926 25.418 30.1435 25.7242 30.1722 26.0532V28.5832C30.1646 28.9309 30.0231 29.2622 29.7772 29.5081C29.5312 29.754 29.1999 29.8956 28.8522 29.9032Z" fill="black"/>
<path d="M32.7023 29.9032C32.3546 29.8956 32.0233 29.754 31.7774 29.5081C31.5315 29.2622 31.39 28.9309 31.3823 28.5832V26.0532C31.411 25.7242 31.562 25.418 31.8054 25.1949C32.0489 24.9718 32.3671 24.848 32.6973 24.848C33.0275 24.848 33.3458 24.9718 33.5892 25.1949C33.8326 25.418 33.9836 25.7242 34.0123 26.0532V28.5832C33.9892 28.924 33.8441 29.2451 33.6035 29.4875C33.3629 29.7299 33.0429 29.8775 32.7023 29.9032Z" fill="black"/>
<path d="M36.4423 29.9032C36.0946 29.8956 35.7633 29.754 35.5174 29.5081C35.2715 29.2622 35.13 28.9309 35.1223 28.5832V26.0532C35.151 25.7242 35.302 25.418 35.5454 25.1949C35.7889 24.9718 36.1071 24.848 36.4373 24.848C36.7675 24.848 37.0858 24.9718 37.3292 25.1949C37.5726 25.418 37.7236 25.7242 37.7523 26.0532V28.5832C37.7472 28.93 37.6079 29.2613 37.3636 29.5075C37.1193 29.7536 36.789 29.8955 36.4423 29.9032Z" fill="black"/>
</svg>
