<svg width="64" height="64" viewBox="0 0 64 64" fill="none" xmlns="http://www.w3.org/2000/svg">
<path d="M46.5163 41.864V44.394H27.4963V38.124H33.8763H46.5163V41.864Z" fill="#F9C801"/>
<path d="M27.4963 38.1241V44.4941H17.3863C17.3823 43.6565 17.5444 42.8263 17.8631 42.0517C18.1818 41.2771 18.6509 40.5733 19.2432 39.981C19.8355 39.3887 20.5393 38.9196 21.3139 38.6009C22.0886 38.2822 22.9187 38.1201 23.7563 38.1241H27.4963Z" fill="#F9C801"/>
<path d="M58.4562 44.4443V57.0443H25.0762C16.6762 57.0443 4.83618 52.7943 4.83618 44.4443H46.6262V41.8643H48.0462C51.0135 41.8733 53.9556 42.4083 56.7362 43.4443L58.4562 44.4443Z" fill="white"/>
<path d="M45.2062 30.5344H33.8762V7.77441C33.8762 7.77441 38.4262 23.5544 45.2062 30.5344Z" fill="#F9C801"/>
<path d="M33.8762 7.77441V33.0644H13.6262C25.6762 25.1744 33.8762 7.77441 33.8762 7.77441Z" fill="white"/>
<path d="M17.3862 45.7145C17.0468 45.7075 16.7224 45.5729 16.4778 45.3376C16.2332 45.1022 16.0862 44.7833 16.0662 44.4445C16.0687 42.4337 16.8638 40.505 18.279 39.0767C19.6943 37.6483 21.6155 36.8355 23.6262 36.8145H46.4162C46.762 36.8196 47.0922 36.9593 47.3368 37.2039C47.5813 37.4484 47.721 37.7786 47.7262 38.1245L47.7205 43.9932C47.7205 44.1652 47.6866 44.3356 47.6207 44.4945C47.5549 44.6535 47.4584 44.7979 47.3368 44.9195C47.2151 45.0412 47.0764 43.1089 46.9175 43.1747C46.7585 43.2406 46.5825 45.3032 46.4105 45.3032C46.2384 45.3032 46.0681 45.2693 45.9091 45.2035C45.7502 45.1377 45.6058 45.0412 45.4841 44.9195C45.3625 44.7979 45.266 44.6535 45.2002 44.4945C45.1343 44.3356 45.1005 44.1652 45.1005 43.9932L45.1062 39.4445H23.7562C23.0945 39.4365 22.4379 39.56 21.8243 39.8077C21.2107 40.0554 20.6524 40.4224 20.1818 40.8875C19.7111 41.3526 19.3374 41.9065 19.0824 42.5171C18.8274 43.1276 18.6961 43.7828 18.6962 44.4445C18.6833 44.7841 18.5399 45.1057 18.2959 45.3422C18.0519 45.5788 17.726 45.7121 17.3862 45.7145Z" fill="#B80000"/>
<path d="M58.4562 58.3547H25.0762C20.2566 58.3573 15.5056 57.2124 11.2162 55.0147C9.13724 54.0163 7.30636 52.568 5.85622 50.7747C4.4124 49.0003 3.62478 46.7823 3.62622 44.4947C3.63386 44.1497 3.77434 43.8209 4.01837 43.5768C4.26241 43.3328 4.59119 43.1923 4.93622 43.1847H45.4062V41.8647C45.4114 41.5189 45.5511 41.1887 45.7956 40.9441C46.0402 40.6995 46.3704 40.5598 46.7162 40.5547H48.1362C50.5662 40.5547 55.0162 41.0547 57.4462 42.3747L59.2662 43.2847C59.4839 43.3889 59.6668 43.5538 59.7928 43.7597C59.9188 43.9655 59.9825 44.2034 59.9762 44.4447V57.0447C59.8607 57.3776 59.6593 57.6741 59.3924 57.9041C59.1255 58.1341 58.8025 58.2896 58.4562 58.3547ZM6.15622 45.7147C6.76622 49.1547 9.79622 51.4447 12.3262 52.7947C16.2475 54.7679 20.5764 55.7954 24.9662 55.7947H57.1362V45.2047L56.0262 44.7047C53.413 43.6985 50.6365 43.1832 47.8362 43.1847H47.7262V44.4947C47.7211 44.8415 47.5818 45.1728 47.3375 45.4189C47.0932 45.6651 46.763 45.807 46.4162 45.8147H6.15622V45.7147Z" fill="#B80000"/>
<path d="M51.6263 39.3345H46.5163C46.1873 39.307 45.881 39.1623 45.6579 38.929C45.4348 38.6958 45.311 38.3909 45.311 38.0745C45.311 37.7581 45.4348 37.4531 45.6579 37.2199C45.881 36.9866 46.1873 36.842 46.5163 36.8145H51.6263C51.9552 36.842 52.2615 36.9866 52.4846 37.2199C52.7077 37.4531 52.8315 37.7581 52.8315 38.0745C52.8315 38.3909 52.7077 38.6958 52.4846 38.929C52.2615 39.1623 51.9552 39.307 51.6263 39.3345Z" fill="#B80000"/>
<path d="M33.8762 39.334C33.5294 39.3289 33.1981 39.1896 32.9519 38.9453C32.7057 38.701 32.5639 38.3707 32.5562 38.024V32.964C32.5849 32.635 32.7358 32.3288 32.9793 32.1057C33.2227 31.8826 33.5409 31.7588 33.8712 31.7588C34.2014 31.7588 34.5196 31.8826 34.763 32.1057C35.0065 32.3288 35.1574 32.635 35.1862 32.964V38.024C35.181 38.3698 35.0413 38.7 34.7968 38.9446C34.5522 39.1892 34.222 39.3288 33.8762 39.334Z" fill="#B80000"/>
<path d="M27.4962 45.7149C27.1578 45.7087 26.8346 45.5921 26.5916 45.3885C26.3486 45.1849 26.2038 44.9094 26.1862 44.6173V39.0691C26.1702 38.9115 26.1924 38.7528 26.2513 38.603C26.3101 38.4532 26.4044 38.3157 26.528 38.1991C26.6517 38.0825 26.8021 37.9894 26.9696 37.9257C27.1371 37.862 27.3181 37.8291 27.5012 37.8291C27.6842 37.8291 27.8652 37.862 28.0327 37.9257C28.2002 37.9894 28.3506 38.0825 28.4743 38.1991C28.5979 38.3157 28.6922 38.4532 28.751 38.603C28.8099 38.7528 28.8321 38.9115 28.8162 39.0691V44.6173C28.7961 44.9102 28.6491 45.1858 28.4045 45.3892C28.1599 45.5926 27.8356 45.7089 27.4962 45.7149Z" fill="#B80000"/>
<path d="M57.8462 54.4446H28.1062C27.9238 54.4605 27.7402 54.4383 27.5669 54.3795C27.3936 54.3206 27.2344 54.2263 27.0995 54.1027C26.9646 53.979 26.8569 53.8287 26.7831 53.6611C26.7094 53.4936 26.6714 53.3126 26.6714 53.1296C26.6714 52.9466 26.7094 52.7655 26.7831 52.598C26.8569 52.4305 26.9646 52.2801 27.0995 52.1565C27.2344 52.0328 27.3936 51.9385 27.5669 51.8797C27.7402 51.8208 27.9238 51.7987 28.1062 51.8146H57.9462C58.2929 51.8197 58.6242 51.959 58.8704 52.2033C59.1166 52.4476 59.2584 52.7778 59.2662 53.1246C59.222 53.4763 59.0556 53.8012 58.796 54.0426C58.5364 54.2839 58.2001 54.4262 57.8462 54.4446Z" fill="#B80000"/>
<path d="M57.8463 50.6643H41.9663C41.784 50.6802 41.6003 50.658 41.427 50.5992C41.2537 50.5403 41.0945 50.4461 40.9596 50.3224C40.8247 50.1988 40.717 50.0484 40.6433 49.8809C40.5696 49.7133 40.5315 49.5323 40.5315 49.3493C40.5315 49.1663 40.5696 48.9853 40.6433 48.8177C40.717 48.6502 40.8247 48.4998 40.9596 48.3762C41.0945 48.2525 41.2537 48.1583 41.427 48.0994C41.6003 48.0406 41.784 48.0184 41.9663 48.0343H57.8463C58.0286 48.0184 58.2122 48.0406 58.3855 48.0994C58.5588 48.1583 58.718 48.2525 58.8529 48.3762C58.9879 48.4998 59.0956 48.6502 59.1693 48.8177C59.243 48.9853 59.2811 49.1663 59.2811 49.3493C59.2811 49.5323 59.243 49.7133 59.1693 49.8809C59.0956 50.0484 58.9879 50.1988 58.8529 50.3224C58.718 50.4461 58.5588 50.5403 58.3855 50.5992C58.2122 50.658 58.0286 50.6802 57.8463 50.6643Z" fill="#B80000"/>
<path d="M33.8763 34.2844H13.6263C13.3552 34.2767 13.0932 34.1849 12.8765 34.0219C12.6598 33.8589 12.499 33.6327 12.4163 33.3744C12.343 33.1141 12.3528 32.8374 12.4442 32.5829C12.5356 32.3284 12.7041 32.1087 12.9263 31.9544C24.5663 24.4444 32.6263 7.37444 32.7563 7.17444C32.9074 6.86906 33.1715 6.63454 33.4926 6.52066C33.8137 6.40678 34.1665 6.42248 34.4763 6.56444C34.7835 6.71356 35.0197 6.97757 35.1338 7.29941C35.248 7.62126 35.2309 7.97509 35.0863 8.28444C33.4244 11.7112 31.5334 15.022 29.4263 18.1944C26.1744 23.2946 22.1997 27.8959 17.6263 31.8544H32.6263V30.5344C32.655 30.2055 32.806 29.8992 33.0494 29.6761C33.2928 29.453 33.6111 29.3292 33.9413 29.3292C34.2715 29.3292 34.5897 29.453 34.8332 29.6761C35.0766 29.8992 35.2276 30.2055 35.2563 30.5344V33.0644C35.1947 33.3923 35.0255 33.6903 34.7756 33.9112C34.5257 34.1322 34.2092 34.2635 33.8763 34.2844Z" fill="#B80000"/>
<path d="M45.2062 31.7549H33.8762C33.5301 31.7473 33.2003 31.6072 32.9546 31.3634C32.709 31.1196 32.5663 30.7908 32.5562 30.4449V7.77489C32.5563 7.47743 32.6652 7.19028 32.8622 6.96745C33.0593 6.74462 33.331 6.60146 33.6262 6.56489C33.9345 6.51323 34.2511 6.57354 34.5189 6.73492C34.7866 6.8963 34.9878 7.14812 35.0862 7.44489C35.0862 7.64489 39.6362 23.0249 46.0862 29.6949C46.2752 29.8726 46.4053 30.1039 46.459 30.3578C46.5126 30.6117 46.4872 30.8759 46.3862 31.1149C46.248 31.3012 46.0708 31.455 45.867 31.5655C45.6632 31.6761 45.4376 31.7407 45.2062 31.7549ZM35.0862 29.2249H42.4762C39.3362 25.1749 36.8062 19.6149 35.0862 15.2249V29.2249Z" fill="#B80000"/>
</svg>
