<svg width="64" height="64" viewBox="0 0 64 64" fill="none" xmlns="http://www.w3.org/2000/svg">
<path d="M46.8078 41.4106V43.9406H27.7878V37.6706H34.1678H46.8078V41.4106Z" fill="white"/>
<path d="M27.7878 37.6706V44.0406H17.6778C17.6738 43.203 17.8359 42.3729 18.1546 41.5982C18.4733 40.8236 18.9424 40.1198 19.5347 39.5275C20.127 38.9352 20.8308 38.4661 21.6054 38.1474C22.3801 37.8287 23.2102 37.6666 24.0478 37.6706H27.7878Z" fill="white"/>
<path d="M58.7477 43.9906V56.5906H25.3677C16.9677 56.5906 5.12769 52.3406 5.12769 43.9906H46.9177V41.4106H48.3377C51.305 41.4197 54.2471 41.9547 57.0277 42.9906L58.7477 43.9906Z" fill="#F9C801"/>
<path d="M45.4977 30.0806H34.1677V7.32062C34.1677 7.32062 38.7177 23.1006 45.4977 30.0806Z" fill="white"/>
<path d="M34.1677 7.32062V32.6106H13.9177C25.9677 24.7206 34.1677 7.32062 34.1677 7.32062Z" fill="#F9C801"/>
<path d="M17.6777 45.2606C17.3383 45.2536 17.0139 45.1191 16.7693 44.8837C16.5247 44.6484 16.3777 44.3295 16.3577 43.9906C16.3602 41.9799 17.1553 40.0512 18.5705 38.6228C19.9858 37.1945 21.907 36.3816 23.9177 36.3606H46.7077C47.0535 36.3658 47.3837 36.5054 47.6283 36.75C47.8728 36.9946 48.0125 37.3248 48.0177 37.6706L48.012 43.5393C48.012 43.7114 47.9781 43.8817 47.9122 44.0407C47.8464 44.1996 47.7499 44.344 47.6283 44.4657C47.5066 44.5873 47.3679 42.655 47.209 42.7209C47.05 42.7867 46.874 44.8493 46.702 44.8493C46.5299 44.8493 46.3596 44.8155 46.2006 44.7496C46.0417 44.6838 45.8973 44.5873 45.7757 44.4657C45.654 44.344 45.5575 44.1996 45.4917 44.0407C45.4258 43.8817 45.392 43.7114 45.392 43.5393L45.3977 38.9906H24.0477C23.386 38.9827 22.7294 39.1061 22.1158 39.3538C21.5022 39.6016 20.9439 39.9686 20.4733 40.4337C20.0026 40.8988 19.6289 41.4526 19.3739 42.0632C19.1189 42.6738 18.9876 43.3289 18.9877 43.9906C18.9748 44.3302 18.8314 44.6518 18.5874 44.8884C18.3434 45.1249 18.0175 45.2583 17.6777 45.2606Z" fill="black"/>
<path d="M58.7477 57.9006H25.3677C20.5481 57.9032 15.7971 56.7583 11.5077 54.5606C9.42874 53.5622 7.59786 52.1139 6.14773 50.3206C4.7039 48.5462 3.91628 46.3282 3.91773 44.0406C3.92537 43.6956 4.06584 43.3668 4.30987 43.1227C4.55391 42.8787 4.88269 42.7382 5.22773 42.7306H45.6977V41.4106C45.7029 41.0648 45.8426 40.7345 46.0871 40.49C46.3317 40.2454 46.6619 40.1057 47.0077 40.1006H48.4277C50.8577 40.1006 55.3077 40.6006 57.7377 41.9206L59.5577 42.8306C59.7754 42.9348 59.9583 43.0997 60.0843 43.3056C60.2103 43.5114 60.274 43.7493 60.2677 43.9906V56.5906C60.1522 56.9235 59.9508 57.22 59.6839 57.45C59.417 57.68 59.094 57.8355 58.7477 57.9006ZM6.44773 45.2606C7.05773 48.7006 10.0877 50.9906 12.6177 52.3406C16.539 54.3138 20.8679 55.3413 25.2577 55.3406H57.4277V44.7506L56.3177 44.2506C53.7045 43.2444 50.928 42.7291 48.1277 42.7306H48.0177V44.0406C48.0126 44.3874 47.8733 44.7187 47.629 44.9648C47.3847 45.211 47.0545 45.3529 46.7077 45.3606H6.44773V45.2606Z" fill="black"/>
<path d="M51.9178 38.8806H46.8078C46.4788 38.8531 46.1725 38.7084 45.9494 38.4752C45.7263 38.2419 45.6025 37.937 45.6025 37.6206C45.6025 37.3042 45.7263 36.9993 45.9494 36.766C46.1725 36.5328 46.4788 36.3881 46.8078 36.3606H51.9178C52.2467 36.3881 52.553 36.5328 52.7761 36.766C52.9992 36.9993 53.123 37.3042 53.123 37.6206C53.123 37.937 52.9992 38.2419 52.7761 38.4752C52.553 38.7084 52.2467 38.8531 51.9178 38.8806Z" fill="black"/>
<path d="M34.1677 38.8806C33.8209 38.8755 33.4896 38.7362 33.2434 38.4919C32.9972 38.2476 32.8554 37.9173 32.8477 37.5706V32.5106C32.8764 32.1816 33.0273 31.8754 33.2708 31.6523C33.5142 31.4292 33.8324 31.3054 34.1627 31.3054C34.4929 31.3054 34.8111 31.4292 35.0545 31.6523C35.298 31.8754 35.4489 32.1816 35.4777 32.5106V37.5706C35.4725 37.9164 35.3328 38.2466 35.0883 38.4912C34.8437 38.7358 34.5135 38.8754 34.1677 38.8806Z" fill="black"/>
<path d="M27.7877 45.2606C27.4493 45.2545 27.1261 45.1379 26.8831 44.9343C26.6401 44.7307 26.4953 44.4552 26.4777 44.1631V38.6148C26.4617 38.4573 26.4839 38.2986 26.5428 38.1488C26.6016 37.999 26.6959 37.8615 26.8195 37.7449C26.9432 37.6283 27.0936 37.5352 27.2611 37.4715C27.4286 37.4078 27.6096 37.3749 27.7927 37.3749C27.9757 37.3749 28.1567 37.4078 28.3242 37.4715C28.4917 37.5352 28.6421 37.6283 28.7658 37.7449C28.8894 37.8615 28.9837 37.999 29.0425 38.1488C29.1014 38.2986 29.1236 38.4573 29.1077 38.6148V44.1631C29.0876 44.456 28.9406 44.7315 28.696 44.9349C28.4514 45.1383 28.1271 45.2546 27.7877 45.2606Z" fill="black"/>
<path d="M58.1377 53.9906H28.3977C28.2153 54.0065 28.0317 53.9843 27.8584 53.9255C27.6851 53.8666 27.5259 53.7724 27.391 53.6487C27.2561 53.525 27.1484 53.3747 27.0747 53.2072C27.001 53.0396 26.9629 52.8586 26.9629 52.6756C26.9629 52.4926 27.001 52.3116 27.0747 52.144C27.1484 51.9765 27.2561 51.8261 27.391 51.7025C27.5259 51.5788 27.6851 51.4846 27.8584 51.4257C28.0317 51.3669 28.2153 51.3447 28.3977 51.3606H58.2377C58.5845 51.3657 58.9158 51.505 59.1619 51.7493C59.4081 51.9936 59.5499 52.3239 59.5577 52.6706C59.5135 53.0223 59.3471 53.3473 59.0875 53.5886C58.8279 53.8299 58.4917 53.9722 58.1377 53.9906Z" fill="black"/>
<path d="M58.1378 50.2106H42.2578C42.0755 50.2265 41.8918 50.2044 41.7185 50.1455C41.5452 50.0867 41.386 49.9924 41.2511 49.8687C41.1162 49.7451 41.0085 49.5947 40.9348 49.4272C40.8611 49.2597 40.823 49.0786 40.823 48.8956C40.823 48.7126 40.8611 48.5316 40.9348 48.3641C41.0085 48.1965 41.1162 48.0462 41.2511 47.9225C41.386 47.7988 41.5452 47.7046 41.7185 47.6457C41.8918 47.5869 42.0755 47.5647 42.2578 47.5806H58.1378C58.3201 47.5647 58.5038 47.5869 58.6771 47.6457C58.8503 47.7046 59.0095 47.7988 59.1444 47.9225C59.2794 48.0462 59.3871 48.1965 59.4608 48.3641C59.5345 48.5316 59.5726 48.7126 59.5726 48.8956C59.5726 49.0786 59.5345 49.2597 59.4608 49.4272C59.3871 49.5947 59.2794 49.7451 59.1444 49.8687C59.0095 49.9924 58.8503 50.0867 58.6771 50.1455C58.5038 50.2044 58.3201 50.2265 58.1378 50.2106Z" fill="black"/>
<path d="M34.1678 33.8306H13.9178C13.6467 33.8228 13.3847 33.7311 13.168 33.5681C12.9513 33.4051 12.7905 33.1789 12.7078 32.9206C12.6345 32.6603 12.6443 32.3836 12.7357 32.1291C12.8271 31.8745 12.9956 31.6549 13.2178 31.5006C24.8578 23.9906 32.9178 6.92061 33.0478 6.72061C33.1989 6.41523 33.463 6.18072 33.7841 6.06683C34.1052 5.95295 34.4581 5.96865 34.7678 6.11061C35.075 6.25973 35.3112 6.52374 35.4253 6.84559C35.5395 7.16743 35.5224 7.52126 35.3778 7.83061C33.7159 11.2573 31.8249 14.5682 29.7178 17.7406C26.4659 22.8408 22.4912 27.4421 17.9178 31.4006H32.9178V30.0806C32.9465 29.7516 33.0975 29.4454 33.3409 29.2223C33.5843 28.9992 33.9026 28.8754 34.2328 28.8754C34.563 28.8754 34.8812 28.9992 35.1247 29.2223C35.3681 29.4454 35.5191 29.7516 35.5478 30.0806V32.6106C35.4862 32.9385 35.317 33.2364 35.0671 33.4574C34.8172 33.6783 34.5007 33.8097 34.1678 33.8306Z" fill="black"/>
<path d="M45.4977 31.3006H34.1677C33.8217 31.2931 33.4918 31.1529 33.2461 30.9091C33.0005 30.6654 32.8578 30.3365 32.8477 29.9906V7.3206C32.8478 7.02314 32.9567 6.736 33.1537 6.51317C33.3508 6.29034 33.6225 6.14718 33.9177 6.1106C34.226 6.05894 34.5426 6.11925 34.8104 6.28064C35.0781 6.44202 35.2793 6.69384 35.3777 6.9906C35.3777 7.1906 39.9277 22.5706 46.3777 29.2406C46.5667 29.4183 46.6968 29.6497 46.7505 29.9035C46.8041 30.1574 46.7787 30.4216 46.6777 30.6606C46.5395 30.8469 46.3623 31.0007 46.1585 31.1112C45.9547 31.2218 45.7291 31.2864 45.4977 31.3006ZM35.3777 28.7706H42.7677C39.6277 24.7206 37.0977 19.1606 35.3777 14.7706V28.7706Z" fill="black"/>
</svg>
