<svg width="64" height="64" viewBox="0 0 64 64" fill="none" xmlns="http://www.w3.org/2000/svg">
<path d="M19.3381 16.5891C14.3157 28.3887 4.12561 52.4962 3.54468 54.5293L27.5978 55.074L39.7605 26.0287L43.4819 17.3152L19.3381 16.5891Z" fill="#F9C801"/>
<path d="M43.6958 55.4873C43.7331 48.942 43.7854 35.7393 43.6958 35.2917L53.0943 55.4873H43.6958Z" fill="#F9C801"/>
<path d="M62.346 24.8943V13.4943C62.346 12.1577 61.815 10.8757 60.8698 9.93053C59.9246 8.98534 58.6427 8.45435 57.306 8.45435C55.9693 8.45435 54.6874 8.98534 53.7422 9.93053C52.797 10.8757 52.266 12.1577 52.266 13.4943V24.7843C52.2707 25.9033 52.6507 26.9884 53.3451 27.8658C54.0394 28.7433 55.0081 29.3625 56.096 29.6243V42.2343L45.096 17.3243L47.016 14.0043C47.1181 13.8653 47.1902 13.7065 47.228 13.5382C47.2657 13.3698 47.2682 13.1955 47.2352 13.0261C47.2023 12.8568 47.1347 12.6961 47.0366 12.5542C46.9385 12.4122 46.8121 12.2921 46.6653 12.2014C46.5185 12.1108 46.3546 12.0514 46.1838 12.0272C46.013 12.003 45.839 12.0144 45.6728 12.0607C45.5066 12.107 45.3518 12.1872 45.2181 12.2962C45.0844 12.4053 44.9747 12.5408 44.896 12.6943L43.586 15.0143L41.986 12.6943C41.9017 12.5442 41.7869 12.4135 41.6489 12.3105C41.5109 12.2076 41.3529 12.1347 41.185 12.0967C41.0171 12.0587 40.8431 12.0564 40.6742 12.0899C40.5053 12.1233 40.3454 12.1919 40.2047 12.2911C40.064 12.3903 39.9457 12.5179 39.8574 12.6657C39.7691 12.8135 39.7129 12.9782 39.6922 13.1491C39.6716 13.32 39.6871 13.4934 39.7377 13.6579C39.7883 13.8225 39.8729 13.9745 39.986 14.1043L41.276 15.8943H21.856L23.066 14.0843C23.1791 13.9545 23.2637 13.8025 23.3143 13.6379C23.3649 13.4734 23.3804 13.3 23.3598 13.1291C23.3391 12.9582 23.2829 12.7935 23.1946 12.6457C23.1063 12.4979 22.988 12.3703 22.8473 12.2711C22.7066 12.1719 22.5467 12.1033 22.3778 12.0699C22.2089 12.0364 22.0349 12.0387 21.867 12.0767C21.6991 12.1147 21.5411 12.1876 21.4031 12.2905C21.2651 12.3935 21.1503 12.5242 21.066 12.6743L19.546 14.9943L17.986 12.7943C17.9017 12.6442 17.7869 12.5135 17.6489 12.4105C17.5109 12.3076 17.3529 12.2347 17.185 12.1967C17.0171 12.1587 16.8431 12.1564 16.6742 12.1899C16.5053 12.2233 16.3454 12.2919 16.2047 12.3911C16.064 12.4903 15.9457 12.6179 15.8574 12.7657C15.7691 12.9135 15.7129 13.0782 15.6922 13.2491C15.6716 13.42 15.6871 13.5934 15.7377 13.7579C15.7883 13.9225 15.8729 14.0745 15.986 14.2043L18.096 17.4343L4.376 48.9843V38.7043C4.37084 38.3585 4.23116 38.0283 3.9866 37.7837C3.74204 37.5392 3.41182 37.3995 3.066 37.3943C2.89964 37.3981 2.73574 37.4353 2.58406 37.5037C2.43238 37.5722 2.29602 37.6704 2.18311 37.7927C2.07021 37.9149 1.98306 38.0586 1.92686 38.2153C1.87066 38.3719 1.84656 38.5382 1.856 38.7043V55.2343C1.89554 55.5319 2.03839 55.806 2.25956 56.0089C2.48073 56.2118 2.76618 56.3305 3.066 56.3443H60.236C60.4487 56.3441 60.6578 56.2892 60.8432 56.1848C61.0286 56.0804 61.1839 55.9301 61.2944 55.7483C61.4049 55.5665 61.4668 55.3594 61.474 55.1468C61.4813 54.9342 61.4338 54.7233 61.336 54.5343L58.416 47.9743V29.7343C59.5224 29.492 60.5138 28.8812 61.2277 28.0019C61.9417 27.1226 62.336 26.027 62.346 24.8943ZM42.286 38.8943L42.186 53.8943H36.436L42.286 38.8943ZM44.806 39.3943L50.456 53.8243H44.706L44.806 39.3943ZM20.306 18.5343H41.786L26.256 53.8243H12.646L24.436 26.6043C24.5017 26.4592 24.5381 26.3026 24.5432 26.1434C24.5484 25.9842 24.5221 25.8256 24.4659 25.6765C24.4097 25.5275 24.3247 25.391 24.2158 25.2748C24.1069 25.1586 23.9761 25.065 23.831 24.9993C23.6859 24.9337 23.5293 24.8972 23.3701 24.8921C23.2109 24.887 23.0522 24.9133 22.9032 24.9694C22.7542 25.0256 22.6176 25.1106 22.5015 25.2195C22.3853 25.3285 22.2917 25.4592 22.226 25.6043L9.926 53.8243H5.086L20.306 18.5343ZM42.386 23.3743L42.286 31.8943C42.186 31.9943 42.386 31.6943 33.716 53.8943H28.976L42.386 23.3743ZM53.176 53.8243L44.906 32.5543L45.006 23.1743C45.916 25.1743 57.816 52.3143 58.516 53.8243H53.176ZM54.786 24.8943V13.4943C54.741 13.1395 54.7721 12.7791 54.8772 12.4372C54.9822 12.0953 55.1589 11.7797 55.3954 11.5114C55.6319 11.243 55.9228 11.0281 56.2487 10.8809C56.5747 10.7336 56.9283 10.6575 57.286 10.6575C57.6437 10.6575 57.9973 10.7336 58.3232 10.8809C58.6492 11.0281 58.9401 11.243 59.1766 11.5114C59.4131 11.7797 59.5898 12.0953 59.6948 12.4372C59.7999 12.7791 59.831 13.1395 59.786 13.4943V24.7843C59.7785 25.2361 59.6538 25.6782 59.4242 26.0674C59.1946 26.4565 58.8678 26.7794 58.476 27.0043V22.2643C58.4709 22.0984 58.4328 21.9352 58.3639 21.7841C58.295 21.6331 58.1967 21.4973 58.0747 21.3846C57.9528 21.272 57.8096 21.1848 57.6536 21.1281C57.4976 21.0714 57.3318 21.0463 57.166 21.0543C56.8366 21.058 56.5202 21.1837 56.2782 21.4073C56.0361 21.6308 55.8857 21.9362 55.856 22.2643V27.0043C55.5247 26.7612 55.2552 26.4435 55.0693 26.077C54.8834 25.7105 54.7864 25.3053 54.786 24.8943Z" fill="#B80000"/>
</svg>
