<svg width="64" height="63" viewBox="0 0 64 63" fill="none" xmlns="http://www.w3.org/2000/svg">
<path d="M16.2584 45.8033H14.1384C13.925 45.806 13.7131 45.7659 13.5153 45.6854C13.3176 45.605 13.1379 45.4858 12.9869 45.3348C12.836 45.1838 12.7167 45.0042 12.6363 44.8064C12.5558 44.6086 12.5158 44.3968 12.5184 44.1833V42.3633C12.5158 42.1498 12.5558 41.9379 12.6363 41.7402C12.7167 41.5424 12.836 41.3628 12.9869 41.2118C13.1379 41.0608 13.3176 40.9416 13.5153 40.8611C13.7131 40.7807 13.925 40.7406 14.1384 40.7433H22.8384C23.1614 40.7452 23.4768 40.8406 23.7466 41.0181C24.0164 41.1956 24.2289 41.4475 24.3584 41.7433C24.4399 41.9322 24.4742 42.1381 24.4584 42.3433V44.1633C24.4611 44.3768 24.4211 44.5886 24.3406 44.7864C24.2601 44.9842 24.1409 45.1638 23.9899 45.3148C23.839 45.4658 23.6593 45.585 23.4615 45.6654C23.2638 45.7459 23.0519 45.786 22.8384 45.7833H16.2584V45.8033Z" fill="#F9C801"/>
<path d="M46.6182 45.8037H40.2382C40.0247 45.8064 39.8129 45.7663 39.6151 45.6859C39.4174 45.6054 39.2377 45.4862 39.0867 45.3352C38.9358 45.1843 38.8165 45.0046 38.7361 44.8068C38.6556 44.6091 38.6155 44.3972 38.6182 44.1837V42.3637C38.6025 42.1586 38.6368 41.9527 38.7182 41.7637C38.8364 41.4598 39.0462 41.2003 39.3186 41.0211C39.591 40.8419 39.9124 40.7519 40.2382 40.7637H48.7382C48.9517 40.761 49.1636 40.8011 49.3613 40.8816C49.5591 40.962 49.7388 41.0813 49.8897 41.2322C50.0407 41.3832 50.1599 41.5629 50.2404 41.7606C50.3209 41.9584 50.3609 42.1702 50.3582 42.3837V44.2037C50.3609 44.4172 50.3209 44.6291 50.2404 44.8268C50.1599 45.0246 50.0407 45.2043 49.8897 45.3552C49.7388 45.5062 49.5591 45.6254 49.3613 45.7059C49.1636 45.7863 48.9517 45.8264 48.7382 45.8237H46.6182V45.8037Z" fill="#F9C801"/>
<path d="M31.5384 43.6836L27.3884 48.7336V59.6636H35.6884V48.7336L31.5384 43.6836Z" fill="#F9C801"/>
<path d="M47.9282 59.6633H35.6882V48.7433L38.8182 41.6533C38.7375 41.846 38.7032 42.055 38.7182 42.2633V44.0833C38.7155 44.2968 38.7556 44.5087 38.8361 44.7064C38.9165 44.9042 39.0358 45.0838 39.1867 45.2348C39.3377 45.3858 39.5174 45.505 39.7151 45.5855C39.9129 45.6659 40.1247 45.706 40.3382 45.7033H47.8282L48.9382 46.2133C50.6582 46.9233 52.1782 48.8433 53.1882 50.9633C54.1763 53.0214 54.7279 55.2617 54.8082 57.5433V59.6633H47.9282Z" fill="white"/>
<path d="M31.4384 3.21387C22.7384 3.21387 15.6184 6.65387 15.6184 10.8039C15.6184 13.0039 17.6184 15.0039 20.7184 16.3739H42.2584C45.3984 15.0039 47.3184 13.0039 47.3184 10.8039C47.2184 6.65387 40.1384 3.21387 31.4384 3.21387Z" fill="white"/>
<path d="M42.1583 18.793C42.0726 20.0507 41.515 21.2297 40.5971 22.0938C39.6792 22.9579 38.4688 23.4434 37.2083 23.453H25.6683C24.4077 23.4434 23.1973 22.9579 22.2794 22.0938C21.3615 21.2297 20.8039 20.0507 20.7183 18.793V16.373H42.2583V18.493C42.2205 18.5326 42.1919 18.58 42.1746 18.6318C42.1573 18.6837 42.1517 18.7388 42.1583 18.793Z" fill="#F9C801"/>
<path d="M42.1583 19.003V18.793C42.0726 20.0507 41.515 21.2296 40.5971 22.0937C39.6792 22.9578 38.4688 23.4433 37.2083 23.453H25.6683C24.4077 23.4433 23.1973 22.9578 22.2794 22.0937C21.3615 21.2296 20.8039 20.0507 20.7183 18.793V20.923C20.7317 21.9025 20.7985 22.8807 20.9183 23.853C21.5283 29.923 24.1583 34.473 27.6983 36.393C28.8477 37.0189 30.1298 37.3618 31.4383 37.393C32.7847 37.4094 34.1109 37.0641 35.2783 36.393C38.7183 34.473 41.3483 29.923 42.0583 23.853C42.178 22.8807 42.2448 21.9025 42.2583 20.923C42.1669 20.2873 42.1334 19.6447 42.1583 19.003Z" fill="white"/>
<path d="M38.9283 41.5532L38.8183 41.6532L35.6883 48.7432L31.5383 43.6832L35.2783 39.9332L36.3983 38.8232C37.0715 39.8773 37.9284 40.802 38.9283 41.5532Z" fill="#F9C801"/>
<path d="M35.2782 36.3936V39.9336L31.5382 43.6836L27.6982 39.8336V36.3936C28.8477 37.0195 30.1298 37.3623 31.4382 37.3936C32.7704 37.309 34.074 36.9695 35.2782 36.3936Z" fill="#F9C801"/>
<path d="M31.4383 7.87313C31.9387 7.87313 32.4278 8.02151 32.8439 8.29951C33.2599 8.57751 33.5842 8.97264 33.7757 9.43494C33.9672 9.89724 34.0173 10.4059 33.9197 10.8967C33.822 11.3875 33.5811 11.8383 33.2273 12.1921C32.8734 12.5459 32.4226 12.7869 31.9319 12.8845C31.4411 12.9821 30.9324 12.932 30.4701 12.7405C30.0078 12.5491 29.6127 12.2248 29.3347 11.8087C29.0567 11.3927 28.9083 10.9035 28.9083 10.4031C28.9056 10.0701 28.9692 9.73995 29.0954 9.4318C29.2216 9.12364 29.4079 8.84367 29.6434 8.60821C29.8788 8.37274 30.1588 8.18649 30.4669 8.06029C30.7751 7.93408 31.1053 7.87046 31.4383 7.87313Z" fill="#F9C801"/>
<path d="M32.7483 53.3936H30.2183V55.9236H32.7483V53.3936Z" fill="#B80000"/>
<path d="M32.7483 49.543H30.2183V52.073H32.7483V49.543Z" fill="#B80000"/>
<path d="M31.5383 43.6838L27.3883 48.7438L24.2583 41.6538C25.205 40.8454 26.054 39.9292 26.7883 38.9238L27.6983 39.8338L31.5383 43.6838Z" fill="#F9C801"/>
<path d="M15.0483 59.6633H8.47827V57.5433C8.53988 55.1835 9.12751 52.8671 10.1983 50.7633C11.1983 48.7633 12.6183 46.9233 14.3383 46.2133L15.4583 45.7033H22.8383C23.0518 45.706 23.2636 45.6659 23.4614 45.5855C23.6591 45.505 23.8388 45.3858 23.9898 45.2348C24.1407 45.0838 24.26 44.9042 24.3404 44.7064C24.4209 44.5087 24.461 44.2968 24.4583 44.0833V42.2633C24.4733 42.055 24.439 41.846 24.3583 41.6533L27.4883 48.7433V59.6633H15.0483Z" fill="white"/>
<path d="M31.4384 14.1433C30.6765 14.1453 29.9312 13.9212 29.2967 13.4994C28.6623 13.0775 28.1672 12.4769 27.8743 11.7736C27.5814 11.0703 27.5037 10.2959 27.6511 9.5484C27.7986 8.80091 28.1644 8.11398 28.7025 7.57454C29.2405 7.03511 29.9265 6.66744 30.6736 6.51807C31.4207 6.36871 32.1953 6.44436 32.8994 6.73547C33.6035 7.02657 34.2053 7.52002 34.6288 8.15337C35.0523 8.78671 35.2784 9.53146 35.2784 10.2933C35.2797 10.7985 35.1813 11.2989 34.9889 11.7659C34.7966 12.233 34.5139 12.6575 34.1572 13.0151C33.8005 13.3727 33.3767 13.6565 32.9102 13.8501C32.4436 14.0437 31.9435 14.1434 31.4384 14.1433ZM31.4384 9.08335C31.1769 9.08137 30.9207 9.1571 30.7023 9.30093C30.4839 9.44476 30.3132 9.65022 30.2117 9.89124C30.1103 10.1323 30.0827 10.398 30.1325 10.6547C30.1823 10.9114 30.3072 11.1475 30.4914 11.3331C30.6757 11.5187 30.9108 11.6455 31.1672 11.6972C31.4235 11.749 31.6894 11.7234 31.9312 11.6238C32.173 11.5242 32.3797 11.355 32.5252 11.1377C32.6707 10.9204 32.7484 10.6648 32.7484 10.4033C32.7408 10.0573 32.6007 9.72745 32.3569 9.48181C32.1131 9.23616 31.7843 9.09352 31.4384 9.08335Z" fill="#B80000"/>
<path d="M35.2783 41.2537C34.9315 41.2473 34.6013 41.1304 34.357 40.9275C34.1127 40.7246 33.9734 40.4515 33.9683 40.1657V37.2481C33.9817 36.9746 34.1197 36.7152 34.3549 36.5218C34.5901 36.3285 34.9051 36.2153 35.237 36.2049C35.569 36.1945 35.8935 36.2876 36.1458 36.4657C36.3981 36.6438 36.5597 36.8938 36.5983 37.1657V40.0833C36.578 40.3745 36.435 40.6508 36.194 40.8645C35.9531 41.0781 35.6292 41.2158 35.2783 41.2537Z" fill="#B80000"/>
<path d="M27.6982 41.0883C27.3505 41.082 27.0192 40.9653 26.7733 40.7627C26.5273 40.56 26.3858 40.2869 26.3782 40.0004V37.1652C26.4069 36.8941 26.5579 36.6417 26.8013 36.4578C27.0447 36.2739 27.363 36.1719 27.6932 36.1719C28.0234 36.1719 28.3416 36.2739 28.5851 36.4578C28.8285 36.6417 28.9795 36.8941 29.0082 37.1652V40.0004C28.9871 40.2818 28.8427 40.5474 28.6016 40.7476C28.3606 40.9477 28.0395 41.0688 27.6982 41.0883Z" fill="#B80000"/>
<path d="M35.6884 50.0033C35.4952 49.9937 35.3062 49.9433 35.1338 49.8554C34.9615 49.7675 34.8097 49.6441 34.6884 49.4933L30.5384 44.4933C30.3313 44.2485 30.2262 43.9334 30.2448 43.6133C30.2634 43.2932 30.4043 42.9924 30.6384 42.7733L35.3884 38.0133C35.5079 37.8931 35.6499 37.7977 35.8063 37.7324C35.9627 37.6671 36.1304 37.6333 36.2999 37.6328C36.4694 37.6324 36.6373 37.6653 36.794 37.7297C36.9508 37.7941 37.0933 37.8888 37.2134 38.0083C37.3336 38.1278 37.429 38.2698 37.4943 38.4262C37.5596 38.5826 37.5935 38.7503 37.5939 38.9198C37.5944 39.0892 37.5615 39.2571 37.497 39.4139C37.4326 39.5706 37.3379 39.7131 37.2184 39.8333L33.2184 43.8333L35.3384 46.4633L37.7084 41.0033C37.8411 40.7076 38.0857 40.4766 38.3886 40.3613C38.6914 40.246 39.0277 40.2557 39.3234 40.3883C39.6192 40.5209 39.8501 40.7655 39.9654 41.0684C40.0808 41.3713 40.0711 41.7076 39.9384 42.0033L39.8384 42.1033L36.6984 49.1833C36.62 49.3868 36.4833 49.5627 36.3054 49.6889C36.1276 49.8152 35.9165 49.8863 35.6984 49.8933C35.7884 50.0033 35.6884 50.0033 35.6884 50.0033Z" fill="#B80000"/>
<path d="M27.3884 50.0037H27.1884C26.98 49.9657 26.7824 49.8823 26.6097 49.7597C26.4369 49.637 26.2931 49.478 26.1884 49.2937L23.0484 42.2137V42.1137C22.9591 41.9598 22.9026 41.7889 22.8825 41.612C22.8624 41.4351 22.8792 41.256 22.9317 41.0859C22.9842 40.9158 23.0713 40.7584 23.1877 40.6236C23.304 40.4888 23.4469 40.3796 23.6075 40.3028C23.7681 40.2259 23.9429 40.1832 24.1208 40.1772C24.2987 40.1712 24.476 40.202 24.6414 40.2679C24.8068 40.3337 24.9568 40.4331 25.0819 40.5597C25.207 40.6864 25.3046 40.8376 25.3684 41.0037V41.1037L27.6984 46.2637L29.8184 43.6337L25.8784 39.6837C25.745 39.5676 25.637 39.4252 25.5609 39.2655C25.4848 39.1058 25.4425 38.9322 25.4364 38.7554C25.4303 38.5786 25.4606 38.4024 25.5255 38.2379C25.5903 38.0733 25.6883 37.9238 25.8134 37.7987C25.9385 37.6736 26.088 37.5756 26.2525 37.5108C26.4171 37.4459 26.5933 37.4156 26.7701 37.4217C26.9468 37.4278 27.1205 37.4702 27.2802 37.5462C27.4399 37.6223 27.5823 37.7303 27.6984 37.8637L32.4484 42.6237C32.6826 42.8429 32.8235 43.1436 32.8421 43.4638C32.8607 43.7839 32.7556 44.0989 32.5484 44.3437L28.3984 49.3937C28.3045 49.5801 28.1599 49.7362 27.9812 49.8441C27.8026 49.952 27.5971 50.0073 27.3884 50.0037Z" fill="#B80000"/>
<path d="M42.1584 17.5831H20.7184C20.3708 17.5754 20.0394 17.4339 19.7935 17.188C19.5476 16.9421 19.4061 16.6108 19.3984 16.2631V12.0031C19.4272 11.6741 19.5781 11.3678 19.8216 11.1447C20.065 10.9216 20.3832 10.7979 20.7134 10.7979C21.0437 10.7979 21.3619 10.9216 21.6053 11.1447C21.8488 11.3678 21.9997 11.6741 22.0284 12.0031V15.0031H41.0284V12.0031C41.0572 11.6741 41.2081 11.3678 41.4516 11.1447C41.695 10.9216 42.0132 10.7979 42.3434 10.7979C42.6737 10.7979 42.9919 10.9216 43.2353 11.1447C43.4788 11.3678 43.6297 11.6741 43.6584 12.0031V16.2531C43.5973 16.6125 43.4153 16.9402 43.1426 17.1821C42.8698 17.424 42.5226 17.5654 42.1584 17.5831Z" fill="#B80000"/>
<path d="M37.3082 24.6634H25.6682C24.1002 24.662 22.5912 24.0655 21.446 22.9945C20.3007 21.9235 19.6046 20.4578 19.4982 18.8934V17.1734C16.2582 15.5634 14.4382 13.3334 14.4382 10.8034C14.4382 8.27344 16.3682 6.00344 19.8082 4.33344C23.5 2.70569 27.5047 1.91022 31.5382 2.00344C35.5718 1.91022 39.5765 2.70569 43.2682 4.33344C46.7082 6.00344 48.6182 8.27344 48.6182 10.8034C48.6182 13.3334 46.8082 15.5634 43.6182 17.1734V18.8934C43.4694 20.4665 42.7413 21.9281 41.5752 22.9944C40.4091 24.0607 38.8883 24.6556 37.3082 24.6634ZM31.4382 4.43344C27.7839 4.33293 24.1539 5.05756 20.8182 6.55344C18.2882 7.77344 16.8682 9.28344 16.8682 10.8034C16.8682 12.3234 18.4882 14.0034 21.2182 15.2534C21.4433 15.3361 21.6348 15.4906 21.7631 15.693C21.8915 15.8955 21.9495 16.1347 21.9282 16.3734V18.6934C21.9846 19.6307 22.3991 20.5105 23.0859 21.1507C23.7727 21.791 24.6793 22.1428 25.6182 22.1334H37.2082C38.1385 22.13 39.0326 21.7725 39.7087 21.1335C40.3849 20.4945 40.7923 19.6221 40.8482 18.6934V16.3734C40.8484 16.1387 40.9153 15.9088 41.0409 15.7106C41.1666 15.5123 41.346 15.3538 41.5582 15.2534C44.2882 14.0434 45.8982 12.4234 45.8982 10.8034C45.8982 9.18344 44.4882 7.80344 41.9582 6.55344C38.6464 5.09359 35.057 4.37026 31.4382 4.43344Z" fill="#B80000"/>
<path d="M31.4384 38.6236C29.9198 38.6128 28.4266 38.2318 27.0884 37.5136C23.0884 35.3836 20.3084 30.3336 19.5984 24.0536C19.4984 23.0536 19.3984 22.0536 19.3984 21.0536V19.1036V18.8936C19.4062 18.5469 19.548 18.2166 19.7942 17.9723C20.0404 17.728 20.3717 17.5887 20.7184 17.5836C21.0479 17.5872 21.3643 17.713 21.6063 17.9365C21.8483 18.1601 21.9987 18.4655 22.0284 18.7936V18.8936V19.1036V21.0036C22.01 21.9481 22.0434 22.8928 22.1284 23.8336C22.7384 29.2936 24.9584 33.6436 28.2984 35.3636C29.2955 35.8958 30.4082 36.1743 31.5384 36.1743C32.6686 36.1743 33.7814 35.8958 34.7784 35.3636C38.0084 33.6436 40.3384 29.2936 40.9484 23.8336C41.0335 22.8928 41.0669 21.9481 41.0484 21.0036V19.1036V19.0036V18.8936C41.0561 18.5486 41.1966 18.2198 41.4406 17.9758C41.6846 17.7317 42.0134 17.5912 42.3584 17.5836C42.5229 17.5708 42.6882 17.5929 42.8435 17.6485C42.9989 17.7041 43.1407 17.7919 43.2597 17.9062C43.3786 18.0205 43.4721 18.1586 43.5339 18.3115C43.5958 18.4645 43.6246 18.6288 43.6184 18.7936V21.0036C43.6039 22.0064 43.5371 23.0078 43.4184 24.0036C42.7084 30.2836 39.9784 35.3336 35.9284 37.4636C34.542 38.1933 33.0048 38.5904 31.4384 38.6236Z" fill="#B80000"/>
<path d="M54.6184 61.0032H8.36835C8.02162 60.9955 7.69139 60.8536 7.44709 60.6074C7.20278 60.3613 7.06344 60.03 7.05835 59.6832V57.5432C7.14693 55.0124 7.76703 52.5286 8.87835 50.2532C9.78835 48.4332 11.3084 46.1132 13.6384 45.0932L14.7483 44.5932C14.9051 44.5157 15.0764 44.472 15.251 44.4649C15.4257 44.4578 15.6 44.4874 15.7625 44.5518C15.9251 44.6162 16.0723 44.714 16.1947 44.8388C16.3171 44.9637 16.4119 45.1128 16.4731 45.2766C16.5342 45.4404 16.5603 45.6152 16.5497 45.7897C16.5391 45.9642 16.492 46.1346 16.4115 46.2898C16.3309 46.4449 16.2187 46.5815 16.0821 46.6906C15.9455 46.7997 15.7875 46.8789 15.6183 46.9232L14.7083 47.4232C13.3883 47.9332 12.1783 49.3432 11.2683 51.3732C10.3139 53.293 9.79489 55.3997 9.74835 57.5432V58.3532H53.4484V57.5432C53.3542 55.4731 52.8761 53.4385 52.0383 51.5432C51.0383 49.4132 49.8083 47.9032 48.4883 47.3932L47.3783 46.8932C47.2254 46.8334 47.0856 46.7441 46.9672 46.6304C46.8487 46.5166 46.7538 46.3807 46.6878 46.2302C46.6219 46.0798 46.5863 45.9179 46.5829 45.7536C46.5796 45.5894 46.6086 45.4262 46.6684 45.2732C46.7281 45.1202 46.8174 44.9805 46.9312 44.862C47.0449 44.7435 47.1809 44.6486 47.3313 44.5827C47.4817 44.5167 47.6437 44.4811 47.8079 44.4777C47.9721 44.4744 48.1354 44.5034 48.2883 44.5632L49.3983 45.0632C51.8284 46.0632 53.3983 48.6032 54.2584 50.5332C55.3284 52.7441 55.9147 55.1578 55.9784 57.6132V59.7332C55.9244 60.0656 55.7616 60.3707 55.5154 60.6006C55.2692 60.8305 54.9537 60.9721 54.6184 61.0032Z" fill="#B80000"/>
<path d="M24.1585 42.8733C23.985 42.8731 23.8134 42.8365 23.655 42.7659C23.4965 42.6953 23.3546 42.5922 23.2385 42.4633C22.9979 42.2215 22.8628 41.8944 22.8628 41.5533C22.8628 41.2122 22.9979 40.885 23.2385 40.6433L23.3485 40.5433C24.2233 39.7952 25.0025 38.9421 25.6685 38.0033C25.7575 37.8657 25.8741 37.748 26.0108 37.6575C26.1475 37.5671 26.3015 37.5058 26.4629 37.4777C26.6244 37.4495 26.79 37.455 26.9493 37.4938C27.1085 37.5326 27.2581 37.604 27.3885 37.7033C27.6485 37.8973 27.8252 38.1828 27.8827 38.5021C27.9403 38.8214 27.8744 39.1507 27.6985 39.4233C26.8993 40.5219 25.9803 41.5281 24.9585 42.4233C24.8778 42.5632 24.7609 42.6788 24.6201 42.7579C24.4794 42.8371 24.3199 42.877 24.1585 42.8733Z" fill="#B80000"/>
<path d="M38.9284 42.7732C38.7795 42.7785 38.6311 42.7538 38.4919 42.7006C38.3527 42.6473 38.2257 42.5666 38.1184 42.4632C37.0499 41.6441 36.1241 40.6541 35.3784 39.5332C35.244 39.2682 35.2093 38.9637 35.2805 38.6752C35.3518 38.3867 35.5242 38.1334 35.7665 37.9614C36.0088 37.7893 36.3048 37.71 36.6007 37.7379C36.8965 37.7658 37.1725 37.8989 37.3784 38.1132C38.0423 39.0211 38.8222 39.838 39.6984 40.5432C39.95 40.7683 40.1103 41.0779 40.149 41.4133C40.1877 41.7487 40.1021 42.0867 39.9084 42.3632C39.646 42.6198 39.2954 42.7664 38.9284 42.7732Z" fill="#B80000"/>
<path d="M48.8383 47.0034H40.3383C39.9658 47.0034 39.597 46.9299 39.253 46.787C38.909 46.6442 38.5966 46.4348 38.3337 46.171C38.0707 45.9071 37.8625 45.594 37.7209 45.2495C37.5792 44.9049 37.507 44.5359 37.5083 44.1634V42.3634C37.5172 41.9853 37.5847 41.6108 37.7083 41.2534C37.9185 40.7324 38.2832 40.2882 38.7534 39.9807C39.2236 39.6732 39.7767 39.5171 40.3383 39.5334H48.8383C49.5889 39.5334 50.3087 39.8315 50.8394 40.3623C51.3702 40.893 51.6683 41.6128 51.6683 42.3634V44.1834C51.648 44.9266 51.343 45.6336 50.8164 46.1584C50.2897 46.6832 49.5816 46.9857 48.8383 47.0034ZM40.3383 42.0034C40.1383 42.0034 40.0383 42.1034 40.0383 42.2034V44.1234C40.0407 44.2032 40.0727 44.2792 40.1282 44.3365C40.1837 44.3939 40.2587 44.4284 40.3383 44.4334H48.8383C48.9172 44.4263 48.9909 44.3911 49.046 44.3342C49.1011 44.2773 49.1338 44.2025 49.1383 44.1234V42.2634C49.1336 42.1854 49.1005 42.1118 49.0452 42.0565C48.9899 42.0013 48.9163 41.9681 48.8383 41.9634L40.3383 42.0034Z" fill="#B80000"/>
<path d="M22.7383 47.0032H14.0383C13.6658 47.0032 13.297 46.9297 12.953 46.7868C12.609 46.644 12.2965 46.4347 12.0336 46.1708C11.7707 45.907 11.5624 45.5938 11.4208 45.2493C11.2792 44.9048 11.207 44.5357 11.2083 44.1632V42.3632C11.2069 41.9912 11.2792 41.6226 11.421 41.2787C11.5628 40.9347 11.7712 40.6222 12.0342 40.3592C12.2973 40.0961 12.6098 39.8877 12.9537 39.746C13.2977 39.6042 13.6663 39.5319 14.0383 39.5332H22.7383C23.2953 39.5381 23.8392 39.7028 24.3054 40.0077C24.7716 40.3126 25.1405 40.7449 25.3683 41.2532C25.483 41.6129 25.5503 41.9861 25.5683 42.3632V44.1832C25.5656 44.9321 25.2663 45.6493 24.7359 46.1779C24.2054 46.7064 23.4871 47.0032 22.7383 47.0032ZM14.0383 42.0032C13.9603 42.008 13.8867 42.0411 13.8314 42.0964C13.7761 42.1516 13.743 42.2252 13.7383 42.3032V44.1232C13.7406 44.203 13.7727 44.279 13.8282 44.3364C13.8837 44.3937 13.9586 44.4283 14.0383 44.4332H22.7383C22.8172 44.4261 22.8909 44.3909 22.9459 44.334C23.001 44.2771 23.0338 44.2023 23.0383 44.1232V42.1632C23.0383 42.0632 22.9383 41.9632 22.7383 41.9632L14.0383 42.0032Z" fill="#B80000"/>
<path d="M46.6185 47.0038C46.2717 46.996 45.9415 46.8542 45.6972 46.608C45.4529 46.3618 45.3136 46.0305 45.3085 45.6838V44.3938C45.2926 44.2114 45.3147 44.0278 45.3736 43.8545C45.4324 43.6812 45.5267 43.522 45.6504 43.3871C45.774 43.2522 45.9244 43.1444 46.0919 43.0707C46.2594 42.997 46.4404 42.959 46.6235 42.959C46.8065 42.959 46.9875 42.997 47.155 43.0707C47.3226 43.1444 47.4729 43.2522 47.5966 43.3871C47.7202 43.522 47.8145 43.6812 47.8734 43.8545C47.9322 44.0278 47.9544 44.2114 47.9385 44.3938V45.7038C47.9258 46.0479 47.782 46.3743 47.5367 46.6159C47.2913 46.8576 46.9628 46.9963 46.6185 47.0038Z" fill="#B80000"/>
<path d="M42.8684 47.003C42.5216 46.9953 42.1914 46.8534 41.9471 46.6073C41.7028 46.3611 41.5634 46.0298 41.5583 45.683V44.393C41.5583 44.0456 41.6964 43.7124 41.942 43.4667C42.1877 43.221 42.5209 43.083 42.8684 43.083C43.2158 43.083 43.549 43.221 43.7947 43.4667C44.0403 43.7124 44.1784 44.0456 44.1784 44.393V45.703C44.1361 46.0347 43.9843 46.3428 43.7469 46.5783C43.5096 46.8139 43.2004 46.9633 42.8684 47.003Z" fill="#B80000"/>
<path d="M20.1084 47.0038C19.7608 46.9961 19.4294 46.8546 19.1835 46.6087C18.9376 46.3628 18.7961 46.0315 18.7884 45.6838V44.3938C18.7725 44.2114 18.7947 44.0278 18.8536 43.8545C18.9124 43.6812 19.0067 43.522 19.1303 43.3871C19.254 43.2522 19.4044 43.1444 19.5719 43.0707C19.7394 42.997 19.9204 42.959 20.1034 42.959C20.2865 42.959 20.4675 42.997 20.635 43.0707C20.8025 43.1444 20.9529 43.2522 21.0766 43.3871C21.2002 43.522 21.2945 43.6812 21.3533 43.8545C21.4122 44.0278 21.4344 44.2114 21.4184 44.3938V45.7038C21.3762 46.0355 21.2244 46.3435 20.987 46.5791C20.7497 46.8146 20.4405 46.9641 20.1084 47.0038Z" fill="#B80000"/>
<path d="M16.2584 47.0038C15.9116 46.996 15.5814 46.8542 15.3371 46.608C15.0928 46.3618 14.9534 46.0305 14.9484 45.6838V44.3938C14.9324 44.2114 14.9546 44.0278 15.0135 43.8545C15.0723 43.6812 15.1666 43.522 15.2902 43.3871C15.4139 43.2522 15.5643 43.1444 15.7318 43.0707C15.8993 42.997 16.0803 42.959 16.2634 42.959C16.4464 42.959 16.6274 42.997 16.7949 43.0707C16.9624 43.1444 17.1128 43.2522 17.2365 43.3871C17.3601 43.522 17.4544 43.6812 17.5132 43.8545C17.5721 44.0278 17.5943 44.2114 17.5784 44.3938V45.7038C17.5657 46.0479 17.4219 46.3743 17.1766 46.6159C16.9312 46.8576 16.6027 46.9963 16.2584 47.0038Z" fill="#B80000"/>
<path d="M35.6883 61.0034C35.3406 60.9957 35.0093 60.8542 34.7634 60.6083C34.5175 60.3624 34.3759 60.0311 34.3683 59.6834V48.7434C34.3524 48.5611 34.3745 48.3774 34.4334 48.2041C34.4923 48.0308 34.5865 47.8716 34.7102 47.7367C34.8338 47.6018 34.9842 47.4941 35.1517 47.4204C35.3192 47.3467 35.5003 47.3086 35.6833 47.3086C35.8663 47.3086 36.0473 47.3467 36.2148 47.4204C36.3824 47.4941 36.5327 47.6018 36.6564 47.7367C36.7801 47.8716 36.8743 48.0308 36.9332 48.2041C36.992 48.3774 37.0142 48.5611 36.9983 48.7434V59.6634C36.982 60.0084 36.8396 60.3355 36.5981 60.5825C36.3566 60.8295 36.0329 60.9793 35.6883 61.0034Z" fill="#B80000"/>
<path d="M15.0483 61.0037C14.7016 60.9959 14.3713 60.8541 14.127 60.6079C13.8827 60.3617 13.7434 60.0304 13.7383 59.6837V54.6037C13.767 54.2747 13.918 53.9684 14.1614 53.7453C14.4048 53.5222 14.7231 53.3984 15.0533 53.3984C15.3835 53.3984 15.7017 53.5222 15.9452 53.7453C16.1886 53.9684 16.3396 54.2747 16.3683 54.6037V59.6637C16.3323 60.0034 16.1822 60.3209 15.9424 60.5643C15.7027 60.8077 15.3874 60.9626 15.0483 61.0037Z" fill="#B80000"/>
<path d="M47.9284 61.0037C47.5791 60.9933 47.2474 60.8479 47.003 60.598C46.7587 60.3481 46.6208 60.0131 46.6184 59.6637V54.6037C46.6471 54.2747 46.7981 53.9684 47.0415 53.7453C47.285 53.5222 47.6032 53.3984 47.9334 53.3984C48.2636 53.3984 48.5818 53.5222 48.8253 53.7453C49.0687 53.9684 49.2197 54.2747 49.2484 54.6037V59.6637C49.2142 60.0041 49.0646 60.3225 48.8245 60.5663C48.5844 60.81 48.2683 60.9643 47.9284 61.0037Z" fill="#B80000"/>
<path d="M37.9208 11.6135H34.4074C34.2406 11.6294 34.0726 11.6073 33.9141 11.5484C33.7555 11.4895 33.6099 11.3953 33.4864 11.2716C33.363 11.148 33.2644 10.9976 33.197 10.8301C33.1295 10.6626 33.0947 10.4815 33.0947 10.2985C33.0947 10.1155 33.1295 9.93447 33.197 9.76695C33.2644 9.59943 33.363 9.44906 33.4864 9.3254C33.6099 9.20174 33.7555 9.10749 33.9141 9.04863C34.0726 8.98978 34.2406 8.9676 34.4074 8.98352H37.9208C38.238 8.98861 38.5412 9.12795 38.7664 9.37225C38.9916 9.61655 39.1214 9.94678 39.1285 10.2935C39.0933 10.6303 38.9547 10.9442 38.7354 11.1839C38.5161 11.4236 38.2289 11.575 37.9208 11.6135Z" fill="#B80000"/>
<path d="M28.9083 11.6135H25.0683C24.886 11.6294 24.7024 11.6073 24.5291 11.5484C24.3558 11.4895 24.1966 11.3953 24.0617 11.2716C23.9267 11.148 23.819 10.9976 23.7453 10.8301C23.6716 10.6626 23.6335 10.4815 23.6335 10.2985C23.6335 10.1155 23.6716 9.93447 23.7453 9.76695C23.819 9.59943 23.9267 9.44906 24.0617 9.3254C24.1966 9.20174 24.3558 9.10749 24.5291 9.04863C24.7024 8.98978 24.886 8.9676 25.0683 8.98352H28.9083C29.2373 9.01223 29.5435 9.1632 29.7667 9.40664C29.9898 9.65008 30.1135 9.9683 30.1135 10.2985C30.1135 10.6287 29.9898 10.947 29.7667 11.1904C29.5435 11.4338 29.2373 11.5848 28.9083 11.6135Z" fill="#B80000"/>
<path d="M27.3882 61.0034C27.0415 60.9956 26.7113 60.8538 26.467 60.6076C26.2227 60.3615 26.0833 60.0302 26.0782 59.6834V48.7434C26.0623 48.5611 26.0845 48.3774 26.1434 48.2041C26.2022 48.0308 26.2965 47.8716 26.4201 47.7367C26.5438 47.6018 26.6942 47.4941 26.8617 47.4204C27.0292 47.3467 27.2102 47.3086 27.3932 47.3086C27.5763 47.3086 27.7573 47.3467 27.9248 47.4204C28.0923 47.4941 28.2427 47.6018 28.3664 47.7367C28.49 47.8716 28.5843 48.0308 28.6431 48.2041C28.702 48.3774 28.7242 48.5611 28.7082 48.7434V59.6634C28.6896 60.0093 28.545 60.3365 28.3019 60.5833C28.0588 60.8301 27.7339 60.9795 27.3882 61.0034Z" fill="#B80000"/>
</svg>
