<svg width="63" height="64" viewBox="0 0 63 64" fill="none" xmlns="http://www.w3.org/2000/svg">
<path d="M11.1404 23.8844V35.53H25.1169V27.3302H29.7788H33.3167H37.9786V35.53H51.9551V23.8844H11.1404Z" fill="#F9C801"/>
<path d="M42.6407 5.24597V8.69173H40.3097H37.9788V5.24597H42.6407Z" fill="#F9C801"/>
<path d="M34.4315 5.24597V8.69173H32.1098H29.7788V5.24597H34.4315Z" fill="#F9C801"/>
<path d="M26.3238 5.24597V8.69173H24.0021H21.6711V5.24597H26.3238Z" fill="#F9C801"/>
<path d="M11.2234 19.2225H7.68555V23.8844H11.2234V19.2225Z" fill="#F9C801"/>
<path d="M55.4932 19.2225H51.9553V23.8844H55.4932V19.2225Z" fill="#F9C801"/>
<path d="M33.3167 27.3302H29.7788V35.4378H33.3167V27.3302Z" fill="#F9C801"/>
<path d="M37.9788 27.3302H33.3169V35.4378H37.9788V27.3302Z" fill="#F9C801"/>
<path d="M29.7789 27.3302H25.1169V35.4378H29.7789V27.3302Z" fill="#F9C801"/>
<path d="M47.3025 27.3302H42.6406V30.7759H47.3025V27.3302Z" fill="#F9C801"/>
<path d="M20.4551 27.3302H15.7932V30.7759H20.4551V27.3302Z" fill="#F9C801"/>
<path d="M41.8113 12.2296C43.0263 12.2033 44.225 12.5118 45.2763 13.1211C46.3277 13.7305 47.1912 14.6173 47.7723 15.6846L51.8722 23.8844H11.1404L15.2403 15.6846C15.8157 14.6125 16.678 13.7216 17.7307 13.1115C18.7834 12.5014 19.985 12.196 21.2013 12.2296H41.8113Z" fill="white"/>
<path d="M54.2861 35.53L53.5398 38.2939C53.4026 38.8117 53.1013 39.2711 52.6811 39.6033C52.2609 39.9355 51.7444 40.1226 51.2089 40.1366H39.0934L37.8865 42.4676H24.9879L23.7718 40.1366H11.6932C11.154 40.1366 10.6305 39.9547 10.2075 39.6203C9.78449 39.286 9.48668 38.8186 9.36224 38.2939L8.61597 35.53H54.2861Z" fill="#F9C801"/>
<path d="M33.3167 42.5228H29.7788V47.1847H33.3167V42.5228Z" fill="#F9C801"/>
<path d="M49.6245 49.7921V52.9614H35.6479V49.5157H49.6245V49.7921Z" fill="#F9C801"/>
<path d="M27.4479 49.5157V52.9614H13.4622V49.7921V49.5157H27.4479Z" fill="#F9C801"/>
<path d="M35.6478 49.5157V52.9615H27.448V49.5157V47.1848H29.779H33.3168H35.6478V49.5157Z" fill="white"/>
<path d="M13.4622 49.5157V49.7921L9.36226 51.8467L5.35449 49.7921V45.1302L9.36226 47.1847L13.4622 45.1302V49.5157Z" fill="#F9C801"/>
<path d="M13.4623 54.1684V57.4391C13.4529 57.8051 13.3034 58.1536 13.0445 58.4125C12.7855 58.6714 12.4371 58.821 12.0711 58.8303H6.66287C6.29594 58.8211 5.94645 58.6718 5.68605 58.4131C5.42566 58.1545 5.2741 57.806 5.26245 57.4391V54.1684L9.36235 56.223L13.4623 54.1684Z" fill="#F9C801"/>
<path d="M57.741 54.1684V57.4391C57.7294 57.806 57.5778 58.1545 57.3174 58.4131C57.057 58.6718 56.7075 58.8211 56.3406 58.8303H50.9324C50.5655 58.8211 50.216 58.6718 49.9556 58.4131C49.6952 58.1545 49.5436 57.806 49.532 57.4391V54.1684L53.6319 56.223L57.741 54.1684Z" fill="#F9C801"/>
<path d="M57.7319 45.1302V49.7921L53.632 51.8467L49.6243 49.7921V49.5157V45.1302L53.632 47.1847L57.7319 45.1302Z" fill="#F9C801"/>
<path d="M57.7319 49.7921V54.1684L53.632 56.1308L49.6243 54.1684V52.9615V49.7921L53.632 51.8467L57.7319 49.7921Z" fill="#F9C801"/>
<path d="M53.6319 47.1847L49.532 45.1302V45.0381C49.5413 44.6696 49.6919 44.3188 49.9525 44.0581C50.2131 43.7975 50.5639 43.647 50.9324 43.6376H56.3406C56.7091 43.647 57.0599 43.7975 57.3205 44.0581C57.5811 44.3188 57.7317 44.6696 57.741 45.0381V45.1302L53.6319 47.1847Z" fill="#F9C801"/>
<path d="M13.4622 52.9615V54.1684L9.36226 56.1308L5.35449 54.1684V49.7921L9.36226 51.8467L13.4622 49.7921V52.9615Z" fill="#F9C801"/>
<path d="M12.0711 43.6376C12.4386 43.6471 12.7884 43.7979 13.0476 44.0588C13.3067 44.3196 13.4553 44.6704 13.4623 45.0381V45.1302L9.36235 47.1847L5.26245 45.1302V45.0381C5.27178 44.6696 5.42232 44.3188 5.68296 44.0581C5.94359 43.7975 6.29439 43.647 6.66287 43.6376H12.0711Z" fill="#F9C801"/>
<path d="M29.7789 43.6376H25.117C24.903 43.6376 24.6934 43.5771 24.5125 43.4629C24.3315 43.3488 24.1865 43.1858 24.0943 42.9927L23.2559 41.3159H11.8775C11.0811 41.3223 10.3061 41.0576 9.67994 40.5654C9.05377 40.0732 8.61361 39.3826 8.43177 38.6072L7.72235 35.8156C7.68044 35.6396 7.67602 35.4568 7.70935 35.279C7.74268 35.1013 7.81303 34.9325 7.91582 34.7837C8.0226 34.6401 8.16159 34.5236 8.32162 34.4436C8.48165 34.3636 8.65823 34.3223 8.83715 34.323H11.1405C11.4551 34.3347 11.7534 34.4661 11.9744 34.6905C12.1953 34.9149 12.3221 35.2151 12.329 35.5299C12.3242 35.6832 12.2892 35.834 12.2258 35.9737C12.1624 36.1133 12.072 36.239 11.9598 36.3436C11.8476 36.4481 11.7158 36.5293 11.572 36.5826C11.4282 36.6359 11.2753 36.6601 11.122 36.654H10.2928L10.6706 38.0267C10.7359 38.2953 10.8914 38.5333 11.111 38.701C11.3307 38.8687 11.6013 38.9559 11.8775 38.9481H24.0022C24.2159 38.9491 24.425 39.0102 24.6058 39.1242C24.7866 39.2382 24.9318 39.4006 25.0249 39.593L25.8633 41.279H29.7789C30.0975 41.2838 30.4018 41.4125 30.6271 41.6378C30.8524 41.8631 30.9811 42.1673 30.9858 42.486C30.9874 42.6423 30.9567 42.7974 30.8959 42.9415C30.8351 43.0855 30.7453 43.2156 30.6321 43.3235C30.519 43.4315 30.3849 43.5151 30.2381 43.5691C30.0913 43.6231 29.935 43.6465 29.7789 43.6376Z" fill="black"/>
<path d="M37.9786 43.6377H33.3167C33.0136 43.6112 32.7315 43.4721 32.5259 43.2478C32.3203 43.0236 32.2063 42.7304 32.2063 42.4261C32.2063 42.1219 32.3203 41.8287 32.5259 41.6044C32.7315 41.3801 33.0136 41.241 33.3167 41.2146H37.2047L38.0431 39.5378C38.1357 39.3443 38.2806 39.1806 38.4612 39.065C38.6419 38.9494 38.8513 38.8866 39.0658 38.8836H51.2089C51.4836 38.8808 51.7501 38.7897 51.9691 38.6238C52.1881 38.4579 52.3479 38.226 52.425 37.9623L52.7935 36.5711H51.9459C51.6428 36.5446 51.3607 36.4055 51.1551 36.1813C50.9496 35.957 50.8355 35.6638 50.8355 35.3596C50.8355 35.0553 50.9496 34.7621 51.1551 34.5378C51.3607 34.3136 51.6428 34.1745 51.9459 34.148H54.2769C54.457 34.1485 54.6345 34.1906 54.7957 34.271C54.9569 34.3514 55.0973 34.4679 55.2061 34.6114C55.3149 34.755 55.389 34.9217 55.4228 35.0986C55.4566 35.2755 55.4491 35.4578 55.4009 35.6313L54.6546 38.3953C54.4574 39.1635 54.0115 39.8448 53.3866 40.3331C52.7616 40.8214 51.9927 41.0892 51.1996 41.0948H39.8397L39.0473 42.7993C38.9811 43.0343 38.8418 43.2421 38.6497 43.3928C38.4576 43.5435 38.2226 43.6293 37.9786 43.6377Z" fill="black"/>
<path d="M51.9462 36.654H37.9789C37.8109 36.6686 37.6417 36.6482 37.482 36.594C37.3224 36.5398 37.1757 36.4529 37.0514 36.339C36.9271 36.2251 36.8279 36.0865 36.76 35.9322C36.692 35.7778 36.657 35.6111 36.657 35.4424C36.657 35.2738 36.692 35.107 36.76 34.9527C36.8279 34.7984 36.9271 34.6598 37.0514 34.5459C37.1757 34.432 37.3224 34.3451 37.482 34.2909C37.6417 34.2367 37.8109 34.2162 37.9789 34.2309H50.7485V23.8844C50.7338 23.7164 50.7542 23.5472 50.8085 23.3876C50.8627 23.2279 50.9495 23.0813 51.0635 22.9569C51.1774 22.8326 51.3159 22.7334 51.4703 22.6655C51.6246 22.5976 51.7914 22.5625 51.96 22.5625C52.1286 22.5625 52.2954 22.5976 52.4498 22.6655C52.6041 22.7334 52.7426 22.8326 52.8566 22.9569C52.9705 23.0813 53.0573 23.2279 53.1116 23.3876C53.1658 23.5472 53.1862 23.7164 53.1716 23.8844V35.53C53.117 35.8249 52.9679 36.0941 52.7468 36.2969C52.5258 36.4997 52.2448 36.625 51.9462 36.654Z" fill="black"/>
<path d="M25.117 36.654H11.1404C10.8201 36.6469 10.5148 36.5166 10.2883 36.29C10.0617 36.0634 9.93133 35.7582 9.92428 35.4378V23.8844C9.90962 23.7164 9.93005 23.5472 9.98428 23.3876C10.0385 23.2279 10.1253 23.0813 10.2393 22.9569C10.3532 22.8326 10.4917 22.7334 10.6461 22.6655C10.8004 22.5976 10.9672 22.5625 11.1358 22.5625C11.3045 22.5625 11.4712 22.5976 11.6256 22.6655C11.7799 22.7334 11.9185 22.8326 12.0324 22.9569C12.1463 23.0813 12.2332 23.2279 12.2874 23.3876C12.3416 23.5472 12.362 23.7164 12.3474 23.8844V34.4152H25.2275C25.547 34.4199 25.8522 34.5482 26.0791 34.7733C26.3059 34.9984 26.4365 35.3027 26.4437 35.6221C26.4255 35.7775 26.3766 35.9276 26.2998 36.0639C26.223 36.2002 26.1199 36.3198 25.9964 36.4159C25.8729 36.5119 25.7316 36.5824 25.5806 36.6233C25.4296 36.6642 25.272 36.6746 25.117 36.654Z" fill="black"/>
<path d="M51.9461 24.9992H11.1405C10.9363 24.9939 10.7363 24.9402 10.5569 24.8425C10.3775 24.7448 10.2238 24.6059 10.1086 24.4372C9.93229 24.0791 9.89933 23.6671 10.0165 23.2855L14.1164 15.0857C14.8067 13.8174 15.8331 12.7638 17.083 12.0405C18.3328 11.3172 19.7578 10.9523 21.2014 10.9858H41.8115C43.2516 10.9642 44.6706 11.3343 45.9169 12.0564C47.1631 12.7785 48.1898 13.8255 48.8873 15.0857L52.9872 23.2855C53.0926 23.4652 53.1379 23.6738 53.1164 23.881C53.0948 24.0882 53.0076 24.2831 52.8674 24.4372C52.7824 24.6081 52.6508 24.7516 52.4878 24.851C52.3248 24.9505 52.137 25.0018 51.9461 24.9992ZM13.0016 22.6682H50.0021L46.7406 16.1452C46.2429 15.2823 45.5212 14.5699 44.6519 14.0834C43.7827 13.5969 42.7981 13.3543 41.8023 13.3813H21.2014C20.2056 13.3543 19.221 13.5969 18.3517 14.0834C17.4825 14.5699 16.7608 15.2823 16.2631 16.1452L13.0016 22.6682Z" fill="black"/>
<path d="M20.455 31.9921H15.7931C15.4737 31.9849 15.1694 31.8542 14.9443 31.6274C14.7193 31.4006 14.5909 31.0954 14.5862 30.7759V27.3301C14.5909 27.0115 14.7196 26.7073 14.9449 26.482C15.1703 26.2566 15.4745 26.128 15.7931 26.1232H20.455C20.7745 26.1279 21.0798 26.2563 21.3066 26.4814C21.5334 26.7064 21.6641 27.0107 21.6712 27.3301V30.868C21.6458 31.1736 21.5069 31.4585 21.2817 31.6666C21.0566 31.8747 20.7616 31.9908 20.455 31.9921ZM17.0093 29.6611H19.3402V28.4542H17.0093V29.6611Z" fill="black"/>
<path d="M47.3395 31.9921H42.6407C42.3204 31.985 42.0151 31.8546 41.7886 31.6281C41.562 31.4015 41.4316 31.0962 41.4246 30.7759V27.3301C41.4317 27.0107 41.5624 26.7064 41.7892 26.4814C42.016 26.2563 42.3212 26.1279 42.6407 26.1232H47.3395C47.6581 26.128 47.9623 26.2566 48.1876 26.482C48.413 26.7073 48.5417 27.0115 48.5464 27.3301V30.868C48.4928 31.1602 48.3464 31.4274 48.129 31.6298C47.9116 31.8323 47.6347 31.9593 47.3395 31.9921ZM43.7924 29.6611H46.1233V28.4542H43.7555L43.7924 29.6611Z" fill="black"/>
<path d="M37.9787 36.654H25.0802C24.7598 36.6469 24.4546 36.5165 24.228 36.29C24.0014 36.0634 23.8711 35.7581 23.864 35.4378V27.3301C23.8711 27.0107 24.0018 26.7064 24.2286 26.4814C24.4554 26.2563 24.7607 26.1279 25.0802 26.1232H37.9787C38.2974 26.128 38.6016 26.2566 38.8269 26.482C39.0522 26.7073 39.1809 27.0115 39.1857 27.3301V35.5299C39.1334 35.8228 38.9875 36.0907 38.7698 36.2934C38.5521 36.4961 38.2745 36.6227 37.9787 36.654ZM26.324 34.3414H36.7626V28.4542H26.324V34.3414Z" fill="black"/>
<path d="M33.3168 36.654C32.9973 36.6469 32.6931 36.5162 32.468 36.2894C32.2429 36.0626 32.1146 35.7573 32.1099 35.4378V27.3302C32.1363 27.0271 32.2754 26.7449 32.4997 26.5394C32.724 26.3338 33.0172 26.2198 33.3214 26.2198C33.6256 26.2198 33.9188 26.3338 34.1431 26.5394C34.3674 26.7449 34.5065 27.0271 34.533 27.3302V35.53C34.4788 35.8235 34.3311 36.0917 34.1119 36.2943C33.8927 36.4969 33.6137 36.6231 33.3168 36.654Z" fill="black"/>
<path d="M29.7791 36.654C29.4588 36.6469 29.1535 36.5165 28.927 36.29C28.7004 36.0634 28.57 35.7582 28.563 35.4378V27.3302C28.5894 27.0271 28.7285 26.7449 28.9528 26.5394C29.1771 26.3338 29.4703 26.2198 29.7745 26.2198C30.0788 26.2198 30.372 26.3338 30.5962 26.5394C30.8205 26.7449 30.9596 27.0271 30.9861 27.3302V35.53C30.9629 35.8347 30.8259 36.1195 30.6023 36.3278C30.3786 36.5361 30.0847 36.6525 29.7791 36.654Z" fill="black"/>
<path d="M33.3169 48.2995C32.9983 48.2948 32.694 48.1661 32.4687 47.9408C32.2434 47.7155 32.1147 47.4112 32.1099 47.0926V43.5547H30.8938V47.1018C30.8673 47.4049 30.7282 47.6871 30.504 47.8926C30.2797 48.0982 29.9865 48.2122 29.6822 48.2122C29.378 48.2122 29.0848 48.0982 28.8605 47.8926C28.6363 47.6871 28.4972 47.4049 28.4707 47.1018V42.4307C28.4777 42.1104 28.6081 41.8051 28.8347 41.5785C29.0613 41.352 29.3665 41.2216 29.6869 41.2145H33.2247C33.5451 41.2216 33.8503 41.352 34.0769 41.5785C34.3035 41.8051 34.4339 42.1104 34.4409 42.4307V47.0926C34.4395 47.3982 34.323 47.6921 34.1147 47.9157C33.9065 48.1394 33.6216 48.2764 33.3169 48.2995Z" fill="black"/>
<path d="M49.6243 50.6305H35.6478C35.3447 50.604 35.0625 50.4649 34.8569 50.2407C34.6514 50.0164 34.5374 49.7232 34.5374 49.4189C34.5374 49.1147 34.6514 48.8215 34.8569 48.5972C35.0625 48.3729 35.3447 48.2339 35.6478 48.2074H49.6243C49.9446 48.2144 50.2499 48.3448 50.4764 48.5714C50.703 48.798 50.8334 49.1032 50.8404 49.4235C50.803 49.7322 50.6626 50.0192 50.442 50.2382C50.2213 50.4572 49.9332 50.5954 49.6243 50.6305Z" fill="black"/>
<path d="M49.6243 54.1684H35.6478C35.3447 54.1419 35.0625 54.0028 34.8569 53.7786C34.6514 53.5543 34.5374 53.2611 34.5374 52.9568C34.5374 52.6526 34.6514 52.3594 34.8569 52.1351C35.0625 51.9108 35.3447 51.7718 35.6478 51.7453H49.6243C49.9446 51.7523 50.2499 51.8827 50.4764 52.1093C50.703 52.3359 50.8334 52.6411 50.8404 52.9615C50.8046 53.2707 50.6647 53.5586 50.4438 53.7779C50.2228 53.9973 49.9338 54.1349 49.6243 54.1684Z" fill="black"/>
<path d="M27.4482 50.6305H13.4624C13.1594 50.604 12.8772 50.4649 12.6716 50.2407C12.4661 50.0164 12.3521 49.7232 12.3521 49.4189C12.3521 49.1147 12.4661 48.8215 12.6716 48.5972C12.8772 48.3729 13.1594 48.2339 13.4624 48.2074H27.4482C27.7513 48.2339 28.0334 48.3729 28.239 48.5972C28.4446 48.8215 28.5586 49.1147 28.5586 49.4189C28.5586 49.7232 28.4446 50.0164 28.239 50.2407C28.0334 50.4649 27.7513 50.604 27.4482 50.6305Z" fill="black"/>
<path d="M27.4482 54.1684H13.4624C13.1594 54.1419 12.8772 54.0028 12.6716 53.7786C12.4661 53.5543 12.3521 53.2611 12.3521 52.9568C12.3521 52.6526 12.4661 52.3594 12.6716 52.1351C12.8772 51.9108 13.1594 51.7718 13.4624 51.7453H27.4482C27.7513 51.7718 28.0334 51.9108 28.239 52.1351C28.4446 52.3594 28.5586 52.6526 28.5586 52.9568C28.5586 53.2611 28.4446 53.5543 28.239 53.7786C28.0334 54.0028 27.7513 54.1419 27.4482 54.1684Z" fill="black"/>
<path d="M35.6479 54.1684H27.4481C27.1286 54.1637 26.8234 54.0353 26.5966 53.8103C26.3698 53.5852 26.2391 53.2809 26.2319 52.9615V47.0926C26.239 46.7723 26.3694 46.467 26.5959 46.2405C26.8225 46.0139 27.1278 45.8835 27.4481 45.8765H35.6479C35.9682 45.8835 36.2735 46.0139 36.5 46.2405C36.7266 46.467 36.857 46.7723 36.864 47.0926V52.9615C36.8266 53.2701 36.6863 53.5571 36.4656 53.7761C36.2449 53.9952 35.9568 54.1334 35.6479 54.1684ZM28.655 51.8467H34.5331V48.2996H28.655V51.8467Z" fill="black"/>
<path d="M56.341 59.9543H50.9328C50.2461 59.9543 49.587 59.6834 49.0988 59.2004C48.6106 58.7174 48.3327 58.0613 48.3255 57.3746V45.038C48.3242 44.6953 48.3908 44.3557 48.5214 44.0388C48.6521 43.7219 48.8441 43.434 49.0864 43.1916C49.3288 42.9493 49.6167 42.7573 49.9336 42.6267C50.2505 42.4961 50.5901 42.4295 50.9328 42.4307H56.341C56.6837 42.4295 57.0233 42.4961 57.3402 42.6267C57.6571 42.7573 57.945 42.9493 58.1874 43.1916C58.4297 43.434 58.6218 43.7219 58.7524 44.0388C58.883 44.3557 58.9496 44.6953 58.9483 45.038V57.4391C58.9291 58.1161 58.6453 58.7585 58.1579 59.2287C57.6705 59.6989 57.0182 59.9594 56.341 59.9543ZM51.0249 44.8538C50.9531 44.8581 50.8853 44.8887 50.8344 44.9396C50.7834 44.9905 50.7529 45.0583 50.7485 45.1302V57.5312C50.7529 57.6031 50.7834 57.6709 50.8344 57.7218C50.8853 57.7727 50.9531 57.8033 51.0249 57.8076H56.341C56.4129 57.8033 56.4807 57.7727 56.5316 57.7218C56.5825 57.6709 56.613 57.6031 56.6174 57.5312V45.038C56.613 44.9662 56.5825 44.8984 56.5316 44.8474C56.4807 44.7965 56.4129 44.766 56.341 44.7616H51.0249V44.8538Z" fill="black"/>
<path d="M53.6321 48.2995C53.4431 48.314 53.2534 48.2824 53.0793 48.2074L48.9794 46.162C48.7029 46.0178 48.4912 45.7741 48.3869 45.4802C48.2827 45.1862 48.2935 44.8636 48.4174 44.5774C48.56 44.2993 48.8035 44.0862 49.0981 43.9817C49.3927 43.8772 49.7161 43.8893 50.0021 44.0154L53.54 45.7843L57.0871 44.0154C57.3717 43.8797 57.6986 43.8628 57.9958 43.9682C58.293 44.0736 58.5361 44.2927 58.6717 44.5774C58.8074 44.862 58.8243 45.1889 58.7189 45.4861C58.6135 45.7833 58.3944 46.0264 58.1097 46.162L54.0098 48.2074C54.0098 48.2995 53.7887 48.2995 53.6321 48.2995Z" fill="black"/>
<path d="M53.632 52.9615C53.443 52.976 53.2533 52.9444 53.0792 52.8694L48.9793 50.8148C48.8262 50.756 48.6869 50.6661 48.5702 50.5508C48.4535 50.4355 48.362 50.2973 48.3013 50.1449C48.2407 49.9925 48.2122 49.8292 48.2177 49.6653C48.2232 49.5014 48.2626 49.3404 48.3334 49.1924C48.4042 49.0444 48.5049 48.9127 48.6291 48.8056C48.7532 48.6984 48.8982 48.6181 49.055 48.5697C49.2117 48.5213 49.3767 48.5059 49.5397 48.5244C49.7027 48.543 49.8601 48.595 50.0019 48.6773L53.5398 50.4463L57.087 48.6773C57.2288 48.595 57.3862 48.543 57.5492 48.5244C57.7122 48.5059 57.8772 48.5213 58.0339 48.5697C58.1907 48.6181 58.3357 48.6984 58.4598 48.8056C58.584 48.9127 58.6847 49.0444 58.7555 49.1924C58.8263 49.3404 58.8657 49.5014 58.8712 49.6653C58.8767 49.8292 58.8482 49.9925 58.7876 50.1449C58.7269 50.2973 58.6354 50.4355 58.5187 50.5508C58.402 50.6661 58.2627 50.756 58.1096 50.8148L54.0097 52.8694C54.0097 52.9615 53.7886 52.9615 53.632 52.9615Z" fill="black"/>
<path d="M53.6323 57.3746C53.4433 57.3891 53.2536 57.3575 53.0795 57.2825L48.9796 55.2371C48.6949 55.1015 48.4758 54.8584 48.3704 54.5612C48.265 54.264 48.282 53.9371 48.4176 53.6524C48.5532 53.3678 48.7963 53.1486 49.0935 53.0432C49.3907 52.9378 49.7176 52.9548 50.0023 53.0904L53.5402 54.8594L57.0873 53.0904C57.3719 52.9548 57.6988 52.9378 57.996 53.0432C58.2932 53.1486 58.5363 53.3678 58.6719 53.6524C58.8076 53.9371 58.8245 54.264 58.7191 54.5612C58.6137 54.8584 58.3946 55.1015 58.1099 55.2371L54.01 57.2825C53.8921 57.3397 53.7633 57.3711 53.6323 57.3746Z" fill="black"/>
<path d="M12.0711 59.9543H6.66291C5.97297 59.9592 5.30921 59.6905 4.81704 59.2069C4.32487 58.7234 4.04442 58.0645 4.03713 57.3746V45.038C4.03591 44.6953 4.10252 44.3557 4.23312 44.0388C4.36372 43.7219 4.55573 43.434 4.79809 43.1916C5.04045 42.9493 5.32836 42.7573 5.64525 42.6267C5.96214 42.4961 6.30174 42.4295 6.64448 42.4307H12.0711C12.4135 42.4307 12.7525 42.4981 13.0689 42.6292C13.3852 42.7602 13.6727 42.9522 13.9148 43.1944C14.1569 43.4365 14.3489 43.7239 14.48 44.0402C14.611 44.3566 14.6784 44.6956 14.6784 45.038V57.4391C14.6592 58.1161 14.3754 58.7585 13.888 59.2287C13.4006 59.6989 12.7483 59.9594 12.0711 59.9543ZM6.80111 44.8538C6.72923 44.8581 6.66143 44.8887 6.61052 44.9396C6.5596 44.9905 6.52908 45.0583 6.52471 45.1302V57.5312C6.52908 57.6031 6.5596 57.6709 6.61052 57.7218C6.66143 57.7727 6.72923 57.8033 6.80111 57.8076H12.1632C12.2351 57.8033 12.3029 57.7727 12.3538 57.7218C12.4047 57.6709 12.4353 57.6031 12.4396 57.5312V45.038C12.4353 44.9662 12.4047 44.8984 12.3538 44.8474C12.3029 44.7965 12.2351 44.766 12.1632 44.7616H6.80111V44.8538Z" fill="black"/>
<path d="M9.36232 48.2995C9.17331 48.314 8.9836 48.2824 8.80952 48.2074L4.70962 46.1621C4.43308 46.0178 4.22141 45.7741 4.11715 45.4802C4.01289 45.1862 4.02377 44.8636 4.14761 44.5774C4.29025 44.2993 4.53377 44.0862 4.82835 43.9817C5.12293 43.8772 5.4463 43.8893 5.73229 44.0154L9.27018 45.7843L12.8173 44.0154C12.9582 43.9482 13.111 43.9095 13.267 43.9014C13.4229 43.8933 13.5789 43.916 13.726 43.9682C13.8732 44.0204 14.0086 44.101 14.1246 44.2055C14.2406 44.3101 14.3348 44.4364 14.402 44.5774C14.4691 44.7183 14.5078 44.8711 14.5159 45.027C14.524 45.183 14.5014 45.339 14.4492 45.4861C14.397 45.6333 14.3163 45.7687 14.2118 45.8847C14.1073 46.0006 13.9809 46.0949 13.84 46.1621L9.74006 48.2074C9.74006 48.2995 9.56501 48.2995 9.36232 48.2995Z" fill="black"/>
<path d="M9.36232 52.9615C9.17331 52.976 8.9836 52.9444 8.80952 52.8694L4.70962 50.8148C4.43308 50.6705 4.22141 50.4269 4.11715 50.1329C4.01289 49.8389 4.02377 49.5164 4.14761 49.2301C4.29182 48.9536 4.53602 48.7425 4.83045 48.6398C5.12488 48.5371 5.4474 48.5505 5.73229 48.6773L9.27018 50.4463L12.8173 48.6773C12.9592 48.595 13.1165 48.543 13.2795 48.5244C13.4425 48.5059 13.6075 48.5213 13.7643 48.5697C13.921 48.6181 14.066 48.6984 14.1902 48.8056C14.3144 48.9127 14.415 49.0444 14.4858 49.1924C14.5566 49.3404 14.596 49.5014 14.6015 49.6653C14.6071 49.8292 14.5786 49.9925 14.5179 50.1449C14.4573 50.2973 14.3657 50.4355 14.249 50.5508C14.1324 50.6661 13.9931 50.756 13.84 50.8148L9.74006 52.8694C9.74006 52.9615 9.56501 52.9615 9.36232 52.9615Z" fill="black"/>
<path d="M9.36232 57.3746C9.17331 57.3892 8.9836 57.3576 8.80952 57.2825L4.70962 55.2003C4.43308 55.056 4.22141 54.8124 4.11715 54.5184C4.01289 54.2245 4.02377 53.9019 4.14761 53.6156C4.2919 53.3391 4.53551 53.1274 4.82949 53.0232C5.12346 52.9189 5.44601 52.9298 5.73229 53.0536L9.27018 54.8226L12.8173 53.0536C12.9582 52.9865 13.111 52.9477 13.267 52.9396C13.4229 52.9316 13.5789 52.9542 13.726 53.0064C13.8732 53.0586 14.0086 53.1393 14.1246 53.2438C14.2406 53.3483 14.3348 53.4747 14.402 53.6156C14.4691 53.7566 14.5078 53.9094 14.5159 54.0653C14.524 54.2212 14.5014 54.3772 14.4492 54.5244C14.397 54.6715 14.3163 54.807 14.2118 54.9229C14.1073 55.0389 13.9809 55.1332 13.84 55.2003L9.74006 57.2457C9.62508 57.3157 9.49614 57.3598 9.36232 57.3746Z" fill="black"/>
<path d="M26.3239 9.89867H21.6712C21.3517 9.89398 21.0465 9.76559 20.8197 9.54051C20.5929 9.31543 20.4622 9.01118 20.4551 8.69173V5.15383C20.4621 4.8335 20.5925 4.52824 20.8191 4.30168C21.0456 4.07512 21.3509 3.94473 21.6712 3.93768L26.3239 3.93768C26.6443 3.94473 26.9495 4.07512 27.1761 4.30168C27.4026 4.52824 27.533 4.8335 27.5401 5.15383V8.69173C27.5043 9.001 27.3644 9.28891 27.1434 9.50822C26.9224 9.72753 26.6335 9.86521 26.3239 9.89867ZM22.786 7.62299H25.117V6.36077H22.786V7.62299Z" fill="black"/>
<path d="M34.4411 9.89867H29.7791C29.4596 9.89398 29.1544 9.76559 28.9276 9.54051C28.7008 9.31543 28.5701 9.01118 28.563 8.69173V5.15383C28.57 4.8335 28.7004 4.52824 28.927 4.30168C29.1535 4.07512 29.4588 3.94473 29.7791 3.93768L34.4411 3.93768C34.7605 3.9448 35.0648 4.0755 35.2898 4.3023C35.5149 4.5291 35.6433 4.83434 35.648 5.15383V8.69173C35.6432 9.01035 35.5145 9.31458 35.2892 9.5399C35.0639 9.76522 34.7597 9.89391 34.4411 9.89867ZM30.9861 7.62299H33.317V6.36077H30.9861V7.62299Z" fill="black"/>
<path d="M42.6408 9.89867H37.9788C37.6593 9.89398 37.3541 9.76559 37.1273 9.54051C36.9005 9.31543 36.7698 9.01118 36.7627 8.69173V5.15383C36.7697 4.8335 36.9001 4.52824 37.1267 4.30168C37.3533 4.07512 37.6585 3.94473 37.9788 3.93768L42.6408 3.93768C42.9602 3.9448 43.2645 4.0755 43.4895 4.3023C43.7146 4.5291 43.843 4.83434 43.8477 5.15383V8.69173C43.8123 8.9996 43.6737 9.28644 43.4546 9.50558C43.2355 9.72472 42.9486 9.86326 42.6408 9.89867ZM39.0937 7.62299H41.4246V6.36077H39.0937V7.62299Z" fill="black"/>
<path d="M40.3096 13.3536C39.9893 13.3474 39.684 13.2315 39.4575 13.0301C39.2309 12.8287 39.1005 12.5574 39.0935 12.2726V9.20979C39.0788 9.06048 39.0992 8.91009 39.1535 8.76816C39.2077 8.62624 39.2945 8.49589 39.4085 8.3854C39.5224 8.2749 39.6609 8.18668 39.8153 8.12632C39.9696 8.06596 40.1364 8.03479 40.305 8.03479C40.4736 8.03479 40.6404 8.06596 40.7948 8.12632C40.9491 8.18668 41.0876 8.2749 41.2016 8.3854C41.3155 8.49589 41.4023 8.62624 41.4566 8.76816C41.5108 8.91009 41.5312 9.06048 41.5166 9.20979V12.3545C41.4643 12.6148 41.3184 12.853 41.1007 13.0332C40.883 13.2133 40.6054 13.3258 40.3096 13.3536Z" fill="black"/>
<path d="M32.1099 13.3536C31.7896 13.3474 31.4843 13.2315 31.2578 13.0301C31.0312 12.8287 30.9008 12.5574 30.8938 12.2726V9.20979C30.8791 9.06048 30.8995 8.91009 30.9538 8.76816C31.008 8.62624 31.0948 8.49589 31.2088 8.3854C31.3227 8.2749 31.4612 8.18668 31.6156 8.12632C31.7699 8.06596 31.9367 8.03479 32.1053 8.03479C32.2739 8.03479 32.4407 8.06596 32.5951 8.12632C32.7494 8.18668 32.8879 8.2749 33.0019 8.3854C33.1158 8.49589 33.2026 8.62624 33.2569 8.76816C33.3111 8.91009 33.3315 9.06048 33.3169 9.20979V12.3545C33.2917 12.6247 33.154 12.8768 32.9308 13.0616C32.7076 13.2464 32.4149 13.3505 32.1099 13.3536Z" fill="black"/>
<path d="M24.0023 13.3536C23.6819 13.3474 23.3767 13.2315 23.1501 13.0301C22.9235 12.8287 22.7931 12.5574 22.7861 12.2726V9.20979C22.7714 9.06048 22.7919 8.91009 22.8461 8.76816C22.9003 8.62624 22.9872 8.49589 23.1011 8.3854C23.215 8.2749 23.3536 8.18668 23.5079 8.12632C23.6622 8.06596 23.829 8.03479 23.9976 8.03479C24.1663 8.03479 24.333 8.06596 24.4874 8.12632C24.6417 8.18668 24.7803 8.2749 24.8942 8.3854C25.0081 8.49589 25.095 8.62624 25.1492 8.76816C25.2034 8.91009 25.2239 9.06048 25.2092 9.20979V12.3545C25.1555 12.6143 25.0092 12.8517 24.7918 13.0317C24.5744 13.2116 24.2975 13.3245 24.0023 13.3536Z" fill="black"/>
<path d="M39.0935 19.2225C38.9361 19.2211 38.7806 19.1878 38.6364 19.1244C38.4923 19.0611 38.3626 18.969 38.2551 18.854C38.0329 18.6297 37.9082 18.3267 37.9082 18.011C37.9082 17.6952 38.0329 17.3922 38.2551 17.1679L42.917 12.5613C43.1442 12.4106 43.4162 12.3425 43.6876 12.3685C43.959 12.3945 44.2132 12.513 44.4076 12.7041C44.6019 12.8953 44.7247 13.1474 44.7553 13.4183C44.7858 13.6892 44.7223 13.9624 44.5754 14.1921L39.9688 18.854C39.7195 19.06 39.4151 19.1881 39.0935 19.2225Z" fill="black"/>
<path d="M34.4408 19.2225C34.2831 19.2228 34.1271 19.1901 33.9828 19.1267C33.8384 19.0632 33.7088 18.9703 33.6024 18.854C33.4913 18.7435 33.4031 18.6122 33.3429 18.4675C33.2827 18.3228 33.2517 18.1676 33.2517 18.0109C33.2517 17.8542 33.2827 17.6991 33.3429 17.5544C33.4031 17.4097 33.4913 17.2784 33.6024 17.1679L35.9242 14.8462C36.1512 14.6485 36.4448 14.5443 36.7456 14.5547C37.0465 14.5651 37.3322 14.6892 37.5451 14.9021C37.758 15.115 37.8821 15.4007 37.8925 15.7015C37.9029 16.0024 37.7987 16.296 37.601 16.523L35.2792 18.854C35.0384 19.0506 34.7486 19.178 34.4408 19.2225Z" fill="black"/>
<path d="M18.3178 44.476C18.185 44.4913 18.051 44.4586 17.9401 44.3839L16.3554 43.8311C16.0585 43.7322 15.8131 43.5193 15.6732 43.2394C15.5332 42.9595 15.5102 42.6355 15.6091 42.3386C15.7081 42.0417 15.9209 41.7963 16.2009 41.6563C16.4808 41.5164 16.8048 41.4933 17.1017 41.5923L18.6864 42.1543C18.8353 42.1989 18.9735 42.2734 19.0926 42.3733C19.2117 42.4732 19.3092 42.5964 19.379 42.7352C19.4489 42.8741 19.4897 43.0257 19.4989 43.1809C19.5081 43.3361 19.4856 43.4915 19.4326 43.6376C19.3614 43.8785 19.2146 44.0901 19.0138 44.2411C18.8131 44.3921 18.569 44.4745 18.3178 44.476Z" fill="black"/>
<path d="M18.3178 47.6454C18.185 47.6606 18.051 47.628 17.9401 47.5533L16.3554 47.0005C16.0585 46.9015 15.8131 46.6887 15.6732 46.4088C15.5332 46.1289 15.5102 45.8048 15.6091 45.5079C15.7081 45.2111 15.9209 44.9656 16.2009 44.8257C16.4808 44.6857 16.8048 44.6627 17.1017 44.7617L18.6864 45.3145C18.8356 45.3601 18.974 45.4356 19.0932 45.5364C19.2123 45.6372 19.3098 45.7611 19.3796 45.9007C19.4494 46.0403 19.49 46.1926 19.4992 46.3484C19.5083 46.5042 19.4857 46.6602 19.4326 46.807C19.3614 47.0479 19.2146 47.2595 19.0138 47.4105C18.8131 47.5615 18.569 47.6438 18.3178 47.6454Z" fill="black"/>
<path d="M44.5018 44.4761C44.2506 44.4745 44.0066 44.3921 43.8058 44.2411C43.605 44.0902 43.4582 43.8786 43.387 43.6377C43.3327 43.4916 43.3091 43.3359 43.3176 43.1803C43.3262 43.0247 43.3668 42.8725 43.4368 42.7333C43.5069 42.5941 43.6049 42.4709 43.7247 42.3712C43.8445 42.2716 43.9836 42.1978 44.1333 42.1543L45.718 41.5923C46.0037 41.5348 46.3007 41.5851 46.5515 41.7336C46.8024 41.882 46.9893 42.1182 47.0764 42.3964C47.1634 42.6746 47.1443 42.9752 47.0227 43.2401C46.9012 43.5051 46.6858 43.7156 46.4182 43.8311L44.8427 44.3839C44.7782 44.4761 44.6861 44.4761 44.5018 44.4761Z" fill="black"/>
<path d="M44.5018 47.6454C44.2506 47.6438 44.0065 47.5615 43.8058 47.4105C43.605 47.2595 43.4582 47.0479 43.387 46.807C43.3326 46.6603 43.3089 46.504 43.3174 46.3478C43.3258 46.1916 43.3663 46.0388 43.4363 45.8988C43.5063 45.7589 43.6042 45.6348 43.7241 45.5343C43.844 45.4338 43.9833 45.3589 44.1332 45.3145L45.7179 44.7617C46.0112 44.6768 46.326 44.709 46.596 44.8515C46.8661 44.994 47.0703 45.2357 47.1658 45.5257C47.2613 45.8157 47.2406 46.1315 47.108 46.4065C46.9754 46.6816 46.7413 46.8945 46.455 47.0005L44.8795 47.5533C44.7782 47.6454 44.686 47.6454 44.5018 47.6454Z" fill="black"/>
<path d="M55.4103 24.9992H51.8632C51.5446 24.9945 51.2403 24.8658 51.015 24.6405C50.7897 24.4151 50.661 24.1109 50.6562 23.7923V19.1304C50.6609 18.8109 50.7893 18.5056 51.0144 18.2788C51.2395 18.052 51.5437 17.9213 51.8632 17.9142H55.4103C55.7297 17.9213 56.034 18.052 56.2591 18.2788C56.4842 18.5056 56.6125 18.8109 56.6172 19.1304V23.7923C56.6102 24.1102 56.4808 24.4131 56.2559 24.6379C56.0311 24.8628 55.7282 24.9922 55.4103 24.9992ZM53.0793 22.6683H54.2863V20.3373H53.0793V22.6683Z" fill="black"/>
<path d="M11.1405 24.9992H7.59341C7.27479 24.9945 6.97056 24.8658 6.74524 24.6405C6.51992 24.4151 6.39123 24.1109 6.38647 23.7923V19.1304C6.39116 18.8109 6.51955 18.5056 6.74463 18.2788C6.96971 18.052 7.27396 17.9213 7.59341 17.9142H11.1405C11.4567 17.926 11.7564 18.0587 11.9775 18.2851C12.1987 18.5114 12.3245 18.814 12.329 19.1304V23.7923C12.3222 24.1071 12.1953 24.4074 11.9744 24.6317C11.7535 24.8561 11.4552 24.9875 11.1405 24.9992ZM8.80956 22.6683H10.0165V20.3373H8.80956V22.6683Z" fill="black"/>
</svg>
