<svg width="64" height="64" viewBox="0 0 64 64" fill="none" xmlns="http://www.w3.org/2000/svg">
<path d="M11.7471 24.3369V35.9825H25.7236V27.7827H30.3855H33.9234H38.5853V35.9825H52.5618V24.3369H11.7471Z" fill="white"/>
<path d="M43.2474 5.69922V9.14498H40.9164H38.5854V5.69922H43.2474Z" fill="white"/>
<path d="M35.0382 5.69922V9.14498H32.7165H30.3855V5.69922H35.0382Z" fill="white"/>
<path d="M26.9305 5.69922V9.14498H24.6088H22.2778V5.69922H26.9305Z" fill="white"/>
<path d="M11.8301 19.6758H8.29224V24.3377H11.8301V19.6758Z" fill="white"/>
<path d="M56.0999 19.6758H52.562V24.3377H56.0999V19.6758Z" fill="white"/>
<path d="M33.9234 27.7832H30.3855V35.8909H33.9234V27.7832Z" fill="white"/>
<path d="M38.5855 27.7832H33.9236V35.8909H38.5855V27.7832Z" fill="white"/>
<path d="M30.3855 27.7832H25.7236V35.8909H30.3855V27.7832Z" fill="white"/>
<path d="M47.9092 27.7832H43.2473V31.229H47.9092V27.7832Z" fill="white"/>
<path d="M21.0618 27.7832H16.3999V31.229H21.0618V27.7832Z" fill="white"/>
<path d="M42.418 12.6822C43.6329 12.6559 44.8317 12.9644 45.883 13.5737C46.9344 14.1831 47.7979 15.0699 48.379 16.1372L52.4789 24.337H11.7471L15.847 16.1372C16.4224 15.0651 17.2847 14.1742 18.3374 13.5641C19.39 12.9539 20.5917 12.6486 21.808 12.6822H42.418Z" fill="#F9C801"/>
<path d="M54.8928 35.9834L54.1465 38.7474C54.0093 39.2652 53.708 39.7246 53.2878 40.0568C52.8676 40.3889 52.3511 40.576 51.8156 40.59H39.7001L38.4932 42.921H25.5946L24.3785 40.59H12.2999C11.7607 40.5901 11.2372 40.4082 10.8142 40.0738C10.3912 39.7394 10.0934 39.272 9.96893 38.7474L9.22266 35.9834H54.8928Z" fill="white"/>
<path d="M33.9234 42.9758H30.3855V47.6377H33.9234V42.9758Z" fill="white"/>
<path d="M50.2312 50.2451V53.4145H36.2546V49.9688H50.2312V50.2451Z" fill="white"/>
<path d="M28.0546 49.9688V53.4145H14.0688V50.2451V49.9688H28.0546Z" fill="white"/>
<path d="M36.2545 49.9687V53.4144H28.0547V49.9687V47.6377H30.3856H33.9235H36.2545V49.9687Z" fill="#F9C801"/>
<path d="M14.0689 49.9685V50.2449L9.96895 52.2995L5.96118 50.2449V45.583L9.96895 47.6376L14.0689 45.583V49.9685Z" fill="white"/>
<path d="M14.0689 54.6213V57.892C14.0596 58.2581 13.91 58.6065 13.6511 58.8654C13.3922 59.1244 13.0438 59.2739 12.6777 59.2833H7.26956C6.90263 59.274 6.55314 59.1248 6.29274 58.8661C6.03235 58.6074 5.88079 58.2589 5.86914 57.892V54.6213L9.96904 56.6759L14.0689 54.6213Z" fill="white"/>
<path d="M58.3477 54.6213V57.892C58.336 58.2589 58.1845 58.6074 57.9241 58.8661C57.6637 59.1248 57.3142 59.274 56.9473 59.2833H51.5391C51.1722 59.274 50.8227 59.1248 50.5623 58.8661C50.3019 58.6074 50.1503 58.2589 50.1387 57.892V54.6213L54.2386 56.6759L58.3477 54.6213Z" fill="white"/>
<path d="M58.3386 45.583V50.2449L54.2387 52.2995L50.231 50.2449V49.9685V45.583L54.2387 47.6376L58.3386 45.583Z" fill="white"/>
<path d="M58.3386 50.2451V54.6214L54.2387 56.5838L50.231 54.6214V53.4145V50.2451L54.2387 52.2997L58.3386 50.2451Z" fill="white"/>
<path d="M54.2386 47.6377L50.1387 45.5831V45.491C50.148 45.1225 50.2985 44.7717 50.5592 44.5111C50.8198 44.2504 51.1706 44.0999 51.5391 44.0906H56.9473C57.3157 44.0999 57.6666 44.2504 57.9272 44.5111C58.1878 44.7717 58.3384 45.1225 58.3477 45.491V45.5831L54.2386 47.6377Z" fill="white"/>
<path d="M14.0689 53.4145V54.6214L9.96895 56.5838L5.96118 54.6214V50.2451L9.96895 52.2997L14.0689 50.2451V53.4145Z" fill="white"/>
<path d="M12.6777 44.0906C13.0453 44.1 13.3951 44.2508 13.6543 44.5117C13.9134 44.7726 14.0619 45.1234 14.0689 45.491V45.5831L9.96904 47.6377L5.86914 45.5831V45.491C5.87847 45.1225 6.02901 44.7717 6.28965 44.5111C6.55028 44.2504 6.90108 44.0999 7.26956 44.0906H12.6777Z" fill="white"/>
<path d="M30.3856 44.091H25.7237C25.5097 44.091 25.3001 44.0304 25.1191 43.9163C24.9382 43.8022 24.7932 43.6391 24.701 43.4461L23.8626 41.7692H12.4842C11.6878 41.7756 10.9128 41.511 10.2866 41.0188C9.66046 40.5265 9.2203 39.836 9.03846 39.0605L8.32903 36.2689C8.28713 36.093 8.28271 35.9102 8.31604 35.7324C8.34937 35.5546 8.41972 35.3859 8.52251 35.237C8.62928 35.0935 8.76828 34.977 8.92831 34.897C9.08834 34.817 9.26492 34.7757 9.44384 34.7764H11.7472C12.0618 34.7881 12.3601 34.9195 12.581 35.1439C12.802 35.3682 12.9288 35.6685 12.9357 35.9833C12.9309 36.1366 12.8959 36.2874 12.8325 36.4271C12.7691 36.5667 12.6787 36.6924 12.5665 36.7969C12.4543 36.9014 12.3225 36.9827 12.1787 37.036C12.0349 37.0892 11.882 37.1135 11.7287 37.1073H10.8995L11.2773 38.4801C11.3426 38.7487 11.498 38.9867 11.7177 39.1543C11.9374 39.322 12.208 39.4093 12.4842 39.4014H24.6089C24.8226 39.4025 25.0317 39.4635 25.2125 39.5775C25.3933 39.6915 25.5385 39.854 25.6315 40.0464L26.47 41.7324H30.3856C30.7042 41.7371 31.0084 41.8658 31.2338 42.0912C31.4591 42.3165 31.5878 42.6207 31.5925 42.9393C31.594 43.0957 31.5634 43.2507 31.5026 43.3948C31.4417 43.5389 31.352 43.6689 31.2388 43.7769C31.1257 43.8849 30.9916 43.9685 30.8448 44.0225C30.698 44.0765 30.5417 44.0998 30.3856 44.091Z" fill="#B80000"/>
<path d="M38.5853 44.0902H33.9234C33.6203 44.0638 33.3381 43.9247 33.1326 43.7004C32.927 43.4761 32.813 43.1829 32.813 42.8787C32.813 42.5745 32.927 42.2813 33.1326 42.057C33.3381 41.8327 33.6203 41.6936 33.9234 41.6672H37.8114L38.6498 39.9903C38.7424 39.7969 38.8873 39.6332 39.0679 39.5176C39.2486 39.402 39.458 39.3392 39.6725 39.3362H51.8155C52.0903 39.3334 52.3568 39.2423 52.5758 39.0764C52.7948 38.9105 52.9546 38.6786 53.0317 38.4149L53.4002 37.0237H52.5526C52.2495 36.9972 51.9674 36.8581 51.7618 36.6338C51.5562 36.4096 51.4422 36.1164 51.4422 35.8121C51.4422 35.5079 51.5562 35.2147 51.7618 34.9904C51.9674 34.7661 52.2495 34.627 52.5526 34.6006H54.8836C55.0637 34.6011 55.2412 34.6432 55.4024 34.7236C55.5636 34.8039 55.704 34.9204 55.8128 35.064C55.9216 35.2075 55.9957 35.3743 56.0295 35.5512C56.0633 35.7281 56.0558 35.9104 56.0076 36.0839L55.2613 38.8479C55.0641 39.6161 54.6182 40.2974 53.9933 40.7857C53.3683 41.274 52.5994 41.5418 51.8063 41.5474H40.4464L39.654 43.2518C39.5878 43.4868 39.4485 43.6947 39.2564 43.8454C39.0643 43.9961 38.8293 44.0818 38.5853 44.0902Z" fill="#B80000"/>
<path d="M52.5529 37.1069H38.5856C38.4176 37.1215 38.2484 37.1011 38.0887 37.0469C37.9291 36.9927 37.7824 36.9058 37.6581 36.7919C37.5338 36.678 37.4345 36.5394 37.3666 36.3851C37.2987 36.2307 37.2637 36.0639 37.2637 35.8953C37.2637 35.7267 37.2987 35.5599 37.3666 35.4056C37.4345 35.2512 37.5338 35.1127 37.6581 34.9988C37.7824 34.8848 37.9291 34.798 38.0887 34.7438C38.2484 34.6895 38.4176 34.6691 38.5856 34.6838H51.3552V24.3373C51.3405 24.1693 51.3609 24.0001 51.4152 23.8404C51.4694 23.6808 51.5562 23.5341 51.6701 23.4098C51.7841 23.2855 51.9226 23.1863 52.077 23.1184C52.2313 23.0504 52.3981 23.0154 52.5667 23.0154C52.7353 23.0154 52.9021 23.0504 53.0565 23.1184C53.2108 23.1863 53.3493 23.2855 53.4633 23.4098C53.5772 23.5341 53.664 23.6808 53.7183 23.8404C53.7725 24.0001 53.7929 24.1693 53.7783 24.3373V35.9829C53.7237 36.2778 53.5746 36.547 53.3535 36.7498C53.1325 36.9525 52.8514 37.0779 52.5529 37.1069Z" fill="#B80000"/>
<path d="M25.7236 37.1069H11.7471C11.4268 37.0998 11.1215 36.9694 10.895 36.7429C10.6684 36.5163 10.538 36.211 10.531 35.8907V24.3373C10.5163 24.1693 10.5367 24.0001 10.591 23.8404C10.6452 23.6808 10.732 23.5341 10.846 23.4098C10.9599 23.2855 11.0984 23.1863 11.2528 23.1184C11.4071 23.0504 11.5739 23.0154 11.7425 23.0154C11.9111 23.0154 12.0779 23.0504 12.2323 23.1184C12.3866 23.1863 12.5251 23.2855 12.6391 23.4098C12.753 23.5341 12.8398 23.6808 12.8941 23.8404C12.9483 24.0001 12.9687 24.1693 12.9541 24.3373V34.868H25.8342C26.1537 34.8727 26.4589 35.0011 26.6857 35.2262C26.9125 35.4513 27.0432 35.7555 27.0504 36.075C27.0322 36.2303 26.9833 36.3805 26.9065 36.5168C26.8297 36.6531 26.7265 36.7727 26.6031 36.8687C26.4796 36.9648 26.3383 37.0353 26.1873 37.0762C26.0363 37.117 25.8787 37.1275 25.7236 37.1069Z" fill="#B80000"/>
<path d="M52.5528 25.4523H11.7472C11.543 25.447 11.343 25.3933 11.1636 25.2956C10.9842 25.1979 10.8305 25.0589 10.7153 24.8902C10.539 24.5321 10.506 24.1202 10.6232 23.7386L14.7231 15.5388C15.4134 14.2704 16.4398 13.2168 17.6897 12.4936C18.9395 11.7703 20.3645 11.4054 21.8081 11.4389H42.4182C43.8583 11.4173 45.2773 11.7873 46.5236 12.5094C47.7698 13.2315 48.7965 14.2786 49.494 15.5388L53.5939 23.7386C53.6993 23.9182 53.7446 24.1269 53.7231 24.3341C53.7015 24.5413 53.6143 24.7362 53.4741 24.8902C53.3891 25.0612 53.2575 25.2047 53.0945 25.3041C52.9315 25.4035 52.7437 25.4549 52.5528 25.4523ZM13.6083 23.1213H50.6088L47.3473 16.5983C46.8495 15.7354 46.1279 15.023 45.2586 14.5365C44.3894 14.0499 43.4048 13.8073 42.409 13.8343H21.8081C20.8123 13.8073 19.8277 14.0499 18.9584 14.5365C18.0892 15.023 17.3675 15.7354 16.8698 16.5983L13.6083 23.1213Z" fill="#B80000"/>
<path d="M21.0617 32.445H16.3998C16.0804 32.4379 15.7761 32.3072 15.551 32.0804C15.3259 31.8536 15.1976 31.5484 15.1929 31.2289V27.7831C15.1976 27.4645 15.3263 27.1603 15.5516 26.9349C15.777 26.7096 16.0812 26.5809 16.3998 26.5762H21.0617C21.3812 26.5809 21.6865 26.7092 21.9133 26.9343C22.1401 27.1594 22.2708 27.4637 22.2779 27.7831V31.321C22.2525 31.6265 22.1136 31.9115 21.8884 32.1195C21.6633 32.3276 21.3683 32.4438 21.0617 32.445ZM17.616 30.1141H19.9469V28.9071H17.616V30.1141Z" fill="#B80000"/>
<path d="M47.9462 32.445H43.2474C42.9271 32.438 42.6218 32.3076 42.3952 32.081C42.1687 31.8545 42.0383 31.5492 42.0312 31.2289V27.7831C42.0384 27.4637 42.1691 27.1594 42.3959 26.9343C42.6227 26.7092 42.9279 26.5809 43.2474 26.5762H47.9462C48.2648 26.5809 48.569 26.7096 48.7943 26.9349C49.0197 27.1603 49.1483 27.4645 49.1531 27.7831V31.321C49.0995 31.6132 48.9531 31.8803 48.7357 32.0828C48.5183 32.2853 48.2414 32.4123 47.9462 32.445ZM44.3991 30.1141H46.73V28.9071H44.3622L44.3991 30.1141Z" fill="#B80000"/>
<path d="M38.5854 37.1069H25.6869C25.3665 37.0999 25.0613 36.9695 24.8347 36.7429C24.6081 36.5164 24.4777 36.2111 24.4707 35.8908V27.7831C24.4778 27.4637 24.6085 27.1594 24.8353 26.9343C25.0621 26.7092 25.3674 26.5809 25.6869 26.5762H38.5854C38.904 26.5809 39.2083 26.7096 39.4336 26.9349C39.6589 27.1603 39.7876 27.4645 39.7924 27.7831V35.9829C39.7401 36.2757 39.5942 36.5437 39.3765 36.7464C39.1588 36.9491 38.8812 37.0756 38.5854 37.1069ZM26.9306 34.7944H37.3693V28.9071H26.9306V34.7944Z" fill="#B80000"/>
<path d="M33.9235 37.1068C33.604 37.0997 33.2998 36.969 33.0747 36.7422C32.8496 36.5154 32.7212 36.2102 32.7166 35.8907V27.783C32.743 27.4799 32.8821 27.1978 33.1064 26.9922C33.3307 26.7866 33.6239 26.6726 33.9281 26.6726C34.2323 26.6726 34.5255 26.7866 34.7498 26.9922C34.9741 27.1978 35.1132 27.4799 35.1396 27.783V35.9828C35.0855 36.2764 34.9378 36.5445 34.7186 36.7472C34.4993 36.9498 34.2204 37.076 33.9235 37.1068Z" fill="#B80000"/>
<path d="M30.3858 37.1068C30.0655 37.0998 29.7602 36.9694 29.5337 36.7428C29.3071 36.5163 29.1767 36.211 29.1697 35.8907V27.783C29.1961 27.4799 29.3352 27.1978 29.5595 26.9922C29.7838 26.7866 30.077 26.6726 30.3812 26.6726C30.6855 26.6726 30.9786 26.7866 31.2029 26.9922C31.4272 27.1978 31.5663 27.4799 31.5928 27.783V35.9828C31.5696 36.2875 31.4326 36.5724 31.2089 36.7807C30.9853 36.9889 30.6914 37.1054 30.3858 37.1068Z" fill="#B80000"/>
<path d="M33.9236 48.753C33.605 48.7482 33.3007 48.6195 33.0754 48.3942C32.8501 48.1689 32.7214 47.8647 32.7166 47.546V44.0081H31.5005V47.5552C31.474 47.8583 31.3349 48.1405 31.1106 48.3461C30.8864 48.5516 30.5932 48.6656 30.2889 48.6656C29.9847 48.6656 29.6915 48.5516 29.4672 48.3461C29.2429 48.1405 29.1038 47.8583 29.0774 47.5552V42.8841C29.0844 42.5638 29.2148 42.2585 29.4414 42.032C29.668 41.8054 29.9732 41.675 30.2935 41.668H33.8314C34.1518 41.675 34.457 41.8054 34.6836 42.032C34.9102 42.2585 35.0405 42.5638 35.0476 42.8841V47.546C35.0462 47.8516 34.9297 48.1455 34.7214 48.3691C34.5131 48.5928 34.2283 48.7298 33.9236 48.753Z" fill="#B80000"/>
<path d="M50.231 51.0835H36.2544C35.9514 51.057 35.6692 50.9179 35.4636 50.6937C35.2581 50.4694 35.144 50.1762 35.144 49.8719C35.144 49.5677 35.2581 49.2745 35.4636 49.0502C35.6692 48.8259 35.9514 48.6869 36.2544 48.6604H50.231C50.5513 48.6674 50.8566 48.7978 51.0831 49.0244C51.3097 49.251 51.4401 49.5562 51.4471 49.8766C51.4097 50.1852 51.2693 50.4722 51.0487 50.6912C50.828 50.9102 50.5399 51.0484 50.231 51.0835Z" fill="#B80000"/>
<path d="M50.231 54.6213H36.2544C35.9514 54.5949 35.6692 54.4558 35.4636 54.2315C35.2581 54.0072 35.144 53.714 35.144 53.4098C35.144 53.1056 35.2581 52.8124 35.4636 52.5881C35.6692 52.3638 35.9514 52.2247 36.2544 52.1982H50.231C50.5513 52.2053 50.8566 52.3357 51.0831 52.5622C51.3097 52.7888 51.4401 53.0941 51.4471 53.4144C51.4113 53.7237 51.2714 54.0116 51.0505 54.2309C50.8295 54.4502 50.5405 54.5879 50.231 54.6213Z" fill="#B80000"/>
<path d="M28.0549 51.0835H14.0691C13.7661 51.057 13.4839 50.9179 13.2783 50.6937C13.0728 50.4694 12.9587 50.1762 12.9587 49.8719C12.9587 49.5677 13.0728 49.2745 13.2783 49.0502C13.4839 48.8259 13.7661 48.6869 14.0691 48.6604H28.0549C28.358 48.6869 28.6401 48.8259 28.8457 49.0502C29.0512 49.2745 29.1653 49.5677 29.1653 49.8719C29.1653 50.1762 29.0512 50.4694 28.8457 50.6937C28.6401 50.9179 28.358 51.057 28.0549 51.0835Z" fill="#B80000"/>
<path d="M28.0549 54.6213H14.0691C13.7661 54.5949 13.4839 54.4558 13.2783 54.2315C13.0728 54.0072 12.9587 53.714 12.9587 53.4098C12.9587 53.1056 13.0728 52.8124 13.2783 52.5881C13.4839 52.3638 13.7661 52.2247 14.0691 52.1982H28.0549C28.358 52.2247 28.6401 52.3638 28.8457 52.5881C29.0512 52.8124 29.1653 53.1056 29.1653 53.4098C29.1653 53.714 29.0512 54.0072 28.8457 54.2315C28.6401 54.4558 28.358 54.5949 28.0549 54.6213Z" fill="#B80000"/>
<path d="M36.2546 54.621H28.0548C27.7353 54.6164 27.43 54.488 27.2032 54.2629C26.9764 54.0378 26.8457 53.7336 26.8386 53.4141V47.5453C26.8457 47.2249 26.9761 46.9197 27.2026 46.6931C27.4292 46.4665 27.7344 46.3361 28.0548 46.3291H36.2546C36.5749 46.3361 36.8802 46.4665 37.1067 46.6931C37.3333 46.9197 37.4637 47.2249 37.4707 47.5453V53.4141C37.4333 53.7228 37.2929 54.0098 37.0723 54.2288C36.8516 54.4478 36.5635 54.586 36.2546 54.621ZM29.2617 52.2993H35.1398V48.7522H29.2617V52.2993Z" fill="#B80000"/>
<path d="M56.9477 60.4072H51.5395C50.8528 60.4072 50.1937 60.1363 49.7055 59.6533C49.2173 59.1703 48.9394 58.5142 48.9321 57.8275V45.4909C48.9309 45.1482 48.9975 44.8086 49.1281 44.4917C49.2587 44.1748 49.4508 43.8869 49.6931 43.6445C49.9355 43.4022 50.2234 43.2102 50.5403 43.0796C50.8572 42.949 51.1968 42.8823 51.5395 42.8836H56.9477C57.2904 42.8823 57.63 42.949 57.9469 43.0796C58.2638 43.2102 58.5517 43.4022 58.7941 43.6445C59.0364 43.8869 59.2284 44.1748 59.359 44.4917C59.4896 44.8086 59.5563 45.1482 59.555 45.4909V57.892C59.5358 58.5689 59.252 59.2114 58.7646 59.6816C58.2772 60.1518 57.6249 60.4123 56.9477 60.4072ZM51.6316 45.3067C51.5598 45.311 51.492 45.3415 51.441 45.3925C51.3901 45.4434 51.3596 45.5112 51.3552 45.583V57.9841C51.3596 58.056 51.3901 58.1238 51.441 58.1747C51.492 58.2256 51.5598 58.2561 51.6316 58.2605H56.9477C57.0196 58.2561 57.0874 58.2256 57.1383 58.1747C57.1892 58.1238 57.2197 58.056 57.2241 57.9841V45.4909C57.2197 45.419 57.1892 45.3512 57.1383 45.3003C57.0874 45.2494 57.0196 45.2189 56.9477 45.2145H51.6316V45.3067Z" fill="#B80000"/>
<path d="M54.2388 48.7525C54.0498 48.7671 53.8601 48.7354 53.686 48.6604L49.5861 46.6151C49.3095 46.4708 49.0979 46.2271 48.9936 45.9332C48.8894 45.6392 48.9002 45.3167 49.0241 45.0304C49.1667 44.7523 49.4102 44.5392 49.7048 44.4347C49.9994 44.3302 50.3228 44.3423 50.6088 44.4684L54.1466 46.2373L57.6938 44.4684C57.9784 44.3327 58.3053 44.3158 58.6025 44.4212C58.8997 44.5266 59.1428 44.7457 59.2784 45.0304C59.4141 45.315 59.431 45.6419 59.3256 45.9391C59.2202 46.2363 59.0011 46.4794 58.7164 46.6151L54.6165 48.6604C54.6165 48.7525 54.3954 48.7525 54.2388 48.7525Z" fill="#B80000"/>
<path d="M54.2387 53.4144C54.0497 53.4289 53.86 53.3973 53.6859 53.3222L49.586 51.2677C49.4329 51.2088 49.2936 51.119 49.1769 51.0037C49.0602 50.8884 48.9687 50.7502 48.908 50.5978C48.8473 50.4454 48.8189 50.2821 48.8244 50.1182C48.8299 49.9543 48.8693 49.7932 48.9401 49.6453C49.0109 49.4973 49.1116 49.3656 49.2357 49.2585C49.3599 49.1513 49.5049 49.071 49.6617 49.0226C49.8184 48.9742 49.9834 48.9588 50.1464 48.9773C50.3094 48.9958 50.4668 49.0479 50.6086 49.1302L54.1465 50.8991L57.6936 49.1302C57.8355 49.0479 57.9929 48.9958 58.1559 48.9773C58.3188 48.9588 58.4839 48.9742 58.6406 49.0226C58.7973 49.071 58.9424 49.1513 59.0665 49.2585C59.1907 49.3656 59.2914 49.4973 59.3622 49.6453C59.4329 49.7932 59.4723 49.9543 59.4779 50.1182C59.4834 50.2821 59.4549 50.4454 59.3943 50.5978C59.3336 50.7502 59.2421 50.8884 59.1254 51.0037C59.0087 51.119 58.8694 51.2088 58.7163 51.2677L54.6164 53.3222C54.6164 53.4144 54.3953 53.4144 54.2387 53.4144Z" fill="#B80000"/>
<path d="M54.239 57.8275C54.05 57.842 53.8603 57.8104 53.6862 57.7353L49.5863 55.69C49.3016 55.5544 49.0825 55.3112 48.9771 55.0141C48.8717 54.7169 48.8887 54.39 49.0243 54.1053C49.1599 53.8207 49.403 53.6015 49.7002 53.4961C49.9974 53.3907 50.3243 53.4077 50.6089 53.5433L54.1468 55.3123L57.694 53.5433C57.9786 53.4077 58.3055 53.3907 58.6027 53.4961C58.8999 53.6015 59.143 53.8207 59.2786 54.1053C59.4142 54.39 59.4312 54.7169 59.3258 55.0141C59.2204 55.3112 59.0013 55.5544 58.7166 55.69L54.6167 57.7353C54.4988 57.7926 54.37 57.824 54.239 57.8275Z" fill="#B80000"/>
<path d="M12.6778 60.4072H7.2696C6.57966 60.4121 5.9159 60.1434 5.42373 59.6598C4.93156 59.1763 4.65111 58.5174 4.64382 57.8275V45.4909C4.6426 45.1482 4.70921 44.8086 4.83981 44.4917C4.97041 44.1748 5.16242 43.8869 5.40478 43.6445C5.64713 43.4022 5.93505 43.2102 6.25194 43.0796C6.56883 42.949 6.90843 42.8823 7.25117 42.8836H12.6778C13.0202 42.8836 13.3592 42.951 13.6756 43.082C13.9919 43.2131 14.2793 43.4051 14.5215 43.6472C14.7636 43.8894 14.9556 44.1768 15.0867 44.4931C15.2177 44.8095 15.2851 45.1485 15.2851 45.4909V57.892C15.2659 58.5689 14.9821 59.2114 14.4947 59.6816C14.0073 60.1518 13.355 60.4123 12.6778 60.4072ZM7.40779 45.3067C7.33592 45.311 7.26812 45.3415 7.21721 45.3925C7.16629 45.4434 7.13576 45.5112 7.1314 45.583V57.9841C7.13576 58.056 7.16629 58.1238 7.21721 58.1747C7.26812 58.2256 7.33592 58.2561 7.40779 58.2605H12.7699C12.8418 58.2561 12.9096 58.2256 12.9605 58.1747C13.0114 58.1238 13.0419 58.056 13.0463 57.9841V45.4909C13.0419 45.419 13.0114 45.3512 12.9605 45.3003C12.9096 45.2494 12.8418 45.2189 12.7699 45.2145H7.40779V45.3067Z" fill="#B80000"/>
<path d="M9.969 48.7525C9.78 48.7671 9.59029 48.7354 9.41621 48.6604L5.31631 46.6151C5.03977 46.4708 4.8281 46.2271 4.72384 45.9332C4.61958 45.6392 4.63046 45.3167 4.7543 45.0304C4.89694 44.7523 5.14046 44.5392 5.43504 44.4347C5.72962 44.3302 6.05299 44.3423 6.33898 44.4684L9.87687 46.2373L13.424 44.4684C13.5649 44.4012 13.7177 44.3625 13.8737 44.3544C14.0296 44.3463 14.1856 44.369 14.3327 44.4212C14.4799 44.4734 14.6153 44.554 14.7313 44.6585C14.8473 44.7631 14.9415 44.8894 15.0087 45.0304C15.0758 45.1713 15.1145 45.3241 15.1226 45.48C15.1307 45.636 15.108 45.792 15.0559 45.9391C15.0037 46.0863 14.923 46.2217 14.8185 46.3377C14.714 46.4536 14.5876 46.5479 14.4467 46.6151L10.3467 48.6604C10.3467 48.7525 10.1717 48.7525 9.969 48.7525Z" fill="#B80000"/>
<path d="M9.96901 53.4144C9.78 53.4289 9.59029 53.3973 9.41621 53.3222L5.31631 51.2677C5.03977 51.1234 4.8281 50.8798 4.72384 50.5858C4.61958 50.2918 4.63046 49.9693 4.7543 49.683C4.89851 49.4065 5.14271 49.1954 5.43714 49.0927C5.73157 48.99 6.05409 49.0034 6.33898 49.1302L9.87687 50.8991L13.424 49.1302C13.5659 49.0479 13.7232 48.9958 13.8862 48.9773C14.0492 48.9588 14.2142 48.9742 14.371 49.0226C14.5277 49.071 14.6727 49.1513 14.7969 49.2585C14.9211 49.3656 15.0217 49.4973 15.0925 49.6453C15.1633 49.7932 15.2027 49.9543 15.2082 50.1182C15.2137 50.2821 15.1853 50.4454 15.1246 50.5978C15.0639 50.7502 14.9724 50.8884 14.8557 51.0037C14.739 51.119 14.5998 51.2088 14.4467 51.2677L10.3467 53.3222C10.3467 53.4144 10.1717 53.4144 9.96901 53.4144Z" fill="#B80000"/>
<path d="M9.969 57.8272C9.78 57.8417 9.59029 57.8101 9.41621 57.7351L5.31631 55.6529C5.03977 55.5086 4.8281 55.265 4.72384 54.971C4.61958 54.677 4.63046 54.3545 4.7543 54.0682C4.89859 53.7917 5.1422 53.58 5.43618 53.4757C5.73015 53.3715 6.0527 53.3824 6.33898 53.5062L9.87687 55.2751L13.424 53.5062C13.5649 53.4391 13.7177 53.4003 13.8737 53.3922C14.0296 53.3841 14.1856 53.4068 14.3327 53.459C14.4799 53.5112 14.6153 53.5919 14.7313 53.6964C14.8473 53.8009 14.9415 53.9273 15.0087 54.0682C15.0758 54.2092 15.1145 54.362 15.1226 54.5179C15.1307 54.6738 15.108 54.8298 15.0559 54.9769C15.0037 55.1241 14.923 55.2595 14.8185 55.3755C14.714 55.4915 14.5876 55.5857 14.4467 55.6529L10.3467 57.6982C10.2318 57.7683 10.1028 57.8123 9.969 57.8272Z" fill="#B80000"/>
<path d="M26.9309 10.3516H22.2782C21.9587 10.3469 21.6534 10.2185 21.4266 9.99345C21.1998 9.76837 21.0691 9.46412 21.062 9.14467V5.60678C21.0691 5.28644 21.1994 4.98119 21.426 4.75462C21.6526 4.52806 21.9578 4.39767 22.2782 4.39062H26.9309C27.2512 4.39767 27.5565 4.52806 27.783 4.75462C28.0096 4.98119 28.14 5.28644 28.147 5.60678V9.14467C28.1112 9.45394 27.9713 9.74185 27.7503 9.96116C27.5294 10.1805 27.2404 10.3182 26.9309 10.3516ZM23.393 8.07593H25.7239V6.81371H23.393V8.07593Z" fill="#B80000"/>
<path d="M35.0477 10.3516H30.3858C30.0663 10.3469 29.7611 10.2185 29.5343 9.99345C29.3075 9.76837 29.1768 9.46412 29.1697 9.14467V5.60678C29.1767 5.28644 29.3071 4.98119 29.5337 4.75462C29.7602 4.52806 30.0655 4.39767 30.3858 4.39062H35.0477C35.3672 4.39774 35.6714 4.52844 35.8965 4.75524C36.1216 4.98204 36.25 5.28728 36.2547 5.60678V9.14467C36.2499 9.46329 36.1212 9.76752 35.8959 9.99284C35.6706 10.2182 35.3664 10.3469 35.0477 10.3516ZM31.5928 8.07593H33.9237V6.81371H31.5928V8.07593Z" fill="#B80000"/>
<path d="M43.2474 10.3516H38.5855C38.266 10.3469 37.9608 10.2185 37.734 9.99345C37.5072 9.76837 37.3765 9.46412 37.3694 9.14467V5.60678C37.3764 5.28644 37.5068 4.98119 37.7334 4.75462C37.9599 4.52806 38.2652 4.39767 38.5855 4.39062H43.2474C43.5669 4.39774 43.8711 4.52844 44.0962 4.75524C44.3213 4.98204 44.4497 5.28728 44.4544 5.60678V9.14467C44.419 9.45255 44.2804 9.73938 44.0613 9.95852C43.8422 10.1777 43.5553 10.3162 43.2474 10.3516ZM39.7003 8.07593H42.0313V6.81371H39.7003V8.07593Z" fill="#B80000"/>
<path d="M40.9163 13.8062C40.596 13.7999 40.2907 13.684 40.0642 13.4826C39.8376 13.2812 39.7072 13.0099 39.7002 12.7252V9.66231C39.6855 9.51299 39.7059 9.3626 39.7602 9.22068C39.8144 9.07876 39.9012 8.94841 40.0152 8.83791C40.1291 8.72742 40.2676 8.63919 40.422 8.57883C40.5763 8.51847 40.7431 8.4873 40.9117 8.4873C41.0803 8.4873 41.2471 8.51847 41.4015 8.57883C41.5558 8.63919 41.6943 8.72742 41.8083 8.83791C41.9222 8.94841 42.009 9.07876 42.0633 9.22068C42.1175 9.3626 42.1379 9.51299 42.1233 9.66231V12.8071C42.071 13.0673 41.9251 13.3055 41.7074 13.4857C41.4897 13.6659 41.2121 13.7783 40.9163 13.8062Z" fill="#B80000"/>
<path d="M32.7166 13.8062C32.3963 13.7999 32.091 13.684 31.8645 13.4826C31.6379 13.2812 31.5075 13.0099 31.5005 12.7252V9.66231C31.4858 9.51299 31.5062 9.3626 31.5605 9.22068C31.6147 9.07876 31.7015 8.94841 31.8154 8.83791C31.9294 8.72742 32.0679 8.63919 32.2223 8.57883C32.3766 8.51847 32.5434 8.4873 32.712 8.4873C32.8806 8.4873 33.0474 8.51847 33.2017 8.57883C33.3561 8.63919 33.4946 8.72742 33.6086 8.83791C33.7225 8.94841 33.8093 9.07876 33.8636 9.22068C33.9178 9.3626 33.9382 9.51299 33.9235 9.66231V12.8071C33.8983 13.0772 33.7607 13.3293 33.5375 13.5141C33.3143 13.6989 33.0216 13.803 32.7166 13.8062Z" fill="#B80000"/>
<path d="M24.6089 13.8062C24.2886 13.7999 23.9834 13.684 23.7568 13.4826C23.5302 13.2812 23.3998 13.0099 23.3928 12.7252V9.66231C23.3781 9.51299 23.3986 9.3626 23.4528 9.22068C23.507 9.07876 23.5938 8.94841 23.7078 8.83791C23.8217 8.72742 23.9602 8.63919 24.1146 8.57883C24.2689 8.51847 24.4357 8.4873 24.6043 8.4873C24.773 8.4873 24.9397 8.51847 25.0941 8.57883C25.2484 8.63919 25.387 8.72742 25.5009 8.83791C25.6148 8.94841 25.7017 9.07876 25.7559 9.22068C25.8101 9.3626 25.8305 9.51299 25.8159 9.66231V12.8071C25.7622 13.0668 25.6159 13.3042 25.3985 13.4842C25.1811 13.6641 24.9042 13.7771 24.6089 13.8062Z" fill="#B80000"/>
<path d="M39.7002 19.6758C39.5428 19.6745 39.3873 19.6411 39.2431 19.5778C39.099 19.5144 38.9693 19.4224 38.8618 19.3073C38.6396 19.083 38.5149 18.78 38.5149 18.4643C38.5149 18.1486 38.6396 17.8456 38.8618 17.6213L43.5237 13.0147C43.7509 12.8639 44.0229 12.7958 44.2943 12.8218C44.5657 12.8478 44.8199 12.9663 45.0143 13.1575C45.2086 13.3486 45.3314 13.6008 45.362 13.8717C45.3925 14.1426 45.329 14.4158 45.1821 14.6454L40.5755 19.3073C40.3262 19.5133 40.0218 19.6415 39.7002 19.6758Z" fill="#B80000"/>
<path d="M35.0475 19.6753C34.8898 19.6756 34.7338 19.643 34.5894 19.5795C34.4451 19.5161 34.3155 19.4232 34.2091 19.3068C34.098 19.1963 34.0098 19.065 33.9496 18.9203C33.8894 18.7756 33.8584 18.6205 33.8584 18.4638C33.8584 18.3071 33.8894 18.1519 33.9496 18.0073C34.0098 17.8626 34.098 17.7312 34.2091 17.6208L36.5309 15.299C36.7579 15.1013 37.0515 14.9972 37.3523 15.0075C37.6532 15.0179 37.9389 15.1421 38.1518 15.3549C38.3646 15.5678 38.4888 15.8535 38.4992 16.1544C38.5096 16.4552 38.4054 16.7488 38.2077 16.9759L35.8859 19.3068C35.6451 19.5034 35.3553 19.6308 35.0475 19.6753Z" fill="#B80000"/>
<path d="M18.9245 44.9287C18.7917 44.9439 18.6577 44.9112 18.5468 44.8365L16.9621 44.2838C16.6652 44.1848 16.4198 43.9719 16.2798 43.692C16.1399 43.4121 16.1169 43.0881 16.2158 42.7912C16.3148 42.4943 16.5276 42.2489 16.8075 42.1089C17.0874 41.969 17.4115 41.946 17.7084 42.0449L19.2931 42.6069C19.442 42.6516 19.5802 42.7261 19.6993 42.826C19.8184 42.9259 19.9158 43.049 19.9857 43.1879C20.0556 43.3267 20.0964 43.4784 20.1056 43.6335C20.1148 43.7887 20.0923 43.9441 20.0393 44.0903C19.9681 44.3312 19.8213 44.5428 19.6205 44.6938C19.4198 44.8447 19.1757 44.9271 18.9245 44.9287Z" fill="#B80000"/>
<path d="M18.9245 48.0986C18.7917 48.1138 18.6577 48.0811 18.5468 48.0065L16.9621 47.4537C16.6652 47.3547 16.4198 47.1419 16.2798 46.862C16.1399 46.582 16.1169 46.258 16.2158 45.9611C16.3148 45.6642 16.5276 45.4188 16.8075 45.2789C17.0874 45.1389 17.4115 45.1159 17.7084 45.2149L19.2931 45.7676C19.4423 45.8133 19.5807 45.8888 19.6999 45.9896C19.819 46.0904 19.9165 46.2143 19.9862 46.3539C20.056 46.4935 20.0967 46.6458 20.1059 46.8016C20.115 46.9574 20.0924 47.1134 20.0393 47.2602C19.9681 47.5011 19.8213 47.7127 19.6205 47.8637C19.4198 48.0147 19.1757 48.097 18.9245 48.0986Z" fill="#B80000"/>
<path d="M45.1085 44.9294C44.8573 44.9279 44.6133 44.8455 44.4125 44.6945C44.2117 44.5435 44.0649 44.3319 43.9937 44.091C43.9394 43.945 43.9158 43.7893 43.9243 43.6337C43.9329 43.4781 43.9735 43.3259 44.0435 43.1867C44.1135 43.0475 44.2115 42.9242 44.3314 42.8246C44.4512 42.725 44.5903 42.6511 44.74 42.6077L46.3246 42.0457C46.6104 41.9881 46.9074 42.0384 47.1582 42.1869C47.4091 42.3354 47.596 42.5715 47.683 42.8497C47.7701 43.128 47.7509 43.4285 47.6294 43.6935C47.5079 43.9584 47.2925 44.169 47.0248 44.2845L45.4494 44.8373C45.3849 44.9294 45.2928 44.9294 45.1085 44.9294Z" fill="#B80000"/>
<path d="M45.1085 48.0984C44.8573 48.0968 44.6132 48.0145 44.4125 47.8635C44.2117 47.7125 44.0649 47.5009 43.9937 47.26C43.9393 47.1133 43.9156 46.957 43.924 46.8008C43.9325 46.6446 43.973 46.4918 44.043 46.3518C44.1129 46.2119 44.2109 46.0878 44.3308 45.9873C44.4507 45.8868 44.5899 45.8119 44.7399 45.7675L46.3246 45.2147C46.6179 45.1298 46.9327 45.162 47.2027 45.3045C47.4728 45.447 47.677 45.6887 47.7725 45.9787C47.868 46.2688 47.8472 46.5845 47.7147 46.8595C47.5821 47.1346 47.348 47.3475 47.0617 47.4535L45.4862 48.0063C45.3849 48.0984 45.2927 48.0984 45.1085 48.0984Z" fill="#B80000"/>
<path d="M56.017 25.4522H52.4699C52.1513 25.4474 51.847 25.3187 51.6217 25.0934C51.3964 24.8681 51.2677 24.5639 51.2629 24.2452V19.5833C51.2676 19.2638 51.396 18.9586 51.6211 18.7318C51.8462 18.505 52.1504 18.3743 52.4699 18.3672H56.017C56.3364 18.3743 56.6407 18.505 56.8658 18.7318C57.0909 18.9586 57.2192 19.2638 57.2239 19.5833V24.2452C57.2169 24.5631 57.0875 24.8661 56.8626 25.0909C56.6378 25.3157 56.3349 25.4451 56.017 25.4522ZM53.686 23.1212H54.893V20.7903H53.686V23.1212Z" fill="#B80000"/>
<path d="M11.7472 25.4522H8.2001C7.88148 25.4474 7.57725 25.3187 7.35193 25.0934C7.12661 24.8681 6.99792 24.5639 6.99316 24.2452V19.5833C6.99785 19.2638 7.12624 18.9586 7.35132 18.7318C7.5764 18.505 7.88065 18.3743 8.2001 18.3672H11.7472C12.0634 18.379 12.3631 18.5117 12.5842 18.738C12.8054 18.9643 12.9312 19.2669 12.9357 19.5833V24.2452C12.9289 24.56 12.802 24.8603 12.5811 25.0847C12.3602 25.3091 12.0619 25.4405 11.7472 25.4522ZM9.41625 23.1212H10.6232V20.7903H9.41625V23.1212Z" fill="#B80000"/>
</svg>
