<svg width="64" height="64" viewBox="0 0 64 64" fill="none" xmlns="http://www.w3.org/2000/svg">
<path d="M46.8558 44.4568V50.6568C46.8505 51.4295 46.5392 52.1686 45.99 52.7121C45.4408 53.2557 44.6985 53.5594 43.9258 53.5568H5.64582C4.87311 53.5594 4.13085 53.2557 3.58165 52.7121C3.03246 52.1686 2.72111 51.4295 2.71582 50.6568V31.7568C2.72111 30.9841 3.03246 30.245 3.58165 29.7014C4.13085 29.1578 4.87311 28.8541 5.64582 28.8568H14.0258V41.4568C14.0311 42.2295 14.3425 42.9686 14.8917 43.5121C15.4408 44.0557 16.1831 44.3594 16.9558 44.3568H46.4058L46.8158 44.4568H46.8558Z" fill="#F9C801"/>
<path d="M55.7359 23.5568V41.4568C55.7346 41.8389 55.658 42.2171 55.5105 42.5696C55.3631 42.9222 55.1476 43.2423 54.8765 43.5115C54.6053 43.7808 54.2838 43.9941 53.9303 44.1391C53.5767 44.2841 53.198 44.3581 52.8159 44.3568H16.9559C16.1832 44.3594 15.4409 44.0557 14.8917 43.5122C14.3425 42.9686 14.0312 42.2295 14.0259 41.4568V20.5568C14.0312 19.7841 14.3425 19.045 14.8917 18.5014C15.4409 17.9578 16.1832 17.6541 16.9559 17.6568H47.4059L49.6259 19.2568L47.9159 24.6568L52.6559 21.2568L55.7359 23.5568Z" fill="white"/>
<path d="M60.1858 15.8568L55.4358 19.1568L57.2558 24.6568L55.7358 23.5568L52.5058 21.2568L47.8658 24.6568L49.5758 19.1568L47.3558 17.6568L44.9358 15.8568H50.6858L52.5058 10.3568L54.3258 15.8568H60.1858Z" fill="#F9C801"/>
<path d="M5.64576 54.7568C4.52893 54.7542 3.45799 54.3122 2.66454 53.5262C1.87109 52.7403 1.4189 51.6735 1.40576 50.5568L1.40576 31.7568C1.4189 30.64 1.87109 29.5733 2.66454 28.7874C3.45799 28.0014 4.52893 27.5593 5.64576 27.5568H14.0258C14.3705 27.5568 14.7012 27.6938 14.945 27.9376C15.1888 28.1814 15.3258 28.512 15.3258 28.8568C15.3258 29.2016 15.1888 29.5322 14.945 29.776C14.7012 30.0198 14.3705 30.1568 14.0258 30.1568H5.64576C5.19615 30.1668 4.7674 30.3485 4.44754 30.6646C4.12769 30.9807 3.94098 31.4073 3.92576 31.8568V50.6568C3.94098 51.1063 4.12769 51.5329 4.44754 51.849C4.7674 52.1651 5.19615 52.3468 5.64576 52.3568C17.0652 52.3568 28.4746 52.5255 39.8858 52.3568H43.8858C44.3344 52.3467 44.762 52.1647 45.0803 51.8483C45.3985 51.5319 45.5831 51.1054 45.5958 50.6568V44.4568C45.5998 44.1268 45.7273 43.8103 45.9531 43.5697C46.179 43.3291 46.4867 43.1818 46.8158 43.1568C47.1599 43.1619 47.4886 43.3002 47.7329 43.5426C47.9772 43.785 48.118 44.1127 48.1258 44.4568V50.6568C48.1126 51.7735 47.6604 52.8403 46.867 53.6262C46.0735 54.4122 45.0026 54.8542 43.8858 54.8568C32.8316 54.8568 18.6055 54.7568 5.64576 54.7568Z" fill="black"/>
<path d="M37.2558 28.8568H20.2558C19.911 28.8568 19.5804 28.7198 19.3366 28.476C19.0928 28.2322 18.9558 27.9016 18.9558 27.5568C18.9558 27.212 19.0928 26.8813 19.3366 26.6375C19.5804 26.3937 19.911 26.2568 20.2558 26.2568H37.1558C37.4999 26.2619 37.8287 26.4002 38.073 26.6426C38.3173 26.885 38.4581 27.2127 38.4658 27.5568C38.4739 27.7221 38.4487 27.8874 38.3919 28.0428C38.3351 28.1983 38.2477 28.3408 38.1349 28.4619C38.0222 28.5831 37.8863 28.6804 37.7353 28.7483C37.5843 28.8161 37.4213 28.853 37.2558 28.8568Z" fill="black"/>
<path d="M49.5758 33.8568H20.2958C19.9511 33.8568 19.6204 33.7198 19.3766 33.476C19.1328 33.2322 18.9958 32.9016 18.9958 32.5568C18.9958 32.212 19.1328 31.8813 19.3766 31.6375C19.6204 31.3937 19.9511 31.2568 20.2958 31.2568H49.4758C49.8217 31.2593 50.153 31.3964 50.3994 31.6391C50.6459 31.8818 50.7881 32.211 50.7958 32.5568C50.8025 32.7226 50.7761 32.8881 50.7182 33.0436C50.6602 33.1991 50.5719 33.3415 50.4583 33.4625C50.3448 33.5835 50.2083 33.6807 50.0567 33.7484C49.9052 33.8161 49.7418 33.8529 49.5758 33.8568Z" fill="black"/>
<path d="M49.5758 38.5568H20.2958C19.9511 38.5568 19.6204 38.4198 19.3766 38.176C19.1328 37.9322 18.9958 37.6016 18.9958 37.2568C18.9958 36.912 19.1328 36.5813 19.3766 36.3375C19.6204 36.0938 19.9511 35.9568 20.2958 35.9568H49.4758C49.8217 35.9593 50.153 36.0965 50.3994 36.3391C50.6459 36.5818 50.7881 36.911 50.7958 37.2568C50.8025 37.4226 50.7761 37.5881 50.7182 37.7436C50.6602 37.8991 50.5719 38.0415 50.4583 38.1625C50.3448 38.2835 50.2083 38.3807 50.0567 38.4484C49.9052 38.5161 49.7418 38.5529 49.5758 38.5568Z" fill="black"/>
<path d="M52.7058 45.6568H16.9558C15.839 45.6542 14.7681 45.2122 13.9746 44.4262C13.1811 43.6402 12.729 42.5735 12.7158 41.4568V20.5568C12.729 19.44 13.1811 18.3733 13.9746 17.5874C14.7681 16.8014 15.839 16.3593 16.9558 16.3568H47.4058C47.7506 16.3568 48.0813 16.4937 48.3251 16.7375C48.5689 16.9813 48.7058 17.312 48.7058 17.6568C48.7058 18.0016 48.5689 18.3322 48.3251 18.576C48.0813 18.8198 47.7506 18.9568 47.4058 18.9568H16.9558C16.5072 18.9669 16.0796 19.1489 15.7613 19.4653C15.4431 19.7817 15.2585 20.2082 15.2458 20.6568V41.5568C15.2585 42.0054 15.4431 42.4319 15.7613 42.7483C16.0796 43.0647 16.5072 43.2467 16.9558 43.2568H52.7058C53.1519 43.2418 53.5757 43.0579 53.8913 42.7423C54.2069 42.4267 54.3909 42.0029 54.4058 41.5568V23.5568C54.4345 23.2278 54.5855 22.9216 54.8289 22.6984C55.0724 22.4753 55.3906 22.3516 55.7208 22.3516C56.051 22.3516 56.3693 22.4753 56.6127 22.6984C56.8561 22.9216 57.0071 23.2278 57.0358 23.5568V41.4568C56.9826 42.5759 56.5055 43.6328 55.7013 44.4129C54.897 45.193 53.826 45.6377 52.7058 45.6568Z" fill="black"/>
<path d="M47.8659 25.9568C47.6695 25.9627 47.4747 25.9215 47.2975 25.8367C47.1204 25.7519 46.9661 25.6259 46.8477 25.4693C46.7292 25.3126 46.65 25.1299 46.6166 24.9363C46.5832 24.7428 46.5967 24.5441 46.6559 24.3568L48.1659 19.7568L44.2259 16.8568C44.0256 16.6889 43.8737 16.4707 43.7858 16.2246C43.698 15.9786 43.6772 15.7135 43.7259 15.4568C43.8076 15.1988 43.9685 14.9731 44.1856 14.8116C44.4028 14.65 44.6652 14.5609 44.9359 14.5568H49.8859L51.4059 9.95678C51.4884 9.70118 51.6481 9.47741 51.863 9.31625C52.0778 9.15509 52.3374 9.06445 52.6059 9.05678C52.8817 9.04349 53.1537 9.12576 53.376 9.28972C53.5982 9.45368 53.7571 9.68928 53.8259 9.95678L55.3359 14.5568H60.3359C60.6072 14.5578 60.8711 14.6458 61.0889 14.8077C61.3066 14.9697 61.4668 15.1972 61.5459 15.4568C61.6417 15.7116 61.644 15.9921 61.5525 16.2484C61.4609 16.5048 61.2814 16.7203 61.0459 16.8568L57.0459 19.6568L58.5559 24.2568C58.6517 24.5116 58.654 24.7921 58.5625 25.0484C58.4709 25.3048 58.2914 25.5203 58.0559 25.6568C57.8299 25.8044 57.5658 25.8829 57.2959 25.8829C57.0259 25.8829 56.7619 25.8044 56.5359 25.6568L52.5059 22.7568L48.5659 25.6568C48.3767 25.8385 48.1279 25.9451 47.8659 25.9568ZM48.7759 17.0568L50.4059 18.1568C50.6096 18.3222 50.7646 18.5397 50.8544 18.7863C50.9443 19.0328 50.9655 19.2991 50.9159 19.5568L50.3059 21.3568L51.9259 20.2568C52.1503 20.1101 52.4127 20.0319 52.6809 20.0319C52.949 20.0319 53.2114 20.1101 53.4359 20.2568L55.0559 21.3568L54.4059 19.5568C54.3088 19.3011 54.3069 19.0189 54.4005 18.7619C54.4941 18.5049 54.677 18.2901 54.9159 18.1568L56.5459 17.0568H54.6259C54.3528 17.0579 54.0866 16.9709 53.8668 16.8088C53.6471 16.6467 53.4854 16.418 53.4059 16.1568L52.5059 14.3568L51.9059 16.1568C51.8196 16.414 51.6562 16.6384 51.4379 16.7994C51.2196 16.9604 50.957 17.0503 50.6859 17.0568H48.7759Z" fill="black"/>
</svg>
