<svg width="63" height="64" viewBox="0 0 63 64" fill="none" xmlns="http://www.w3.org/2000/svg">
<g clip-path="url(#clip0_80_11712)">
<path fill-rule="evenodd" clip-rule="evenodd" d="M33.0507 28.6521C32.5717 27.7828 31.667 25.9909 31.8799 25.7781C32.0928 25.5653 35.3037 23.9509 36.8826 23.1704C37.1664 24.0396 37.8512 25.7781 38.3195 25.7781C38.6432 25.7781 39.6829 25.4201 40.6647 25.0821C41.4586 24.8088 42.2146 24.5484 42.524 24.5008C43.0774 24.4157 44.0319 22.3365 44.4399 21.3076L49.6555 22.3721L49.0701 25.3524L53.4874 28.1731L56.0419 26.8426L59.7141 30.8873L56.787 33.708L58.0111 38.1785L61.0979 39.3494L60.2463 45.4697L56.5209 44.5117L53.9663 49.0887L55.7758 51.6433L51.0924 54.8365L48.4846 52.1222L43.6948 53.6656L42.9497 57.0717L37.4148 55.3687L37.8406 51.6433L33.5297 49.6209L30.4961 50.7917L27.4094 46.1083L30.4961 43.9263C30.0881 42.3652 29.2082 39.2003 28.9528 39.03C28.6973 38.8597 26.8594 38.7107 25.9724 38.6575L26.8239 32.5904L30.1768 33.1226L33.0507 28.6521ZM43.4026 46.714C47.6497 46.714 51.0926 43.2711 51.0926 39.024C51.0926 34.7769 47.6497 31.334 43.4026 31.334C39.1555 31.334 35.7126 34.7769 35.7126 39.024C35.7126 43.2711 39.1555 46.714 43.4026 46.714Z" fill="#F9C801"/>
<path d="M61.4466 38.0343L59.2084 37.5995C59.1122 36.3722 58.8674 35.1611 58.4794 33.9928L60.3723 32.7138C60.5191 32.6199 60.6451 32.4969 60.7427 32.3525C60.8403 32.208 60.9073 32.0452 60.9396 31.8739C60.9719 31.7026 60.9689 31.5265 60.9308 31.3565C60.8926 31.1864 60.82 31.0259 60.7176 30.8849L57.4051 25.9992C57.3102 25.8528 57.1864 25.7274 57.0412 25.6306C56.896 25.5338 56.7326 25.4678 56.5609 25.4365C56.3915 25.4023 56.2168 25.4028 56.0476 25.4379C55.8783 25.4731 55.7179 25.5422 55.5761 25.6411L53.6833 26.9201C52.7483 26.1177 51.7172 25.4346 50.6137 24.8865L51.0486 22.6483C51.0875 22.4774 51.0909 22.3003 51.0585 22.128C51.0261 21.9557 50.9587 21.7919 50.8603 21.6468C50.762 21.5017 50.6348 21.3783 50.4868 21.2844C50.3388 21.1905 50.173 21.128 49.9998 21.1008L44.1933 20.0009C44.0258 19.9684 43.8536 19.9698 43.6866 20.005C43.5197 20.0401 43.3615 20.1083 43.2213 20.2055C43.0763 20.299 42.9517 20.4208 42.8549 20.5637C42.7582 20.7065 42.6914 20.8675 42.6586 21.0368L42.2365 23.2878C41.0081 23.3924 39.797 23.6457 38.6298 24.0424L37.3508 22.1495C37.2518 22.0026 37.1234 21.8779 36.9737 21.7832C36.824 21.6886 36.6563 21.626 36.4811 21.5996C36.3125 21.5635 36.1384 21.5619 35.9691 21.5949C35.7999 21.6279 35.6391 21.6947 35.4963 21.7914L30.6234 25.1168C30.3374 25.3183 30.1368 25.6193 30.0607 25.9609C30.0265 26.1303 30.027 26.305 30.0621 26.4742C30.0973 26.6435 30.1664 26.8039 30.2653 26.9457L31.5443 28.8386C30.7471 29.7794 30.0684 30.8146 29.5235 31.9209L27.2725 31.4988C26.9302 31.4382 26.5776 31.5115 26.2877 31.7034C26.0037 31.9046 25.8071 32.2065 25.7378 32.5476L24.6379 38.3541C24.5989 38.5241 24.595 38.7003 24.6266 38.8718C24.6582 39.0434 24.7246 39.2066 24.8216 39.3516C24.9187 39.4965 25.0443 39.6201 25.1909 39.7147C25.3374 39.8093 25.5018 39.8729 25.6738 39.9016L27.9248 40.3237C28.0254 41.5557 28.2745 42.771 28.6666 43.9432L26.7737 45.2222C26.6329 45.3221 26.5137 45.4496 26.4235 45.597C26.3333 45.7443 26.2738 45.9083 26.2487 46.0792C26.2236 46.2501 26.2334 46.4244 26.2775 46.5914C26.3215 46.7584 26.399 46.9148 26.5052 47.0511L29.8305 51.9495C29.9244 52.0909 30.0456 52.2121 30.1869 52.3062C30.3282 52.4002 30.4868 52.4652 30.6534 52.4974C30.8201 52.5295 30.9915 52.5281 31.1576 52.4934C31.3237 52.4586 31.4813 52.3911 31.621 52.2949L33.5139 51.0159C34.4546 51.8072 35.4848 52.4854 36.5834 53.0367L36.1614 55.2749C36.1224 55.4458 36.1191 55.6229 36.1515 55.7952C36.1838 55.9675 36.2513 56.1313 36.3497 56.2764C36.448 56.4215 36.5751 56.5449 36.7232 56.6388C36.8712 56.7327 37.0369 56.7952 37.2101 56.8224L43.0039 57.9351H43.2469C43.5534 57.9391 43.8512 57.8328 44.086 57.6356C44.3207 57.4384 44.4768 57.1634 44.5258 56.8608L44.9479 54.6098C46.1749 54.5034 47.3853 54.2545 48.5546 53.868L49.8336 55.7609C49.9275 55.9077 50.0505 56.0337 50.1949 56.1313C50.3394 56.2288 50.5022 56.2958 50.6735 56.3282C50.8448 56.3605 51.0209 56.3575 51.1909 56.3193C51.361 56.2812 51.5215 56.2086 51.6625 56.1062L56.5482 52.7809C56.8223 52.5874 57.0095 52.294 57.0693 51.9638C57.1291 51.6337 57.0568 51.2932 56.8679 51.0159L55.5889 49.123C56.3804 48.1779 57.0586 47.1434 57.6097 46.0407L59.8479 46.4628C60.017 46.4998 60.1919 46.5021 60.3619 46.4696C60.532 46.4371 60.6937 46.3704 60.8372 46.2735C60.9807 46.1766 61.103 46.0516 61.1968 45.9061C61.2905 45.7606 61.3538 45.5975 61.3827 45.4268L62.4954 39.6075C62.5296 39.438 62.5291 39.2634 62.4939 39.0941C62.4588 38.9248 62.3896 38.7645 62.2907 38.6227C62.1984 38.4715 62.0758 38.3412 61.9304 38.2399C61.7851 38.1386 61.6204 38.0686 61.4466 38.0343ZM59.0549 43.5979L57.0853 43.227C56.7893 43.1634 56.4803 43.2069 56.2133 43.3497C55.9463 43.4926 55.7386 43.7255 55.6273 44.0071C55.0127 45.5119 54.1138 46.8841 52.9798 48.0487C52.7612 48.2631 52.6268 48.5488 52.601 48.8539C52.5752 49.159 52.6597 49.4632 52.8391 49.7113L53.9646 51.3612L51.2404 53.2157L50.1277 51.5531C49.9623 51.299 49.7121 51.112 49.4216 51.0253C49.1312 50.9387 48.8194 50.958 48.5418 51.0798C47.0406 51.7035 45.435 52.0377 43.8096 52.0646C43.5031 52.0607 43.2053 52.167 42.9705 52.3642C42.7358 52.5614 42.5797 52.8363 42.5306 53.139L42.1598 55.0958L38.9367 54.4819L39.2949 52.5123C39.3702 52.2138 39.3354 51.8981 39.1968 51.6233C39.0582 51.3484 38.8251 51.1327 38.5403 51.0159C37.0455 50.4225 35.6747 49.555 34.4987 48.4579C34.2962 48.2456 34.0267 48.1094 33.7357 48.0721C33.4446 48.0349 33.1495 48.0988 32.9 48.2533L31.2501 49.3788L29.4084 46.6546L31.0583 45.5291C31.3123 45.3637 31.4993 45.1135 31.586 44.823C31.6727 44.5325 31.6534 44.2207 31.5315 43.9432C30.9167 42.4353 30.5872 40.8264 30.5595 39.1982C30.5634 38.8917 30.4571 38.5939 30.2599 38.3591C30.0628 38.1244 29.7878 37.9683 29.4852 37.9192L27.5283 37.5483L28.0911 34.3893L30.0479 34.773C30.3455 34.8358 30.6558 34.7904 30.923 34.6451C31.1902 34.4998 31.3969 34.264 31.5059 33.98C32.1297 32.455 33.0367 31.0619 34.179 29.8745C34.3943 29.6609 34.5266 29.3776 34.5524 29.0754C34.5781 28.7732 34.4957 28.4717 34.3197 28.2246L33.1942 26.562L35.9056 24.7075L37.0311 26.3701C37.1965 26.6242 37.4467 26.8112 37.7372 26.8979C38.0276 26.9845 38.3395 26.9652 38.617 26.8434C40.1174 26.2317 41.7166 25.898 43.3364 25.8586C43.6411 25.863 43.9374 25.7585 44.1718 25.5639C44.4063 25.3692 44.5636 25.0973 44.6154 24.797L44.9735 22.8786L48.1965 23.4925L47.8128 25.4365C47.75 25.7341 47.7953 26.0444 47.9407 26.3116C48.086 26.5788 48.3218 26.7855 48.6058 26.8945C50.1031 27.5218 51.4696 28.4242 52.6345 29.5548C52.8482 29.7701 53.1314 29.9024 53.4336 29.9282C53.7358 29.9539 54.0374 29.8715 54.2844 29.6955L55.9215 28.5444L57.776 31.2686L56.1133 32.3941C55.8593 32.5595 55.6723 32.8097 55.5856 33.1002C55.4989 33.3907 55.5182 33.7025 55.6401 33.98C56.2639 35.4857 56.598 37.0955 56.6249 38.725C56.6205 39.0297 56.725 39.3259 56.9196 39.5604C57.1142 39.7949 57.3862 39.9522 57.6864 40.004L59.6561 40.3876L59.0549 43.5979Z" fill="#B80000"/>
<path d="M45.3317 29.6692C44.1115 29.4408 42.8582 29.4549 41.6435 29.7109C40.4288 29.9668 39.2763 30.4595 38.252 31.1608C36.1833 32.5771 34.7619 34.7572 34.3006 37.2215C34.0721 38.4417 34.0863 39.695 34.3422 40.9097C34.5981 42.1245 35.0908 43.2769 35.7921 44.3012C36.4934 45.3256 37.3896 46.2017 38.4295 46.8797C39.4694 47.5577 40.6327 48.0242 41.8529 48.2526C42.4345 48.3644 43.0256 48.4201 43.6179 48.4189C45.963 48.4025 48.2184 47.5161 49.9472 45.9314C51.6759 44.3467 52.7547 42.1766 52.9744 39.8418C53.1942 37.5069 52.5394 35.1737 51.1367 33.2942C49.7341 31.4147 47.6837 30.1229 45.3828 29.6692H45.3317ZM50.2557 40.2463C50.09 41.1262 49.7522 41.9648 49.2617 42.7139C48.7712 43.463 48.1377 44.108 47.3974 44.6118C46.6572 45.1156 45.8248 45.4683 44.948 45.6497C44.0711 45.8312 43.1671 45.8378 42.2877 45.6691C40.9616 45.4154 39.7405 44.7742 38.7786 43.8267C37.8167 42.8793 37.1572 41.6679 36.8835 40.3458C36.6098 39.0237 36.7341 37.6501 37.2407 36.3985C37.7473 35.147 38.6135 34.0737 39.7298 33.3143C40.8585 32.5393 42.1976 32.1287 43.5667 32.1376C43.9956 32.1386 44.4235 32.1771 44.8457 32.2527C46.6192 32.6027 48.1827 33.6389 49.196 35.136C50.2092 36.6331 50.5901 38.4698 50.2557 40.2463Z" fill="#B80000"/>
<path d="M13.6007 32.2404L13.8437 33.9414C13.8615 34.0701 13.9045 34.1939 13.9704 34.3059C14.0362 34.4178 14.1236 34.5156 14.2274 34.5937C14.4014 34.7231 14.6117 34.7947 14.8285 34.7983H14.9948L19.3816 34.1588C19.6391 34.1209 19.8711 33.9825 20.0269 33.774C20.1826 33.5655 20.2496 33.3038 20.213 33.0461L19.97 31.3451C20.8198 30.9745 21.6192 30.4975 22.3488 29.9254L23.7301 30.9614C23.8335 31.0407 23.9517 31.0984 24.0778 31.131C24.2039 31.1637 24.3353 31.1707 24.4641 31.1516C24.593 31.1325 24.7167 31.0878 24.8279 31.0199C24.9391 30.9521 25.0355 30.8626 25.1114 30.7568L27.7845 27.1884C27.9379 26.9772 28.0024 26.7143 27.9641 26.456C27.9259 26.1978 27.7879 25.9648 27.5798 25.8072L26.2113 24.7712C26.5446 23.9065 26.7722 23.0047 26.8892 22.0854L28.5902 21.8424C28.8491 21.8038 29.083 21.6662 29.2425 21.4587C29.3943 21.2429 29.4625 20.9792 29.4343 20.7169L28.7949 16.3172C28.7568 16.0589 28.6189 15.8258 28.4109 15.6679C28.2028 15.5101 27.9412 15.4402 27.6821 15.4731L25.9811 15.7289C25.6103 14.8778 25.1379 14.0748 24.5743 13.3372L25.5974 11.9687C25.755 11.7556 25.8238 11.4897 25.7893 11.2269C25.747 10.9693 25.6102 10.7367 25.4056 10.5746L21.8117 7.91438C21.7085 7.83611 21.5908 7.77899 21.4655 7.74627C21.3401 7.71355 21.2095 7.70588 21.0812 7.7237C20.9529 7.74152 20.8294 7.78448 20.7177 7.85012C20.606 7.91576 20.5084 8.00279 20.4304 8.10622L19.4072 9.48751C18.5406 9.16023 17.6395 8.93281 16.7214 8.80966L16.4784 7.09584C16.4611 6.9672 16.4185 6.84325 16.3532 6.73111C16.2878 6.61897 16.201 6.52085 16.0975 6.44241C15.9941 6.36396 15.8762 6.30673 15.7506 6.274C15.625 6.24128 15.4942 6.2337 15.3657 6.25172L10.966 6.8912C10.7084 6.93346 10.4758 7.07027 10.3137 7.27489C10.1594 7.48925 10.0951 7.75553 10.1347 8.0167L10.3777 9.71772C9.53222 10.0916 8.73375 10.5638 7.99881 11.1246L6.63031 10.0886C6.52611 10.0081 6.40663 9.94951 6.27911 9.91653C6.15159 9.88355 6.0187 9.87683 5.88851 9.89678C5.63329 9.9359 5.40365 10.0737 5.24902 10.2805L2.58877 13.9255C2.50787 14.027 2.44903 14.1443 2.416 14.2698C2.38297 14.3953 2.37647 14.5264 2.39692 14.6545C2.43549 14.9135 2.57305 15.1473 2.78061 15.3068L4.14911 16.33C3.82638 17.1752 3.60319 18.0551 3.48405 18.9519L1.78302 19.2077C1.65254 19.2217 1.52626 19.262 1.41178 19.3262C1.29731 19.3904 1.19701 19.4771 1.11694 19.581C1.03687 19.685 0.978682 19.8041 0.945885 19.9312C0.913087 20.0583 0.90636 20.1906 0.926108 20.3204L1.56559 24.7328C1.60357 24.9903 1.74193 25.2223 1.95043 25.3781C2.15893 25.5338 2.42061 25.6007 2.6783 25.5642L4.37933 25.3212C4.75026 26.1681 5.22267 26.9669 5.78619 27.7L4.76302 29.0813C4.61093 29.2922 4.54256 29.552 4.57117 29.8103C4.58835 29.9406 4.63247 30.0659 4.70074 30.1782C4.769 30.2905 4.8599 30.3874 4.96765 30.4626L8.5104 33.1101C8.71761 33.2624 8.97562 33.3288 9.23061 33.2954C9.48559 33.262 9.71784 33.1315 9.87889 32.931L10.9149 31.5625C11.7787 31.8985 12.6809 32.1261 13.6007 32.2404ZM9.76379 29.7464L8.86851 30.9614L6.93726 29.4778L7.83254 28.2628C7.98478 28.0845 8.06842 27.8577 8.06842 27.6233C8.06842 27.3889 7.98478 27.1621 7.83254 26.9838C7.02714 26.0621 6.39848 24.9999 5.97804 23.8503C5.90109 23.6383 5.75369 23.4591 5.56046 23.3427C5.36724 23.2263 5.13991 23.1797 4.91649 23.2109L3.43289 23.4283L3.07478 20.9854L4.57117 20.768C4.79569 20.7336 5.00172 20.6235 5.15521 20.4561C5.3087 20.2886 5.40045 20.0738 5.41529 19.8472C5.48873 18.6287 5.79252 17.4353 6.31057 16.33C6.42603 16.1165 6.45856 15.8678 6.40191 15.6318C6.34525 15.3957 6.20342 15.1889 6.00362 15.051L4.76302 14.2453L6.23383 12.2757L7.43606 13.1709C7.61435 13.3232 7.8411 13.4068 8.07555 13.4068C8.30999 13.4068 8.53674 13.3232 8.71503 13.1709C9.61374 12.3479 10.6594 11.7014 11.7973 11.2653C12.0094 11.1883 12.1886 11.0409 12.305 10.8477C12.4214 10.6545 12.4679 10.4272 12.4368 10.2037L12.2322 8.70734L14.6622 8.36202L14.8797 9.84562C14.9091 10.07 15.0159 10.2772 15.1816 10.4313C15.3474 10.5854 15.5618 10.6768 15.7877 10.6897C17.0072 10.766 18.2009 11.0742 19.3049 11.5978C19.5191 11.7105 19.7668 11.7414 20.0021 11.685C20.2374 11.6285 20.4442 11.4884 20.5839 11.2909L21.3896 10.0886L23.3592 11.5722L22.464 12.7745C22.3141 12.9539 22.232 13.1802 22.232 13.4139C22.232 13.6477 22.3141 13.874 22.464 14.0534C23.2692 14.9705 23.8979 16.0285 24.3185 17.1741C24.3933 17.3876 24.5403 17.5682 24.7341 17.685C24.9279 17.8017 25.1563 17.8472 25.38 17.8136L26.8636 17.609L27.2217 20.0518L25.7381 20.2564C25.5136 20.2909 25.3076 20.4009 25.1541 20.5684C25.0006 20.7358 24.9088 20.9506 24.894 21.1773C24.8163 22.4006 24.5082 23.5983 23.9859 24.7072C23.8938 24.9129 23.874 25.1436 23.9298 25.3619C23.9855 25.5802 24.1135 25.7732 24.2929 25.9095L25.4951 26.8175L24.0115 28.7999L22.8093 27.8919C22.631 27.7396 22.4042 27.656 22.1698 27.656C21.9353 27.656 21.7086 27.7396 21.5303 27.8919C20.6199 28.7061 19.56 29.336 18.4096 29.7464C18.1979 29.8277 18.0197 29.9779 17.9038 30.1728C17.7878 30.3676 17.7407 30.5959 17.7701 30.8207L17.9876 32.3043L15.5447 32.6624L15.3273 31.166C15.2956 30.9426 15.1881 30.7368 15.0228 30.5832C14.8575 30.4295 14.6444 30.3373 14.4192 30.3219C13.2017 30.2425 12.0094 29.939 10.9021 29.4266C10.7703 29.3627 10.6264 29.3278 10.48 29.3243C10.3443 29.3449 10.2142 29.393 10.0976 29.4656C9.98108 29.5381 9.88054 29.6337 9.80216 29.7464H9.76379Z" fill="#B80000"/>
<path d="M16.1711 27.5596C17.9798 27.2907 19.6135 26.3305 20.7284 24.8812C21.8433 23.4319 22.3524 21.6066 22.1486 19.7895C21.9447 17.9723 21.0438 16.3052 19.6355 15.139C18.2272 13.9727 16.4213 13.3984 14.598 13.5369C12.7748 13.6754 11.0763 14.5158 9.86029 15.8814C8.64425 17.2469 8.00545 19.031 8.07838 20.8581C8.1513 22.6851 8.93025 24.4126 10.2513 25.6769C11.5723 26.9412 13.3323 27.6437 15.1608 27.6364C15.499 27.6358 15.8367 27.6102 16.1711 27.5596ZM10.096 21.2543C9.99834 20.5882 10.0331 19.9094 10.1982 19.2568C10.3634 18.6041 10.6558 17.9905 11.0586 17.4511C11.4614 16.9116 11.9667 16.457 12.5455 16.1132C13.1243 15.7695 13.7653 15.5433 14.4317 15.4478C14.6744 15.4292 14.9181 15.4292 15.1608 15.4478C16.1385 15.4581 17.0929 15.7485 17.9107 16.2845C18.7286 16.8204 19.3757 17.5795 19.7755 18.4719C20.1752 19.3643 20.3109 20.3526 20.1663 21.3197C20.0218 22.2868 19.6031 23.1922 18.9599 23.9286C18.3166 24.6651 17.4758 25.2019 16.537 25.4753C15.5981 25.7486 14.6006 25.7472 13.6626 25.4712C12.7245 25.1952 11.8852 24.6561 11.244 23.9178C10.6029 23.1795 10.1867 22.273 10.0449 21.3055L10.096 21.2543Z" fill="#B80000"/>
</g>
<defs>
<clipPath id="clip0_80_11712">
<rect width="62" height="63" fill="white" transform="translate(0.717773 0.588867)"/>
</clipPath>
</defs>
</svg>
