<svg width="64" height="64" viewBox="0 0 64 64" fill="none" xmlns="http://www.w3.org/2000/svg">
<path d="M25.7138 34.6143C25.7375 39.3074 25.7709 48.8659 25.7138 49.5555L34.621 50.1302L34.1182 34.6143H38.7155L39.5775 16.2252C36.7281 16.3688 30.9575 16.6705 30.6702 16.728C30.3829 16.7854 27.9645 17.7576 26.7913 18.2365L25.7138 25.8507L22.1936 26.3536L22.6245 34.6143H25.7138Z" fill="#F9C801"/>
<mask id="path-2-inside-1_513_13422" fill="white">
<path fill-rule="evenodd" clip-rule="evenodd" d="M54.1661 24.8996C58.1401 37.4122 51.2183 50.7772 38.7057 54.7512C26.1931 58.7253 12.8281 51.8034 8.85403 39.2908C4.88 26.7782 11.8019 13.4132 24.3144 9.43918C36.827 5.46514 50.1921 12.387 54.1661 24.8996ZM33.2477 33.0205H37.485L38.0444 27.5671H33.2435V24.351C33.2435 23.1476 34.0401 22.8637 34.6079 22.8637H38.0528V17.5416H33.2944C28.0104 17.5416 26.807 21.4865 26.807 24.0289V27.5628H23.7604V33.0205H26.807V48.5756H33.2477V33.0205Z"/>
</mask>
<path d="M38.7057 54.7512L37.9489 52.3685L38.7057 54.7512ZM54.1661 24.8996L56.5488 24.1428L54.1661 24.8996ZM8.85403 39.2908L11.2367 38.5341V38.5341L8.85403 39.2908ZM24.3144 9.43918L23.5577 7.05647L24.3144 9.43918ZM37.485 33.0205V35.5205H39.7417L39.972 33.2755L37.485 33.0205ZM33.2477 33.0205V30.5205H30.7478V33.0205H33.2477ZM38.0444 27.5671L40.5313 27.8221L40.8139 25.0671H38.0444V27.5671ZM33.2435 27.5671H30.7435V30.0671H33.2435V27.5671ZM38.0528 22.8637V25.3637H40.5528V22.8637H38.0528ZM38.0528 17.5416H40.5528V15.0416H38.0528V17.5416ZM26.807 27.5628V30.0628H29.307V27.5628H26.807ZM23.7604 27.5628V25.0628H21.2604V27.5628H23.7604ZM23.7604 33.0205H21.2604V35.5205H23.7604V33.0205ZM26.807 33.0205H29.307V30.5205H26.807V33.0205ZM26.807 48.5756H24.3071V51.0756H26.807V48.5756ZM33.2477 48.5756V51.0756H35.7477V48.5756H33.2477ZM39.4624 57.1339C53.2909 52.742 60.9408 37.9713 56.5488 24.1428L51.7834 25.6563C55.3395 36.853 49.1456 48.8124 37.9489 52.3685L39.4624 57.1339ZM6.47133 40.0476C10.8633 53.8761 25.6339 61.5259 39.4624 57.1339L37.9489 52.3685C26.7523 55.9246 14.7928 49.7307 11.2367 38.5341L6.47133 40.0476ZM23.5577 7.05647C9.72917 11.4484 2.07935 26.2191 6.47133 40.0476L11.2367 38.5341C7.68065 27.3374 13.8745 15.378 25.0712 11.8219L23.5577 7.05647ZM56.5488 24.1428C52.1568 10.3143 37.3862 2.6645 23.5577 7.05647L25.0712 11.8219C36.2678 8.26579 48.2273 14.4597 51.7834 25.6563L56.5488 24.1428ZM37.485 30.5205H33.2477V35.5205H37.485V30.5205ZM35.5574 27.312L34.9981 32.7654L39.972 33.2755L40.5313 27.8221L35.5574 27.312ZM33.2435 30.0671H38.0444V25.0671H33.2435V30.0671ZM30.7435 24.351V27.5671H35.7435V24.351H30.7435ZM34.6079 20.3637C33.9657 20.3637 32.9896 20.5164 32.128 21.2225C31.1723 22.0058 30.7435 23.1493 30.7435 24.351H35.7435C35.7435 24.3251 35.7475 24.4251 35.6763 24.5919C35.6009 24.7688 35.4721 24.9465 35.2975 25.0896C34.9762 25.3529 34.6824 25.3637 34.6079 25.3637V20.3637ZM38.0528 20.3637H34.6079V25.3637H38.0528V20.3637ZM35.5529 17.5416V22.8637H40.5528V17.5416H35.5529ZM33.2944 20.0416H38.0528V15.0416H33.2944V20.0416ZM29.307 24.0289C29.307 23.0817 29.5422 22.0469 30.0815 21.3153C30.5251 20.7136 31.3648 20.0416 33.2944 20.0416V15.0416C29.94 15.0416 27.536 16.3421 26.0569 18.3484C24.6736 20.2249 24.3071 22.4337 24.3071 24.0289H29.307ZM29.307 27.5628V24.0289H24.3071V27.5628H29.307ZM23.7604 30.0628H26.807V25.0628H23.7604V30.0628ZM26.2604 33.0205V27.5628H21.2604V33.0205H26.2604ZM26.807 30.5205H23.7604V35.5205H26.807V30.5205ZM29.307 48.5756V33.0205H24.3071V48.5756H29.307ZM33.2477 46.0756H26.807V51.0756H33.2477V46.0756ZM30.7478 33.0205V48.5756H35.7477V33.0205H30.7478Z" fill="black" mask="url(#path-2-inside-1_513_13422)"/>
</svg>
