<svg width="64" height="64" viewBox="0 0 64 64" fill="none" xmlns="http://www.w3.org/2000/svg">
<path d="M36.3393 26.4966H46.4493V30.5466C46.4493 31.8338 45.9387 33.0684 45.0294 33.9796C44.1201 34.8907 42.8865 35.4039 41.5993 35.4066H22.1693C20.8812 35.4039 19.6466 34.8911 18.7357 33.9802C17.8249 33.0693 17.312 31.8347 17.3093 30.5466V26.4966H36.3093H36.3393Z" fill="#F9C801"/>
<path d="M42.7093 13.1865C43.9713 13.4288 45.0855 14.162 45.8073 15.225C46.5292 16.2881 46.7996 17.5942 46.5593 18.8565L45.8493 22.7965L17.3193 17.1865L18.1293 13.1865C18.2481 12.5623 18.4888 11.9677 18.8377 11.4367C19.1866 10.9057 19.6368 10.4488 20.1626 10.0921C20.6883 9.73538 21.2793 9.48591 21.9017 9.35797C22.524 9.23003 23.1655 9.22614 23.7893 9.34651L42.7093 13.1865Z" fill="white"/>
<path d="M31.5794 56.847C31.2344 56.8396 30.9056 56.7045 30.6616 56.4696C30.4175 56.2348 30.277 55.9184 30.2694 55.5863V36.1185C30.2535 35.9431 30.2757 35.7663 30.3345 35.5996C30.3934 35.4328 30.4876 35.2796 30.6113 35.1498C30.7349 35.0199 30.8853 34.9163 31.0528 34.8453C31.2204 34.7744 31.4014 34.7378 31.5844 34.7378C31.7674 34.7378 31.9484 34.7744 32.116 34.8453C32.2835 34.9163 32.4339 35.0199 32.5575 35.1498C32.6812 35.2796 32.7754 35.4328 32.8343 35.5996C32.8931 35.7663 32.9153 35.9431 32.8994 36.1185V55.5863C32.8942 55.9208 32.7531 56.24 32.5064 56.4756C32.2597 56.7112 31.927 56.8445 31.5794 56.847Z" fill="#B80000"/>
<path d="M20.6593 56.8471C20.5162 56.8509 20.3746 56.8176 20.2493 56.7508C20.0874 56.7032 19.9371 56.6243 19.8078 56.519C19.6785 56.4138 19.5727 56.2843 19.497 56.1385C19.4212 55.9927 19.377 55.8336 19.3671 55.6709C19.3572 55.5081 19.3818 55.3452 19.4393 55.1919L23.9993 41.2767V41.1804L25.7193 35.8203C25.762 35.6553 25.8396 35.5006 25.9474 35.366C26.0551 35.2313 26.1907 35.1195 26.3456 35.0377C26.5004 34.9559 26.6711 34.9059 26.8471 34.8907C27.023 34.8755 27.2003 34.8955 27.3678 34.9494C27.5353 35.0034 27.6894 35.0901 27.8203 35.2042C27.9513 35.3182 28.0563 35.4571 28.1288 35.6121C28.2013 35.7671 28.2396 35.9349 28.2414 36.1049C28.2433 36.2749 28.2085 36.4433 28.1393 36.5998L26.4193 42.0561V42.1524L21.8693 56.2119C21.7635 56.4274 21.5893 56.605 21.3718 56.7192C21.1544 56.8333 20.9049 56.8781 20.6593 56.8471Z" fill="#B80000"/>
<path d="M42.1695 56.847C41.8951 56.8474 41.628 56.7623 41.4081 56.6045C41.1882 56.4466 41.0273 56.2245 40.9495 55.9713L36.4395 41.9502V41.854L34.7195 36.4072C34.6121 36.0946 34.6381 35.7537 34.7919 35.4595C34.9457 35.1653 35.2146 34.942 35.5395 34.8386C35.8644 34.7353 36.2187 34.7603 36.5243 34.9083C36.83 35.0563 37.0621 35.3151 37.1695 35.6277L38.8895 40.9783V41.0745L43.4395 55.0956C43.5341 55.4058 43.5031 55.739 43.3529 56.0282C43.2026 56.3174 42.9442 56.5412 42.6295 56.6545C42.4095 56.847 42.3095 56.847 42.1695 56.847Z" fill="#B80000"/>
<path d="M32.0895 46.1866C31.8942 46.1879 31.7014 46.1422 31.5274 46.0535C31.3534 45.9647 31.2032 45.8355 31.0895 45.6766C30.9892 45.5376 30.9173 45.3801 30.878 45.2133C30.8388 45.0464 30.8329 44.8734 30.8608 44.7042C30.8887 44.535 30.9498 44.3731 31.0405 44.2276C31.1312 44.0821 31.2499 43.9561 31.3895 43.8566L36.4495 40.0166C36.592 39.9175 36.7526 39.8474 36.9222 39.8103C37.0918 39.7732 37.267 39.7699 37.4379 39.8005C37.6087 39.8312 37.7719 39.8952 37.918 39.9889C38.0641 40.0826 38.1904 40.2041 38.2895 40.3466C38.3887 40.4891 38.4588 40.6497 38.4959 40.8193C38.5329 40.9889 38.5362 41.1641 38.5056 41.335C38.4749 41.5058 38.411 41.669 38.3173 41.8151C38.2236 41.9612 38.102 42.0875 37.9595 42.1866L32.8995 46.0366C32.6372 46.1219 32.3649 46.1723 32.0895 46.1866Z" fill="#B80000"/>
<path d="M30.7694 46.1867C30.638 46.1902 30.5073 46.1652 30.3865 46.1134C30.2657 46.0616 30.1575 45.9843 30.0694 45.8867L25.0094 42.0367C24.7283 41.8351 24.5387 41.5301 24.4825 41.1888C24.4262 40.8475 24.5078 40.4978 24.7094 40.2167C24.911 39.9355 25.2159 39.746 25.5573 39.6897C25.8986 39.6335 26.2483 39.7151 26.5294 39.9167L31.5794 43.7567C31.7198 43.8553 31.8393 43.9809 31.931 44.126C32.0227 44.2711 32.0848 44.4329 32.1136 44.6021C32.1424 44.7713 32.1374 44.9445 32.0989 45.1118C32.0605 45.2791 31.9892 45.4371 31.8894 45.5767C31.7643 45.7598 31.5976 45.9106 31.4029 46.0166C31.2082 46.1227 30.991 46.1809 30.7694 46.1867Z" fill="#B80000"/>
<path d="M52.8295 56.8466H15.0895C14.7605 56.8178 14.4543 56.6669 14.2312 56.4234C14.008 56.18 13.8843 55.8618 13.8843 55.5316C13.8843 55.2013 14.008 54.8831 14.2312 54.6397C14.4543 54.3962 14.7605 54.2453 15.0895 54.2166H52.8295C53.1585 54.2453 53.4647 54.3962 53.6878 54.6397C53.9109 54.8831 54.0347 55.2013 54.0347 55.5316C54.0347 55.8618 53.9109 56.18 53.6878 56.4234C53.4647 56.6669 53.1585 56.8178 52.8295 56.8466Z" fill="#B80000"/>
<path d="M41.5994 36.6167H22.2794C21.4797 36.6193 20.6872 36.4644 19.9474 36.1608C19.2075 35.8571 18.5347 35.4108 17.9673 34.8471C17.3999 34.2835 16.9491 33.6136 16.6407 32.8757C16.3322 32.1378 16.1721 31.3464 16.1694 30.5467V26.4967C16.172 26.322 16.209 26.1496 16.2783 25.9892C16.3475 25.8288 16.4477 25.6837 16.5731 25.562C16.6984 25.4404 16.8465 25.3446 17.0089 25.2802C17.1713 25.2158 17.3448 25.184 17.5194 25.1867H46.5194C46.8645 25.1943 47.1933 25.3348 47.4373 25.5788C47.6813 25.8229 47.8218 26.1516 47.8294 26.4967V30.5467C47.7802 32.1686 47.1031 33.708 45.9409 34.8404C44.7786 35.9728 43.2221 36.6096 41.5994 36.6167ZM18.5994 27.8167V30.5467C18.5954 31.0152 18.6851 31.4798 18.8635 31.9132C19.0418 32.3465 19.3051 32.7397 19.6379 33.0696C19.9706 33.3995 20.366 33.6595 20.8008 33.8342C21.2356 34.0088 21.7009 34.0947 22.1694 34.0867H41.5994C42.0676 34.0933 42.5323 34.0065 42.9665 33.8314C43.4007 33.6562 43.7955 33.3962 44.128 33.0665C44.4604 32.7369 44.7238 32.3442 44.9026 31.9115C45.0814 31.4789 45.1721 31.0148 45.1694 30.5467V27.8167H18.5994Z" fill="#B80000"/>
<path d="M45.8493 23.9766H45.6393L17.0193 18.4066C16.6856 18.3368 16.3931 18.1377 16.2057 17.8529C16.0183 17.5681 15.9513 17.2207 16.0193 16.8866L16.8293 12.9466C17.0992 11.549 17.844 10.2876 18.9375 9.37637C20.031 8.46511 21.406 7.95998 22.8293 7.94657C23.2386 7.92981 23.6483 7.9634 24.0493 8.04657L43.0493 11.7966C43.8537 11.9382 44.62 12.245 45.2999 12.6977C45.9798 13.1504 46.5584 13.739 46.9993 14.4266C47.4455 15.0866 47.7557 15.8288 47.912 16.61C48.0682 17.3912 48.0673 18.1957 47.9093 18.9766L47.0993 22.9166C46.9956 23.2207 46.8247 23.4975 46.5993 23.7266C46.3685 23.859 46.1135 23.944 45.8493 23.9766ZM18.7393 16.1866L44.8393 21.2366L45.3393 18.5066C45.5259 17.5661 45.3471 16.5899 44.8393 15.7766C44.5768 15.3762 44.2343 15.0344 43.8333 14.7729C43.4323 14.5113 42.9816 14.3355 42.5093 14.2566L23.5093 10.5166C23.3093 10.5166 23.0093 10.4166 22.7993 10.4166C21.9634 10.4272 21.1562 10.7237 20.5122 11.2568C19.8682 11.7898 19.426 12.5273 19.2593 13.3466L18.7393 16.1866Z" fill="#B80000"/>
<path d="M17.3194 18.4065H17.1694L10.9494 17.1865C10.6221 17.112 10.3367 16.9128 10.1539 16.6312C9.97106 16.3497 9.9052 16.0079 9.97028 15.6786C10.0354 15.3492 10.2263 15.0582 10.5025 14.8674C10.7787 14.6766 11.1184 14.6009 11.4494 14.6565L17.6194 15.8665C17.9531 15.9363 18.2457 16.1353 18.433 16.4202C18.6204 16.705 18.6874 17.0524 18.6194 17.3865C18.5264 17.6651 18.3536 17.9103 18.1225 18.0916C17.8914 18.273 17.6122 18.3824 17.3194 18.4065Z" fill="#B80000"/>
<path d="M21.1694 30.3465C20.8226 30.3388 20.4924 30.1969 20.2481 29.9507C20.0038 29.7046 19.8645 29.3733 19.8594 29.0265V26.4965C19.8881 26.1675 20.0391 25.8613 20.2825 25.6381C20.5259 25.415 20.8442 25.2913 21.1744 25.2913C21.5046 25.2913 21.8228 25.415 22.0663 25.6381C22.3097 25.8613 22.4607 26.1675 22.4894 26.4965V29.0265C22.4817 29.3742 22.3402 29.7055 22.0943 29.9514C21.8484 30.1973 21.5171 30.3388 21.1694 30.3465Z" fill="#B80000"/>
<path d="M25.0095 30.3465C24.6618 30.3388 24.3304 30.1973 24.0845 29.9514C23.8386 29.7055 23.6971 29.3742 23.6895 29.0265V26.4965C23.7182 26.1675 23.8691 25.8613 24.1126 25.6381C24.356 25.415 24.6742 25.2913 25.0045 25.2913C25.3347 25.2913 25.6529 25.415 25.8963 25.6381C26.1398 25.8613 26.2907 26.1675 26.3195 26.4965V29.0265C26.2984 29.368 26.1539 29.6902 25.9129 29.9331C25.6719 30.1759 25.3508 30.3229 25.0095 30.3465Z" fill="#B80000"/>
<path d="M28.7495 30.3465C28.4027 30.3388 28.0725 30.1969 27.8282 29.9507C27.5839 29.7046 27.4445 29.3733 27.4395 29.0265V26.4965C27.4682 26.1675 27.6191 25.8613 27.8626 25.6381C28.106 25.415 28.4242 25.2913 28.7545 25.2913C29.0847 25.2913 29.4029 25.415 29.6463 25.6381C29.8898 25.8613 30.0407 26.1675 30.0695 26.4965V29.0265C30.0618 29.3742 29.9203 29.7055 29.6744 29.9514C29.4285 30.1973 29.0971 30.3388 28.7495 30.3465Z" fill="#B80000"/>
<path d="M32.5995 30.3465C32.2519 30.3388 31.9205 30.1973 31.6746 29.9514C31.4287 29.7055 31.2872 29.3742 31.2795 29.0265V26.4965C31.3083 26.1675 31.4592 25.8613 31.7027 25.6381C31.9461 25.415 32.2643 25.2913 32.5945 25.2913C32.9248 25.2913 33.243 25.415 33.4864 25.6381C33.7299 25.8613 33.8808 26.1675 33.9095 26.4965V29.0265C33.8865 29.3673 33.7413 29.6883 33.5007 29.9308C33.2601 30.1732 32.9401 30.3208 32.5995 30.3465Z" fill="#B80000"/>
<path d="M36.3395 30.3465C35.9918 30.3388 35.6605 30.1973 35.4146 29.9514C35.1687 29.7055 35.0272 29.3742 35.0195 29.0265V26.4965C35.0482 26.1675 35.1992 25.8613 35.4427 25.6381C35.6861 25.415 36.0043 25.2913 36.3345 25.2913C36.6647 25.2913 36.983 25.415 37.2264 25.6381C37.4698 25.8613 37.6208 26.1675 37.6495 26.4965V29.0265C37.6444 29.3733 37.5051 29.7046 37.2608 29.9507C37.0165 30.1969 36.6863 30.3388 36.3395 30.3465Z" fill="#B80000"/>
</svg>
