<svg width="64" height="64" viewBox="0 0 64 64" fill="none" xmlns="http://www.w3.org/2000/svg">
<path d="M29.4614 42.291C31.7363 42.2956 34.0043 42.0406 36.2214 41.531L39.5514 49.101L26.9314 42.191C27.772 42.2742 28.6168 42.3076 29.4614 42.291Z" fill="#F9C801"/>
<path d="M26.9314 17.961L39.6514 11.101L36.3214 18.671C34.1732 18.1496 31.9719 17.8778 29.7614 17.861C28.8169 17.8426 27.8722 17.876 26.9314 17.961Z" fill="#F9C801"/>
<path d="M14.9215 22.201C11.7523 24.2812 8.98175 26.9129 6.74146 29.971C8.98162 33.1279 11.7894 35.8407 15.0215 37.971C17.0252 35.8799 18.1462 33.0972 18.1515 30.201C18.1676 28.7204 17.8905 27.2512 17.3361 25.8782C16.7818 24.5051 15.9611 23.2554 14.9215 22.201Z" fill="white"/>
<path d="M58.5215 22.531V37.651L49.5215 33.651C50.6022 32.5454 51.6046 31.3659 52.5215 30.121C51.6338 28.8193 50.6297 27.6009 49.5215 26.481L58.5215 22.531Z" fill="white"/>
<path d="M49.5414 26.441C50.6496 27.5609 51.6537 28.7793 52.5414 30.081C51.65 31.3458 50.6459 32.5273 49.5414 33.611C45.8739 37.3427 41.2749 40.0255 36.2214 41.381C34.0247 42.0052 31.7433 42.2786 29.4614 42.191C28.5514 42.191 27.7414 42.091 26.8314 42.091C22.616 41.6128 18.5695 40.1613 15.0114 37.851C17.0151 35.7599 18.1361 32.9772 18.1414 30.081C18.1497 27.1304 16.9883 24.2968 14.9114 22.201C18.515 19.8489 22.63 18.3949 26.9114 17.961C27.8189 17.8778 28.7302 17.8444 29.6414 17.861C31.8519 17.8778 34.0531 18.1496 36.2014 18.671C41.2717 20.0002 45.8837 22.6865 49.5414 26.441ZM35.8114 35.121C35.8062 34.7752 35.6665 34.445 35.422 34.2004C35.1774 33.9559 34.8472 33.8162 34.5014 33.811C34.3359 33.8175 34.1733 33.8565 34.0228 33.9258C33.8724 33.9951 33.7371 34.0935 33.6248 34.2151C33.5124 34.3368 33.4251 34.4794 33.3679 34.6349C33.3107 34.7903 33.2847 34.9555 33.2914 35.121C33.2965 35.4668 33.4362 35.7971 33.6808 36.0416C33.9253 36.2862 34.2556 36.4259 34.6014 36.431C34.7677 36.4273 34.9316 36.3901 35.0833 36.3216C35.235 36.2532 35.3714 36.1549 35.4843 36.0327C35.5972 35.9105 35.6843 35.7667 35.7405 35.6101C35.7967 35.4535 35.8208 35.2872 35.8114 35.121Z" fill="#F9C801"/>
<path d="M34.6014 33.911C34.8407 33.911 35.0746 33.982 35.2736 34.1149C35.4726 34.2479 35.6277 34.4369 35.7193 34.658C35.8108 34.8791 35.8348 35.1224 35.7881 35.3571C35.7414 35.5918 35.6262 35.8074 35.457 35.9766C35.2877 36.1458 35.0721 36.2611 34.8374 36.3078C34.6027 36.3544 34.3594 36.3305 34.1383 36.2389C33.9172 36.1473 33.7282 35.9922 33.5953 35.7933C33.4623 35.5943 33.3914 35.3603 33.3914 35.121C33.3914 34.9621 33.4227 34.8048 33.4835 34.658C33.5443 34.5112 33.6334 34.3778 33.7458 34.2654C33.8581 34.1531 33.9915 34.0639 34.1383 34.0031C34.2851 33.9423 34.4425 33.911 34.6014 33.911Z" fill="black"/>
<path d="M13.1014 31.291C13.7696 31.291 14.3114 30.7493 14.3114 30.081C14.3114 29.4127 13.7696 28.871 13.1014 28.871C12.4331 28.871 11.8914 29.4127 11.8914 30.081C11.8914 30.7493 12.4331 31.291 13.1014 31.291Z" fill="black"/>
<path d="M58.5215 38.961C58.3487 38.9766 58.1751 38.9418 58.0215 38.861L49.0215 34.861C48.8685 34.7868 48.7317 34.6832 48.6187 34.5561C48.5058 34.429 48.4189 34.2809 48.3632 34.1203C48.2507 33.7958 48.2717 33.44 48.4215 33.131C48.5714 32.822 48.8378 32.5852 49.1623 32.4727C49.3229 32.417 49.493 32.3935 49.6627 32.4035C49.8324 32.4135 49.9985 32.4568 50.1515 32.531L57.4115 35.731V24.421L50.2515 27.651C50.1058 27.7182 49.9482 27.756 49.7879 27.7622C49.6275 27.7684 49.4675 27.7429 49.317 27.6871C49.1666 27.6314 49.0285 27.5465 48.9109 27.4374C48.7933 27.3282 48.6983 27.1969 48.6315 27.051C48.4971 26.7403 48.4853 26.3902 48.5985 26.0711C48.7116 25.752 48.9414 25.4876 49.2415 25.331L58.2415 21.401C58.4351 21.3135 58.6478 21.2767 58.8595 21.2942C59.0712 21.3117 59.275 21.3829 59.4515 21.501C59.6325 21.6024 59.7811 21.7529 59.8802 21.9352C59.9793 22.1174 60.0248 22.324 60.0115 22.531V37.651C60.0156 37.8585 59.9603 38.0628 59.8523 38.2399C59.7442 38.417 59.5878 38.5597 59.4015 38.651C59.134 38.8166 58.8338 38.9224 58.5215 38.961Z" fill="black"/>
<path d="M26.9314 19.281C26.7247 19.2815 26.5218 19.2248 26.3453 19.1171C26.1688 19.0095 26.0256 18.8551 25.9314 18.671C25.7531 18.3991 25.6859 18.0692 25.7435 17.7492C25.8012 17.4292 25.9794 17.1435 26.2414 16.951C26.5102 16.7682 26.84 16.6983 27.1598 16.7563C27.4797 16.8143 27.7639 16.9955 27.9514 17.261C28.1302 17.5301 28.1988 17.8577 28.143 18.1759C28.0871 18.4942 27.9112 18.7788 27.6514 18.971C27.4566 19.1577 27.201 19.2678 26.9314 19.281Z" fill="black"/>
<path d="M36.2215 19.981C36.0455 19.9963 35.8688 19.9616 35.7115 19.881C35.4068 19.7321 35.173 19.4691 35.0607 19.1491C34.9484 18.8291 34.9667 18.4777 35.1115 18.171L36.9215 14.031L27.5415 19.031C27.3958 19.1105 27.2358 19.1604 27.0707 19.178C26.9056 19.1957 26.7387 19.1806 26.5794 19.1337C26.4202 19.0868 26.2717 19.009 26.1426 18.9047C26.0134 18.8005 25.906 18.6718 25.8265 18.526C25.6661 18.2316 25.6291 17.8855 25.7238 17.5639C25.8186 17.2423 26.0371 16.9715 26.3315 16.811L39.0115 9.99101C39.2317 9.84483 39.4978 9.78446 39.7595 9.82132C40.0212 9.85818 40.2603 9.98971 40.4315 10.191C40.6206 10.3687 40.7507 10.6001 40.8044 10.8539C40.858 11.1078 40.8326 11.372 40.7315 11.611L37.4015 19.171C37.3046 19.4059 37.1414 19.6076 36.9319 19.7514C36.7224 19.8952 36.4756 19.975 36.2215 19.981Z" fill="black"/>
<path d="M39.5514 50.261C39.343 50.2768 39.1339 50.2425 38.9414 50.161L26.2314 43.301C26.0857 43.2216 25.957 43.1142 25.8527 42.985C25.7484 42.8558 25.6706 42.7074 25.6237 42.5481C25.5769 42.3889 25.5618 42.2219 25.5794 42.0569C25.597 41.8918 25.647 41.7318 25.7264 41.586C25.8059 41.4403 25.9133 41.3116 26.0425 41.2073C26.1716 41.103 26.3201 41.0252 26.4793 40.9783C26.6386 40.9314 26.8055 40.9164 26.9706 40.934C27.1357 40.9516 27.2957 41.0016 27.4414 41.081L36.9214 46.081L35.1114 41.991C35.0101 41.7356 34.9845 41.4564 35.0377 41.1869C35.091 40.9173 35.2207 40.6688 35.4114 40.471C35.6673 40.2457 36.0015 40.1299 36.3419 40.1486C36.6823 40.1673 37.0018 40.319 37.2314 40.571C37.3314 40.671 37.4314 40.781 37.4314 40.881L40.7614 48.451C40.8677 48.6874 40.8959 48.9516 40.842 49.2051C40.788 49.4586 40.6547 49.6884 40.4614 49.861C40.3578 50.0013 40.2193 50.1119 40.0597 50.1821C39.9 50.2523 39.7248 50.2795 39.5514 50.261Z" fill="black"/>
<path d="M15.0115 39.161C14.6854 39.1521 14.369 39.0478 14.1015 38.861C13.8609 38.6193 13.7258 38.2921 13.7258 37.951C13.7258 37.61 13.8609 37.2828 14.1015 37.041C15.8941 35.1559 16.8745 32.642 16.8315 30.041C16.8433 28.7455 16.5994 27.4603 16.1138 26.2591C15.6282 25.0579 14.9104 23.9643 14.0015 23.041C13.7869 22.7946 13.6738 22.476 13.6851 22.1494C13.6964 21.8229 13.8311 21.5127 14.0622 21.2817C14.2932 21.0507 14.6033 20.9159 14.9299 20.9046C15.2564 20.8934 15.5751 21.0064 15.8215 21.221C16.9616 22.3801 17.8607 23.7538 18.4666 25.2626C19.0725 26.7714 19.3732 28.3853 19.3515 30.011C19.3645 33.2373 18.1364 36.3451 15.9215 38.691C15.8193 38.8373 15.6831 38.9565 15.5245 39.0384C15.366 39.1203 15.1899 39.1624 15.0115 39.161Z" fill="black"/>
<path d="M29.6615 43.601H29.4615C28.5485 43.5841 27.6372 43.5174 26.7315 43.401C22.3111 42.8838 18.0668 41.3653 14.3215 38.961C10.963 36.7692 8.05144 33.9594 5.74149 30.681C5.58972 30.4585 5.50854 30.1954 5.50854 29.926C5.50854 29.6567 5.58972 29.3936 5.74149 29.171C8.07309 26.0053 10.9394 23.2709 14.2115 21.091C17.9763 18.6445 22.2664 17.1231 26.7315 16.651C27.6724 16.5678 28.6171 16.5344 29.5615 16.551C31.8785 16.5473 34.1856 16.8534 36.4215 17.461C41.7116 18.8359 46.5273 21.6258 50.3515 25.531C51.4771 26.7065 52.5228 27.9559 53.4815 29.271C53.6282 29.4955 53.7063 29.7579 53.7063 30.026C53.7063 30.2942 53.6282 30.5565 53.4815 30.781C52.4815 32.091 51.4815 33.311 50.3515 34.521C46.5491 38.4033 41.7721 41.1907 36.5215 42.591C34.3008 43.2803 31.9866 43.621 29.6615 43.601ZM27.0115 40.881C27.852 40.9662 28.6969 40.9996 29.5415 40.981H29.7415C31.8565 40.9651 33.9618 40.6931 36.0115 40.171C40.8326 38.845 45.2174 36.2679 48.7215 32.701C49.537 31.8747 50.3017 30.9998 51.0115 30.081C50.3115 29.171 49.5015 28.261 48.6915 27.351C45.227 23.7489 40.8415 21.1653 36.0115 19.881C33.9651 19.3597 31.8632 19.0877 29.7515 19.071H29.5515C28.7402 19.0544 27.9287 19.0878 27.1215 19.171C23.0529 19.5583 19.14 20.9312 15.7215 23.171C12.951 24.9795 10.4952 27.2292 8.45149 29.831C10.4981 32.5248 12.9908 34.8484 15.8215 36.701C19.1424 39.0098 22.9902 40.4471 27.0115 40.881Z" fill="black"/>
<path d="M38.3415 30.081C38.1697 30.0794 38.0001 30.0422 37.8434 29.9716C37.6868 29.901 37.5465 29.7987 37.4315 29.671L34.9115 27.151C34.7148 26.9792 34.5856 26.743 34.5472 26.4846C34.5087 26.2263 34.5634 25.9627 34.7015 25.741L36.0115 23.211C36.1743 22.9304 36.4368 22.7214 36.7468 22.6257C37.0568 22.53 37.3914 22.5546 37.6841 22.6947C37.9767 22.8347 38.2058 23.0798 38.3258 23.3812C38.4458 23.6826 38.4478 24.0182 38.3315 24.321L37.3315 26.041L39.2515 27.961C39.4915 28.201 39.6263 28.5266 39.6263 28.866C39.6263 29.2054 39.4915 29.531 39.2515 29.771C38.9845 29.9603 38.6684 30.0679 38.3415 30.081Z" fill="black"/>
<path d="M39.6515 35.121C39.4804 35.1207 39.3113 35.085 39.1547 35.0162C38.998 34.9473 38.8574 34.8468 38.7415 34.721L36.2215 32.191C36.0228 32.0202 35.893 31.783 35.8562 31.5236C35.8194 31.2642 35.8781 31.0003 36.0215 30.781L37.3315 28.261C37.3953 28.0948 37.4929 27.9437 37.618 27.817C37.7432 27.6904 37.8931 27.591 38.0586 27.5252C38.224 27.4593 38.4012 27.4284 38.5791 27.4344C38.7571 27.4404 38.9318 27.4832 39.0924 27.56C39.253 27.6369 39.396 27.7461 39.5123 27.8809C39.6286 28.0157 39.7158 28.1731 39.7683 28.3432C39.8208 28.5133 39.8375 28.6924 39.8174 28.8693C39.7973 29.0462 39.7408 29.217 39.6515 29.371L38.6515 31.081L40.5715 33.001C40.8121 33.2428 40.9472 33.5699 40.9472 33.911C40.9472 34.2521 40.8121 34.5793 40.5715 34.821C40.302 35.0113 39.9814 35.1158 39.6515 35.121Z" fill="black"/>
<path d="M30.7715 27.531C30.6003 27.5313 30.431 27.4959 30.2743 27.427C30.1176 27.3581 29.977 27.2573 29.8615 27.131L27.3415 24.631C27.144 24.4575 27.0145 24.2196 26.9761 23.9595C26.9376 23.6995 26.9927 23.4342 27.1315 23.211L28.4515 20.691C28.5153 20.5248 28.6129 20.3736 28.738 20.247C28.8631 20.1204 29.0131 20.021 29.1785 19.9552C29.3439 19.8893 29.5212 19.8584 29.6991 19.8644C29.877 19.8704 30.0518 19.9132 30.2124 19.99C30.373 20.0668 30.516 20.1761 30.6323 20.3109C30.7486 20.4457 30.8357 20.6031 30.8883 20.7732C30.9408 20.9433 30.9575 21.1224 30.9374 21.2993C30.9173 21.4762 30.8608 21.647 30.7715 21.801L30.0115 23.531L31.9315 25.441C32.1721 25.6827 32.3071 26.0099 32.3071 26.351C32.3071 26.6921 32.1721 27.0193 31.9315 27.261C31.5657 27.4244 31.1719 27.5161 30.7715 27.531Z" fill="black"/>
<path d="M32.0814 32.601C31.9094 32.6007 31.7394 32.564 31.5826 32.4933C31.4257 32.4227 31.2856 32.3197 31.1714 32.191L28.6514 29.671C28.4527 29.5002 28.3229 29.2631 28.2861 29.0037C28.2493 28.7443 28.3081 28.4803 28.4514 28.261L29.7614 25.741C29.8253 25.5748 29.9228 25.4237 30.048 25.297C30.1731 25.1704 30.3231 25.071 30.4885 25.0052C30.6539 24.9393 30.8311 24.9084 31.0091 24.9144C31.187 24.9204 31.3618 24.9632 31.5223 25.04C31.6829 25.1169 31.8259 25.2261 31.9422 25.3609C32.0585 25.4957 32.1457 25.6531 32.1982 25.8232C32.2507 25.9933 32.2674 26.1724 32.2473 26.3493C32.2273 26.5262 32.1708 26.697 32.0814 26.851L31.2714 28.531L33.1914 30.531C33.432 30.7728 33.5671 31.1 33.5671 31.441C33.5671 31.7821 33.432 32.1093 33.1914 32.351C32.8398 32.5015 32.4636 32.5862 32.0814 32.601Z" fill="black"/>
<path d="M25.7214 33.911C25.5503 33.9107 25.3811 33.875 25.2245 33.8062C25.0679 33.7374 24.9273 33.6369 24.8114 33.511L22.2914 30.981C22.0945 30.809 21.966 30.572 21.9293 30.3132C21.8925 30.0544 21.9501 29.791 22.0914 29.571L23.4014 27.051C23.4652 26.8848 23.5628 26.7337 23.6879 26.607C23.813 26.4804 23.963 26.381 24.1284 26.3152C24.2938 26.2493 24.4711 26.2184 24.649 26.2244C24.8269 26.2304 25.0017 26.2732 25.1623 26.35C25.3229 26.4269 25.4658 26.5361 25.5822 26.6709C25.6985 26.8057 25.7856 26.9631 25.8381 27.1332C25.8907 27.3033 25.9074 27.4824 25.8873 27.6593C25.8672 27.8362 25.8107 28.007 25.7214 28.161L24.9114 29.871L26.8314 31.791C26.9529 31.9094 27.0495 32.0508 27.1155 32.2071C27.1815 32.3634 27.2155 32.5314 27.2155 32.701C27.2155 32.8707 27.1815 33.0386 27.1155 33.1949C27.0495 33.3512 26.9529 33.4927 26.8314 33.611C26.4676 33.7328 26.097 33.833 25.7214 33.911Z" fill="black"/>
<path d="M27.0116 38.961C26.8397 38.9601 26.6698 38.9231 26.5131 38.8525C26.3564 38.7819 26.2162 38.6792 26.1016 38.551L23.6016 36.031C23.4065 35.8579 23.2792 35.621 23.2426 35.3628C23.206 35.1045 23.2623 34.8416 23.4016 34.621L24.7116 32.091C24.8699 31.7926 25.135 31.5651 25.4539 31.4538C25.7729 31.3425 26.122 31.3558 26.4316 31.491C26.7309 31.6456 26.9598 31.9089 27.0714 32.2268C27.1829 32.5447 27.1687 32.8933 27.0316 33.201L26.2316 34.921L28.1416 36.841C28.2628 36.9585 28.3593 37.0991 28.4251 37.2546C28.4909 37.4101 28.5249 37.5772 28.5249 37.746C28.5249 37.9149 28.4909 38.082 28.4251 38.2374C28.3593 38.3929 28.2628 38.5335 28.1416 38.651C27.7731 38.7821 27.3954 38.8857 27.0116 38.961Z" fill="black"/>
<path d="M14.4215 60.361C12.0645 60.3584 9.80486 59.4209 8.13824 57.7543C6.47161 56.0876 5.53414 53.828 5.53149 51.471V4.84101C5.53922 4.49427 5.68108 4.16404 5.92725 3.91974C6.17342 3.67544 6.50471 3.5361 6.85149 3.53101C7.19653 3.53865 7.52531 3.67912 7.76935 3.92315C8.01338 4.16719 8.15385 4.49597 8.16149 4.84101V51.531C8.16938 53.2154 8.84199 54.8285 10.033 56.0195C11.224 57.2105 12.8371 57.8831 14.5215 57.891C16.1893 57.896 17.7958 57.2627 19.0115 56.121C19.5902 55.5362 20.0479 54.843 20.3584 54.0812C20.669 53.3193 20.8264 52.5037 20.8215 51.681V49.681L18.6015 51.901C18.3601 52.141 18.0333 52.2753 17.693 52.2744C17.3526 52.2735 17.0265 52.1374 16.7865 51.896C16.5465 51.6547 16.4122 51.3278 16.4131 50.9875C16.414 50.6471 16.5501 50.321 16.7915 50.081L21.2315 45.641C21.4059 45.4503 21.6356 45.3188 21.8884 45.2651C22.1412 45.2113 22.4045 45.2378 22.6415 45.341C22.8768 45.4348 23.0767 45.6002 23.2131 45.8137C23.3494 46.0272 23.4153 46.2781 23.4015 46.531V51.531C23.4018 52.697 23.1693 53.8512 22.7177 54.9262C22.2661 56.0011 21.6044 56.9751 20.7715 57.791C19.0476 59.4067 16.7839 60.3229 14.4215 60.361Z" fill="black"/>
<path d="M9.37147 44.001H4.32147C4.14944 44.001 3.9791 43.9671 3.82016 43.9013C3.66122 43.8354 3.51681 43.7389 3.39516 43.6173C3.27352 43.4956 3.17703 43.3512 3.11119 43.1923C3.04536 43.0334 3.01147 42.863 3.01147 42.691C3.01147 42.519 3.04536 42.3486 3.11119 42.1897C3.17703 42.0307 3.27352 41.8863 3.39516 41.7647C3.51681 41.643 3.66122 41.5465 3.82016 41.4807C3.9791 41.4149 4.14944 41.381 4.32147 41.381H9.37147C9.7173 41.3861 10.0475 41.5258 10.2921 41.7704C10.5366 42.0149 10.6763 42.3452 10.6815 42.691C10.6581 43.0307 10.5126 43.3505 10.2718 43.5913C10.031 43.8321 9.71121 43.9776 9.37147 44.001Z" fill="black"/>
</svg>
