<svg width="63" height="64" viewBox="0 0 63 64" fill="none" xmlns="http://www.w3.org/2000/svg">
<g clip-path="url(#clip0_68_441)">
<path d="M45.7522 55.9508C45.4205 55.9535 45.0916 55.8901 44.7847 55.7644C44.4777 55.6387 44.1989 55.4532 43.9643 55.2187C43.7298 54.9841 43.5443 54.7053 43.4186 54.3983C43.2929 54.0914 43.2295 53.7625 43.2322 53.4308C43.2509 52.762 43.4979 52.1198 43.9322 51.6108C44.1715 51.3758 44.4565 51.1923 44.7695 51.0719C45.0826 50.9515 45.4171 50.8967 45.7522 50.9108C45.4197 50.9135 45.0899 50.8498 44.7823 50.7235C44.4747 50.5972 44.1954 50.4108 43.9607 50.1751C43.7261 49.9395 43.5408 49.6595 43.4157 49.3514C43.2906 49.0433 43.2282 48.7133 43.2322 48.3808C43.2563 47.7131 43.5027 47.0726 43.9322 46.5608C44.1662 46.3185 44.4503 46.1303 44.7647 46.0093C45.0791 45.8884 45.4161 45.8377 45.7522 45.8608C45.4205 45.8635 45.0916 45.8001 44.7847 45.6744C44.4777 45.5487 44.1989 45.3632 43.9643 45.1287C43.7298 44.8941 43.5443 44.6153 43.4186 44.3083C43.2929 44.0014 43.2295 43.6725 43.2322 43.3408C43.2493 42.6717 43.4965 42.0289 43.9322 41.5208C44.1695 41.2825 44.454 41.0962 44.7674 40.974C45.0807 40.8517 45.4161 40.7962 45.7522 40.8108C45.4205 40.8135 45.0916 40.7501 44.7847 40.6244C44.4777 40.4987 44.1989 40.3132 43.9643 40.0787C43.7298 39.8441 43.5443 39.5653 43.4186 39.2583C43.2929 38.9514 43.2295 38.6225 43.2322 38.2908C43.2509 37.622 43.4979 36.9798 43.9322 36.4708C44.1715 36.2358 44.4565 36.0523 44.7695 35.9319C45.0826 35.8115 45.4171 35.7567 45.7522 35.7708C45.42 35.7721 45.0909 35.7075 44.7839 35.5807C44.4769 35.4539 44.1982 35.2675 43.9638 35.0321C43.7294 34.7968 43.544 34.5173 43.4184 34.2098C43.2928 33.9023 43.2295 33.5729 43.2322 33.2408C43.2507 32.575 43.4979 31.9358 43.9322 31.4308C44.1695 31.1925 44.454 31.0062 44.7674 30.884C45.0807 30.7617 45.4161 30.7062 45.7522 30.7208C45.4205 30.7235 45.0916 30.6601 44.7847 30.5344C44.4777 30.4087 44.1989 30.2232 43.9643 29.9886C43.7298 29.7541 43.5443 29.4753 43.4186 29.1683C43.2929 28.8614 43.2295 28.5325 43.2322 28.2008C43.2493 27.5317 43.4965 26.8889 43.9322 26.3808C44.1678 26.1389 44.4515 25.9489 44.7649 25.8232C45.0784 25.6975 45.4147 25.6388 45.7522 25.6508H17.9922C18.3255 25.6468 18.6563 25.7095 18.9651 25.8352C19.2739 25.9609 19.5544 26.1471 19.7901 26.3829C20.0259 26.6186 20.2121 26.8991 20.3378 27.2079C20.4635 27.5166 20.5262 27.8474 20.5222 28.1808C20.5046 28.8546 20.2537 29.5014 19.8122 30.0108C19.5752 30.2496 19.2908 30.4362 18.9774 30.5585C18.6639 30.6808 18.3283 30.7361 17.9922 30.7208C18.3247 30.7168 18.6547 30.7792 18.9628 30.9043C19.2709 31.0294 19.5509 31.2147 19.7865 31.4494C20.0221 31.684 20.2086 31.9633 20.3349 32.271C20.4612 32.5786 20.5249 32.9083 20.5222 33.2408C20.4999 33.9107 20.2494 34.5528 19.8122 35.0608C19.5737 35.2977 19.2891 35.4829 18.976 35.6051C18.6629 35.7272 18.328 35.7836 17.9922 35.7708C18.3247 35.7668 18.6547 35.8292 18.9628 35.9543C19.2709 36.0794 19.5509 36.2647 19.7865 36.4994C20.0221 36.734 20.2086 37.0133 20.3349 37.321C20.4612 37.6286 20.5249 37.9583 20.5222 38.2908C20.4999 38.9607 20.2494 39.6028 19.8122 40.1108C19.5786 40.3537 19.2945 40.5423 18.98 40.6632C18.6655 40.7842 18.3283 40.8346 17.9922 40.8108C18.3255 40.8068 18.6563 40.8695 18.9651 40.9952C19.2739 41.1209 19.5544 41.3071 19.7901 41.5429C20.0259 41.7786 20.2121 42.0591 20.3378 42.3679C20.4635 42.6766 20.5262 43.0074 20.5222 43.3408C20.5 44.0077 20.2494 44.6467 19.8122 45.1508C19.5752 45.3896 19.2908 45.5762 18.9774 45.6985C18.6639 45.8208 18.3283 45.8761 17.9922 45.8608C18.3247 45.8568 18.6547 45.9192 18.9628 46.0443C19.2709 46.1694 19.5509 46.3547 19.7865 46.5894C20.0221 46.824 20.2086 47.1033 20.3349 47.411C20.4612 47.7186 20.5249 48.0483 20.5222 48.3808C20.4999 49.0507 20.2494 49.6928 19.8122 50.2008C19.5795 50.4455 19.2959 50.6359 18.9813 50.7586C18.6668 50.8813 18.3291 50.9333 17.9922 50.9108C18.3247 50.9068 18.6547 50.9692 18.9628 51.0943C19.2709 51.2194 19.5509 51.4047 19.7865 51.6394C20.0221 51.874 20.2086 52.1533 20.3349 52.461C20.4612 52.7686 20.5249 53.0983 20.5222 53.4308C20.4999 54.1007 20.2494 54.7428 19.8122 55.2508C19.5733 55.4863 19.2883 55.6701 18.9752 55.7905C18.662 55.911 18.3274 55.9655 17.9922 55.9508H45.7522Z" fill="white"/>
<path d="M38.1823 30.7208H31.8223V35.7708H38.1823V30.7208Z" fill="white"/>
<path d="M31.9223 30.7208H25.5623V35.7708H31.9223V30.7208Z" fill="white"/>
<path d="M36.8722 40.8108H26.7822V55.9508H36.8722V40.8108Z" fill="#F9C801"/>
<path d="M49.4924 10.5308V18.8108L44.4424 15.7808V10.5308H49.4924Z" fill="#F9C801"/>
<path d="M60.8922 25.6708H53.3222H45.7522H17.9922H10.4222H2.05225L31.4222 8.0108L44.4422 15.7808L49.4922 18.8108L60.8922 25.6708Z" fill="#F9C801"/>
<path d="M17.9922 30.7208C18.3247 30.7168 18.6547 30.7792 18.9628 30.9043C19.2709 31.0294 19.5509 31.2147 19.7865 31.4494C20.0221 31.684 20.2085 31.9634 20.3349 32.271C20.4612 32.5786 20.5249 32.9083 20.5222 33.2408C20.4999 33.9107 20.2494 34.5528 19.8122 35.0608C19.5795 35.3055 19.2959 35.4959 18.9813 35.6186C18.6668 35.7414 18.3291 35.7933 17.9922 35.7708H10.4222C10.09 35.7721 9.76092 35.7075 9.45392 35.5807C9.14693 35.4539 8.86815 35.2675 8.63375 35.0321C8.39935 34.7968 8.21399 34.5173 8.08841 34.2098C7.96283 33.9023 7.89953 33.5729 7.90218 33.2408C7.92021 32.5731 8.1714 31.9327 8.61218 31.4308C8.84765 31.1927 9.13034 31.0066 9.44206 30.8843C9.75379 30.762 10.0876 30.7063 10.4222 30.7208H17.9922Z" fill="#F9C801"/>
<path d="M17.9922 40.8108C18.3255 40.8068 18.6563 40.8695 18.9651 40.9952C19.2739 41.1209 19.5544 41.3071 19.7901 41.5429C20.0259 41.7786 20.2121 42.0591 20.3378 42.3679C20.4635 42.6766 20.5262 43.0074 20.5222 43.3408C20.5 44.0077 20.2494 44.6467 19.8122 45.1508C19.5808 45.3972 19.2973 45.5888 18.9825 45.7116C18.6676 45.8344 18.3293 45.8854 17.9922 45.8608H10.4222C10.0905 45.8635 9.76162 45.8001 9.45467 45.6744C9.14773 45.5487 8.86887 45.3632 8.63433 45.1287C8.3998 44.8941 8.21428 44.6153 8.08858 44.3083C7.96288 44.0014 7.89952 43.6725 7.90218 43.3408C7.91789 42.6696 8.16923 42.0253 8.61218 41.5208C8.84766 41.2827 9.13034 41.0966 9.44206 40.9743C9.75379 40.852 10.0876 40.7963 10.4222 40.8108H17.9922Z" fill="#F9C801"/>
<path d="M17.9922 50.9108C18.3247 50.9068 18.6547 50.9692 18.9628 51.0943C19.2709 51.2194 19.5509 51.4047 19.7865 51.6394C20.0221 51.874 20.2085 52.1533 20.3349 52.4609C20.4612 52.7686 20.5249 53.0983 20.5222 53.4308C20.4999 54.1007 20.2494 54.7428 19.8122 55.2508C19.5786 55.4937 19.2945 55.6823 18.98 55.8032C18.6655 55.9242 18.3283 55.9746 17.9922 55.9508H10.4222C10.0905 55.9535 9.76162 55.8901 9.45467 55.7644C9.14773 55.6387 8.86887 55.4532 8.63433 55.2186C8.3998 54.9841 8.21428 54.7052 8.08858 54.3983C7.96288 54.0914 7.89952 53.7625 7.90218 53.4308C7.92872 52.7738 8.17926 52.1457 8.61218 51.6508C8.8496 51.416 9.13285 51.2327 9.44427 51.1123C9.75568 50.9918 10.0886 50.9369 10.4222 50.9508L17.9922 50.9108Z" fill="#F9C801"/>
<path d="M53.3223 50.9108C53.6514 50.9121 53.9771 50.9784 54.2805 51.1059C54.584 51.2333 54.8593 51.4195 55.0907 51.6536C55.322 51.8878 55.5048 52.1653 55.6287 52.4703C55.7525 52.7752 55.8149 53.1016 55.8123 53.4308C55.7936 54.0996 55.5465 54.7418 55.1123 55.2508C54.8783 55.4931 54.5941 55.6813 54.2797 55.8022C53.9654 55.9232 53.6283 55.9739 53.2923 55.9508H45.7523C45.4206 55.9535 45.0917 55.8901 44.7848 55.7644C44.4778 55.6387 44.1989 55.4532 43.9644 55.2186C43.7299 54.9841 43.5444 54.7052 43.4187 54.3983C43.293 54.0914 43.2296 53.7625 43.2323 53.4308C43.251 52.762 43.498 52.1197 43.9323 51.6108C44.1662 51.3685 44.4504 51.1803 44.7648 51.0593C45.0792 50.9384 45.4162 50.8877 45.7523 50.9108H53.3223Z" fill="#F9C801"/>
<path d="M53.3223 40.8108C53.6523 40.8121 53.9787 40.8787 54.2829 41.0068C54.587 41.1349 54.8628 41.322 55.0942 41.5572C55.3257 41.7924 55.5083 42.0711 55.6316 42.3772C55.7548 42.6833 55.8162 43.0108 55.8123 43.3408C55.7937 44.0066 55.5465 44.6458 55.1123 45.1508C54.8805 45.3966 54.5969 45.5878 54.2822 45.7106C53.9674 45.8334 53.6293 45.8847 53.2923 45.8608H45.7523C45.4206 45.8635 45.0917 45.8001 44.7848 45.6744C44.4778 45.5487 44.1989 45.3632 43.9644 45.1286C43.7299 44.8941 43.5444 44.6152 43.4187 44.3083C43.293 44.0014 43.2296 43.6725 43.2323 43.3408C43.2493 42.6717 43.4966 42.0289 43.9323 41.5208C44.1696 41.2825 44.4541 41.0962 44.7674 40.974C45.0808 40.8517 45.4162 40.7962 45.7523 40.8108H53.3223Z" fill="#F9C801"/>
<path d="M53.3223 30.7208C53.6514 30.7221 53.9771 30.7884 54.2805 30.9159C54.584 31.0433 54.8593 31.2295 55.0907 31.4636C55.322 31.6978 55.5048 31.9753 55.6287 32.2803C55.7525 32.5852 55.8149 32.9117 55.8123 33.2408C55.7936 33.9096 55.5465 34.5518 55.1123 35.0608C54.8788 35.3044 54.595 35.4941 54.2806 35.6167C53.9663 35.7393 53.629 35.7919 53.2923 35.7708H45.7523C45.4201 35.7721 45.091 35.7075 44.784 35.5807C44.477 35.4539 44.1982 35.2675 43.9638 35.0321C43.7294 34.7968 43.5441 34.5173 43.4185 34.2098C43.2929 33.9023 43.2296 33.5729 43.2323 33.2408C43.2508 32.575 43.498 31.9358 43.9323 31.4308C44.1696 31.1925 44.4541 31.0062 44.7674 30.884C45.0808 30.7617 45.4162 30.7062 45.7523 30.7208H53.3223Z" fill="#F9C801"/>
<path d="M53.3224 45.8608C53.6515 45.8621 53.9772 45.9284 54.2806 46.0559C54.5841 46.1833 54.8594 46.3695 55.0908 46.6036C55.3221 46.8378 55.5049 47.1153 55.6288 47.4203C55.7526 47.7252 55.815 48.0517 55.8124 48.3808C55.7937 49.0496 55.5466 49.6919 55.1124 50.2008C54.8789 50.4444 54.5951 50.6341 54.2807 50.7567C53.9664 50.8793 53.6291 50.9319 53.2924 50.9108H45.7524C45.4198 50.9135 45.0901 50.8498 44.7825 50.7235C44.4749 50.5972 44.1956 50.4108 43.9609 50.1751C43.7262 49.9395 43.5409 49.6595 43.4158 49.3514C43.2907 49.0433 43.2284 48.7133 43.2324 48.3808C43.2565 47.7131 43.5029 47.0726 43.9324 46.5608C44.1663 46.3185 44.4505 46.1303 44.7649 46.0094C45.0793 45.8884 45.4163 45.8377 45.7524 45.8608H53.3224Z" fill="white"/>
<path d="M53.3223 35.7708C53.6514 35.7721 53.9771 35.8384 54.2805 35.9659C54.584 36.0933 54.8593 36.2795 55.0907 36.5136C55.322 36.7478 55.5048 37.0253 55.6287 37.3302C55.7525 37.6352 55.8149 37.9616 55.8123 38.2908C55.7936 38.9596 55.5465 39.6018 55.1123 40.1108C54.8783 40.3531 54.5941 40.5413 54.2797 40.6622C53.9654 40.7832 53.6283 40.8339 53.2923 40.8108H45.7523C45.4206 40.8135 45.0917 40.7501 44.7848 40.6244C44.4778 40.4987 44.1989 40.3132 43.9644 40.0786C43.7299 39.8441 43.5444 39.5652 43.4187 39.2583C43.293 38.9514 43.2296 38.6225 43.2323 38.2908C43.251 37.622 43.498 36.9797 43.9323 36.4708C44.1715 36.2357 44.4566 36.0523 44.7696 35.9319C45.0827 35.8115 45.4171 35.7567 45.7523 35.7708H53.3223Z" fill="white"/>
<path d="M53.3223 25.6508C53.654 25.6521 53.9821 25.7193 54.2876 25.8487C54.593 25.978 54.8697 26.1669 55.1014 26.4042C55.3332 26.6415 55.5154 26.9226 55.6374 27.2311C55.7595 27.5395 55.8189 27.8692 55.8123 28.2008C55.7937 28.8666 55.5465 29.5058 55.1123 30.0108C54.8805 30.2566 54.5969 30.4478 54.2822 30.5706C53.9674 30.6934 53.6293 30.7447 53.2923 30.7208H45.7523C45.4206 30.7235 45.0917 30.6601 44.7848 30.5344C44.4778 30.4087 44.1989 30.2232 43.9644 29.9886C43.7299 29.7541 43.5444 29.4753 43.4187 29.1683C43.293 28.8614 43.2296 28.5325 43.2323 28.2008C43.2493 27.5317 43.4966 26.8889 43.9323 26.3808C44.1679 26.1389 44.4516 25.9489 44.765 25.8232C45.0785 25.6975 45.4148 25.6388 45.7523 25.6508H53.3223Z" fill="white"/>
<path d="M17.9923 45.8608C18.3248 45.8568 18.6548 45.9192 18.9629 46.0443C19.271 46.1694 19.551 46.3547 19.7866 46.5893C20.0222 46.824 20.2086 47.1033 20.335 47.4109C20.4613 47.7185 20.525 48.0483 20.5223 48.3808C20.5 49.0507 20.2495 49.6928 19.8123 50.2008C19.5796 50.4455 19.296 50.6359 18.9814 50.7586C18.6669 50.8813 18.3292 50.9333 17.9923 50.9108H10.4223C10.0898 50.9135 9.76004 50.8498 9.45243 50.7235C9.14482 50.5972 8.86551 50.4107 8.63084 50.1751C8.39616 49.9395 8.21085 49.6595 8.08575 49.3514C7.96065 49.0433 7.89828 48.7133 7.90228 48.3808C7.92133 47.7103 8.17225 47.0671 8.61228 46.5608C8.8497 46.326 9.13295 46.1427 9.44437 46.0223C9.75578 45.9018 10.0887 45.8469 10.4223 45.8608H17.9923Z" fill="white"/>
<path d="M17.9922 35.7708C18.3247 35.7668 18.6547 35.8292 18.9628 35.9543C19.2709 36.0794 19.5509 36.2647 19.7865 36.4994C20.0221 36.734 20.2085 37.0133 20.3349 37.3209C20.4612 37.6286 20.5249 37.9583 20.5222 38.2908C20.4999 38.9607 20.2494 39.6028 19.8122 40.1108C19.5786 40.3537 19.2945 40.5423 18.98 40.6632C18.6655 40.7842 18.3283 40.8346 17.9922 40.8108H10.4222C10.0905 40.8135 9.76162 40.7501 9.45467 40.6244C9.14773 40.4987 8.86887 40.3132 8.63433 40.0786C8.3998 39.8441 8.21428 39.5652 8.08858 39.2583C7.96288 38.9514 7.89952 38.6225 7.90218 38.2908C7.91957 37.6199 8.1707 36.9762 8.61218 36.4708C8.8496 36.236 9.13285 36.0527 9.44427 35.9323C9.75568 35.8118 10.0886 35.7569 10.4222 35.7708H17.9922Z" fill="white"/>
<path d="M17.9922 25.6508C18.3255 25.6468 18.6563 25.7095 18.9651 25.8352C19.2739 25.9609 19.5544 26.1471 19.7901 26.3828C20.0259 26.6186 20.2121 26.8991 20.3378 27.2079C20.4635 27.5166 20.5262 27.8474 20.5222 28.1808C20.5046 28.8546 20.2536 29.5014 19.8122 30.0108C19.5808 30.2572 19.2973 30.4488 18.9825 30.5716C18.6676 30.6944 18.3293 30.7454 17.9922 30.7208H10.4222C10.0905 30.7235 9.76162 30.6601 9.45467 30.5344C9.14773 30.4087 8.86887 30.2232 8.63433 29.9886C8.3998 29.7541 8.21428 29.4752 8.08858 29.1683C7.96288 28.8614 7.89952 28.5325 7.90218 28.2008C7.91789 27.5296 8.16923 26.8853 8.61218 26.3808C8.84592 26.1391 9.12782 25.9493 9.43963 25.8235C9.75143 25.6977 10.0862 25.6389 10.4222 25.6508H17.9922Z" fill="white"/>
<path d="M30.6123 47.1708C30.8517 47.1708 31.0856 47.2418 31.2846 47.3747C31.4836 47.5077 31.6387 47.6967 31.7302 47.9178C31.8218 48.1389 31.8458 48.3822 31.7991 48.6169C31.7524 48.8516 31.6372 49.0672 31.4679 49.2364C31.2987 49.4056 31.0831 49.5209 30.8484 49.5676C30.6137 49.6142 30.3704 49.5903 30.1493 49.4987C29.9282 49.4071 29.7392 49.252 29.6063 49.053C29.4733 48.8541 29.4023 48.6201 29.4023 48.3808C29.4023 48.0599 29.5298 47.7521 29.7567 47.5252C29.9837 47.2983 30.2914 47.1708 30.6123 47.1708Z" fill="black"/>
<path d="M17.9924 57.1608C17.6449 57.1608 17.3117 57.0228 17.0661 56.7771C16.8204 56.5314 16.6824 56.1982 16.6824 55.8508C16.6824 55.5034 16.8204 55.1702 17.0661 54.9245C17.3117 54.6788 17.6449 54.5408 17.9924 54.5408C18.1635 54.5411 18.3329 54.5057 18.4896 54.4368C18.6463 54.3679 18.7869 54.2671 18.9024 54.1408C19.135 53.8906 19.2791 53.5709 19.3124 53.2308C19.3047 52.8831 19.1632 52.5518 18.9173 52.3059C18.6714 52.06 18.3401 51.9184 17.9924 51.9108C17.6449 51.9108 17.3117 51.7728 17.0661 51.5271C16.8204 51.2814 16.6824 50.9482 16.6824 50.6008C16.6824 50.2534 16.8204 49.9202 17.0661 49.6745C17.3117 49.4288 17.6449 49.2908 17.9924 49.2908C19.0073 49.2961 19.9789 49.703 20.6947 50.4226C21.4106 51.1421 21.8124 52.1158 21.8124 53.1308C21.7949 54.1442 21.3989 55.1145 20.7024 55.8508C20.3751 56.2554 19.9625 56.5827 19.494 56.8091C19.0255 57.0356 18.5127 57.1557 17.9924 57.1608Z" fill="black"/>
<path d="M10.4223 57.1608C9.91896 57.1621 9.42033 57.064 8.95506 56.8719C8.48979 56.6799 8.06705 56.3979 7.71114 56.042C7.35523 55.686 7.07316 55.2633 6.88115 54.798C6.68914 54.3328 6.59098 53.8341 6.5923 53.3308C6.62244 52.3319 7.01729 51.3785 7.7023 50.6508C8.4308 49.9422 9.40602 49.5442 10.4223 49.5408C10.6046 49.5249 10.7883 49.5471 10.9616 49.6059C11.1349 49.6648 11.294 49.759 11.429 49.8827C11.5639 50.0063 11.6716 50.1567 11.7453 50.3242C11.819 50.4918 11.8571 50.6728 11.8571 50.8558C11.8571 51.0388 11.819 51.2198 11.7453 51.3874C11.6716 51.5549 11.5639 51.7053 11.429 51.8289C11.294 51.9526 11.1349 52.0468 10.9616 52.1057C10.7883 52.1645 10.6046 52.1867 10.4223 52.1708C10.2527 52.1713 10.0851 52.2071 9.93014 52.2759C9.77518 52.3448 9.63628 52.4452 9.5223 52.5708C9.28368 52.817 9.13865 53.1389 9.1123 53.4808C9.11746 53.8266 9.25714 54.1568 9.5017 54.4014C9.74626 54.646 10.0765 54.7856 10.4223 54.7908C10.7691 54.7959 11.1004 54.9352 11.3465 55.1795C11.5927 55.4238 11.7346 55.7541 11.7423 56.1008C11.6534 56.3891 11.4801 56.6442 11.2448 56.8332C11.0095 57.0221 10.723 57.1362 10.4223 57.1608Z" fill="black"/>
<path d="M17.9923 52.1208H10.4223C9.91849 52.1208 9.41964 52.0214 8.95431 51.8283C8.48898 51.6352 8.06632 51.3522 7.71054 50.9955C7.35476 50.6388 7.07285 50.2154 6.88096 49.7495C6.68908 49.2837 6.59098 48.7846 6.5923 48.2808C6.60391 47.2662 7.00069 46.2939 7.7023 45.5608C8.42843 44.8486 9.40519 44.45 10.4223 44.4508C10.7697 44.4508 11.1029 44.5888 11.3486 44.8345C11.5943 45.0802 11.7323 45.4134 11.7323 45.7608C11.7323 46.1082 11.5943 46.4414 11.3486 46.6871C11.1029 46.9328 10.7697 47.0708 10.4223 47.0708C10.2527 47.0713 10.0851 47.1071 9.93014 47.1759C9.77518 47.2448 9.63628 47.3452 9.5223 47.4708C9.28576 47.7184 9.14108 48.0396 9.1123 48.3808C9.12756 48.7196 9.27169 49.0398 9.51519 49.2758C9.75869 49.5119 10.0832 49.646 10.4223 49.6508H17.9923C18.1635 49.6511 18.3328 49.6157 18.4895 49.5468C18.6462 49.4779 18.7868 49.3771 18.9023 49.2508C19.1388 49.0032 19.2835 48.682 19.3123 48.3408C19.3046 47.9941 19.1627 47.6638 18.9165 47.4195C18.6704 47.1752 18.3391 47.0359 17.9923 47.0308C17.8203 47.0308 17.6499 46.9969 17.491 46.9311C17.332 46.8652 17.1876 46.7688 17.066 46.6471C16.9443 46.5255 16.8478 46.3811 16.782 46.2221C16.7162 46.0632 16.6823 45.8928 16.6823 45.7208C16.6823 45.5488 16.7162 45.3784 16.782 45.2195C16.8478 45.0605 16.9443 44.9161 17.066 44.7945C17.1876 44.6728 17.332 44.5764 17.491 44.5105C17.6499 44.4447 17.8203 44.4108 17.9923 44.4108C18.4978 44.4121 18.998 44.5134 19.4642 44.709C19.9303 44.9046 20.3532 45.1905 20.7083 45.5502C21.0634 45.91 21.3438 46.3365 21.5333 46.8051C21.7227 47.2738 21.8176 47.7753 21.8123 48.2808C21.7944 49.2971 21.3987 50.2703 20.7023 51.0108C19.9649 51.6994 19.0009 52.0942 17.9923 52.1208Z" fill="black"/>
<path d="M17.9923 47.0708H10.4223C9.91849 47.0708 9.41964 46.9714 8.95431 46.7783C8.48898 46.5852 8.06632 46.3022 7.71054 45.9455C7.35476 45.5888 7.07285 45.1654 6.88096 44.6996C6.68908 44.2337 6.59098 43.7346 6.5923 43.2308C6.61172 42.2178 7.00739 41.2482 7.7023 40.5108C8.42843 39.7986 9.40519 39.4 10.4223 39.4008C10.5943 39.4008 10.7647 39.4347 10.9236 39.5005C11.0826 39.5664 11.227 39.6629 11.3486 39.7845C11.4703 39.9061 11.5667 40.0506 11.6326 40.2095C11.6984 40.3684 11.7323 40.5388 11.7323 40.7108C11.7323 40.8828 11.6984 41.0532 11.6326 41.2121C11.5667 41.3711 11.4703 41.5155 11.3486 41.6371C11.227 41.7588 11.0826 41.8553 10.9236 41.9211C10.7647 41.9869 10.5943 42.0208 10.4223 42.0208C10.2518 42.0213 10.0833 42.0581 9.9281 42.1288C9.77291 42.1995 9.63457 42.3024 9.5223 42.4308C9.39464 42.5458 9.29228 42.6861 9.2217 42.8427C9.15112 42.9994 9.11386 43.169 9.1123 43.3408C9.11874 43.5063 9.15774 43.6689 9.22708 43.8194C9.29643 43.9698 9.39475 44.105 9.51642 44.2174C9.63809 44.3298 9.78073 44.4171 9.93617 44.4743C10.0916 44.5315 10.2568 44.5575 10.4223 44.5508H17.9923C18.1645 44.5518 18.3349 44.5157 18.4919 44.4449C18.649 44.3742 18.7889 44.2705 18.9023 44.1408C19.1388 43.8932 19.2835 43.5721 19.3123 43.2308C19.3046 42.8841 19.1627 42.5538 18.9165 42.3095C18.6704 42.0652 18.3391 41.9259 17.9923 41.9208C17.6449 41.9208 17.3117 41.7828 17.066 41.5371C16.8203 41.2914 16.6823 40.9582 16.6823 40.6108C16.6823 40.2634 16.8203 39.9302 17.066 39.6845C17.3117 39.4388 17.6449 39.3008 17.9923 39.3008C19.0063 39.3035 19.978 39.7081 20.6941 40.4261C21.4102 41.1441 21.8123 42.1168 21.8123 43.1308C21.7944 44.1471 21.3987 45.1204 20.7023 45.8608C20.3559 46.2354 19.9372 46.5357 19.4714 46.7437C19.0056 46.9517 18.5024 47.063 17.9923 47.0708Z" fill="black"/>
<path d="M17.9923 42.0208H10.4223C9.91896 42.0221 9.42033 41.9239 8.95506 41.7319C8.48979 41.5399 8.06705 41.2579 7.71114 40.902C7.35523 40.546 7.07316 40.1233 6.88115 39.658C6.68914 39.1928 6.59098 38.6941 6.5923 38.1908C6.6102 37.1745 7.00591 36.2012 7.7023 35.4608C8.4308 34.7522 9.40602 34.3542 10.4223 34.3508C10.6046 34.3349 10.7883 34.3571 10.9616 34.4159C11.1349 34.4748 11.294 34.569 11.429 34.6927C11.5639 34.8163 11.6716 34.9667 11.7453 35.1342C11.819 35.3018 11.8571 35.4828 11.8571 35.6658C11.8571 35.8488 11.819 36.0298 11.7453 36.1974C11.6716 36.3649 11.5639 36.5153 11.429 36.6389C11.294 36.7626 11.1349 36.8568 10.9616 36.9157C10.7883 36.9745 10.6046 36.9967 10.4223 36.9808C10.2527 36.9813 10.0851 37.0171 9.93014 37.0859C9.77518 37.1548 9.63628 37.2552 9.5223 37.3808C9.39558 37.4966 9.29385 37.637 9.22335 37.7935C9.15285 37.9499 9.11506 38.1192 9.1123 38.2908C9.10832 38.4663 9.13912 38.6408 9.20293 38.8044C9.26673 38.9679 9.36228 39.1172 9.48406 39.2436C9.60584 39.37 9.75144 39.4711 9.91247 39.541C10.0735 39.6109 10.2468 39.6482 10.4223 39.6508H17.9923C18.1635 39.6511 18.3328 39.6157 18.4895 39.5468C18.6462 39.4779 18.7868 39.3771 18.9023 39.2508C19.1368 39.0018 19.2812 38.6814 19.3123 38.3408C19.3046 37.9941 19.1627 37.6638 18.9165 37.4195C18.6704 37.1752 18.3391 37.0359 17.9923 37.0308C17.6633 37.0021 17.3571 36.8511 17.134 36.6077C16.9108 36.3642 16.7871 36.046 16.7871 35.7158C16.7871 35.3856 16.9108 35.0674 17.134 34.8239C17.3571 34.5805 17.6633 34.4295 17.9923 34.4008C18.9987 34.406 19.9628 34.806 20.6772 35.5148C21.3916 36.2236 21.7992 37.1845 21.8123 38.1908C21.8007 39.2054 21.4039 40.1777 20.7023 40.9108C19.9669 41.6026 19.0017 41.998 17.9923 42.0208Z" fill="black"/>
<path d="M17.9923 36.9808H10.4223C9.91849 36.9808 9.41964 36.8814 8.95431 36.6883C8.48898 36.4952 8.06632 36.2122 7.71054 35.8555C7.35476 35.4988 7.07285 35.0754 6.88096 34.6095C6.68908 34.1437 6.59098 33.6446 6.5923 33.1408C6.60391 32.1262 7.00069 31.1539 7.7023 30.4208C8.42843 29.7086 9.40519 29.31 10.4223 29.3108C10.7697 29.3108 11.1029 29.4488 11.3486 29.6945C11.5943 29.9402 11.7323 30.2734 11.7323 30.6208C11.7323 30.9682 11.5943 31.3014 11.3486 31.5471C11.1029 31.7928 10.7697 31.9308 10.4223 31.9308C10.2527 31.9313 10.0851 31.9671 9.93014 32.0359C9.77518 32.1048 9.63628 32.2052 9.5223 32.3308C9.39649 32.4473 9.29538 32.5879 9.22495 32.7442C9.15451 32.9005 9.11621 33.0694 9.1123 33.2408C9.11746 33.5866 9.25714 33.9168 9.5017 34.1614C9.74626 34.406 10.0765 34.5456 10.4223 34.5508H17.9923C18.1635 34.5511 18.3328 34.5157 18.4895 34.4468C18.6462 34.3779 18.7868 34.2771 18.9023 34.1508C19.1388 33.9032 19.2835 33.582 19.3123 33.2408C19.3046 32.8941 19.1627 32.5638 18.9165 32.3195C18.6704 32.0752 18.3391 31.9359 17.9923 31.9308C17.6449 31.9308 17.3117 31.7928 17.066 31.5471C16.8203 31.3014 16.6823 30.9682 16.6823 30.6208C16.6823 30.2734 16.8203 29.9402 17.066 29.6945C17.3117 29.4488 17.6449 29.3108 17.9923 29.3108C19.0063 29.3134 19.978 29.7181 20.6941 30.4361C21.4102 31.1541 21.8123 32.1267 21.8123 33.1408C21.7944 34.1571 21.3987 35.1303 20.7023 35.8708C19.9649 36.5594 19.0009 36.9542 17.9923 36.9808Z" fill="black"/>
<path d="M17.9923 31.9308H10.4223C9.91849 31.9308 9.41964 31.8314 8.95431 31.6383C8.48898 31.4452 8.06632 31.1622 7.71054 30.8055C7.35476 30.4488 7.07285 30.0254 6.88096 29.5596C6.68908 29.0937 6.59098 28.5946 6.5923 28.0908C6.61172 27.0778 7.00739 26.1082 7.7023 25.3708C8.42843 24.6586 9.40519 24.26 10.4223 24.2608C10.7697 24.2608 11.1029 24.3988 11.3486 24.6445C11.5943 24.8902 11.7323 25.2234 11.7323 25.5708C11.7323 25.9182 11.5943 26.2514 11.3486 26.4971C11.1029 26.7428 10.7697 26.8808 10.4223 26.8808C10.2518 26.8813 10.0833 26.9181 9.9281 26.9888C9.77291 27.0595 9.63457 27.1624 9.5223 27.2908C9.39464 27.4058 9.29228 27.5461 9.2217 27.7027C9.15112 27.8594 9.11386 28.029 9.1123 28.2008C9.11994 28.5458 9.26041 28.8746 9.50445 29.1187C9.74848 29.3627 10.0773 29.5032 10.4223 29.5108H17.9923C18.1645 29.5118 18.3349 29.4756 18.4919 29.4049C18.649 29.3342 18.7889 29.2304 18.9023 29.1008C19.1368 28.8558 19.2813 28.5385 19.3123 28.2008C19.3047 27.8531 19.1631 27.5218 18.9172 27.2759C18.6713 27.03 18.34 26.8884 17.9923 26.8808C17.6449 26.8808 17.3117 26.7428 17.066 26.4971C16.8203 26.2514 16.6823 25.9182 16.6823 25.5708C16.6823 25.2234 16.8203 24.8902 17.066 24.6445C17.3117 24.3988 17.6449 24.2608 17.9923 24.2608C19.0055 24.2661 19.9756 24.6716 20.6911 25.389C21.4067 26.1064 21.8097 27.0776 21.8123 28.0908C21.7944 29.1071 21.3987 30.0804 20.7023 30.8208C19.9669 31.5126 19.0017 31.908 17.9923 31.9308Z" fill="black"/>
<path d="M53.3222 57.1608C52.9748 57.1608 52.6416 57.0228 52.3959 56.7771C52.1502 56.5314 52.0122 56.1982 52.0122 55.8508C52.0122 55.5034 52.1502 55.1702 52.3959 54.9245C52.6416 54.6788 52.9748 54.5408 53.3222 54.5408C53.4933 54.5405 53.6624 54.5048 53.819 54.436C53.9757 54.3671 54.1163 54.2666 54.2322 54.1408C54.4625 53.89 54.6031 53.57 54.6322 53.2308C54.6271 52.884 54.4878 52.5527 54.2435 52.3066C53.9992 52.0604 53.6689 51.9185 53.3222 51.9108C52.9748 51.9108 52.6416 51.7728 52.3959 51.5271C52.1502 51.2814 52.0122 50.9482 52.0122 50.6008C52.0122 50.2534 52.1502 49.9202 52.3959 49.6745C52.6416 49.4288 52.9748 49.2908 53.3222 49.2908C54.3406 49.2908 55.3174 49.6954 56.0375 50.4155C56.7576 51.1357 57.1622 52.1124 57.1622 53.1308C57.1399 54.1433 56.7447 55.1119 56.0522 55.8508C55.7228 56.258 55.307 56.5868 54.8348 56.8134C54.3626 57.04 53.8459 57.1586 53.3222 57.1608Z" fill="black"/>
<path d="M45.7524 57.1608C45.249 57.1621 44.7504 57.064 44.2851 56.8719C43.8199 56.6799 43.3971 56.3979 43.0412 56.042C42.6853 55.6861 42.4032 55.2633 42.2112 54.798C42.0192 54.3328 41.9211 53.8341 41.9224 53.3308C41.9525 52.3319 42.3474 51.3785 43.0324 50.6508C43.7597 49.9404 44.7357 49.5421 45.7524 49.5408C46.0813 49.5695 46.3876 49.7205 46.6107 49.9639C46.8338 50.2074 46.9576 50.5256 46.9576 50.8558C46.9576 51.186 46.8338 51.5042 46.6107 51.7477C46.3876 51.9911 46.0813 52.1421 45.7524 52.1708C45.5815 52.1723 45.4127 52.2085 45.2563 52.2773C45.0998 52.346 44.959 52.4459 44.8424 52.5708C44.6108 52.8207 44.47 53.1412 44.4424 53.4808C44.4475 53.8266 44.5872 54.1568 44.8318 54.4014C45.0763 54.646 45.4065 54.7856 45.7524 54.7908C45.9183 54.7959 46.0816 54.834 46.2326 54.9029C46.3836 54.9718 46.5194 55.0701 46.6321 55.1921C46.7447 55.314 46.8319 55.4572 46.8887 55.6132C46.9454 55.7692 46.9704 55.935 46.9624 56.1008C46.9106 56.3884 46.7627 56.6499 46.5428 56.8425C46.323 57.0351 46.0443 57.1473 45.7524 57.1608Z" fill="black"/>
<path d="M53.3224 52.1208H45.7524C45.2486 52.1208 44.7497 52.0214 44.2844 51.8283C43.8191 51.6352 43.3964 51.3522 43.0406 50.9955C42.6848 50.6388 42.4029 50.2154 42.211 49.7496C42.0192 49.2837 41.9211 48.7846 41.9224 48.2808C41.934 47.2662 42.3308 46.2939 43.0324 45.5608C43.7573 44.8468 44.7348 44.4478 45.7524 44.4508C46.0998 44.4508 46.433 44.5888 46.6787 44.8345C46.9244 45.0802 47.0624 45.4134 47.0624 45.7608C47.0624 46.1082 46.9244 46.4414 46.6787 46.6871C46.433 46.9328 46.0998 47.0708 45.7524 47.0708C45.5815 47.0723 45.4127 47.1085 45.2563 47.1773C45.0998 47.246 44.959 47.3459 44.8424 47.4708C44.6121 47.7216 44.4715 48.0416 44.4424 48.3808C44.4576 48.7196 44.6018 49.0398 44.8453 49.2759C45.0888 49.5119 45.4133 49.6461 45.7524 49.6508H53.3224C53.4934 49.6505 53.6626 49.6148 53.8192 49.546C53.9758 49.4771 54.1165 49.3766 54.2324 49.2508C54.4659 49.0022 54.6071 48.681 54.6324 48.3408C54.6272 47.995 54.4875 47.6648 54.243 47.4202C53.9984 47.1757 53.6682 47.036 53.3224 47.0308C53.1503 47.0308 52.98 46.9969 52.8211 46.9311C52.6621 46.8653 52.5177 46.7688 52.3961 46.6471C52.2744 46.5255 52.1779 46.3811 52.1121 46.2221C52.0463 46.0632 52.0124 45.8928 52.0124 45.7208C52.0124 45.5488 52.0463 45.3784 52.1121 45.2195C52.1779 45.0606 52.2744 44.9161 52.3961 44.7945C52.5177 44.6729 52.6621 44.5764 52.8211 44.5105C52.98 44.4447 53.1503 44.4108 53.3224 44.4108C53.8262 44.4095 54.3253 44.5076 54.7911 44.6995C55.257 44.8914 55.6804 45.1733 56.0371 45.5291C56.3938 45.8848 56.6768 46.3075 56.8699 46.7728C57.063 47.2382 57.1624 47.737 57.1624 48.2408C57.1407 49.2564 56.7455 50.2283 56.0524 50.9708C55.707 51.3478 55.2842 51.6457 54.8131 51.8442C54.3419 52.0427 53.8334 52.137 53.3224 52.1208Z" fill="black"/>
<path d="M53.3224 47.0708H45.7524C45.2486 47.0708 44.7497 46.9714 44.2844 46.7783C43.8191 46.5852 43.3964 46.3022 43.0406 45.9455C42.6848 45.5888 42.4029 45.1654 42.211 44.6995C42.0192 44.2337 41.9211 43.7346 41.9224 43.2308C41.9418 42.2178 42.3375 41.2482 43.0324 40.5108C43.3774 40.1386 43.7996 39.8464 44.2695 39.6547C44.7394 39.463 45.2455 39.3763 45.7524 39.4008C46.0998 39.4008 46.433 39.5388 46.6787 39.7845C46.9244 40.0302 47.0624 40.3634 47.0624 40.7108C47.0624 41.0582 46.9244 41.3914 46.6787 41.6371C46.433 41.8828 46.0998 42.0208 45.7524 42.0208C45.5805 42.0217 45.4107 42.0587 45.2539 42.1293C45.0972 42.2 44.957 42.3027 44.8424 42.4308C44.7179 42.5478 44.6184 42.6887 44.5496 42.845C44.4809 43.0014 44.4444 43.17 44.4424 43.3408C44.4475 43.5067 44.4856 43.67 44.5545 43.821C44.6234 43.9721 44.7217 44.1079 44.8436 44.2205C44.9656 44.3331 45.1088 44.4204 45.2648 44.4771C45.4208 44.5338 45.5866 44.5588 45.7524 44.5508H53.3224C53.4944 44.5505 53.6644 44.5138 53.8212 44.4431C53.9781 44.3724 54.1182 44.2694 54.2324 44.1408C54.4659 43.8922 54.6071 43.571 54.6324 43.2308C54.6272 42.885 54.4875 42.5548 54.243 42.3102C53.9984 42.0656 53.6682 41.926 53.3224 41.9208C53.1503 41.9208 52.98 41.8869 52.8211 41.8211C52.6621 41.7552 52.5177 41.6587 52.3961 41.5371C52.2744 41.4155 52.1779 41.271 52.1121 41.1121C52.0463 40.9532 52.0124 40.7828 52.0124 40.6108C52.0124 40.4388 52.0463 40.2684 52.1121 40.1095C52.1779 39.9505 52.2744 39.8061 52.3961 39.6845C52.5177 39.5628 52.6621 39.4663 52.8211 39.4005C52.98 39.3347 53.1503 39.3008 53.3224 39.3008C53.8262 39.2995 54.3253 39.3976 54.7911 39.5895C55.257 39.7813 55.6804 40.0633 56.0371 40.419C56.3938 40.7748 56.6768 41.1975 56.8699 41.6628C57.063 42.1281 57.1624 42.627 57.1624 43.1308C57.1407 44.1463 56.7455 45.1183 56.0524 45.8608C55.71 46.2456 55.2892 46.5526 54.8183 46.7613C54.3475 46.97 53.8374 47.0755 53.3224 47.0708Z" fill="black"/>
<path d="M53.3224 42.0208H45.7524C45.249 42.0221 44.7504 41.924 44.2851 41.7319C43.8199 41.5399 43.3971 41.2579 43.0412 40.902C42.6853 40.546 42.4032 40.1233 42.2112 39.658C42.0192 39.1928 41.9211 38.6941 41.9224 38.1908C41.9403 37.1745 42.336 36.2013 43.0324 35.4608C43.3774 35.0886 43.7996 34.7965 44.2695 34.6047C44.7394 34.413 45.2455 34.3263 45.7524 34.3508C46.0813 34.3795 46.3876 34.5305 46.6107 34.7739C46.8338 35.0174 46.9576 35.3356 46.9576 35.6658C46.9576 35.996 46.8338 36.3142 46.6107 36.5577C46.3876 36.8011 46.0813 36.9521 45.7524 36.9808C45.5815 36.9823 45.4127 37.0185 45.2563 37.0873C45.0998 37.156 44.959 37.2559 44.8424 37.3808C44.7188 37.4985 44.6199 37.6395 44.5512 37.7957C44.4825 37.9519 44.4456 38.1202 44.4424 38.2908C44.4384 38.4663 44.4692 38.6408 44.533 38.8044C44.5968 38.9679 44.6924 39.1172 44.8141 39.2436C44.9359 39.37 45.0815 39.4711 45.2426 39.541C45.4036 39.6109 45.5769 39.6482 45.7524 39.6508H53.3224C53.4934 39.6505 53.6626 39.6148 53.8192 39.546C53.9758 39.4771 54.1165 39.3766 54.2324 39.2508C54.4639 39.0009 54.6048 38.6804 54.6324 38.3408C54.6272 37.995 54.4875 37.6648 54.243 37.4202C53.9984 37.1756 53.6682 37.036 53.3224 37.0308C52.9934 37.0021 52.6872 36.8511 52.464 36.6077C52.2409 36.3642 52.1172 36.046 52.1172 35.7158C52.1172 35.3856 52.2409 35.0674 52.464 34.8239C52.6872 34.5805 52.9934 34.4295 53.3224 34.4008C54.3408 34.4008 55.3175 34.8054 56.0377 35.5255C56.7578 36.2456 57.1624 37.2224 57.1624 38.2408C57.1678 38.7461 57.072 39.2474 56.8808 39.7151C56.6896 40.1829 56.4068 40.6077 56.049 40.9646C55.6912 41.3214 55.2657 41.6031 54.7974 41.7931C54.3292 41.9831 53.8277 42.0775 53.3224 42.0708V42.0208Z" fill="black"/>
<path d="M53.3224 36.9808H45.7524C45.2486 36.9808 44.7497 36.8814 44.2844 36.6883C43.8191 36.4952 43.3964 36.2122 43.0406 35.8555C42.6848 35.4988 42.4029 35.0754 42.211 34.6095C42.0192 34.1437 41.9211 33.6446 41.9224 33.1408C41.934 32.1262 42.3308 31.1538 43.0324 30.4208C43.3774 30.0486 43.7996 29.7564 44.2695 29.5647C44.7394 29.373 45.2455 29.2863 45.7524 29.3108C46.0998 29.3108 46.433 29.4488 46.6787 29.6945C46.9244 29.9402 47.0624 30.2734 47.0624 30.6208C47.0624 30.9682 46.9244 31.3014 46.6787 31.5471C46.433 31.7928 46.0998 31.9308 45.7524 31.9308C45.5815 31.9323 45.4127 31.9685 45.2563 32.0373C45.0998 32.106 44.959 32.2059 44.8424 32.3308C44.5947 32.5698 44.451 32.8967 44.4424 33.2408C44.4475 33.5866 44.5872 33.9168 44.8318 34.1614C45.0763 34.406 45.4065 34.5456 45.7524 34.5508H53.3224C53.4934 34.5505 53.6626 34.5148 53.8192 34.446C53.9758 34.3771 54.1165 34.2766 54.2324 34.1508C54.4659 33.9022 54.6071 33.581 54.6324 33.2408C54.6272 32.895 54.4875 32.5648 54.243 32.3202C53.9984 32.0756 53.6682 31.936 53.3224 31.9308C52.9749 31.9308 52.6417 31.7928 52.3961 31.5471C52.1504 31.3014 52.0124 30.9682 52.0124 30.6208C52.0124 30.2734 52.1504 29.9402 52.3961 29.6945C52.6417 29.4488 52.9749 29.3108 53.3224 29.3108C53.8262 29.3095 54.3253 29.4076 54.7911 29.5995C55.257 29.7913 55.6804 30.0733 56.0371 30.429C56.3938 30.7848 56.6768 31.2075 56.8699 31.6728C57.063 32.1381 57.1624 32.637 57.1624 33.1408C57.1691 33.6469 57.0744 34.1493 56.8838 34.6182C56.6932 35.0871 56.4106 35.5131 56.0526 35.8711C55.6947 36.229 55.2687 36.5116 54.7998 36.7022C54.3309 36.8928 53.8285 36.9875 53.3224 36.9808Z" fill="black"/>
<path d="M53.3224 31.9308H45.7524C45.2486 31.9308 44.7497 31.8314 44.2844 31.6383C43.8191 31.4452 43.3964 31.1622 43.0406 30.8055C42.6848 30.4488 42.4029 30.0254 42.211 29.5595C42.0192 29.0937 41.9211 28.5946 41.9224 28.0908C41.9418 27.0777 42.3375 26.1082 43.0324 25.3708C43.7573 24.6567 44.7348 24.2578 45.7524 24.2608C46.0998 24.2608 46.433 24.3988 46.6787 24.6445C46.9244 24.8902 47.0624 25.2234 47.0624 25.5708C47.0624 25.9182 46.9244 26.2514 46.6787 26.4971C46.433 26.7428 46.0998 26.8808 45.7524 26.8808C45.5805 26.8817 45.4107 26.9187 45.2539 26.9893C45.0972 27.06 44.957 27.1626 44.8424 27.2908C44.7179 27.4078 44.6184 27.5487 44.5496 27.705C44.4809 27.8614 44.4444 28.03 44.4424 28.2008C44.4475 28.5466 44.5872 28.8768 44.8318 29.1214C45.0763 29.366 45.4065 29.5056 45.7524 29.5108H53.3224C53.4944 29.5105 53.6644 29.4738 53.8212 29.4031C53.9781 29.3324 54.1182 29.2294 54.2324 29.1008C54.4639 28.8548 54.6049 28.5375 54.6324 28.2008C54.6273 27.854 54.4879 27.5227 54.2436 27.2765C53.9993 27.0304 53.6691 26.8885 53.3224 26.8808C52.9749 26.8808 52.6417 26.7428 52.3961 26.4971C52.1504 26.2514 52.0124 25.9182 52.0124 25.5708C52.0124 25.2234 52.1504 24.8902 52.3961 24.6445C52.6417 24.3988 52.9749 24.2608 53.3224 24.2608C54.3391 24.2608 55.3143 24.664 56.0341 25.382C56.754 26.0999 57.1597 27.0741 57.1624 28.0908C57.1407 29.1063 56.7455 30.0783 56.0524 30.8208C55.3119 31.5172 54.3387 31.9129 53.3224 31.9308Z" fill="black"/>
<path d="M59.5823 57.1608H36.8723C36.5264 57.1556 36.1962 57.016 35.9517 56.7714C35.7071 56.5268 35.5674 56.1966 35.5623 55.8508C35.5687 55.6857 35.6077 55.5236 35.6772 55.3737C35.7467 55.2238 35.8452 55.0892 35.967 54.9776C36.0888 54.866 36.2315 54.7797 36.3869 54.7236C36.5423 54.6675 36.7073 54.6428 36.8723 54.6508H59.5823C59.9281 54.656 60.2583 54.7956 60.5029 55.0402C60.7474 55.2848 60.8871 55.615 60.8923 55.9608C60.8646 56.2888 60.7145 56.5944 60.4717 56.8168C60.229 57.0392 59.9114 57.162 59.5823 57.1608Z" fill="black"/>
<path d="M26.8122 57.1608H4.07221C3.72477 57.1608 3.39157 57.0228 3.1459 56.7771C2.90022 56.5314 2.76221 56.1982 2.76221 55.8508C2.76221 55.5034 2.90022 55.1702 3.1459 54.9245C3.39157 54.6788 3.72477 54.5408 4.07221 54.5408H26.8122C27.1596 54.5408 27.4928 54.6788 27.7385 54.9245C27.9842 55.1702 28.1222 55.5034 28.1222 55.8508C28.1222 56.1982 27.9842 56.5314 27.7385 56.7771C27.4928 57.0228 27.1596 57.1608 26.8122 57.1608Z" fill="black"/>
<path d="M36.8722 57.1608H26.8122C26.4654 57.1557 26.1341 57.0164 25.8879 56.7721C25.6418 56.5278 25.4999 56.1975 25.4922 55.8508V40.7108C25.4999 40.3641 25.6418 40.0339 25.8879 39.7896C26.1341 39.5453 26.4654 39.4059 26.8122 39.4008H36.8722C37.218 39.406 37.5482 39.5457 37.7928 39.7902C38.0373 40.0348 38.177 40.365 38.1822 40.7108V55.8508C38.177 56.1966 38.0373 56.5269 37.7928 56.7714C37.5482 57.016 37.218 57.1557 36.8722 57.1608ZM28.0922 54.6508H35.6622V42.0208H28.0922V54.6508Z" fill="black"/>
<path d="M31.8123 36.9808H25.4623C25.1139 36.973 24.7822 36.8297 24.5376 36.5814C24.2931 36.3331 24.1549 35.9993 24.1523 35.6508V30.6508C24.1575 30.305 24.2972 29.9748 24.5417 29.7302C24.7863 29.4856 25.1165 29.346 25.4623 29.3408H31.8123C32.1598 29.3408 32.493 29.4788 32.7387 29.7245C32.9843 29.9702 33.1223 30.3034 33.1223 30.6508C33.1223 30.9982 32.9843 31.3314 32.7387 31.5771C32.493 31.8228 32.1598 31.9608 31.8123 31.9608H26.8123V34.4508H31.8123C32.1591 34.4585 32.4893 34.6004 32.7336 34.8465C32.9779 35.0927 33.1173 35.424 33.1223 35.7708C33.1172 35.9367 33.0791 36.1 33.0102 36.251C32.9413 36.402 32.843 36.5379 32.7211 36.6505C32.5991 36.7631 32.456 36.8504 32.2999 36.9071C32.1439 36.9638 31.9782 36.9888 31.8123 36.9808Z" fill="black"/>
<path d="M38.1822 36.9808H31.8122C31.4656 36.9704 31.1364 36.8261 30.8939 36.578C30.6515 36.33 30.5147 35.9976 30.5122 35.6508V30.6508C30.5095 30.3015 30.6444 29.9651 30.8876 29.7144C31.1309 29.4636 31.463 29.3187 31.8122 29.3108H38.1722C38.3469 29.3121 38.5196 29.3478 38.6805 29.4158C38.8413 29.4839 38.9872 29.583 39.1098 29.7074C39.2324 29.8318 39.3292 29.9792 39.3948 30.1411C39.4605 30.3029 39.4936 30.4761 39.4922 30.6508V35.6508C39.4563 35.9879 39.3073 36.3029 39.0694 36.5444C38.8315 36.7859 38.5188 36.9398 38.1822 36.9808ZM33.1822 34.4508H36.9222V31.9308H33.0322V34.4508H33.1822Z" fill="black"/>
<path d="M49.4922 20.0208C49.1454 20.0157 48.8141 19.8764 48.568 19.6321C48.3218 19.3878 48.18 19.0575 48.1722 18.7108V11.6508H45.6522V15.6508C45.6522 15.9982 45.5142 16.3314 45.2685 16.5771C45.0229 16.8228 44.6897 16.9608 44.3422 16.9608C43.9948 16.9608 43.6616 16.8228 43.4159 16.5771C43.1702 16.3314 43.0322 15.9982 43.0322 15.6508V10.4308C43.0374 10.085 43.1771 9.75475 43.4216 9.51019C43.6662 9.26563 43.9964 9.12595 44.3422 9.12079H49.3422C49.689 9.12588 50.0203 9.26522 50.2665 9.50953C50.5126 9.75383 50.6545 10.0841 50.6622 10.4308V18.7108C50.6855 18.8764 50.6725 19.045 50.624 19.205C50.5754 19.3651 50.4926 19.5126 50.3812 19.6373C50.2698 19.762 50.1326 19.8609 49.979 19.9271C49.8255 19.9934 49.6594 20.0253 49.4922 20.0208Z" fill="black"/>
<path d="M60.8923 26.8808H2.05227C1.77308 26.8989 1.49635 26.8188 1.26993 26.6545C1.04351 26.4901 0.881628 26.2518 0.812268 25.9808C0.755395 25.7112 0.7824 25.4306 0.889656 25.1767C0.996913 24.9229 1.17928 24.708 1.41227 24.5608L30.8123 6.9008C31.0166 6.80243 31.2405 6.75134 31.4673 6.75134C31.6941 6.75134 31.9179 6.80243 32.1223 6.9008L61.5023 24.5608C61.7111 24.6618 61.8874 24.8194 62.0111 25.0156C62.1349 25.2118 62.2011 25.4388 62.2023 25.6708C62.1451 25.9875 61.9864 26.2769 61.75 26.4953C61.5136 26.7136 61.2125 26.8489 60.8923 26.8808ZM6.59227 24.3608H56.3523L31.4223 9.4208L6.59227 24.3608Z" fill="black"/>
<path d="M20.5222 21.8408C20.3 21.8451 20.0805 21.7911 19.8857 21.684C19.6909 21.577 19.5276 21.4207 19.4122 21.2308C19.2571 20.9367 19.2225 20.5937 19.3158 20.2745C19.4092 19.9554 19.623 19.685 19.9122 19.5208L30.8122 13.1608C31.015 13.0572 31.2395 13.0032 31.4672 13.0032C31.6949 13.0032 31.9194 13.0572 32.1222 13.1608L36.2622 15.6508C36.4157 15.7295 36.5512 15.8392 36.6603 15.9729C36.7694 16.1066 36.8496 16.2614 36.8959 16.4276C36.9422 16.5938 36.9536 16.7678 36.9293 16.9386C36.9051 17.1094 36.8458 17.2733 36.7551 17.4201C36.6644 17.5669 36.5443 17.6933 36.4024 17.7914C36.2604 17.8895 36.0997 17.9571 35.9304 17.99C35.761 18.023 35.5867 18.0205 35.4183 17.9828C35.25 17.945 35.0913 17.8729 34.9522 17.7708L31.4222 15.6508L21.1222 21.6508C20.9406 21.7619 20.7346 21.8272 20.5222 21.8408Z" fill="black"/>
</g>
<defs>
<clipPath id="clip0_68_441">
<rect width="63" height="63" fill="white" transform="translate(-0.00732422 0.456085)"/>
</clipPath>
</defs>
</svg>
