<svg width="64" height="64" viewBox="0 0 64 64" fill="none" xmlns="http://www.w3.org/2000/svg">
<path d="M46.3594 56.3941C46.0277 56.3967 45.6988 56.3334 45.3919 56.2077C45.0849 56.082 44.8061 55.8965 44.5715 55.6619C44.337 55.4274 44.1515 55.1485 44.0258 54.8416C43.9001 54.5346 43.8367 54.2057 43.8394 53.8741C43.8581 53.2053 44.1051 52.563 44.5394 52.0541C44.7787 51.819 45.0637 51.6356 45.3767 51.5152C45.6898 51.3948 46.0242 51.3399 46.3594 51.3541C46.0268 51.3568 45.6971 51.2931 45.3895 51.1668C45.0819 51.0404 44.8026 50.854 44.5679 50.6184C44.3333 50.3828 44.1479 50.1028 44.0228 49.7947C43.8977 49.4865 43.8354 49.1566 43.8394 48.8241C43.8635 48.1564 44.1099 47.5159 44.5394 47.0041C44.7733 46.7618 45.0575 46.5735 45.3719 46.4526C45.6863 46.3317 46.0233 46.281 46.3594 46.3041C46.0277 46.3067 45.6988 46.2434 45.3919 46.1177C45.0849 45.992 44.8061 45.8065 44.5715 45.5719C44.337 45.3374 44.1515 45.0585 44.0258 44.7516C43.9001 44.4446 43.8367 44.1157 43.8394 43.7841C43.8564 43.115 44.1037 42.4722 44.5394 41.9641C44.7767 41.7257 45.0612 41.5395 45.3745 41.4173C45.6879 41.295 46.0233 41.2394 46.3594 41.2541C46.0277 41.2567 45.6988 41.1934 45.3919 41.0677C45.0849 40.942 44.8061 40.7565 44.5715 40.5219C44.337 40.2874 44.1515 40.0085 44.0258 39.7016C43.9001 39.3946 43.8367 39.0657 43.8394 38.7341C43.8581 38.0653 44.1051 37.423 44.5394 36.9141C44.7787 36.679 45.0637 36.4956 45.3767 36.3752C45.6898 36.2548 46.0242 36.1999 46.3594 36.2141C46.0272 36.2154 45.6981 36.1508 45.3911 36.024C45.0841 35.8972 44.8053 35.7107 44.5709 35.4754C44.3365 35.2401 44.1512 34.9606 44.0256 34.6531C43.9 34.3456 43.8367 34.0162 43.8394 33.6841C43.8579 33.0183 44.1051 32.3791 44.5394 31.8741C44.7767 31.6357 45.0612 31.4495 45.3745 31.3273C45.6879 31.205 46.0233 31.1494 46.3594 31.1641C46.0277 31.1667 45.6988 31.1034 45.3919 30.9777C45.0849 30.852 44.8061 30.6665 44.5715 30.4319C44.337 30.1974 44.1515 29.9185 44.0258 29.6116C43.9001 29.3046 43.8367 28.9757 43.8394 28.6441C43.8564 27.975 44.1037 27.3322 44.5394 26.8241C44.775 26.5821 45.0587 26.3922 45.3721 26.2665C45.6856 26.1407 46.0219 26.082 46.3594 26.0941H18.5994C18.9327 26.09 19.2635 26.1527 19.5723 26.2785C19.8811 26.4042 20.1616 26.5904 20.3973 26.8261C20.6331 27.0619 20.8193 27.3424 20.945 27.6511C21.0707 27.9599 21.1334 28.2907 21.1294 28.6241C21.1118 29.2979 20.8608 29.9447 20.4194 30.4541C20.1824 30.6929 19.898 30.8795 19.5845 31.0018C19.2711 31.124 18.9355 31.1793 18.5994 31.1641C18.9319 31.1601 19.2618 31.2224 19.5699 31.3475C19.8781 31.4726 20.1581 31.658 20.3937 31.8926C20.6293 32.1273 20.8157 32.4066 20.942 32.7142C21.0684 33.0218 21.132 33.3515 21.1294 33.6841C21.1071 34.3539 20.8566 34.9961 20.4194 35.5041C20.1809 35.7409 19.8963 35.9262 19.5832 36.0483C19.2701 36.1705 18.9352 36.2269 18.5994 36.2141C18.9319 36.2101 19.2618 36.2724 19.5699 36.3975C19.8781 36.5226 20.1581 36.708 20.3937 36.9426C20.6293 37.1773 20.8157 37.4566 20.942 37.7642C21.0684 38.0718 21.132 38.4015 21.1294 38.7341C21.1071 39.4039 20.8566 40.0461 20.4194 40.5541C20.1858 40.7969 19.9017 40.9855 19.5872 41.1065C19.2727 41.2275 18.9355 41.2778 18.5994 41.2541C18.9327 41.25 19.2635 41.3127 19.5723 41.4385C19.8811 41.5642 20.1616 41.7504 20.3973 41.9861C20.6331 42.2219 20.8193 42.5024 20.945 42.8111C21.0707 43.1199 21.1334 43.4507 21.1294 43.7841C21.1072 44.451 20.8565 45.09 20.4194 45.5941C20.1824 45.8329 19.898 46.0195 19.5845 46.1418C19.2711 46.264 18.9355 46.3193 18.5994 46.3041C18.9319 46.3001 19.2618 46.3624 19.5699 46.4875C19.8781 46.6126 20.1581 46.798 20.3937 47.0326C20.6293 47.2673 20.8157 47.5466 20.942 47.8542C21.0684 48.1618 21.132 48.4915 21.1294 48.8241C21.1071 49.4939 20.8566 50.1361 20.4194 50.6441C20.1867 50.8887 19.903 51.0792 19.5885 51.2019C19.2739 51.3246 18.9362 51.3766 18.5994 51.3541C18.9319 51.3501 19.2618 51.4124 19.5699 51.5375C19.8781 51.6626 20.1581 51.848 20.3937 52.0826C20.6293 52.3173 20.8157 52.5966 20.942 52.9042C21.0684 53.2118 21.132 53.5415 21.1294 53.8741C21.1071 54.5439 20.8566 55.1861 20.4194 55.6941C20.1804 55.9296 19.8955 56.1133 19.5823 56.2338C19.2692 56.3542 18.9346 56.4088 18.5994 56.3941H46.3594Z" fill="#F9C801"/>
<path d="M38.7894 31.1641H32.4294V36.2141H38.7894V31.1641Z" fill="#F9C801"/>
<path d="M32.5294 31.1641H26.1694V36.2141H32.5294V31.1641Z" fill="#F9C801"/>
<path d="M37.4794 41.2542H27.3894V56.3941H37.4794V41.2542Z" fill="white"/>
<path d="M50.0996 10.9741V19.2541L45.0496 16.2241V10.9741H50.0996Z" fill="white"/>
<path d="M61.4994 26.1141H53.9294H46.3594H18.5994H11.0294H2.65942L32.0294 8.4541L45.0494 16.2241L50.0994 19.2541L61.4994 26.1141Z" fill="white"/>
<path d="M18.5994 31.1641C18.9319 31.1601 19.2618 31.2225 19.5699 31.3476C19.878 31.4727 20.1581 31.658 20.3937 31.8927C20.6293 32.1273 20.8157 32.4066 20.942 32.7143C21.0684 33.0219 21.132 33.3516 21.1294 33.6841C21.1071 34.354 20.8566 34.9961 20.4194 35.5041C20.1867 35.7488 19.903 35.9392 19.5885 36.0619C19.2739 36.1846 18.9362 36.2366 18.5994 36.2141H11.0294C10.6972 36.2154 10.3681 36.1508 10.0611 36.024C9.75411 35.8972 9.47533 35.7108 9.24093 35.4754C9.00653 35.2401 8.82117 34.9606 8.69559 34.6531C8.57001 34.3456 8.50671 34.0162 8.50936 33.6841C8.52739 33.0164 8.77858 32.376 9.21936 31.8741C9.45483 31.636 9.73752 31.4499 10.0492 31.3276C10.361 31.2053 10.6948 31.1496 11.0294 31.1641H18.5994Z" fill="white"/>
<path d="M18.5994 41.254C18.9327 41.2499 19.2635 41.3126 19.5723 41.4383C19.8811 41.5641 20.1616 41.7503 20.3973 41.986C20.633 42.2217 20.8193 42.5022 20.945 42.811C21.0707 43.1198 21.1334 43.4506 21.1294 43.7839C21.1072 44.4508 20.8565 45.0899 20.4194 45.594C20.188 45.8403 19.9045 46.0319 19.5896 46.1548C19.2748 46.2776 18.9364 46.3286 18.5994 46.3039H11.0294C10.6977 46.3066 10.3688 46.2433 10.0619 46.1176C9.75491 45.9919 9.47605 45.8063 9.24151 45.5718C9.00697 45.3373 8.82145 45.0584 8.69575 44.7515C8.57006 44.4445 8.50669 44.1156 8.50936 43.7839C8.52507 43.1128 8.77641 42.4685 9.21936 41.9639C9.45483 41.7259 9.73752 41.5397 10.0492 41.4175C10.361 41.2952 10.6948 41.2395 11.0294 41.254H18.5994Z" fill="white"/>
<path d="M18.5994 51.3539C18.9319 51.3499 19.2618 51.4123 19.5699 51.5374C19.878 51.6625 20.1581 51.8478 20.3937 52.0825C20.6293 52.3172 20.8157 52.5965 20.942 52.9041C21.0684 53.2117 21.132 53.5414 21.1294 53.8739C21.1071 54.5438 20.8566 55.1859 20.4194 55.6939C20.1858 55.9368 19.9017 56.1254 19.5872 56.2464C19.2727 56.3673 18.9355 56.4177 18.5994 56.3939H11.0294C10.6977 56.3966 10.3688 56.3332 10.0619 56.2075C9.75491 56.0818 9.47605 55.8963 9.24151 55.6618C9.00697 55.4273 8.82145 55.1484 8.69575 54.8414C8.57006 54.5345 8.50669 54.2056 8.50936 53.8739C8.53589 53.217 8.78644 52.5888 9.21936 52.0939C9.45678 51.8592 9.74003 51.6759 10.0514 51.5554C10.3629 51.435 10.6958 51.38 11.0294 51.3939L18.5994 51.3539Z" fill="white"/>
<path d="M53.9294 51.3541C54.2586 51.3554 54.5842 51.4217 54.8877 51.5491C55.1912 51.6766 55.4665 51.8628 55.6978 52.0969C55.9292 52.331 56.112 52.6085 56.2359 52.9135C56.3597 53.2185 56.4221 53.5449 56.4194 53.8741C56.4007 54.5429 56.1537 55.1851 55.7194 55.6941C55.4855 55.9364 55.2013 56.1246 54.8869 56.2455C54.5725 56.3664 54.2355 56.4171 53.8994 56.3941H46.3594C46.0278 56.3967 45.6989 56.3334 45.3919 56.2077C45.085 56.082 44.8061 55.8964 44.5716 55.6619C44.3371 55.4274 44.1515 55.1485 44.0258 54.8416C43.9001 54.5346 43.8368 54.2057 43.8394 53.8741C43.8581 53.2053 44.1052 52.563 44.5394 52.0541C44.7734 51.8117 45.0576 51.6235 45.372 51.5026C45.6863 51.3817 46.0234 51.331 46.3594 51.3541H53.9294Z" fill="white"/>
<path d="M53.9294 41.254C54.2594 41.2553 54.5859 41.3219 54.89 41.45C55.1942 41.5781 55.4699 41.7652 55.7014 42.0004C55.9329 42.2356 56.1155 42.5143 56.2388 42.8204C56.362 43.1265 56.4234 43.454 56.4194 43.784C56.4009 44.4498 56.1537 45.089 55.7194 45.594C55.4876 45.8398 55.2041 46.031 54.8893 46.1538C54.5746 46.2766 54.2365 46.3279 53.8994 46.304H46.3594C46.0278 46.3067 45.6989 46.2433 45.3919 46.1176C45.085 45.9919 44.8061 45.8064 44.5716 45.5718C44.3371 45.3373 44.1515 45.0585 44.0258 44.7515C43.9001 44.4446 43.8368 44.1157 43.8394 43.784C43.8565 43.1149 44.1037 42.4721 44.5394 41.964C44.7768 41.7257 45.0612 41.5394 45.3746 41.4172C45.688 41.2949 46.0234 41.2394 46.3594 41.254H53.9294Z" fill="white"/>
<path d="M53.9294 31.1642C54.2586 31.1655 54.5842 31.2318 54.8877 31.3592C55.1912 31.4867 55.4665 31.6729 55.6978 31.907C55.9292 32.1411 56.112 32.4186 56.2359 32.7236C56.3597 33.0286 56.4221 33.355 56.4194 33.6842C56.4007 34.353 56.1537 34.9952 55.7194 35.5042C55.486 35.7477 55.2021 35.9374 54.8878 36.0601C54.5735 36.1827 54.2362 36.2353 53.8994 36.2142H46.3594C46.0273 36.2155 45.6982 36.1509 45.3912 36.0241C45.0842 35.8973 44.8054 35.7108 44.571 35.4755C44.3366 35.2402 44.1512 34.9607 44.0257 34.6532C43.9001 34.3457 43.8368 34.0163 43.8394 33.6842C43.858 33.0183 44.1052 32.3792 44.5394 31.8742C44.7768 31.6358 45.0612 31.4496 45.3746 31.3273C45.688 31.2051 46.0234 31.1495 46.3594 31.1642H53.9294Z" fill="white"/>
<path d="M53.9295 46.304C54.2587 46.3053 54.5843 46.3716 54.8878 46.4991C55.1913 46.6266 55.4666 46.8127 55.6979 47.0468C55.9293 47.281 56.1121 47.5585 56.236 47.8635C56.3598 48.1684 56.4222 48.4949 56.4195 48.824C56.4008 49.4928 56.1538 50.1351 55.7195 50.644C55.4861 50.8876 55.2022 51.0773 54.8879 51.1999C54.5736 51.3225 54.2363 51.3751 53.8995 51.354H46.3595C46.027 51.3567 45.6973 51.293 45.3897 51.1667C45.0821 51.0404 44.8028 50.854 44.5681 50.6184C44.3334 50.3828 44.1481 50.1027 44.023 49.7946C43.8979 49.4865 43.8355 49.1565 43.8395 48.824C43.8637 48.1563 44.11 47.5158 44.5395 47.004C44.7735 46.7617 45.0577 46.5735 45.3721 46.4526C45.6865 46.3316 46.0235 46.2809 46.3595 46.304H53.9295Z" fill="#F9C801"/>
<path d="M53.9294 36.2141C54.2586 36.2154 54.5842 36.2817 54.8877 36.4092C55.1912 36.5366 55.4665 36.7228 55.6978 36.9569C55.9292 37.1911 56.112 37.4686 56.2359 37.7735C56.3597 38.0785 56.4221 38.4049 56.4194 38.7341C56.4007 39.4029 56.1537 40.0451 55.7194 40.5541C55.4855 40.7964 55.2013 40.9846 54.8869 41.1055C54.5725 41.2265 54.2355 41.2772 53.8994 41.2541H46.3594C46.0278 41.2568 45.6989 41.1934 45.3919 41.0677C45.085 40.942 44.8061 40.7565 44.5716 40.5219C44.3371 40.2874 44.1515 40.0085 44.0258 39.7016C43.9001 39.3946 43.8368 39.0658 43.8394 38.7341C43.8581 38.0653 44.1052 37.423 44.5394 36.9141C44.7787 36.679 45.0637 36.4956 45.3768 36.3752C45.6899 36.2548 46.0243 36.2 46.3594 36.2141H53.9294Z" fill="#F9C801"/>
<path d="M53.9294 26.0941C54.2611 26.0953 54.5893 26.1626 54.8948 26.2919C55.2002 26.4213 55.4769 26.6101 55.7086 26.8475C55.9404 27.0848 56.1226 27.3659 56.2446 27.6743C56.3666 27.9828 56.4261 28.3124 56.4194 28.6441C56.4009 29.3099 56.1537 29.949 55.7194 30.4541C55.4876 30.6999 55.2041 30.8911 54.8893 31.0139C54.5746 31.1367 54.2365 31.188 53.8994 31.1641H46.3594C46.0278 31.1667 45.6989 31.1034 45.3919 30.9777C45.085 30.852 44.8061 30.6665 44.5716 30.4319C44.3371 30.1974 44.1515 29.9185 44.0258 29.6116C43.9001 29.3046 43.8368 28.9757 43.8394 28.6441C43.8565 27.975 44.1037 27.3322 44.5394 26.8241C44.7751 26.5821 45.0587 26.3922 45.3722 26.2665C45.6856 26.1407 46.0219 26.082 46.3594 26.0941H53.9294Z" fill="#F9C801"/>
<path d="M18.5995 46.3041C18.932 46.3001 19.2619 46.3625 19.57 46.4876C19.8781 46.6127 20.1582 46.798 20.3938 47.0327C20.6294 47.2673 20.8158 47.5467 20.9421 47.8543C21.0685 48.1619 21.1321 48.4916 21.1295 48.8241C21.1072 49.494 20.8567 50.1361 20.4195 50.6441C20.1868 50.8888 19.9031 51.0792 19.5886 51.202C19.274 51.3247 18.9363 51.3766 18.5995 51.3541H11.0295C10.6969 51.3568 10.3672 51.2931 10.0596 51.1668C9.752 51.0405 9.47268 50.8541 9.23801 50.6185C9.00334 50.3829 8.81803 50.1028 8.69293 49.7947C8.56783 49.4866 8.50546 49.1566 8.50946 48.8241C8.52851 48.1536 8.77942 47.5104 9.21946 47.0041C9.45688 46.7693 9.74013 46.586 10.0515 46.4656C10.363 46.3452 10.6959 46.2902 11.0295 46.3041H18.5995Z" fill="#F9C801"/>
<path d="M18.5994 36.214C18.9319 36.21 19.2618 36.2724 19.5699 36.3975C19.878 36.5226 20.1581 36.7079 20.3937 36.9426C20.6293 37.1773 20.8157 37.4566 20.942 37.7642C21.0684 38.0718 21.132 38.4015 21.1294 38.734C21.1071 39.4039 20.8566 40.046 20.4194 40.554C20.1858 40.7969 19.9017 40.9855 19.5872 41.1065C19.2727 41.2274 18.9355 41.2778 18.5994 41.254H11.0294C10.6977 41.2567 10.3688 41.1933 10.0619 41.0676C9.75491 40.9419 9.47605 40.7564 9.24151 40.5219C9.00697 40.2873 8.82145 40.0085 8.69575 39.7015C8.57006 39.3946 8.50669 39.0657 8.50936 38.734C8.52675 38.0632 8.77788 37.4194 9.21936 36.914C9.45678 36.6793 9.74003 36.4959 10.0514 36.3755C10.3629 36.2551 10.6958 36.2001 11.0294 36.214H18.5994Z" fill="#F9C801"/>
<path d="M18.5994 26.094C18.9327 26.09 19.2635 26.1527 19.5723 26.2784C19.8811 26.4041 20.1616 26.5903 20.3973 26.8261C20.633 27.0618 20.8193 27.3423 20.945 27.6511C21.0707 27.9599 21.1334 28.2907 21.1294 28.624C21.1118 29.2979 20.8608 29.9447 20.4194 30.454C20.188 30.7004 19.9045 30.892 19.5896 31.0148C19.2748 31.1377 18.9364 31.1886 18.5994 31.164H11.0294C10.6977 31.1667 10.3688 31.1033 10.0619 30.9776C9.75491 30.8519 9.47605 30.6664 9.24151 30.4319C9.00697 30.1973 8.82145 29.9185 8.69575 29.6115C8.57006 29.3046 8.50669 28.9757 8.50936 28.644C8.52507 27.9728 8.77641 27.3286 9.21936 26.824C9.45309 26.5824 9.735 26.3925 10.0468 26.2667C10.3586 26.141 10.6934 26.0821 11.0294 26.094H18.5994Z" fill="#F9C801"/>
<path d="M31.2195 47.614C31.4588 47.614 31.6928 47.685 31.8918 47.8179C32.0907 47.9509 32.2458 48.1399 32.3374 48.361C32.429 48.5821 32.453 48.8254 32.4063 49.0601C32.3596 49.2948 32.2443 49.5104 32.0751 49.6796C31.9059 49.8488 31.6903 49.9641 31.4556 50.0108C31.2209 50.0575 30.9776 50.0335 30.7565 49.9419C30.5354 49.8503 30.3464 49.6952 30.2134 49.4963C30.0805 49.2973 30.0095 49.0633 30.0095 48.824C30.0095 48.5031 30.137 48.1953 30.3639 47.9684C30.5908 47.7415 30.8986 47.614 31.2195 47.614Z" fill="#B80000"/>
<path d="M18.5996 57.6041C18.2521 57.6041 17.9189 57.4661 17.6732 57.2204C17.4276 56.9748 17.2896 56.6416 17.2896 56.2941C17.2896 55.9467 17.4276 55.6135 17.6732 55.3678C17.9189 55.1221 18.2521 54.9841 18.5996 54.9841C18.7707 54.9844 18.9401 54.949 19.0968 54.8802C19.2535 54.8113 19.394 54.7105 19.5096 54.5841C19.7422 54.3339 19.8862 54.0142 19.9196 53.6741C19.9119 53.3264 19.7704 52.9951 19.5245 52.7492C19.2786 52.5033 18.9472 52.3618 18.5996 52.3541C18.2521 52.3541 17.9189 52.2161 17.6732 51.9704C17.4276 51.7248 17.2896 51.3916 17.2896 51.0441C17.2896 50.6967 17.4276 50.3635 17.6732 50.1178C17.9189 49.8721 18.2521 49.7341 18.5996 49.7341C19.6145 49.7394 20.5861 50.1463 21.3019 50.8659C22.0177 51.5855 22.4196 52.5592 22.4196 53.5741C22.402 54.5876 22.0061 55.5578 21.3096 56.2941C20.9823 56.6987 20.5697 57.026 20.1012 57.2525C19.6327 57.4789 19.1199 57.599 18.5996 57.6041Z" fill="#B80000"/>
<path d="M11.0295 57.604C10.5261 57.6053 10.0275 57.5072 9.56224 57.3152C9.09697 57.1231 8.67423 56.8411 8.31831 56.4852C7.9624 56.1293 7.68034 55.7065 7.48833 55.2412C7.29632 54.776 7.19816 54.2773 7.19948 53.774C7.22962 52.7751 7.62447 51.8217 8.30948 51.094C9.03798 50.3854 10.0132 49.9874 11.0295 49.984C11.2118 49.9681 11.3954 49.9903 11.5687 50.0491C11.742 50.108 11.9012 50.2022 12.0361 50.3259C12.1711 50.4495 12.2788 50.5999 12.3525 50.7674C12.4262 50.935 12.4643 51.116 12.4643 51.299C12.4643 51.482 12.4262 51.663 12.3525 51.8306C12.2788 51.9981 12.1711 52.1485 12.0361 52.2721C11.9012 52.3958 11.742 52.49 11.5687 52.5489C11.3954 52.6077 11.2118 52.6299 11.0295 52.614C10.8599 52.6145 10.6923 52.6503 10.5373 52.7191C10.3824 52.788 10.2435 52.8884 10.1295 53.014C9.89086 53.2602 9.74583 53.5821 9.71948 53.924C9.72464 54.2698 9.86431 54.6 10.1089 54.8446C10.3534 55.0892 10.6837 55.2288 11.0295 55.234C11.3763 55.2391 11.7076 55.3784 11.9537 55.6227C12.1999 55.867 12.3417 56.1973 12.3495 56.544C12.2606 56.8324 12.0873 57.0875 11.852 57.2764C11.6167 57.4653 11.3302 57.5794 11.0295 57.604Z" fill="#B80000"/>
<path d="M18.5995 52.564H11.0295C10.5257 52.564 10.0268 52.4646 9.56148 52.2715C9.09615 52.0784 8.67349 51.7954 8.31771 51.4387C7.96194 51.082 7.68003 50.6586 7.48814 50.1928C7.29626 49.7269 7.19816 49.2278 7.19948 48.724C7.21108 47.7094 7.60787 46.7371 8.30948 46.004C9.03561 45.2918 10.0124 44.8932 11.0295 44.894C11.3769 44.894 11.7101 45.032 11.9558 45.2777C12.2015 45.5234 12.3395 45.8566 12.3395 46.204C12.3395 46.5514 12.2015 46.8846 11.9558 47.1303C11.7101 47.376 11.3769 47.514 11.0295 47.514C10.8599 47.5145 10.6923 47.5503 10.5373 47.6192C10.3824 47.688 10.2435 47.7884 10.1295 47.914C9.89294 48.1616 9.74826 48.4828 9.71948 48.824C9.73474 49.1628 9.87886 49.483 10.1224 49.7191C10.3659 49.9551 10.6904 50.0892 11.0295 50.094H18.5995C18.7706 50.0943 18.94 50.0589 19.0967 49.99C19.2534 49.9212 19.394 49.8203 19.5095 49.694C19.746 49.4464 19.8907 49.1252 19.9195 48.784C19.9117 48.4373 19.7699 48.107 19.5237 47.8627C19.2776 47.6184 18.9463 47.4791 18.5995 47.474C18.4274 47.474 18.2571 47.4401 18.0982 47.3743C17.9392 47.3085 17.7948 47.212 17.6732 47.0903C17.5515 46.9687 17.455 46.8243 17.3892 46.6653C17.3234 46.5064 17.2895 46.336 17.2895 46.164C17.2895 45.992 17.3234 45.8216 17.3892 45.6627C17.455 45.5038 17.5515 45.3593 17.6732 45.2377C17.7948 45.116 17.9392 45.0196 18.0982 44.9537C18.2571 44.8879 18.4274 44.854 18.5995 44.854C19.105 44.8553 19.6052 44.9566 20.0714 45.1522C20.5375 45.3478 20.9603 45.6337 21.3155 45.9934C21.6706 46.3532 21.951 46.7797 22.1404 47.2484C22.3299 47.717 22.4248 48.2185 22.4195 48.724C22.4016 49.7403 22.0059 50.7136 21.3095 51.454C20.5721 52.1426 19.6081 52.5374 18.5995 52.564Z" fill="#B80000"/>
<path d="M18.5995 47.5141H11.0295C10.5257 47.5141 10.0268 47.4147 9.56148 47.2216C9.09615 47.0285 8.67349 46.7455 8.31771 46.3888C7.96194 46.0321 7.68003 45.6087 7.48814 45.1429C7.29626 44.6771 7.19816 44.1779 7.19948 43.6741C7.2189 42.6611 7.61457 41.6915 8.30948 40.9541C9.03561 40.2419 10.0124 39.8433 11.0295 39.8441C11.2015 39.8441 11.3719 39.878 11.5308 39.9439C11.6897 40.0097 11.8341 40.1062 11.9558 40.2278C12.0774 40.3495 12.1739 40.4939 12.2398 40.6528C12.3056 40.8118 12.3395 40.9821 12.3395 41.1541C12.3395 41.3262 12.3056 41.4965 12.2398 41.6555C12.1739 41.8144 12.0774 41.9588 11.9558 42.0804C11.8341 42.2021 11.6897 42.2986 11.5308 42.3644C11.3719 42.4303 11.2015 42.4641 11.0295 42.4641C10.8589 42.4646 10.6905 42.5014 10.5353 42.5721C10.3801 42.6428 10.2417 42.7458 10.1295 42.8741C10.0018 42.9891 9.89945 43.1294 9.82887 43.2861C9.75829 43.4427 9.72104 43.6123 9.71948 43.7841C9.72591 43.9496 9.76492 44.1123 9.83426 44.2627C9.90361 44.4131 10.0019 44.5484 10.1236 44.6608C10.2453 44.7731 10.3879 44.8604 10.5433 44.9176C10.6988 44.9748 10.864 45.0008 11.0295 44.9941H18.5995C18.7717 44.9951 18.9421 44.959 19.0991 44.8882C19.2561 44.8175 19.3961 44.7138 19.5095 44.5841C19.746 44.3365 19.8907 44.0154 19.9195 43.6741C19.9117 43.3274 19.7699 42.9972 19.5237 42.7529C19.2776 42.5086 18.9463 42.3692 18.5995 42.3641C18.252 42.3641 17.9188 42.2261 17.6732 41.9804C17.4275 41.7348 17.2895 41.4016 17.2895 41.0541C17.2895 40.7067 17.4275 40.3735 17.6732 40.1278C17.9188 39.8822 18.252 39.7441 18.5995 39.7441C19.6135 39.7468 20.5851 40.1515 21.3012 40.8694C22.0173 41.5874 22.4195 42.5601 22.4195 43.5741C22.4016 44.5905 22.0059 45.5637 21.3095 46.3041C20.9631 46.6787 20.5444 46.979 20.0786 47.187C19.6127 47.395 19.1096 47.5063 18.5995 47.5141Z" fill="#B80000"/>
<path d="M18.5995 42.4641H11.0295C10.5261 42.4654 10.0275 42.3672 9.56224 42.1752C9.09697 41.9832 8.67423 41.7011 8.31831 41.3452C7.9624 40.9893 7.68034 40.5666 7.48833 40.1013C7.29632 39.636 7.19816 39.1374 7.19948 38.6341C7.21738 37.6177 7.61309 36.6445 8.30948 35.9041C9.03798 35.1955 10.0132 34.7975 11.0295 34.7941C11.2118 34.7781 11.3954 34.8003 11.5687 34.8592C11.742 34.918 11.9012 35.0123 12.0361 35.1359C12.1711 35.2596 12.2788 35.41 12.3525 35.5775C12.4262 35.745 12.4643 35.926 12.4643 36.1091C12.4643 36.2921 12.4262 36.4731 12.3525 36.6406C12.2788 36.8082 12.1711 36.9585 12.0361 37.0822C11.9012 37.2058 11.742 37.3001 11.5687 37.3589C11.3954 37.4178 11.2118 37.44 11.0295 37.4241C10.8599 37.4245 10.6923 37.4603 10.5373 37.5292C10.3824 37.5981 10.2435 37.6985 10.1295 37.8241C10.0028 37.9398 9.90103 38.0803 9.83053 38.2367C9.76003 38.3932 9.72224 38.5625 9.71948 38.7341C9.7155 38.9096 9.7463 39.0841 9.8101 39.2476C9.87391 39.4112 9.96946 39.5605 10.0912 39.6869C10.213 39.8133 10.3586 39.9144 10.5197 39.9843C10.6807 40.0542 10.854 40.0915 11.0295 40.0941H18.5995C18.7706 40.0944 18.94 40.059 19.0967 39.9901C19.2534 39.9212 19.394 39.8204 19.5095 39.6941C19.744 39.4451 19.8884 39.1247 19.9195 38.7841C19.9117 38.4373 19.7699 38.1071 19.5237 37.8628C19.2776 37.6185 18.9463 37.4792 18.5995 37.4741C18.2705 37.4453 17.9643 37.2944 17.7411 37.0509C17.518 36.8075 17.3943 36.4893 17.3943 36.1591C17.3943 35.8288 17.518 35.5106 17.7411 35.2672C17.9643 35.0237 18.2705 34.8728 18.5995 34.8441C19.6058 34.8492 20.57 35.2492 21.2844 35.958C21.9988 36.6668 22.4064 37.6278 22.4195 38.6341C22.4079 39.6487 22.0111 40.621 21.3095 41.3541C20.5741 42.0459 19.6088 42.4412 18.5995 42.4641Z" fill="#B80000"/>
<path d="M18.5995 37.4242H11.0295C10.5257 37.4242 10.0268 37.3248 9.56148 37.1317C9.09615 36.9386 8.67349 36.6555 8.31771 36.2988C7.96194 35.9421 7.68003 35.5187 7.48814 35.0529C7.29626 34.5871 7.19816 34.088 7.19948 33.5842C7.21108 32.5695 7.60787 31.5972 8.30948 30.8642C9.03561 30.1519 10.0124 29.7533 11.0295 29.7542C11.3769 29.7542 11.7101 29.8922 11.9558 30.1378C12.2015 30.3835 12.3395 30.7167 12.3395 31.0642C12.3395 31.4116 12.2015 31.7448 11.9558 31.9905C11.7101 32.2361 11.3769 32.3742 11.0295 32.3742C10.8599 32.3746 10.6923 32.4104 10.5373 32.4793C10.3824 32.5482 10.2435 32.6486 10.1295 32.7742C10.0037 32.8906 9.90255 33.0312 9.83212 33.1875C9.76169 33.3439 9.72339 33.5127 9.71948 33.6842C9.72464 34.03 9.86431 34.3602 10.1089 34.6048C10.3534 34.8493 10.6837 34.989 11.0295 34.9942H18.5995C18.7706 34.9945 18.94 34.959 19.0967 34.8902C19.2534 34.8213 19.394 34.7205 19.5095 34.5942C19.746 34.3465 19.8907 34.0254 19.9195 33.6842C19.9117 33.3374 19.7699 33.0072 19.5237 32.7629C19.2776 32.5186 18.9463 32.3792 18.5995 32.3742C18.252 32.3742 17.9188 32.2361 17.6732 31.9905C17.4275 31.7448 17.2895 31.4116 17.2895 31.0642C17.2895 30.7167 17.4275 30.3835 17.6732 30.1378C17.9188 29.8922 18.252 29.7542 18.5995 29.7542C19.6135 29.7568 20.5851 30.1615 21.3012 30.8795C22.0173 31.5974 22.4195 32.5701 22.4195 33.5842C22.4016 34.6005 22.0059 35.5737 21.3095 36.3142C20.5721 37.0028 19.6081 37.3976 18.5995 37.4242Z" fill="#B80000"/>
<path d="M18.5995 32.3741H11.0295C10.5257 32.3741 10.0268 32.2747 9.56148 32.0816C9.09615 31.8885 8.67349 31.6055 8.31771 31.2488C7.96194 30.8921 7.68003 30.4687 7.48814 30.0029C7.29626 29.537 7.19816 29.0379 7.19948 28.5341C7.2189 27.5211 7.61457 26.5515 8.30948 25.8141C9.03561 25.1019 10.0124 24.7033 11.0295 24.7041C11.3769 24.7041 11.7101 24.8421 11.9558 25.0878C12.2015 25.3335 12.3395 25.6667 12.3395 26.0141C12.3395 26.3615 12.2015 26.6947 11.9558 26.9404C11.7101 27.1861 11.3769 27.3241 11.0295 27.3241C10.8589 27.3246 10.6905 27.3614 10.5353 27.4321C10.3801 27.5028 10.2417 27.6057 10.1295 27.7341C10.0018 27.8491 9.89945 27.9894 9.82887 28.146C9.75829 28.3027 9.72104 28.4723 9.71948 28.6441C9.72712 28.9891 9.86759 29.3179 10.1116 29.562C10.3557 29.806 10.6844 29.9465 11.0295 29.9541H18.5995C18.7717 29.9551 18.9421 29.9189 19.0991 29.8482C19.2561 29.7775 19.3961 29.6737 19.5095 29.5441C19.744 29.2991 19.8885 28.9818 19.9195 28.6441C19.9118 28.2964 19.7703 27.9651 19.5244 27.7192C19.2785 27.4733 18.9472 27.3317 18.5995 27.3241C18.252 27.3241 17.9188 27.1861 17.6732 26.9404C17.4275 26.6947 17.2895 26.3615 17.2895 26.0141C17.2895 25.6667 17.4275 25.3335 17.6732 25.0878C17.9188 24.8421 18.252 24.7041 18.5995 24.7041C19.6127 24.7094 20.5828 25.1149 21.2983 25.8323C22.0139 26.5497 22.4169 27.5209 22.4195 28.5341C22.4016 29.5504 22.0059 30.5237 21.3095 31.2641C20.5741 31.9559 19.6088 32.3513 18.5995 32.3741Z" fill="#B80000"/>
<path d="M53.9294 57.6041C53.5819 57.6041 53.2487 57.4661 53.0031 57.2204C52.7574 56.9748 52.6194 56.6416 52.6194 56.2941C52.6194 55.9467 52.7574 55.6135 53.0031 55.3678C53.2487 55.1221 53.5819 54.9841 53.9294 54.9841C54.1005 54.9838 54.2696 54.9481 54.4262 54.8793C54.5828 54.8105 54.7235 54.71 54.8394 54.5841C55.0696 54.3334 55.2103 54.0133 55.2394 53.6741C55.2343 53.3274 55.0949 52.9961 54.8506 52.7499C54.6063 52.5037 54.2761 52.3619 53.9294 52.3541C53.5819 52.3541 53.2487 52.2161 53.0031 51.9704C52.7574 51.7248 52.6194 51.3916 52.6194 51.0441C52.6194 50.6967 52.7574 50.3635 53.0031 50.1178C53.2487 49.8721 53.5819 49.7341 53.9294 49.7341C54.9478 49.7341 55.9245 50.1387 56.6447 50.8588C57.3648 51.579 57.7694 52.5557 57.7694 53.5741C57.7471 54.5866 57.3519 55.5552 56.6594 56.2941C56.33 56.7013 55.9142 57.0301 55.442 57.2567C54.9698 57.4833 54.4531 57.602 53.9294 57.6041Z" fill="#B80000"/>
<path d="M46.3596 57.6041C45.8562 57.6054 45.3576 57.5073 44.8923 57.3153C44.427 57.1233 44.0043 56.8412 43.6484 56.4853C43.2925 56.1294 43.0104 55.7066 42.8184 55.2414C42.6264 54.7761 42.5282 54.2775 42.5296 53.7741C42.5597 52.7752 42.9545 51.8218 43.6396 51.0941C44.3669 50.3837 45.3429 49.9854 46.3596 49.9841C46.6885 50.0128 46.9948 50.1638 47.2179 50.4073C47.441 50.6507 47.5648 50.9689 47.5648 51.2991C47.5648 51.6293 47.441 51.9476 47.2179 52.191C46.9948 52.4344 46.6885 52.5854 46.3596 52.6141C46.1887 52.6156 46.0199 52.6518 45.8634 52.7206C45.707 52.7894 45.5662 52.8892 45.4496 53.0141C45.218 53.2641 45.0771 53.5845 45.0496 53.9241C45.0547 54.27 45.1944 54.6002 45.439 54.8447C45.6835 55.0893 46.0137 55.229 46.3596 55.2341C46.5255 55.2392 46.6887 55.2774 46.8398 55.3463C46.9908 55.4152 47.1266 55.5134 47.2393 55.6354C47.3519 55.7573 47.4391 55.9005 47.4958 56.0565C47.5525 56.2126 47.5776 56.3783 47.5696 56.5441C47.5178 56.8318 47.3698 57.0933 47.15 57.2858C46.9302 57.4784 46.6515 57.5906 46.3596 57.6041Z" fill="#B80000"/>
<path d="M53.9296 52.564H46.3596C45.8557 52.564 45.3569 52.4646 44.8916 52.2715C44.4262 52.0784 44.0036 51.7954 43.6478 51.4387C43.292 51.082 43.0101 50.6586 42.8182 50.1928C42.6263 49.7269 42.5282 49.2278 42.5296 48.724C42.5412 47.7094 42.9379 46.7371 43.6396 46.004C44.3645 45.29 45.342 44.891 46.3596 44.894C46.707 44.894 47.0402 45.032 47.2859 45.2777C47.5315 45.5234 47.6696 45.8566 47.6696 46.204C47.6696 46.5515 47.5315 46.8847 47.2859 47.1303C47.0402 47.376 46.707 47.514 46.3596 47.514C46.1887 47.5155 46.0199 47.5517 45.8634 47.6205C45.707 47.6893 45.5662 47.7891 45.4496 47.914C45.2193 48.1648 45.0786 48.4848 45.0496 48.824C45.0648 49.1628 45.2089 49.483 45.4524 49.7191C45.6959 49.9551 46.0204 50.0893 46.3596 50.094H53.9296C54.1006 50.0937 54.2698 50.058 54.4264 49.9892C54.583 49.9204 54.7237 49.8199 54.8396 49.694C55.0731 49.4454 55.2143 49.1242 55.2396 48.784C55.2344 48.4382 55.0947 48.108 54.8502 47.8634C54.6056 47.6189 54.2754 47.4792 53.9296 47.474C53.7575 47.474 53.5872 47.4401 53.4282 47.3743C53.2693 47.3085 53.1249 47.212 53.0032 47.0903C52.8816 46.9687 52.7851 46.8243 52.7193 46.6653C52.6534 46.5064 52.6196 46.3361 52.6196 46.164C52.6196 45.992 52.6534 45.8216 52.7193 45.6627C52.7851 45.5038 52.8816 45.3594 53.0032 45.2377C53.1249 45.1161 53.2693 45.0196 53.4282 44.9537C53.5872 44.8879 53.7575 44.854 53.9296 44.854C54.4334 44.8527 54.9325 44.9508 55.3983 45.1427C55.8641 45.3346 56.2875 45.6165 56.6442 45.9723C57.0009 46.328 57.284 46.7507 57.4771 47.216C57.6702 47.6814 57.7696 48.1802 57.7696 48.684C57.7479 49.6996 57.3527 50.6715 56.6596 51.414C56.3142 51.791 55.8914 52.0889 55.4202 52.2874C54.9491 52.4859 54.4406 52.5802 53.9296 52.564Z" fill="#B80000"/>
<path d="M53.9296 47.5142H46.3596C45.8557 47.5142 45.3569 47.4148 44.8916 47.2217C44.4262 47.0286 44.0036 46.7455 43.6478 46.3888C43.292 46.0321 43.0101 45.6087 42.8182 45.1429C42.6263 44.6771 42.5282 44.178 42.5296 43.6742C42.549 42.6611 42.9446 41.6915 43.6396 40.9542C43.9846 40.582 44.4068 40.2898 44.8767 40.0981C45.3465 39.9063 45.8527 39.8197 46.3596 39.8442C46.707 39.8442 47.0402 39.9822 47.2859 40.2278C47.5315 40.4735 47.6696 40.8067 47.6696 41.1542C47.6696 41.5016 47.5315 41.8348 47.2859 42.0805C47.0402 42.3261 46.707 42.4642 46.3596 42.4642C46.1876 42.4651 46.0178 42.5021 45.8611 42.5727C45.7044 42.6433 45.5642 42.746 45.4496 42.8742C45.3251 42.9911 45.2256 43.132 45.1568 43.2884C45.0881 43.4448 45.0516 43.6134 45.0496 43.7842C45.0547 43.9501 45.0928 44.1133 45.1617 44.2644C45.2306 44.4154 45.3289 44.5512 45.4508 44.6639C45.5728 44.7765 45.7159 44.8637 45.872 44.9204C46.028 44.9771 46.1937 45.0022 46.3596 44.9942H53.9296C54.1016 44.9938 54.2716 44.9571 54.4284 44.8865C54.5852 44.8158 54.7253 44.7128 54.8396 44.5842C55.0731 44.3355 55.2143 44.0143 55.2396 43.6742C55.2344 43.3283 55.0947 42.9981 54.8502 42.7536C54.6056 42.509 54.2754 42.3693 53.9296 42.3642C53.7575 42.3642 53.5872 42.3303 53.4282 42.2644C53.2693 42.1986 53.1249 42.1021 53.0032 41.9805C52.8816 41.8588 52.7851 41.7144 52.7193 41.5555C52.6534 41.3965 52.6196 41.2262 52.6196 41.0542C52.6196 40.8821 52.6534 40.7118 52.7193 40.5528C52.7851 40.3939 52.8816 40.2495 53.0032 40.1278C53.1249 40.0062 53.2693 39.9097 53.4282 39.8439C53.5872 39.778 53.7575 39.7442 53.9296 39.7442C54.4334 39.7428 54.9325 39.8409 55.3983 40.0328C55.8641 40.2247 56.2875 40.5066 56.6442 40.8624C57.0009 41.2182 57.284 41.6408 57.4771 42.1062C57.6702 42.5715 57.7696 43.0703 57.7696 43.5742C57.7479 44.5897 57.3527 45.5616 56.6596 46.3042C56.3172 46.6889 55.8964 46.996 55.4255 47.2047C54.9547 47.4134 54.4446 47.5189 53.9296 47.5142Z" fill="#B80000"/>
<path d="M53.9296 42.4641H46.3596C45.8562 42.4654 45.3576 42.3673 44.8923 42.1752C44.427 41.9832 44.0043 41.7012 43.6484 41.3453C43.2925 40.9893 43.0104 40.5666 42.8184 40.1013C42.6264 39.6361 42.5282 39.1374 42.5296 38.6341C42.5475 37.6178 42.9432 36.6445 43.6396 35.9041C43.9846 35.5319 44.4068 35.2397 44.8767 35.048C45.3465 34.8563 45.8527 34.7696 46.3596 34.7941C46.6885 34.8228 46.9948 34.9738 47.2179 35.2172C47.441 35.4607 47.5648 35.7789 47.5648 36.1091C47.5648 36.4393 47.441 36.7575 47.2179 37.001C46.9948 37.2444 46.6885 37.3954 46.3596 37.4241C46.1887 37.4256 46.0199 37.4618 45.8634 37.5306C45.707 37.5993 45.5662 37.6992 45.4496 37.8241C45.326 37.9418 45.227 38.0828 45.1584 38.239C45.0897 38.3952 45.0527 38.5635 45.0496 38.7341C45.0456 38.9096 45.0764 39.0841 45.1402 39.2477C45.204 39.4112 45.2995 39.5605 45.4213 39.6869C45.5431 39.8133 45.6887 39.9144 45.8497 39.9843C46.0108 40.0542 46.184 40.0915 46.3596 40.0941H53.9296C54.1006 40.0938 54.2698 40.0581 54.4264 39.9893C54.583 39.9204 54.7237 39.8199 54.8396 39.6941C55.0711 39.4442 55.212 39.1237 55.2396 38.7841C55.2344 38.4383 55.0947 38.1081 54.8502 37.8635C54.6056 37.6189 54.2754 37.4793 53.9296 37.4741C53.6006 37.4454 53.2943 37.2944 53.0712 37.051C52.8481 36.8075 52.7243 36.4893 52.7243 36.1591C52.7243 35.8289 52.8481 35.5107 53.0712 35.2672C53.2943 35.0238 53.6006 34.8728 53.9296 34.8441C54.948 34.8441 55.9247 35.2487 56.6448 35.9688C57.365 36.6889 57.7696 37.6657 57.7696 38.6841C57.7749 39.1894 57.6792 39.6907 57.488 40.1584C57.2968 40.6262 57.014 41.051 56.6562 41.4079C56.2984 41.7647 55.8729 42.0464 55.4046 42.2364C54.9364 42.4264 54.4348 42.5208 53.9296 42.5141V42.4641Z" fill="#B80000"/>
<path d="M53.9296 37.4241H46.3596C45.8557 37.4241 45.3569 37.3247 44.8916 37.1316C44.4262 36.9385 44.0036 36.6555 43.6478 36.2987C43.292 35.942 43.0101 35.5186 42.8182 35.0528C42.6263 34.587 42.5282 34.0879 42.5296 33.5841C42.5412 32.5694 42.9379 31.5971 43.6396 30.8641C43.9846 30.4919 44.4068 30.1997 44.8767 30.008C45.3465 29.8162 45.8527 29.7296 46.3596 29.7541C46.707 29.7541 47.0402 29.8921 47.2859 30.1377C47.5315 30.3834 47.6696 30.7166 47.6696 31.0641C47.6696 31.4115 47.5315 31.7447 47.2859 31.9904C47.0402 32.236 46.707 32.3741 46.3596 32.3741C46.1887 32.3755 46.0199 32.4118 45.8634 32.4805C45.707 32.5493 45.5662 32.6492 45.4496 32.7741C45.2018 33.0131 45.0582 33.34 45.0496 33.6841C45.0547 34.0299 45.1944 34.3601 45.439 34.6047C45.6835 34.8492 46.0137 34.9889 46.3596 34.9941H53.9296C54.1006 34.9938 54.2698 34.9581 54.4264 34.8892C54.583 34.8204 54.7237 34.7199 54.8396 34.5941C55.0731 34.3455 55.2143 34.0242 55.2396 33.6841C55.2344 33.3382 55.0947 33.008 54.8502 32.7635C54.6056 32.5189 54.2754 32.3792 53.9296 32.3741C53.5821 32.3741 53.2489 32.236 53.0032 31.9904C52.7576 31.7447 52.6196 31.4115 52.6196 31.0641C52.6196 30.7166 52.7576 30.3834 53.0032 30.1377C53.2489 29.8921 53.5821 29.7541 53.9296 29.7541C54.4334 29.7527 54.9325 29.8508 55.3983 30.0427C55.8641 30.2346 56.2875 30.5165 56.6442 30.8723C57.0009 31.2281 57.284 31.6507 57.4771 32.1161C57.6702 32.5814 57.7696 33.0803 57.7696 33.5841C57.7763 34.0902 57.6815 34.5925 57.4909 35.0615C57.3003 35.5304 57.0177 35.9564 56.6598 36.3143C56.3019 36.6723 55.8759 36.9549 55.407 37.1454C54.938 37.336 54.4357 37.4308 53.9296 37.4241Z" fill="#B80000"/>
<path d="M53.9296 32.3741H46.3596C45.8557 32.3741 45.3569 32.2747 44.8916 32.0816C44.4262 31.8885 44.0036 31.6055 43.6478 31.2488C43.292 30.8921 43.0101 30.4687 42.8182 30.0029C42.6263 29.537 42.5282 29.0379 42.5296 28.5341C42.549 27.5211 42.9446 26.5515 43.6396 25.8141C44.3645 25.1001 45.342 24.7011 46.3596 24.7041C46.707 24.7041 47.0402 24.8421 47.2859 25.0878C47.5315 25.3335 47.6696 25.6667 47.6696 26.0141C47.6696 26.3616 47.5315 26.6948 47.2859 26.9404C47.0402 27.1861 46.707 27.3241 46.3596 27.3241C46.1876 27.3251 46.0178 27.362 45.8611 27.4327C45.7044 27.5033 45.5642 27.606 45.4496 27.7341C45.3251 27.8511 45.2256 27.992 45.1568 28.1484C45.0881 28.3047 45.0516 28.4733 45.0496 28.6441C45.0547 28.9899 45.1944 29.3202 45.439 29.5647C45.6835 29.8093 46.0137 29.949 46.3596 29.9541H53.9296C54.1016 29.9538 54.2716 29.9171 54.4284 29.8464C54.5852 29.7758 54.7253 29.6727 54.8396 29.5441C55.071 29.2981 55.2121 28.9808 55.2396 28.6441C55.2345 28.2973 55.0951 27.966 54.8508 27.7199C54.6065 27.4737 54.2763 27.3318 53.9296 27.3241C53.5821 27.3241 53.2489 27.1861 53.0032 26.9404C52.7576 26.6948 52.6196 26.3616 52.6196 26.0141C52.6196 25.6667 52.7576 25.3335 53.0032 25.0878C53.2489 24.8421 53.5821 24.7041 53.9296 24.7041C54.9463 24.7041 55.9215 25.1073 56.6413 25.8253C57.3612 26.5433 57.7669 27.5174 57.7696 28.5341C57.7479 29.5497 57.3527 30.5216 56.6596 31.2641C55.9191 31.9605 54.9459 32.3562 53.9296 32.3741Z" fill="#B80000"/>
<path d="M60.1894 57.604H37.4794C37.1336 57.5989 36.8034 57.4592 36.5588 57.2146C36.3143 56.9701 36.1746 56.6398 36.1694 56.294C36.1758 56.1289 36.2149 55.9668 36.2844 55.8169C36.3538 55.667 36.4523 55.5324 36.5742 55.4208C36.696 55.3092 36.8387 55.2229 36.9941 55.1668C37.1495 55.1107 37.3144 55.086 37.4794 55.094H60.1894C60.5353 55.0992 60.8655 55.2389 61.11 55.4834C61.3546 55.728 61.4943 56.0582 61.4994 56.404C61.4718 56.732 61.3217 57.0376 61.0789 57.26C60.8362 57.4824 60.5186 57.6052 60.1894 57.604Z" fill="#B80000"/>
<path d="M27.4194 57.6041H4.67938C4.33195 57.6041 3.99875 57.4661 3.75307 57.2204C3.5074 56.9748 3.36938 56.6416 3.36938 56.2941C3.36938 55.9467 3.5074 55.6135 3.75307 55.3678C3.99875 55.1221 4.33195 54.9841 4.67938 54.9841H27.4194C27.7668 54.9841 28.1 55.1221 28.3457 55.3678C28.5914 55.6135 28.7294 55.9467 28.7294 56.2941C28.7294 56.6416 28.5914 56.9748 28.3457 57.2204C28.1 57.4661 27.7668 57.6041 27.4194 57.6041Z" fill="#B80000"/>
<path d="M37.4794 57.604H27.4194C27.0726 57.5989 26.7413 57.4596 26.4951 57.2153C26.249 56.971 26.1071 56.6407 26.0994 56.294V41.154C26.1071 40.8073 26.249 40.477 26.4951 40.2327C26.7413 39.9884 27.0726 39.8491 27.4194 39.844H37.4794C37.8252 39.8492 38.1554 39.9888 38.4 40.2334C38.6445 40.478 38.7842 40.8082 38.7894 41.154V56.294C38.7842 56.6398 38.6445 56.97 38.4 57.2146C38.1554 57.4592 37.8252 57.5988 37.4794 57.604ZM28.6994 55.094H36.2694V42.464H28.6994V55.094Z" fill="#B80000"/>
<path d="M32.4195 37.4239H26.0695C25.7211 37.4161 25.3894 37.2729 25.1448 37.0246C24.9002 36.7763 24.762 36.4425 24.7595 36.0939V31.0939C24.7647 30.7481 24.9044 30.4179 25.1489 30.1733C25.3935 29.9288 25.7237 29.7891 26.0695 29.7839H32.4195C32.767 29.7839 33.1002 29.922 33.3458 30.1676C33.5915 30.4133 33.7295 30.7465 33.7295 31.0939C33.7295 31.4414 33.5915 31.7746 33.3458 32.0202C33.1002 32.2659 32.767 32.4039 32.4195 32.4039H27.4195V34.8939H32.4195C32.7663 34.9017 33.0965 35.0435 33.3408 35.2897C33.5851 35.5359 33.7244 35.8672 33.7295 36.2139C33.7244 36.3799 33.6863 36.5431 33.6174 36.6942C33.5485 36.8452 33.4502 36.981 33.3283 37.0936C33.2063 37.2063 33.0631 37.2935 32.9071 37.3502C32.7511 37.4069 32.5853 37.432 32.4195 37.4239Z" fill="#B80000"/>
<path d="M38.7894 37.4242H32.4194C32.0727 37.4138 31.7436 37.2694 31.5011 37.0214C31.2587 36.7734 31.1219 36.441 31.1194 36.0942V31.0942C31.1167 30.7448 31.2515 30.4085 31.4948 30.1577C31.738 29.907 32.0702 29.762 32.4194 29.7542H38.7794C38.9541 29.7555 39.1268 29.7912 39.2876 29.8592C39.4485 29.9273 39.5944 30.0263 39.717 30.1508C39.8395 30.2752 39.9364 30.4225 40.002 30.5844C40.0676 30.7463 40.1007 30.9195 40.0994 31.0942V36.0942C40.0635 36.4313 39.9144 36.7462 39.6765 36.9878C39.4386 37.2293 39.1259 37.3831 38.7894 37.4242ZM33.7894 34.8941H37.5294V32.3742H33.6394V34.8941H33.7894Z" fill="#B80000"/>
<path d="M50.0994 20.464C49.7526 20.4589 49.4213 20.3195 49.1752 20.0752C48.929 19.8309 48.7871 19.5007 48.7794 19.154V12.094H46.2594V16.094C46.2594 16.4414 46.1214 16.7746 45.8757 17.0203C45.63 17.2659 45.2968 17.404 44.9494 17.404C44.602 17.404 44.2688 17.2659 44.0231 17.0203C43.7774 16.7746 43.6394 16.4414 43.6394 16.094V10.874C43.6446 10.5281 43.7842 10.1979 44.0288 9.95336C44.2734 9.7088 44.6036 9.56913 44.9494 9.56396H49.9494C50.2962 9.56906 50.6275 9.7084 50.8736 9.9527C51.1198 10.197 51.2617 10.5272 51.2694 10.874V19.154C51.2927 19.3195 51.2797 19.4882 51.2311 19.6482C51.1826 19.8082 51.0997 19.9557 50.9884 20.0804C50.877 20.2051 50.7397 20.3041 50.5862 20.3703C50.4327 20.4365 50.2666 20.4685 50.0994 20.464Z" fill="#B80000"/>
<path d="M61.4994 27.324H2.65945C2.38026 27.3421 2.10353 27.262 1.87711 27.0977C1.65069 26.9334 1.48881 26.6951 1.41945 26.424C1.36257 26.1544 1.38958 25.8738 1.49683 25.62C1.60409 25.3661 1.78646 25.1512 2.01945 25.004L31.4194 7.34404C31.6238 7.24566 31.8477 7.19458 32.0744 7.19458C32.3012 7.19458 32.5251 7.24566 32.7294 7.34404L62.1094 25.004C62.3183 25.1051 62.4946 25.2626 62.6183 25.4588C62.7421 25.6551 62.8083 25.8821 62.8094 26.114C62.7523 26.4307 62.5935 26.7202 62.3572 26.9385C62.1208 27.1568 61.8197 27.2922 61.4994 27.324ZM7.19945 24.804H56.9594L32.0294 9.86404L7.19945 24.804Z" fill="#B80000"/>
<path d="M21.1294 22.2841C20.9071 22.2885 20.6877 22.2344 20.4929 22.1274C20.2981 22.0203 20.1348 21.864 20.0194 21.6741C19.8642 21.38 19.8297 21.037 19.923 20.7179C20.0163 20.3987 20.2302 20.1284 20.5194 19.9641L31.4194 13.6041C31.6222 13.5005 31.8466 13.4465 32.0744 13.4465C32.3021 13.4465 32.5266 13.5005 32.7294 13.6041L36.8694 16.0941C37.0229 16.1729 37.1584 16.2825 37.2675 16.4162C37.3765 16.5499 37.4567 16.7047 37.503 16.8709C37.5493 17.0371 37.5607 17.2111 37.5365 17.3819C37.5123 17.5527 37.4529 17.7167 37.3623 17.8634C37.2716 18.0102 37.1515 18.1366 37.0095 18.2347C36.8676 18.3328 36.7069 18.4004 36.5376 18.4334C36.3682 18.4663 36.1939 18.4638 36.0255 18.4261C35.8572 18.3884 35.6984 18.3162 35.5594 18.2141L32.0294 16.0941L21.7294 22.0941C21.5478 22.2053 21.3418 22.2705 21.1294 22.2841Z" fill="#B80000"/>
</svg>
