<svg width="64" height="64" viewBox="0 0 64 64" fill="none" xmlns="http://www.w3.org/2000/svg">
<path d="M31.2021 40.2852C28.0375 40.6309 21.6124 41.3222 21.2295 41.3223L24.8994 57.0392H39.4994L42.8502 41.8807L31.2021 40.2852Z" fill="white"/>
<path d="M37.2266 25.301C37.0182 24.6063 31.7849 24.5137 31.7849 24.5137C31.7849 24.5137 26.5633 24.6063 26.3549 25.301C26.1465 25.9957 25.6023 28.5891 25.6023 28.5891C26.4878 29.1689 27.4403 29.6393 28.4389 29.99C29.5301 30.3075 30.6516 30.5093 31.7849 30.5921C32.9184 30.5105 34.0401 30.3087 35.131 29.99C36.1339 29.6408 37.0903 29.1704 37.9791 28.5891C37.9791 28.5891 37.435 25.9841 37.2266 25.301Z" fill="#B80000"/>
<path d="M39.7651 17.0299C39.7684 15.4084 39.3781 13.8161 38.6355 12.4211C37.8928 11.0262 36.8255 9.88055 35.5462 9.10524C34.2669 8.32992 32.8232 7.95376 31.3677 8.01651C29.9122 8.07926 28.4989 8.57859 27.2773 9.46173C26.0557 10.3449 25.0711 11.579 24.4277 13.0337C23.7842 14.4884 23.5057 16.1096 23.6216 17.7259C23.7375 19.3423 24.2436 20.8938 25.0863 22.2164C25.929 23.5389 27.077 24.5835 28.409 25.2397V29.215H34.9632V25.2397C36.3921 24.5364 37.6066 23.386 38.4591 21.9285C39.3116 20.471 39.7653 18.7692 39.7651 17.0299Z" fill="white"/>
<path d="M31.7849 27.7207C30.7542 27.7618 29.7277 27.5661 28.7844 27.1486C27.8411 26.7312 27.006 26.103 26.3433 25.3125C26.1349 26.0303 25.6023 28.5891 25.6023 28.5891C26.4878 29.1689 27.4403 29.6393 28.4389 29.99C29.5301 30.3074 30.6516 30.5092 31.7849 30.5921C32.9184 30.5104 34.0401 30.3086 35.131 29.99C36.1339 29.6408 37.0903 29.1703 37.9791 28.5891C37.9791 28.5891 37.4466 26.0303 37.2266 25.3125C36.5656 26.1051 35.7308 26.7346 34.7871 27.1523C33.8433 27.5699 32.816 27.7644 31.7849 27.7207Z" fill="#B80000"/>
<path d="M20.3954 42.7926C20.3955 42.7927 20.3945 42.7946 20.3925 42.7981C20.3944 42.7943 20.3954 42.7926 20.3954 42.7926ZM26.7466 29.8056C26.8563 29.7967 26.9417 29.7899 26.9995 29.7854L31.6822 30.0958L31.682 57.1762C30.5931 57.1889 29.6431 57.2155 28.8233 57.2385C28.4376 57.2493 28.0807 57.2593 27.7518 57.2667C26.4176 57.2965 25.6252 57.2776 25.0877 57.1594C24.6517 57.0636 24.4766 56.926 24.3114 56.677C24.0767 56.3234 23.8536 55.7124 23.5634 54.5376C22.9496 52.0523 22.4271 49.3242 21.9836 47.008C21.9197 46.6744 21.8574 46.3493 21.7968 46.0348C21.5586 44.7998 21.3415 43.7079 21.148 42.9215C21.053 42.5354 20.9518 42.1733 20.8422 41.8911C20.7904 41.7578 20.7113 41.5743 20.5937 41.4031C20.5347 41.3171 20.4326 41.1843 20.2765 41.0631C20.1166 40.9388 19.8367 40.7799 19.4588 40.7799C18.817 40.7799 18.4592 41.2235 18.3886 41.3112C18.2636 41.4666 18.1782 41.6317 18.1241 41.7466C18.0099 41.9894 17.9085 42.2869 17.8199 42.5804C17.6383 43.1826 17.4528 43.9667 17.2881 44.7474C17.1222 45.5341 16.9717 46.3453 16.8622 47.0134C16.7608 47.6312 16.6731 48.2481 16.6731 48.5667C16.6731 49.0724 16.8387 49.9782 17.0204 50.8864C17.1654 51.611 17.3446 52.4458 17.5245 53.2844C17.5845 53.5639 17.6446 53.8439 17.7035 54.1203C17.942 55.2388 18.1615 56.2989 18.2964 57.1018C18.3102 57.1842 18.3229 57.2625 18.3345 57.3367C17.8531 57.3709 17.2537 57.3988 16.6254 57.4122C15.8914 57.4279 15.1376 57.4235 14.5011 57.3892C14.1041 57.3679 13.8042 57.3369 13.5978 57.306C13.583 57.2693 13.567 57.2277 13.5498 57.1806C13.4051 56.7848 13.2394 56.1817 13.0609 55.3741C12.707 53.7727 12.3354 51.5185 11.9778 48.8488C11.5587 45.1309 12.6641 40.7751 14.1268 37.1933C14.8524 35.4165 15.6471 33.8765 16.3403 32.7563C16.688 32.1944 16.9982 31.7575 17.2494 31.4553C17.4629 31.1985 17.5706 31.1173 17.5744 31.1091C17.9268 30.9681 18.6369 30.7986 19.6286 30.629C20.6214 30.4593 21.7791 30.3078 22.8906 30.181C23.9996 30.0544 25.0498 29.9537 25.8235 29.8846C26.2101 29.8501 26.5269 29.8235 26.7466 29.8056ZM13.6983 57.5224C13.6976 57.5212 13.6968 57.5199 13.696 57.5185C13.7186 57.5479 13.7184 57.5555 13.6983 57.5224Z" stroke="#B80000" stroke-width="2.5"/>
<path d="M32.9437 38.7207L19.6638 40.7237L19.9764 42.5993L32.9437 41.1405V38.7207Z" fill="#B80000"/>
<path d="M43.1866 42.7926C43.1866 42.7927 43.1875 42.7946 43.1895 42.7981C43.1876 42.7943 43.1866 42.7926 43.1866 42.7926ZM36.8354 29.8056C36.7258 29.7967 36.6403 29.7899 36.5826 29.7854L31.8999 30.0958L31.9 57.1762C32.989 57.1889 33.939 57.2155 34.7587 57.2385C35.1444 57.2493 35.5013 57.2593 35.8303 57.2667C37.1645 57.2965 37.9568 57.2776 38.4943 57.1594C38.9303 57.0636 39.1054 56.926 39.2707 56.677C39.5053 56.3234 39.7284 55.7124 40.0186 54.5376C40.6324 52.0523 41.1549 49.3242 41.5985 47.008C41.6624 46.6744 41.7246 46.3493 41.7853 46.0348C42.0234 44.7998 42.2405 43.7079 42.434 42.9215C42.5291 42.5354 42.6302 42.1733 42.7399 41.8911C42.7916 41.7578 42.8707 41.5743 42.9883 41.4031C43.0473 41.3171 43.1494 41.1843 43.3055 41.0631C43.4655 40.9388 43.7453 40.7799 44.1232 40.7799C44.765 40.7799 45.1229 41.2235 45.1934 41.3112C45.3184 41.4666 45.4038 41.6317 45.4579 41.7466C45.5721 41.9894 45.6736 42.2869 45.7621 42.5804C45.9437 43.1826 46.1293 43.9667 46.2939 44.7474C46.4598 45.5341 46.6103 46.3453 46.7199 47.0134C46.8212 47.6312 46.9089 48.2481 46.9089 48.5667C46.9089 49.0724 46.7433 49.9782 46.5616 50.8864C46.4166 51.611 46.2375 52.4458 46.0575 53.2844C45.9975 53.5639 45.9375 53.8439 45.8785 54.1203C45.6401 55.2388 45.4205 56.2989 45.2856 57.1018C45.2718 57.1842 45.2591 57.2625 45.2475 57.3367C45.7289 57.3709 46.3283 57.3988 46.9566 57.4122C47.6907 57.4279 48.4444 57.4235 49.081 57.3892C49.478 57.3679 49.7778 57.3369 49.9843 57.306C49.999 57.2693 50.0151 57.2277 50.0322 57.1806C50.177 56.7848 50.3427 56.1817 50.5212 55.3741C50.8751 53.7727 51.2466 51.5185 51.6042 48.8488C52.0233 45.1309 50.9179 40.7751 49.4552 37.1933C48.7296 35.4165 47.9349 33.8765 47.2417 32.7563C46.894 32.1944 46.5838 31.7575 46.3326 31.4553C46.1191 31.1985 46.0115 31.1173 46.0076 31.1091C45.6552 30.9681 44.9451 30.7986 43.9535 30.629C42.9606 30.4593 41.8029 30.3078 40.6914 30.181C39.5825 30.0544 38.5323 29.9537 37.7585 29.8846C37.3719 29.8501 37.0551 29.8235 36.8354 29.8056ZM49.8837 57.5224C49.8845 57.5212 49.8852 57.5199 49.886 57.5185C49.8634 57.5479 49.8636 57.5555 49.8837 57.5224Z" stroke="#B80000" stroke-width="2.5"/>
<path d="M30.6383 38.7207L43.9182 40.7237L43.6056 42.5993L30.6383 41.1405V38.7207Z" fill="#B80000"/>
<path d="M31.6694 7.37793C33.6421 7.37793 35.4297 8.08369 36.743 9.13658C38.0558 10.189 38.8101 11.5128 38.9179 12.725L38.9639 19.9209C38.9626 21.1581 38.2816 22.3842 36.9747 23.3466C35.6676 24.3092 33.8032 24.9425 31.6925 24.9425C29.5807 24.9425 27.7163 24.3114 26.4097 23.3504C25.1029 22.3894 24.4211 21.1622 24.4211 19.9173V12.7167C24.5201 11.5113 25.2701 10.1904 26.5861 9.13731C27.9023 8.0841 29.696 7.37793 31.6694 7.37793Z" stroke="#B80000" stroke-width="2.5"/>
<path d="M38.0452 20.7985C38.0452 22.1425 34.193 23.8515 31.6969 23.8515C29.2009 23.8515 25.0858 22.4798 24.9731 20.7985V17.2188C25.3043 17.7225 25.7411 18.1481 26.2533 18.4662C28.9982 20.1709 34.6106 20.2432 37.1175 18.2958C37.4954 18.0022 37.8108 17.636 38.0452 17.2188V20.7985Z" fill="#F9C801"/>
<line x1="34.4081" y1="18.345" x2="29.5958" y2="25.2298" stroke="#B80000" stroke-width="2.5"/>
<path d="M29.332 18.3281L25.5145 23.5235" stroke="#B80000" stroke-width="2.5"/>
<path d="M23.9407 16.0996C23.9407 16.0996 28.3606 18.7209 31.6754 18.7265C35.0032 18.7321 39.3372 16.0996 39.3372 16.0996" stroke="#B80000" stroke-width="2.5"/>
</svg>
