<svg width="64" height="64" viewBox="0 0 64 64" fill="none" xmlns="http://www.w3.org/2000/svg">
<path d="M52.1464 16.861H10.7764C10.1699 16.8622 9.56978 16.9844 9.01108 17.2204C8.45238 17.4563 7.94636 17.8014 7.52266 18.2354C7.09895 18.6693 6.76607 19.1834 6.5435 19.7476C6.32093 20.3118 6.21314 20.9147 6.22644 21.521V46.401C6.22379 47.0124 6.34226 47.6183 6.57501 48.1836C6.80775 48.749 7.15017 49.2627 7.58249 49.695C8.01481 50.1273 8.52848 50.4697 9.09383 50.7025C9.65919 50.9352 10.2651 51.0537 10.8764 51.051H52.2564C52.8678 51.0537 53.4737 50.9352 54.039 50.7025C54.6044 50.4697 55.1181 50.1273 55.5504 49.695C55.9827 49.2627 56.3251 48.749 56.5579 48.1836C56.7906 47.6183 56.9091 47.0124 56.9064 46.401V21.521C56.888 20.2735 56.3774 19.0838 55.4859 18.211C54.5943 17.3382 53.3941 16.853 52.1464 16.861Z" fill="white"/>
<path d="M22.0063 40.841H6.22632V33.251H20.2263C19.9075 35.9117 20.5379 38.5995 22.0063 40.841Z" fill="#F9C801"/>
<path d="M22.0064 40.8411C23.056 42.3987 24.4722 43.6747 26.1304 44.557C27.7886 45.4392 29.6381 45.9008 31.5164 45.9011C33.3989 45.8935 35.2514 45.4291 36.9148 44.5478C38.5783 43.6664 40.0029 42.3944 41.0664 40.8411C42.3313 38.9549 43.0003 36.7321 42.9864 34.4611C42.9988 34.0221 42.9653 33.583 42.8864 33.1511H56.8864V46.1511C56.8877 46.7629 56.768 47.369 56.5341 47.9344C56.3003 48.4998 55.9569 49.0134 55.5238 49.4456C55.0907 49.8778 54.5764 50.22 54.0105 50.4527C53.4446 50.6853 52.8382 50.8037 52.2264 50.8011H10.8764C10.265 50.8037 9.65912 50.6852 9.09376 50.4525C8.5284 50.2197 8.01473 49.8773 7.58241 49.445C7.15009 49.0127 6.80768 48.499 6.57493 47.9337C6.34218 47.3683 6.22372 46.7624 6.22636 46.1511V40.7411L22.0064 40.8411ZM25.2464 45.2911C25.2483 44.9089 25.1368 44.5348 24.926 44.2161C24.7151 43.8974 24.4144 43.6485 24.0619 43.5009C23.7094 43.3533 23.321 43.3136 22.946 43.3869C22.571 43.4603 22.2261 43.6433 21.9552 43.9128C21.6843 44.1823 21.4995 44.5262 21.4242 44.9008C21.3489 45.2755 21.3866 45.6641 21.5323 46.0173C21.6781 46.3706 21.9255 46.6726 22.2431 46.8851C22.5607 47.0976 22.9342 47.2111 23.3164 47.2111C23.5693 47.2124 23.8201 47.1637 24.0542 47.0678C24.2883 46.9719 24.5011 46.8307 24.6805 46.6523C24.8598 46.4738 25.0021 46.2617 25.0993 46.0281C25.1964 45.7945 25.2464 45.544 25.2464 45.2911Z" fill="white"/>
<path d="M42.8463 33.251C42.5359 30.4632 41.2086 27.8877 39.1183 26.0171C37.028 24.1466 34.3214 23.1124 31.5163 23.1124C28.7113 23.1124 26.0047 24.1466 23.9143 26.0171C21.824 27.8877 20.4967 30.4632 20.1863 33.251H6.18632V21.521C6.18368 20.9092 6.30209 20.3028 6.53471 19.7369C6.76734 19.171 7.10959 18.6567 7.54178 18.2236C7.97397 17.7905 8.48755 17.4471 9.05297 17.2133C9.61838 16.9794 10.2245 16.8597 10.8363 16.861H52.3563C52.9682 16.8597 53.5743 16.9794 54.1397 17.2133C54.7051 17.4471 55.2187 17.7905 55.6509 18.2236C56.083 18.6567 56.4253 19.171 56.6579 19.7369C56.8906 20.3028 57.009 20.9092 57.0063 21.521V33.351L42.8463 33.251ZM40.4163 26.371C40.4143 26.9925 40.5968 27.6006 40.9406 28.1182C41.2845 28.6359 41.7742 29.0399 42.3478 29.2791C42.9213 29.5183 43.553 29.5819 44.1628 29.4619C44.7725 29.3419 45.3329 29.0436 45.7731 28.6049C46.2132 28.1662 46.5133 27.6067 46.6352 26.9973C46.7572 26.3879 46.6956 25.7561 46.4582 25.1817C46.2209 24.6074 45.8184 24.1164 45.3018 23.7709C44.7853 23.4254 44.1778 23.241 43.5563 23.241C43.143 23.2343 42.7325 23.3106 42.3491 23.4654C41.9658 23.6202 41.6174 23.8503 41.3246 24.1422C41.0318 24.434 40.8005 24.7817 40.6445 25.1645C40.4885 25.5474 40.4109 25.9577 40.4163 26.371Z" fill="#F9C801"/>
<path d="M6.22633 34.6211C5.87864 34.6133 5.54732 34.4706 5.30141 34.2224C5.0555 33.9743 4.91397 33.64 4.90633 33.2892V21.4038C4.90237 20.6235 5.05129 19.8502 5.34451 19.1281C5.63774 18.4061 6.06949 17.7496 6.61497 17.1964C7.16044 16.6432 7.80888 16.2043 8.52302 15.9048C9.23717 15.6052 10.0029 15.451 10.7763 15.4511H15.0663C15.2487 15.435 15.4323 15.4574 15.6056 15.5168C15.7789 15.5761 15.9381 15.6712 16.073 15.796C16.2079 15.9208 16.3156 16.0725 16.3893 16.2415C16.463 16.4105 16.5011 16.5932 16.5011 16.7778C16.5011 16.9625 16.463 17.1451 16.3893 17.3141C16.3156 17.4832 16.2079 17.6349 16.073 17.7596C15.9381 17.8844 15.7789 17.9795 15.6056 18.0389C15.4323 18.0983 15.2487 18.1206 15.0663 18.1046H10.7763C9.88776 18.1126 9.03827 18.4743 8.41275 19.1111C7.78722 19.7479 7.43629 20.6082 7.43633 21.5047V33.4406C7.53633 33.9552 6.93633 34.6211 6.22633 34.6211Z" fill="black"/>
<path d="M51.9386 52.271H10.7147C9.17008 52.2552 7.69404 51.6298 6.60736 50.5307C5.52068 49.4315 4.91116 47.9475 4.91124 46.401V40.941C4.89535 40.7587 4.9175 40.575 4.97629 40.4017C5.03508 40.2284 5.12922 40.0693 5.25275 39.9343C5.37627 39.7994 5.52647 39.6917 5.6938 39.618C5.86114 39.5443 6.04196 39.5062 6.22477 39.5062C6.40759 39.5062 6.58841 39.5443 6.75575 39.618C6.92308 39.6917 7.07328 39.7994 7.1968 39.9343C7.32033 40.0693 7.41447 40.2284 7.47326 40.4017C7.53205 40.575 7.5542 40.7587 7.5383 40.941V46.401C7.54352 47.2835 7.89532 48.1285 8.51771 48.7535C9.1401 49.3784 9.9831 49.7331 10.8646 49.741H52.1484C53.0308 49.7332 53.8748 49.3788 54.4988 48.7541C55.1228 48.1294 55.4768 47.2844 55.4846 46.401V40.941C55.4688 40.7587 55.4909 40.575 55.5497 40.4017C55.6085 40.2284 55.7026 40.0693 55.8261 39.9343C55.9497 39.7994 56.0999 39.6917 56.2672 39.618C56.4345 39.5443 56.6154 39.5062 56.7982 39.5062C56.981 39.5062 57.1618 39.5443 57.3291 39.618C57.4965 39.6917 57.6467 39.7994 57.7702 39.9343C57.8937 40.0693 57.9879 40.2284 58.0467 40.4017C58.1055 40.575 58.1276 40.7587 58.1117 40.941V46.401C58.0066 47.9766 57.3133 49.4549 56.1697 50.5424C55.0261 51.6298 53.5157 52.2469 51.9386 52.271Z" fill="black"/>
<path d="M22.0063 42.151H6.22625C5.87947 42.146 5.54817 42.0066 5.302 41.7623C5.05584 41.518 4.91398 41.1878 4.90625 40.8411V33.2511C4.91398 32.9043 5.05584 32.5741 5.302 32.3298C5.54817 32.0855 5.87947 31.9461 6.22625 31.941H20.2262C20.4029 31.9403 20.5777 31.978 20.7384 32.0515C20.8991 32.125 21.0419 32.2324 21.157 32.3665C21.272 32.5006 21.3566 32.6581 21.4048 32.8281C21.453 32.9981 21.4638 33.1765 21.4363 33.351V33.8611C21.433 34.0329 21.3941 34.2022 21.322 34.3582C21.2499 34.5142 21.1461 34.6535 21.0173 34.7673C20.8885 34.8811 20.7374 34.9668 20.5737 35.0191C20.41 35.0714 20.2372 35.0891 20.0662 35.0711C19.859 35.0739 19.6552 35.0181 19.4783 34.9102C19.3014 34.8023 19.1585 34.6466 19.0662 34.4611H7.53625V39.5211H22.0662C22.4139 39.5287 22.7453 39.6702 22.9912 39.9161C23.2371 40.162 23.3786 40.4934 23.3862 40.8411C23.3414 41.1846 23.1798 41.5022 22.9285 41.7408C22.6773 41.9793 22.3516 42.1241 22.0063 42.151Z" fill="black"/>
<path d="M37.8864 13.0211H34.0464V16.8611H37.8864V13.0211Z" fill="#F9C801"/>
<path d="M22.7162 13.0211H15.1262V16.8611H22.7162V13.0211Z" fill="#F9C801"/>
<path d="M23.3163 43.371C23.8255 43.371 24.3138 43.5733 24.6739 43.9334C25.034 44.2935 25.2363 44.7818 25.2363 45.291C25.2363 45.8002 25.034 46.2886 24.6739 46.6487C24.3138 47.0087 23.8255 47.211 23.3163 47.211C23.0619 47.2194 22.8085 47.1754 22.5717 47.0819C22.335 46.9884 22.12 46.8472 21.94 46.6673C21.7601 46.4873 21.6189 46.2723 21.5254 46.0355C21.4319 45.7988 21.3879 45.5454 21.3963 45.291C21.3963 44.7818 21.5985 44.2935 21.9586 43.9334C22.3187 43.5733 22.807 43.371 23.3163 43.371Z" fill="#F9C801"/>
<path d="M43.5563 23.141C44.1777 23.141 44.7852 23.3255 45.3018 23.6709C45.8184 24.0164 46.2208 24.5074 46.4582 25.0817C46.6956 25.6561 46.7572 26.2879 46.6352 26.8973C46.5132 27.5067 46.2132 28.0662 45.773 28.5049C45.3329 28.9436 44.7725 29.2419 44.1627 29.3619C43.553 29.4819 42.9213 29.4183 42.3477 29.1791C41.7741 28.9399 41.2844 28.5359 40.9406 28.0182C40.5968 27.5006 40.4143 26.8925 40.4163 26.271C40.4109 25.8577 40.4885 25.4474 40.6445 25.0645C40.8005 24.6817 41.0317 24.334 41.3245 24.0422C41.6173 23.7503 41.9657 23.5202 42.3491 23.3654C42.7324 23.2106 43.1429 23.1343 43.5563 23.141Z" fill="#F9C801"/>
<path d="M31.5163 28.191C32.7764 28.1891 34.0089 28.5604 35.0583 29.258C36.1077 29.9557 36.9269 30.9485 37.4128 32.1112C37.8987 33.2739 38.0293 34.5544 37.7883 35.7913C37.5473 37.0282 36.9454 38.166 36.0585 39.0612C35.1717 39.9564 34.0395 40.5689 32.805 40.8215C31.5704 41.0741 30.2887 40.9555 29.1215 40.4806C27.9543 40.0056 26.9539 39.1957 26.2464 38.1529C25.539 37.1101 25.1561 35.8811 25.1463 34.621C25.1409 32.9245 25.8084 31.295 27.0025 30.0897C28.1965 28.8844 29.8197 28.2016 31.5163 28.191Z" fill="#F9C801"/>
<path d="M42.8462 33.251C42.8462 33.661 42.9462 34.061 42.9462 34.571C42.9515 36.0735 42.6595 37.5622 42.087 38.9514C41.5144 40.3405 40.6727 41.6026 39.6103 42.6651C38.5478 43.7275 37.2857 44.5692 35.8966 45.1418C34.5074 45.7143 33.0187 46.0063 31.5162 46.001C28.5616 46.0228 25.7169 44.8812 23.5969 42.823C21.477 40.7647 20.2518 37.9551 20.1862 35.001C20.1756 34.4592 20.2091 33.9174 20.2862 33.381C20.5963 30.593 21.9235 28.0171 24.0138 26.1463C26.1042 24.2755 28.811 23.2411 31.6162 23.241C34.3961 23.2201 37.0845 24.2328 39.1597 26.0825C41.2349 27.9323 42.5487 30.4871 42.8462 33.251ZM37.8462 34.571C37.8462 33.3112 37.4727 32.0796 36.7727 31.0321C36.0728 29.9845 35.0779 29.1681 33.9139 28.6859C32.75 28.2038 31.4692 28.0776 30.2335 28.3234C28.9979 28.5692 27.8628 29.1759 26.972 30.0668C26.0811 30.9576 25.4744 32.0927 25.2286 33.3283C24.9829 34.564 25.109 35.8448 25.5911 37.0087C26.0733 38.1727 26.8897 39.1676 27.9373 39.8675C28.9848 40.5674 30.2164 40.941 31.4762 40.941C33.1561 40.9259 34.7642 40.258 35.9605 39.0785C37.1568 37.899 37.8474 36.3005 37.8862 34.621L37.8462 34.571Z" fill="#F9C801"/>
<path d="M56.8064 34.6211C56.4587 34.6134 56.1274 34.4719 55.8814 34.226C55.6355 33.9801 55.494 33.6487 55.4864 33.3011V21.5211C55.4785 20.6377 55.1241 19.7927 54.4995 19.168C53.8748 18.5433 53.0298 18.1889 52.1464 18.1811H37.8864C37.5574 18.1523 37.2511 18.0014 37.028 17.7579C36.8049 17.5145 36.6812 17.1963 36.6812 16.8661C36.6812 16.5358 36.8049 16.2176 37.028 15.9742C37.2511 15.7307 37.5574 15.5798 37.8864 15.5511H52.2564C53.8115 15.5537 55.3019 16.1733 56.4006 17.2739C57.4993 18.3744 58.1164 19.866 58.1164 21.4211V33.2511C58.1204 33.427 58.0896 33.6021 58.0259 33.7662C57.9623 33.9303 57.8669 34.0802 57.7452 34.2075C57.6236 34.3347 57.478 34.4367 57.3169 34.5077C57.1558 34.5786 56.9824 34.6172 56.8064 34.6211Z" fill="black"/>
<path d="M34.0663 18.081H22.7163C22.5339 18.097 22.3503 18.0748 22.177 18.0159C22.0037 17.9571 21.8445 17.8628 21.7096 17.7392C21.5747 17.6155 21.467 17.4651 21.3933 17.2976C21.3196 17.1301 21.2815 16.9491 21.2815 16.766C21.2815 16.583 21.3196 16.402 21.3933 16.2345C21.467 16.067 21.5747 15.9166 21.7096 15.7929C21.8445 15.6693 22.0037 15.575 22.177 15.5162C22.3503 15.4573 22.5339 15.4351 22.7163 15.451H34.1463C34.4921 15.4562 34.8223 15.5959 35.0669 15.8404C35.3114 16.085 35.4511 16.4152 35.4563 16.761C35.4314 17.1149 35.2749 17.4467 35.0176 17.691C34.7604 17.9353 34.421 18.0744 34.0663 18.081Z" fill="black"/>
<path d="M56.8063 42.1511H51.7463C51.4174 42.1223 51.1111 41.9714 50.888 41.7279C50.6649 41.4845 50.5411 41.1663 50.5411 40.8361C50.5411 40.5058 50.6649 40.1876 50.888 39.9442C51.1111 39.7007 51.4174 39.5498 51.7463 39.5211H55.5863V34.4611H42.8463C42.5144 34.4477 42.1997 34.3096 41.9651 34.0744C41.7305 33.8392 41.5932 33.5242 41.5805 33.1923C41.5679 32.8603 41.6809 32.5358 41.897 32.2835C42.1131 32.0312 42.4164 31.8696 42.7463 31.8311H56.8063C57.1531 31.8388 57.4833 31.9806 57.7276 32.2268C57.9719 32.473 58.1113 32.8043 58.1163 33.1511V40.7411C58.1244 40.92 58.0967 41.0988 58.035 41.2669C57.9732 41.4351 57.8787 41.5893 57.7567 41.7205C57.6348 41.8517 57.488 41.9574 57.3248 42.0313C57.1616 42.1052 56.9854 42.1459 56.8063 42.1511Z" fill="black"/>
<path d="M46.6864 42.151H41.0664C40.884 42.167 40.7004 42.1448 40.5271 42.0859C40.3538 42.0271 40.1946 41.9328 40.0597 41.8092C39.9248 41.6855 39.8171 41.5351 39.7434 41.3676C39.6697 41.2001 39.6316 41.0191 39.6316 40.8361C39.6316 40.653 39.6697 40.472 39.7434 40.3045C39.8171 40.137 39.9248 39.9866 40.0597 39.8629C40.1946 39.7393 40.3538 39.645 40.5271 39.5862C40.7004 39.5273 40.884 39.5051 41.0664 39.5211H46.7264C46.9087 39.5051 47.0923 39.5273 47.2656 39.5862C47.4389 39.645 47.5981 39.7393 47.733 39.8629C47.868 39.9866 47.9757 40.137 48.0494 40.3045C48.1231 40.472 48.1612 40.653 48.1612 40.8361C48.1612 41.0191 48.1231 41.2001 48.0494 41.3676C47.9757 41.5351 47.868 41.6855 47.733 41.8092C47.5981 41.9328 47.4389 42.0271 47.2656 42.0859C47.0923 42.1448 46.9087 42.167 46.7264 42.151H46.6864Z" fill="black"/>
<path d="M31.5163 47.211C29.0152 47.1894 26.5741 46.4417 24.4899 45.0588C22.4058 43.6758 20.7682 41.7172 19.7763 39.421C18.9735 37.4345 18.6613 35.2838 18.8663 33.151C19.2441 30.0591 20.7381 27.2116 23.0675 25.1437C25.3969 23.0757 28.4014 21.9297 31.5163 21.921C34.6245 21.9172 37.6246 23.0613 39.9408 25.1339C42.257 27.2065 43.7262 30.0615 44.0663 33.151C44.1493 33.6196 44.1828 34.0955 44.1663 34.571C44.2 37.0674 43.4594 39.5128 42.0463 41.571C40.8967 43.3108 39.3323 44.7372 37.4941 45.7218C35.6559 46.7063 33.6016 47.2181 31.5163 47.211ZM22.9163 39.831C22.9163 39.931 22.9163 39.931 23.1163 40.131C24.3288 41.9287 26.0865 43.2893 28.1307 44.0126C30.1748 44.7359 32.3971 44.7835 34.4704 44.1484C36.5436 43.5134 38.358 42.2292 39.6463 40.4851C40.9346 38.7411 41.6287 36.6293 41.6263 34.461C41.6423 34.0882 41.6087 33.715 41.5263 33.351C41.2361 30.9027 40.0578 28.6459 38.2147 27.0083C36.3716 25.3708 33.9918 24.4663 31.5263 24.4663C29.0608 24.4663 26.681 25.3708 24.8379 27.0083C22.9948 28.6459 21.8165 30.9027 21.5263 33.351C21.5263 33.661 21.4263 33.961 21.4263 34.161C21.3749 34.9854 21.4354 35.8129 21.6063 36.621C21.7909 37.7866 22.239 38.8947 22.9163 39.861V39.831Z" fill="black"/>
<path d="M31.5162 42.151C30.0109 42.1589 28.5371 41.719 27.2824 40.8871C26.0277 40.0553 25.0487 38.8691 24.4699 37.4794C23.8911 36.0897 23.7386 34.5593 24.0319 33.0827C24.3251 31.6062 25.0508 30.2501 26.1167 29.1871C27.1826 28.124 28.5405 27.4019 30.0178 27.1126C31.4952 26.8233 33.0252 26.9799 34.4133 27.5623C35.8015 28.1448 36.985 29.127 37.8136 30.3839C38.6421 31.6408 39.0781 33.1157 39.0662 34.621C39.0377 36.6127 38.2325 38.5144 36.8222 39.921C35.4118 41.3276 33.508 42.1278 31.5162 42.151ZM31.5162 29.511C30.5176 29.5111 29.5413 29.8066 28.7103 30.3604C27.8793 30.9143 27.2308 31.7016 26.8464 32.6233C26.462 33.545 26.3589 34.5598 26.5501 35.5399C26.7413 36.5201 27.2183 37.4218 27.921 38.1314C28.6236 38.841 29.5206 39.3268 30.4988 39.5276C31.477 39.7285 32.4928 39.6354 33.4182 39.2601C34.3436 38.8847 35.1373 38.244 35.6993 37.4185C36.2612 36.593 36.5664 35.6196 36.5762 34.621C36.5911 33.9501 36.4707 33.2831 36.2223 32.6598C35.9738 32.0364 35.6025 31.4694 35.1303 30.9925C34.6582 30.5157 34.0948 30.1388 33.4739 29.8843C32.853 29.6298 32.1872 29.5028 31.5162 29.511Z" fill="black"/>
<path d="M34.0662 35.7811C33.7186 35.7734 33.3872 35.6319 33.1413 35.386C32.8954 35.1401 32.7539 34.8087 32.7462 34.4611C32.7411 34.1152 32.6014 33.785 32.3568 33.5405C32.1123 33.2959 31.7821 33.1562 31.4362 33.151C31.2539 33.167 31.0703 33.1448 30.897 33.0859C30.7237 33.0271 30.5645 32.9328 30.4296 32.8092C30.2947 32.6855 30.1869 32.5351 30.1132 32.3676C30.0395 32.2001 30.0015 32.0191 30.0015 31.8361C30.0015 31.653 30.0395 31.472 30.1132 31.3045C30.1869 31.137 30.2947 30.9866 30.4296 30.8629C30.5645 30.7393 30.7237 30.645 30.897 30.5862C31.0703 30.5273 31.2539 30.5051 31.4362 30.5211C31.9405 30.5211 32.4399 30.6204 32.9058 30.8134C33.3716 31.0063 33.795 31.2892 34.1515 31.6458C34.5081 32.0023 34.791 32.4257 34.9839 32.8915C35.1769 33.3574 35.2762 33.8568 35.2762 34.3611C35.3131 34.5373 35.3091 34.7197 35.2645 34.8941C35.22 35.0686 35.1361 35.2306 35.0193 35.3677C34.9025 35.5047 34.7559 35.6132 34.5907 35.6849C34.4255 35.7565 34.2461 35.7894 34.0662 35.7811Z" fill="black"/>
<path d="M43.5564 30.721C42.6763 30.721 41.816 30.4601 41.0842 29.9711C40.3524 29.4821 39.782 28.7871 39.4452 27.974C39.1084 27.1609 39.0202 26.2661 39.192 25.4029C39.3637 24.5397 39.7875 23.7468 40.4098 23.1244C41.0322 22.5021 41.8251 22.0783 42.6883 21.9066C43.5515 21.7348 44.4463 21.823 45.2594 22.1598C46.0725 22.4966 46.7675 23.067 47.2565 23.7988C47.7455 24.5306 48.0064 25.3909 48.0064 26.271C47.996 27.448 47.5238 28.5739 46.6915 29.4061C45.8592 30.2384 44.7334 30.7106 43.5564 30.721ZM43.5564 24.451C43.0472 24.451 42.5589 24.6533 42.1988 25.0134C41.8387 25.3735 41.6364 25.8618 41.6364 26.371C41.6364 26.8803 41.8387 27.3686 42.1988 27.7287C42.5589 28.0888 43.0472 28.291 43.5564 28.291C43.8112 28.3009 44.0653 28.258 44.3027 28.1649C44.5401 28.0719 44.7557 27.9309 44.936 27.7506C45.1163 27.5703 45.2573 27.3547 45.3503 27.1173C45.4434 26.8799 45.4863 26.6258 45.4764 26.371C45.4764 25.8618 45.2742 25.3735 44.9141 25.0134C44.554 24.6533 44.0657 24.451 43.5564 24.451Z" fill="black"/>
<path d="M23.3163 48.4211C22.6948 48.421 22.0873 48.2366 21.5707 47.8912C21.0541 47.5457 20.6517 47.0547 20.4143 46.4804C20.177 45.906 20.1154 45.2742 20.2373 44.6648C20.3593 44.0554 20.6594 43.4959 21.0995 43.0572C21.5396 42.6185 22.1001 42.3202 22.7098 42.2002C23.3196 42.0801 23.9512 42.1438 24.5248 42.383C25.0984 42.6221 25.5881 43.0262 25.9319 43.5438C26.2758 44.0615 26.4582 44.6696 26.4563 45.2911C26.451 46.1213 26.1182 46.9159 25.5301 47.502C24.9421 48.0881 24.1465 48.4184 23.3163 48.4211ZM23.3163 44.6811C23.1956 44.6811 23.0777 44.7168 22.9774 44.7839C22.877 44.8509 22.7989 44.9462 22.7527 45.0576C22.7065 45.1691 22.6944 45.2917 22.718 45.4101C22.7415 45.5284 22.7996 45.6371 22.8849 45.7224C22.9702 45.8077 23.0789 45.8658 23.1973 45.8893C23.3156 45.9129 23.4382 45.9008 23.5497 45.8546C23.6612 45.8084 23.7564 45.7303 23.8235 45.63C23.8905 45.5296 23.9263 45.4117 23.9263 45.2911C23.9168 45.1324 23.8494 44.9827 23.737 44.8703C23.6246 44.7579 23.4749 44.6906 23.3163 44.6811Z" fill="black"/>
<path d="M22.7164 18.081H15.1264C14.7797 18.0733 14.4494 17.9315 14.2051 17.6853C13.9608 17.4391 13.8215 17.1078 13.8164 16.761V12.921C13.8266 12.5778 13.9682 12.2515 14.2119 12.0096C14.4557 11.7677 14.7831 11.6286 15.1264 11.621H22.7164C23.0667 11.6183 23.4042 11.7528 23.6565 11.9958C23.9088 12.2388 24.056 12.5709 24.0664 12.921V16.861C24.0236 17.1919 23.8641 17.4966 23.6166 17.7203C23.3691 17.9439 23.0499 18.0719 22.7164 18.081ZM16.3464 15.551H21.3464V14.231H16.3464V15.551Z" fill="black"/>
<path d="M37.8863 18.081H34.0663C33.7187 18.0734 33.3873 17.9319 33.1414 17.686C32.8955 17.44 32.754 17.1087 32.7463 16.761V12.921C32.759 12.5769 32.9028 12.2505 33.1481 12.0089C33.3935 11.7672 33.722 11.6285 34.0663 11.621H37.9063C38.254 11.6287 38.5853 11.7702 38.8313 12.0161C39.0772 12.262 39.2187 12.5933 39.2263 12.941V16.881C39.1795 17.2066 39.0196 17.5053 38.7746 17.7247C38.5295 17.9441 38.2151 18.0703 37.8863 18.081ZM35.3563 15.551H36.5763V14.231H35.2563V15.551H35.3563Z" fill="black"/>
<path d="M15.1263 23.141H11.2863C10.9362 23.141 10.6005 23.002 10.3529 22.7544C10.1054 22.5069 9.96631 22.1711 9.96631 21.821C9.96631 21.471 10.1054 21.1352 10.3529 20.8877C10.6005 20.6401 10.9362 20.501 11.2863 20.501H15.1263C15.474 20.5087 15.8053 20.6502 16.0512 20.8961C16.2971 21.142 16.4387 21.4734 16.4463 21.821C16.425 22.1642 16.2791 22.4877 16.036 22.7308C15.7929 22.9739 15.4694 23.1198 15.1263 23.141Z" fill="black"/>
<path d="M15.1263 26.981H11.2863C11.104 26.997 10.9204 26.9748 10.7471 26.9159C10.5738 26.8571 10.4146 26.7628 10.2797 26.6392C10.1448 26.5155 10.037 26.3651 9.96333 26.1976C9.88962 26.0301 9.85156 25.8491 9.85156 25.666C9.85156 25.483 9.88962 25.302 9.96333 25.1345C10.037 24.967 10.1448 24.8166 10.2797 24.6929C10.4146 24.5693 10.5738 24.475 10.7471 24.4162C10.9204 24.3573 11.104 24.3351 11.2863 24.351H15.1263C15.4665 24.3557 15.7921 24.4894 16.0372 24.7253C16.2823 24.9611 16.4286 25.2813 16.4463 25.621C16.4324 25.9705 16.29 26.3025 16.0464 26.5535C15.8029 26.8044 15.4752 26.9567 15.1263 26.981Z" fill="black"/>
</svg>
