<svg width="64" height="64" viewBox="0 0 64 64" fill="none" xmlns="http://www.w3.org/2000/svg">
<path d="M37.6496 41.3289C38.5753 40.1567 39.7565 39.2113 41.103 38.5649C42.4496 37.9185 43.926 37.5881 45.4196 37.5989C46.7206 37.5909 48.0102 37.8413 49.2137 38.3355C50.4173 38.8297 51.5107 39.5579 52.4306 40.4778C53.3506 41.3978 54.0788 42.4912 54.573 43.6948C55.0672 44.8983 55.3176 46.1879 55.3096 47.4889C55.3096 53.9489 49.3096 56.0689 45.4196 61.4889C41.4896 56.0389 35.5296 53.9189 35.5296 47.4889C35.5058 45.2527 36.2547 43.0768 37.6496 41.3289ZM50.0296 47.4889C50.0236 46.5886 49.7507 45.7103 49.2454 44.9652C48.74 44.2201 48.025 43.6416 47.1907 43.303C46.3565 42.9645 45.4406 42.881 44.5589 43.0632C43.6772 43.2454 42.8694 43.6851 42.2377 44.3266C41.606 44.9681 41.1788 45.7826 41.0102 46.667C40.8416 47.5514 40.9392 48.4659 41.2905 49.2948C41.6419 50.1238 42.2313 50.8298 42.9841 51.3236C43.7369 51.8174 44.6193 52.0768 45.5196 52.0689C46.7213 52.0479 47.8668 51.5565 48.7101 50.7001C49.5534 49.8437 50.0272 48.6908 50.0296 47.4889Z" fill="white"/>
<path d="M19.4796 3.47925L15.7496 7.21925L19.4796 11.0492H6.85962V3.47925H19.4796Z" fill="white"/>
<path d="M58.6396 26.1895H56.1196V28.7095H58.6396V26.1895Z" fill="white"/>
<path d="M54.8096 26.1895H52.2896V28.7095H54.8096V26.1895Z" fill="white"/>
<path d="M51.0696 26.1895H48.5496V28.7095H51.0696V26.1895Z" fill="white"/>
<path d="M47.2395 26.1895H44.7195V28.7095H47.2395V26.1895Z" fill="white"/>
<path d="M43.4995 26.1895H40.9795V28.7095H43.4995V26.1895Z" fill="white"/>
<path d="M39.6697 26.1895H37.1497V28.7095H39.6697V26.1895Z" fill="white"/>
<path d="M28.3596 36.2891H25.8396V38.8091H28.3596V36.2891Z" fill="#B80000"/>
<path d="M24.5295 36.2891H22.0095V38.8091H24.5295V36.2891Z" fill="#B80000"/>
<path d="M20.7895 36.2891H18.2695V38.8091H20.7895V36.2891Z" fill="#B80000"/>
<path d="M16.9595 36.2891H14.4395V38.8091H16.9595V36.2891Z" fill="#B80000"/>
<path d="M13.2195 36.2891H10.6995V38.8091H13.2195V36.2891Z" fill="#B80000"/>
<path d="M9.38963 36.2891H6.86963V38.8091H9.38963V36.2891Z" fill="#B80000"/>
<path d="M27.0296 51.4294H18.8796C17.3915 51.4042 15.9658 50.8269 14.8796 49.8094C14.3566 49.2843 13.9438 48.6599 13.6656 47.973C13.3874 47.2861 13.2494 46.5505 13.2596 45.8094C13.2596 45.0666 13.406 44.3311 13.6906 43.645C13.9752 42.9588 14.3922 42.3355 14.9179 41.8107C15.4437 41.286 16.0677 40.87 16.7543 40.5866C17.441 40.3033 18.1768 40.1581 18.9196 40.1594H37.7496C38.0834 40.1717 38.4005 40.3091 38.6376 40.5444C38.8748 40.7797 39.0147 41.0957 39.0296 41.4294C38.999 41.7487 38.845 42.0435 38.6003 42.2508C38.3556 42.4582 38.0395 42.5618 37.7196 42.5394H18.8796C18.0511 42.5447 17.258 42.8761 16.6721 43.462C16.0863 44.0478 15.7548 44.8409 15.7496 45.6694C15.7469 46.0812 15.826 46.4894 15.9824 46.8704C16.1388 47.2513 16.3692 47.5974 16.6604 47.8886C16.9516 48.1798 17.2977 48.4102 17.6786 48.5666C18.0596 48.7229 18.4678 48.8021 18.8796 48.7994H27.0296C27.3721 48.7991 27.7016 48.9309 27.9494 49.1675C28.1972 49.4041 28.3441 49.7272 28.3596 50.0694C28.3476 50.4212 28.2046 50.7558 27.9584 51.0075C27.7123 51.2592 27.381 51.4097 27.0296 51.4294Z" fill="#B80000"/>
<path d="M55.4096 42.5392H53.2996C53.1276 42.5392 52.9572 42.5053 52.7983 42.4395C52.6393 42.3737 52.4949 42.2772 52.3733 42.1555C52.2516 42.0339 52.1552 41.8895 52.0893 41.7305C52.0235 41.5716 51.9896 41.4013 51.9896 41.2292C51.9896 41.0572 52.0235 40.8868 52.0893 40.7279C52.1552 40.569 52.2516 40.4246 52.3733 40.3029C52.4949 40.1813 52.6393 40.0848 52.7983 40.0189C52.9572 39.9531 53.1276 39.9192 53.2996 39.9192H55.4096C56.2397 39.9192 57.0359 39.5895 57.6228 39.0025C58.2098 38.4155 58.5396 37.6194 58.5396 36.7892C58.5396 35.9591 58.2098 35.163 57.6228 34.576C57.0359 33.989 56.2397 33.6592 55.4096 33.6592H8.7796C7.29283 33.6367 5.86737 33.063 4.7796 32.0492C4.25752 31.5234 3.84539 30.8989 3.56724 30.2122C3.2891 29.5254 3.15053 28.7901 3.1596 28.0492C3.15828 27.3069 3.30352 26.5716 3.587 25.8855C3.87047 25.1994 4.28659 24.576 4.81151 24.0511C5.33642 23.5262 5.95979 23.1101 6.64588 22.8266C7.33196 22.5432 8.06726 22.3979 8.8096 22.3992H50.4696C51.3005 22.3995 52.098 22.0726 52.6896 21.4892C53.1498 21.0537 53.4675 20.4891 53.6009 19.8696C53.7343 19.2502 53.6771 18.6048 53.437 18.0185C53.1968 17.4321 52.7848 16.9321 52.2552 16.5842C51.7256 16.2363 51.1031 16.0568 50.4696 16.0692H23.3196C22.9722 16.0692 22.639 15.9312 22.3933 15.6855C22.1476 15.4399 22.0096 15.1067 22.0096 14.7592C22.0096 14.4118 22.1476 14.0786 22.3933 13.8329C22.639 13.5872 22.9722 13.4492 23.3196 13.4492H50.4696C51.2119 13.4479 51.9472 13.5932 52.6333 13.8766C53.3194 14.1601 53.9428 14.5762 54.4677 15.1011C54.9926 15.626 55.4087 16.2494 55.6922 16.9355C55.9757 17.6216 56.1209 18.3569 56.1196 19.0992C56.0971 20.586 55.5234 22.0115 54.5096 23.0992C53.9852 23.6231 53.3609 24.0365 52.6738 24.3147C51.9867 24.593 51.2508 24.7305 50.5096 24.7192H8.7796C7.94947 24.7192 7.15334 25.049 6.56635 25.636C5.97936 26.223 5.6496 27.0191 5.6496 27.8492C5.6496 28.6794 5.97936 29.4755 6.56635 30.0625C7.15334 30.6495 7.94947 30.9792 8.7796 30.9792H55.5196C56.2619 30.9779 56.9972 31.1232 57.6833 31.4066C58.3694 31.6901 58.9928 32.1062 59.5177 32.6311C60.0426 33.156 60.4587 33.7794 60.7422 34.4655C61.0257 35.1516 61.1709 35.8869 61.1696 36.6292C61.1444 38.1173 60.567 39.543 59.5496 40.6292C59.0262 41.213 58.389 41.6836 57.677 42.0121C56.965 42.3406 56.1934 42.5199 55.4096 42.5392Z" fill="#B80000"/>
<path d="M18.5344 3.5H7.53442L7.03442 11H18.0344L16.0344 7.5L18.5344 3.5Z" fill="#F9C801"/>
<path d="M19.4796 12.2593H6.86956C6.52278 12.2543 6.19148 12.1149 5.94531 11.8706C5.69915 11.6263 5.55729 11.2961 5.54956 10.9493V3.37935C5.55729 3.03262 5.69915 2.70239 5.94531 2.45809C6.19148 2.21378 6.52278 2.07444 6.86956 2.06935H19.4796C19.7391 2.06818 19.993 2.14469 20.2086 2.28905C20.4242 2.4334 20.5918 2.63899 20.6896 2.87935C20.7927 3.11632 20.8193 3.37962 20.7655 3.63242C20.7117 3.88523 20.5803 4.11491 20.3896 4.28935L17.4596 7.21935L20.2896 10.0693C20.4218 10.18 20.5267 10.3197 20.596 10.4775C20.6654 10.6354 20.6974 10.8071 20.6896 10.9793C20.7021 11.1447 20.68 11.3109 20.6246 11.4672C20.5692 11.6235 20.4817 11.7665 20.3678 11.8871C20.2538 12.0076 20.116 12.103 19.963 12.1671C19.81 12.2312 19.6454 12.2626 19.4796 12.2593ZM8.17956 9.73935H16.4496L14.8396 8.12935C14.718 8.01101 14.6214 7.86952 14.5554 7.71322C14.4894 7.55693 14.4555 7.389 14.4555 7.21935C14.4555 7.0497 14.4894 6.88177 14.5554 6.72548C14.6214 6.56918 14.718 6.42769 14.8396 6.30935L16.4496 4.68935H8.17956V9.73935Z" fill="#B80000"/>
<path d="M6.86956 19.8296C6.52278 19.8246 6.19148 19.6852 5.94531 19.4409C5.69915 19.1966 5.55729 18.8664 5.54956 18.5196V10.9496C5.55729 10.6029 5.69915 10.2727 5.94531 10.0284C6.19148 9.78408 6.52278 9.64474 6.86956 9.63965C7.21459 9.64729 7.54338 9.78776 7.78741 10.0318C8.03145 10.2758 8.17192 10.6046 8.17956 10.9496V18.5196C8.1744 18.8655 8.03472 19.1957 7.79016 19.4402C7.5456 19.6848 7.21539 19.8245 6.86956 19.8296Z" fill="#B80000"/>
<path d="M45.5196 62.7292C45.3257 62.7285 45.1345 62.683 44.9611 62.5962C44.7876 62.5095 44.6366 62.3839 44.5196 62.2292C43.258 60.5463 41.8011 59.0189 40.1796 57.6792C37.1796 54.8592 34.3296 52.2292 34.3296 47.4892C34.4166 44.5754 35.6353 41.8101 37.7272 39.7799C39.819 37.7496 42.6195 36.614 45.5346 36.614C48.4497 36.614 51.2502 37.7496 53.342 39.7799C55.4338 41.8101 56.6525 44.5754 56.7396 47.4892C56.7396 52.2292 53.9096 54.8592 50.8796 57.6792C49.3082 59.0718 47.8564 60.5938 46.5396 62.2292C46.4144 62.3797 46.2588 62.502 46.083 62.5882C45.9072 62.6744 45.7152 62.7224 45.5196 62.7292ZM45.5196 38.8092C44.2129 38.8087 42.9236 39.1088 41.7514 39.6862C40.5792 40.2637 39.5556 41.103 38.7596 42.1392C37.5366 43.6561 36.8602 45.5408 36.8396 47.4892C36.8396 51.1192 39.0596 53.2392 41.8396 55.8692C43.1235 57.003 44.3358 58.2153 45.4696 59.4992C46.6068 58.2152 47.8225 57.0029 49.1096 55.8692C51.9296 53.2392 54.1096 51.2192 54.1096 47.4892C54.1564 45.5311 53.4759 43.625 52.1996 42.1392C51.4119 41.1136 50.401 40.2808 49.2437 39.7038C48.0863 39.1269 46.8127 38.8209 45.5196 38.8092Z" fill="#B80000"/>
<path d="M45.5194 53.2393C44.36 53.2393 43.2266 52.8954 42.2627 52.251C41.2989 51.6067 40.5478 50.6909 40.1045 49.6195C39.6613 48.5481 39.5458 47.3694 39.7728 46.2324C39.9997 45.0954 40.5588 44.0512 41.3793 43.2321C42.1999 42.413 43.2449 41.8557 44.3823 41.6307C45.5197 41.4057 46.6983 41.5232 47.7689 41.9682C48.8395 42.4133 49.754 43.1659 50.3967 44.1309C51.0394 45.0959 51.3814 46.2299 51.3794 47.3893C51.3413 48.9305 50.7113 50.3979 49.6203 51.4871C48.5292 52.5764 47.0607 53.2038 45.5194 53.2393ZM45.5194 44.1593C44.8608 44.1593 44.217 44.3546 43.6694 44.7205C43.1218 45.0864 42.6949 45.6065 42.4429 46.215C42.1909 46.8234 42.1249 47.493 42.2534 48.1389C42.3819 48.7849 42.699 49.3782 43.1648 49.844C43.6305 50.3097 44.2238 50.6268 44.8698 50.7553C45.5157 50.8838 46.1853 50.8178 46.7938 50.5658C47.4022 50.3138 47.9223 49.887 48.2882 49.3393C48.6541 48.7917 48.8494 48.1479 48.8494 47.4893C48.8416 46.6085 48.4882 45.7661 47.8654 45.1433C47.2426 44.5205 46.4002 44.1671 45.5194 44.1593Z" fill="#B80000"/>
<path d="M16.9595 19.829H4.33954C3.99211 19.829 3.6589 19.691 3.41323 19.4453C3.16756 19.1996 3.02954 18.8664 3.02954 18.519C3.02954 18.1716 3.16756 17.8383 3.41323 17.5927C3.6589 17.347 3.99211 17.209 4.33954 17.209H16.9595C17.307 17.209 17.6402 17.347 17.8859 17.5927C18.1315 17.8383 18.2695 18.1716 18.2695 18.519C18.2695 18.8664 18.1315 19.1996 17.8859 19.4453C17.6402 19.691 17.307 19.829 16.9595 19.829Z" fill="#B80000"/>
</svg>
