<svg width="64" height="64" viewBox="0 0 64 64" fill="none" xmlns="http://www.w3.org/2000/svg">
<path d="M19.7092 43.7035C19.6479 42.2475 19.0264 40.8714 17.9744 39.8628C16.9225 38.8542 15.5215 38.2911 14.0642 38.2911C12.6069 38.2911 11.2059 38.8542 10.154 39.8628C9.10202 40.8714 8.48049 42.2475 8.41919 43.7035C8.42428 44.0503 8.58782 48.6819 14.0692 49.3535C14.8062 49.3535 14.0221 46.9655 14.0692 46.8335C11.0485 46.4886 10.9486 43.8701 10.9392 43.7035C10.9392 43.0844 11.1228 42.4793 11.4667 41.9646C11.8106 41.4498 12.2995 41.0487 12.8714 40.8117C13.4433 40.5748 14.0727 40.5129 14.6798 40.6336C15.287 40.7544 15.8447 41.0525 16.2824 41.4902C16.7202 41.928 17.0183 42.4857 17.139 43.0929C17.2598 43.7 17.1978 44.3294 16.9609 44.9013C16.724 45.4732 16.3229 45.9621 15.8081 46.306C15.2934 46.6499 14.6882 46.8335 14.0692 46.8335C12.4229 46.8335 12.5555 49.168 14.0692 49.3535C14.8107 49.3535 15.5449 49.2073 16.2298 48.9232C16.9148 48.6392 17.537 48.2228 18.0608 47.698C18.5847 47.1733 18.9999 46.5503 19.2827 45.8649C19.5656 45.1795 19.7105 44.445 19.7092 43.7035Z" fill="black"/>
<path d="M11.6384 27.2753C11.5511 26.2272 17.2795 18.2861 20.1546 14.4467L27.1419 21.9255L29.7077 28.0941C29.4711 29.3497 28.8888 32.0901 28.4521 33.0072C28.0154 33.9243 25.5042 35.6093 24.3033 36.3372L18.6259 36.8285L14.8046 35.2454L12.2935 32.7342C12.1115 31.3513 11.7258 28.3234 11.6384 27.2753Z" fill="white"/>
<path d="M16.6047 32.527C16.5654 32.055 19.1447 28.4794 20.4393 26.7506L23.5855 30.1181L24.7408 32.8957C24.6342 33.461 24.372 34.6949 24.1754 35.1079C23.9788 35.5208 22.8481 36.2796 22.3073 36.6073L19.751 36.8285L18.0303 36.1157L16.8996 34.985C16.8177 34.3623 16.644 32.9989 16.6047 32.527Z" fill="#F9C801"/>
<path d="M36.0137 20.0065L42.2822 12.1951C43.9859 13.6416 47.4704 16.6119 47.779 16.9205C48.0876 17.2291 49.1934 20.4565 49.7078 22.0316L46.8147 26.1784C45.3038 26.8534 42.2822 28.1457 42.2822 27.9142C42.2822 27.6828 38.939 26.2748 37.2674 25.5998L36.0137 20.0065Z" fill="#F9C801"/>
<path d="M38.8959 24.5574C38.8594 24.1152 41.2577 20.7653 42.4615 19.1456L45.387 22.3005L46.4612 24.9028C46.3621 25.4325 46.1183 26.5885 45.9355 26.9754C45.7527 27.3623 44.7013 28.0731 44.1985 28.3802L41.8215 28.5875L40.2216 27.9196L39.1702 26.8603C39.094 26.2769 38.9325 24.9995 38.8959 24.5574Z" fill="white"/>
<path d="M28.5891 40.6135H38.6691C39.0033 40.6135 39.3238 40.4808 39.5601 40.2445C39.7964 40.0082 39.9291 39.6877 39.9291 39.3535C39.9291 39.0193 39.7964 38.6988 39.5601 38.4626C39.3238 38.2263 39.0033 38.0935 38.6691 38.0935H28.5891C28.2549 38.0935 27.9344 38.2263 27.6981 38.4626C27.4619 38.6988 27.3291 39.0193 27.3291 39.3535C27.3291 39.6877 27.4619 40.0082 27.6981 40.2445C27.9344 40.4808 28.2549 40.6135 28.5891 40.6135Z" fill="black"/>
<path d="M49.959 43.1335C49.9538 42.7877 49.8142 42.4574 49.5696 42.2129C49.325 41.9683 48.9948 41.8286 48.649 41.8235H33.529C33.357 41.8235 33.1866 41.8574 33.0277 41.9232C32.8687 41.989 32.7243 42.0855 32.6027 42.2072C32.481 42.3288 32.3845 42.4732 32.3187 42.6322C32.2529 42.7911 32.219 42.9615 32.219 43.1335C32.219 43.3055 32.2529 43.4759 32.3187 43.6348C32.3845 43.7937 32.481 43.9382 32.6027 44.0598C32.7243 44.1814 32.8687 44.2779 33.0277 44.3438C33.1866 44.4096 33.357 44.4435 33.529 44.4435H48.649C48.9895 44.4222 49.3104 44.2774 49.5517 44.0362C49.7929 43.7949 49.9377 43.474 49.959 43.1335Z" fill="black"/>
<path d="M49.9592 46.8635H41.1892C40.855 46.8635 40.5345 46.9962 40.2982 47.2325C40.0619 47.4688 39.9292 47.7893 39.9292 48.1235C39.9292 48.4576 40.0619 48.7781 40.2982 49.0144C40.5345 49.2507 40.855 49.3835 41.1892 49.3835H49.9592C50.2934 49.3835 50.6139 49.2507 50.8502 49.0144C51.0864 48.7781 51.2192 48.4576 51.2192 48.1235C51.2192 47.7893 51.0864 47.4688 50.8502 47.2325C50.6139 46.9962 50.2934 46.8635 49.9592 46.8635Z" fill="black"/>
<path d="M31.0091 46.8635H27.2791C26.9598 46.8686 26.655 46.9978 26.4292 47.2236C26.2034 47.4494 26.0742 47.7542 26.0691 48.0735C26.0681 48.4042 26.1923 48.7231 26.4168 48.9661C26.6412 49.2091 26.9493 49.3582 27.2791 49.3835H31.0091C31.3433 49.3835 31.6638 49.2507 31.9001 49.0144C32.1363 48.7781 32.2691 48.4576 32.2691 48.1235C32.2691 47.7893 32.1363 47.4688 31.9001 47.2325C31.6638 46.9962 31.3433 46.8635 31.0091 46.8635Z" fill="black"/>
<path d="M50.5691 33.0535H29.5691C30.3036 31.6174 30.6842 30.0265 30.6791 28.4135C30.6791 23.4135 24.5291 18.2335 21.6091 13.4935C21.5041 13.2943 21.343 13.1304 21.1456 13.0219C20.9483 12.9135 20.7235 12.8654 20.4991 12.8835C20.2788 12.8892 20.0631 12.9475 19.87 13.0536C19.6769 13.1598 19.512 13.3106 19.3891 13.4935C16.3891 18.2335 10.2791 23.2735 10.2791 28.4135C10.2934 30.1441 10.7439 31.8432 11.5891 33.3535C9.03041 33.9402 6.77783 35.4496 5.26216 37.5929C3.7465 39.7363 3.07413 42.3631 3.37367 44.9711C3.67321 47.579 4.92362 49.985 6.88575 51.7289C8.84788 53.4728 11.384 54.4321 14.0091 54.4235H50.4591C53.2376 54.354 55.8798 53.2051 57.8255 51.2204C59.7712 49.2357 60.8674 46.5712 60.8817 43.7919C60.896 41.0125 59.8273 38.3369 57.9021 36.3323C55.977 34.3276 53.3467 33.1516 50.5691 33.0535ZM20.5691 16.3135C23.5691 20.4435 28.2291 24.8835 28.2291 28.3135C28.2399 29.3215 28.0501 30.3216 27.6707 31.2556C27.2913 32.1895 26.7298 33.0386 26.0191 33.7535V33.0535C25.9803 32.0447 25.6655 31.0659 25.1091 30.2235C24.2135 29.0031 22.337 30.2621 22.9891 31.5335C23.2722 32.0854 23.5407 32.5001 23.5991 33.0535C23.5554 33.7997 23.2283 34.501 22.6845 35.0139C22.1408 35.5267 21.4216 35.8124 20.6741 35.8124C19.9266 35.8124 19.2074 35.5267 18.6637 35.0139C18.1199 34.501 17.7927 33.7997 17.7491 33.0535C17.7491 31.8435 19.4591 30.0535 20.7491 28.5135C21.2971 29.0946 22.291 29.9545 22.9891 31.5335C22.9891 31.5335 25.1616 30.3636 25.1091 30.2235C25.0458 30.0549 23.2853 27.532 23.1591 27.4035C22.6847 26.8618 22.2407 26.2943 21.8291 25.7035C21.7241 25.5043 21.563 25.3404 21.3656 25.2319C21.1683 25.1235 20.9435 25.0754 20.7191 25.0935C20.4991 25.1008 20.284 25.1598 20.0912 25.2658C19.8983 25.3718 19.7331 25.5217 19.6091 25.7035C18.1991 27.9235 15.1791 30.3335 15.1791 33.0635V33.7635C14.4763 33.063 13.9185 32.2308 13.5375 31.3145C13.1566 30.3982 12.9601 29.4158 12.9591 28.4235C12.8591 24.8835 17.4991 20.5535 20.5191 16.3135H20.5691ZM5.89909 43.7035C5.91643 41.6625 6.6879 39.7001 8.06508 38.1937C9.44226 36.6873 11.3279 35.7433 13.3591 35.5435C15.2811 37.4121 17.8391 38.4839 20.5191 38.5435C21.7273 39.9882 22.3736 41.8205 22.3391 43.7035C22.3444 44.7779 22.1367 45.8427 21.728 46.8363C21.3193 47.8299 20.7177 48.7327 19.958 49.4924C19.1983 50.2521 18.2955 50.8537 17.3019 51.2624C16.3083 51.6711 15.2435 51.8788 14.1691 51.8735C11.9992 51.8532 9.92252 50.989 8.37884 49.464C6.83516 47.939 5.94577 45.8729 5.89909 43.7035ZM50.5691 51.9035H20.9191C22.8599 50.2593 24.16 47.9843 24.5915 45.4775C25.023 42.9707 24.5584 40.392 23.2791 38.1935C24.9748 37.6833 26.5289 36.7864 27.8191 35.5735H50.6691C51.7393 35.5696 52.7997 35.7769 53.7895 36.1837C54.7794 36.5905 55.6791 37.1888 56.4373 37.9441C57.1954 38.6994 57.7969 39.597 58.2074 40.5853C58.6178 41.5737 58.8291 42.6333 58.8291 43.7035C58.8265 44.7847 58.6106 45.8547 58.1938 46.8523C57.7771 47.8499 57.1676 48.7555 56.4003 49.5172C55.633 50.2789 54.723 50.8817 53.7224 51.2912C52.7218 51.7007 51.6502 51.9088 50.5691 51.9035Z" fill="black"/>
<path d="M42.5991 29.2235C44.6533 29.2052 46.6179 28.3804 48.0695 26.9269C49.5212 25.4734 50.3435 23.5076 50.3591 21.4535C50.3591 17.6235 45.8291 13.7935 43.7091 10.3635C43.5986 10.1814 43.4429 10.0308 43.2573 9.92629C43.0716 9.8218 42.8622 9.76691 42.6491 9.76691C42.4361 9.76691 42.2266 9.8218 42.0409 9.92629C41.8553 10.0308 41.6997 10.1814 41.5891 10.3635C39.3691 13.7935 34.8391 17.5235 34.8391 21.4535C34.8391 23.5125 35.6564 25.4873 37.1114 26.9442C38.5664 28.401 40.5401 29.2208 42.5991 29.2235ZM42.5991 13.2935C44.7191 16.1135 47.8391 19.2335 47.8391 21.4535C47.8427 22.5205 47.5294 23.5646 46.9391 24.4535C46.8256 23.8353 46.6021 23.2426 46.2791 22.7035C45.3833 21.4828 43.5067 22.7415 44.1591 24.0135C44.3551 24.2864 44.4945 24.5958 44.5691 24.9235C44.5877 25.1732 44.5545 25.424 44.4717 25.6602C44.3889 25.8965 44.2582 26.1132 44.0879 26.2966C43.9175 26.4801 43.7111 26.6265 43.4816 26.7266C43.2522 26.8266 43.0045 26.8783 42.7541 26.8783C42.5037 26.8783 42.2561 26.8266 42.0266 26.7266C41.7971 26.6265 41.5907 26.4801 41.4204 26.2966C41.25 26.1132 41.1193 25.8965 41.0365 25.6602C40.9537 25.424 40.9206 25.1732 40.9391 24.9235C41.2209 23.9981 42.0467 23.087 42.7541 22.4272C42.7541 22.4272 43.5988 23.1076 44.1591 24.0135C44.534 23.5026 46.3606 22.8214 46.2791 22.7035C46.181 22.5615 43.6052 18.9913 43.4584 18.9006C43.3117 18.8099 43.1477 18.7506 42.9769 18.7263C42.8061 18.7021 42.6321 18.7135 42.4659 18.7598C42.2997 18.8061 42.1449 18.8863 42.0112 18.9954C41.8775 19.1044 41.7678 19.24 41.6891 19.3935C40.7891 20.9035 38.7691 22.6135 38.4691 24.5335C37.8583 23.6538 37.5399 22.6042 37.5591 21.5335C37.3591 19.1335 40.4791 16.1135 42.5991 13.2935Z" fill="black"/>
</svg>
