<svg width="64" height="64" viewBox="0 0 64 64" fill="none" xmlns="http://www.w3.org/2000/svg">
<path d="M55.1159 55.91C55.4484 55.9073 55.7781 55.971 56.0857 56.0973C56.3933 56.2236 56.6726 56.4101 56.9073 56.6457C57.142 56.8813 57.3273 57.1613 57.4524 57.4694C57.5775 57.7775 57.6399 58.1075 57.6359 58.44C57.6173 59.1058 57.3701 59.745 56.9359 60.25C56.704 60.4958 56.4205 60.687 56.1057 60.8098C55.791 60.9326 55.4529 60.9839 55.1159 60.96H9.68585C9.35418 60.9627 9.02529 60.8993 8.71835 60.7736C8.4114 60.6479 8.13254 60.4624 7.898 60.2279C7.66347 59.9933 7.47795 59.7145 7.35225 59.4075C7.22655 59.1006 7.16319 58.7717 7.16585 58.44C7.18293 57.7709 7.43015 57.1281 7.86585 56.62C8.10322 56.3817 8.38766 56.1954 8.70102 56.0732C9.01439 55.9509 9.3498 55.8954 9.68585 55.91H55.1159Z" fill="white"/>
<path d="M50.0559 55.9105H14.7359C14.7329 54.893 15.1318 53.9154 15.8459 53.1905C16.1991 52.8291 16.6227 52.5441 17.0906 52.3531C17.5585 52.1622 18.0606 52.0694 18.5659 52.0805H46.4259C47.41 52.122 48.3393 52.545 49.0169 53.26C49.6945 53.9749 50.0671 54.9255 50.0559 55.9105Z" fill="#F9C801"/>
<path d="M34.9257 40.77H29.8757V52.18H34.9257V40.77Z" fill="#F9C801"/>
<path d="M34.9257 23.1108H29.8757V28.1608H34.9257V23.1108Z" fill="#F9C801"/>
<path d="M34.9158 6.66035V10.4903H29.9158V6.66035C29.8708 6.3055 29.9019 5.94515 30.0069 5.60324C30.112 5.26134 30.2886 4.94572 30.5251 4.67737C30.7616 4.40901 31.0525 4.19408 31.3785 4.04686C31.7045 3.89963 32.0581 3.82349 32.4158 3.82349C32.7734 3.82349 33.127 3.89963 33.453 4.04686C33.779 4.19408 34.0699 4.40901 34.3064 4.67737C34.5429 4.94572 34.7195 5.26134 34.8246 5.60324C34.9296 5.94515 34.9607 6.3055 34.9158 6.66035Z" fill="#F9C801"/>
<path d="M60.1558 16.7507L48.8458 23.1107H34.9158H29.8758H14.7358V10.4907H29.8758H34.9158H48.8458L60.1558 16.7507Z" fill="white"/>
<path d="M48.8458 28.1604V40.7704H34.9158H29.8758H14.7358L3.42578 34.4104L14.7358 28.1604H29.8758H34.9158H48.8458Z" fill="#F9C801"/>
<path d="M55.1157 62.1705H9.6857C8.66727 62.1705 7.69055 61.7659 6.97041 61.0458C6.25027 60.3256 5.8457 59.3489 5.8457 58.3305C5.86796 57.318 6.26324 56.3495 6.9557 55.6105C7.6855 54.8977 8.66555 54.4992 9.6857 54.5005H14.6857C15.0331 54.5005 15.3663 54.6385 15.612 54.8842C15.8577 55.1299 15.9957 55.4631 15.9957 55.8105C15.9957 56.1579 15.8577 56.4911 15.612 56.7368C15.3663 56.9825 15.0331 57.1205 14.6857 57.1205H9.6857C9.51369 57.1208 9.34369 57.1575 9.18686 57.2282C9.03003 57.2988 8.88991 57.4019 8.7757 57.5305C8.54214 57.7791 8.40094 58.1003 8.3757 58.4405C8.38087 58.7863 8.52054 59.1165 8.7651 59.3611C9.00967 59.6057 9.33988 59.7453 9.6857 59.7505H55.1157C55.2877 59.7502 55.4577 59.7135 55.6146 59.6428C55.7714 59.5722 55.9115 59.4691 56.0257 59.3405C56.2572 59.0945 56.3982 58.7772 56.4257 58.4405C56.4206 58.0937 56.2813 57.7624 56.037 57.5163C55.7927 57.2701 55.4624 57.1282 55.1157 57.1205H50.0557C49.7083 57.1205 49.3751 56.9825 49.1294 56.7368C48.8837 56.4911 48.7457 56.1579 48.7457 55.8105C48.7457 55.4631 48.8837 55.1299 49.1294 54.8842C49.3751 54.6385 49.7083 54.5005 50.0557 54.5005H55.1157C55.6195 54.4992 56.1186 54.5973 56.5845 54.7892C57.0503 54.9811 57.4737 55.263 57.8304 55.6187C58.1871 55.9745 58.4701 56.3972 58.6632 56.8625C58.8563 57.3278 58.9557 57.8267 58.9557 58.3305C58.934 59.346 58.5388 60.318 57.8457 61.0605C57.4983 61.4324 57.0742 61.7242 56.6028 61.9159C56.1314 62.1076 55.624 62.1944 55.1157 62.1705Z" fill="#B80000"/>
<path d="M50.0558 57.1204H14.7358C14.3907 57.1154 14.0609 56.9775 13.8149 56.7353C13.569 56.4931 13.4261 56.1654 13.4158 55.8204C13.4086 55.1585 13.5402 54.5024 13.802 53.8944C14.0638 53.2865 14.45 52.7401 14.9358 52.2904C15.8716 51.3463 17.1369 50.8016 18.4658 50.7704H29.8758C30.2048 50.7991 30.511 50.9501 30.7341 51.1935C30.9573 51.437 31.081 51.7552 31.081 52.0854C31.081 52.4156 30.9573 52.7338 30.7341 52.9773C30.511 53.2207 30.2048 53.3717 29.8758 53.4004H18.5658C17.9 53.419 17.2608 53.6661 16.7558 54.1004C16.5891 54.2439 16.4502 54.4168 16.3458 54.6104H48.4458C48.2231 54.2166 47.9008 53.8882 47.5111 53.6583C47.1215 53.4284 46.6782 53.3049 46.2258 53.3004H34.9158C34.5868 53.2717 34.2806 53.1207 34.0575 52.8773C33.8344 52.6339 33.7106 52.3156 33.7106 51.9854C33.7106 51.6552 33.8344 51.337 34.0575 51.0935C34.2806 50.8501 34.5868 50.6991 34.9158 50.6704H46.3258C47.6519 50.6704 48.9237 51.1972 49.8613 52.1349C50.799 53.0726 51.3258 54.3443 51.3258 55.6704C51.338 55.8491 51.3148 56.0284 51.2576 56.1981C51.2003 56.3678 51.11 56.5245 50.992 56.6593C50.874 56.794 50.7306 56.9041 50.5699 56.9832C50.4093 57.0624 50.2345 57.109 50.0558 57.1204Z" fill="#B80000"/>
<path d="M34.9157 53.3905H29.9157C29.5699 53.3853 29.2397 53.2457 28.9951 53.0011C28.7506 52.7565 28.6109 52.4263 28.6057 52.0805V40.8205C28.6057 40.4731 28.7437 40.1399 28.9894 39.8942C29.2351 39.6485 29.5683 39.5105 29.9157 39.5105C30.2631 39.5105 30.5964 39.6485 30.842 39.8942C31.0877 40.1399 31.2257 40.4731 31.2257 40.8205V50.8205H33.7457V40.8205C33.7744 40.4915 33.9254 40.1853 34.1688 39.9622C34.4123 39.7391 34.7305 39.6153 35.0607 39.6153C35.3909 39.6153 35.7092 39.7391 35.9526 39.9622C36.196 40.1853 36.347 40.4915 36.3757 40.8205V52.0805C36.3282 52.4369 36.155 52.7647 35.8874 53.0049C35.6197 53.245 35.2752 53.3817 34.9157 53.3905Z" fill="#B80000"/>
<path d="M34.9158 11.7004C34.57 11.6952 34.2398 11.5556 33.9952 11.311C33.7507 11.0664 33.611 10.7362 33.6058 10.3904V6.66041C33.6058 6.31297 33.4678 5.97977 33.2221 5.7341C32.9765 5.48842 32.6433 5.35041 32.2958 5.35041C31.9484 5.35041 31.6152 5.48842 31.3695 5.7341C31.1238 5.97977 30.9858 6.31297 30.9858 6.66041V10.4904C30.9571 10.8194 30.8061 11.1256 30.5627 11.3487C30.3193 11.5719 30.001 11.6956 29.6708 11.6956C29.3406 11.6956 29.0224 11.5719 28.779 11.3487C28.5355 11.1256 28.3845 10.8194 28.3558 10.4904V6.66041C28.3293 6.14031 28.4088 5.62025 28.5895 5.13185C28.7702 4.64344 29.0484 4.1969 29.4071 3.81939C29.7659 3.44187 30.1976 3.14127 30.6762 2.93585C31.1547 2.73044 31.6701 2.62451 32.1908 2.62451C32.7116 2.62451 33.2269 2.73044 33.7055 2.93585C34.184 3.14127 34.6158 3.44187 34.9745 3.81939C35.3332 4.1969 35.6114 4.64344 35.7922 5.13185C35.9729 5.62025 36.0524 6.14031 36.0258 6.66041V10.4904C36.2358 11.1004 35.6258 11.7004 34.9158 11.7004Z" fill="#B80000"/>
<path d="M34.9157 29.3704C34.569 29.3627 34.2388 29.2208 33.9944 28.9747C33.7501 28.7285 33.6108 28.3972 33.6057 28.0504V23.0504C33.6344 22.7215 33.7854 22.4152 34.0288 22.1921C34.2723 21.969 34.5905 21.8452 34.9207 21.8452C35.2509 21.8452 35.5692 21.969 35.8126 22.1921C36.056 22.4152 36.207 22.7215 36.2357 23.0504V28.0504C36.2281 28.3981 36.0865 28.7294 35.8406 28.9754C35.5947 29.2213 35.2634 29.3628 34.9157 29.3704Z" fill="#B80000"/>
<path d="M29.8759 29.3707C29.5292 29.363 29.199 29.2211 28.9547 28.975C28.7104 28.7288 28.571 28.3975 28.5659 28.0507V23.0507C28.5659 22.7033 28.7039 22.3701 28.9496 22.1244C29.1953 21.8787 29.5285 21.7407 29.8759 21.7407C30.2234 21.7407 30.5566 21.8787 30.8022 22.1244C31.0479 22.3701 31.1859 22.7033 31.1859 23.0507V28.0507C31.1808 28.3975 31.0415 28.7288 30.7972 28.975C30.5529 29.2211 30.2226 29.363 29.8759 29.3707Z" fill="#B80000"/>
<path d="M48.8458 24.3204H14.7358C14.389 24.3153 14.0577 24.176 13.8115 23.9317C13.5654 23.6874 13.4235 23.3572 13.4158 23.0104V10.4904C13.4235 10.1437 13.5654 9.81346 13.8115 9.56916C14.0577 9.32485 14.389 9.18551 14.7358 9.18042H48.8458C49.0614 9.20101 49.2698 9.26932 49.4558 9.38042L60.8558 15.7404C61.05 15.8433 61.2107 15.9997 61.3189 16.1911C61.427 16.3825 61.478 16.6009 61.4658 16.8204C61.4839 17.0448 61.4358 17.2696 61.3274 17.467C61.2189 17.6643 61.0549 17.8254 60.8558 17.9304L49.4558 24.3204C49.2558 24.2204 49.0458 24.3204 48.8458 24.3204ZM16.0458 21.8204H48.5458L57.6258 16.7704L48.5458 11.7704H16.0458V21.8204Z" fill="#B80000"/>
<path d="M48.8458 41.9807H14.7358C14.5198 41.9739 14.3081 41.9193 14.1158 41.8207L2.7258 35.4207C2.3158 35.3207 2.1158 34.9207 2.1158 34.4207C2.09766 34.1963 2.14579 33.9715 2.25422 33.7742C2.36266 33.5769 2.52663 33.4157 2.7258 33.3107L14.1158 26.9407C14.3018 26.8296 14.5101 26.7613 14.7258 26.7407H48.7258C49.0716 26.7459 49.4018 26.8856 49.6464 27.1301C49.891 27.3747 50.0306 27.7049 50.0358 28.0507V40.6707C50.0372 40.9983 49.9158 41.3146 49.6955 41.5571C49.4752 41.7996 49.172 41.9507 48.8458 41.9807ZM15.0358 39.4607H47.5358V29.3707H15.0358L5.9558 34.3707L15.0358 39.4607Z" fill="#B80000"/>
<path d="M32.3958 16.7504H19.7758C19.4468 16.7216 19.1406 16.5707 18.9174 16.3272C18.6943 16.0838 18.5706 15.7656 18.5706 15.4354C18.5706 15.1051 18.6943 14.7869 18.9174 14.5435C19.1406 14.3 19.4468 14.1491 19.7758 14.1204H32.3958C32.7247 14.1491 33.031 14.3 33.2541 14.5435C33.4772 14.7869 33.601 15.1051 33.601 15.4354C33.601 15.7656 33.4772 16.0838 33.2541 16.3272C33.031 16.5707 32.7247 16.7216 32.3958 16.7504Z" fill="#B80000"/>
<path d="M36.2358 20.5804H31.2358C30.8883 20.5804 30.5551 20.4424 30.3095 20.1968C30.0638 19.9511 29.9258 19.6179 29.9258 19.2704C29.9258 18.923 30.0638 18.5898 30.3095 18.3441C30.5551 18.0985 30.8883 17.9604 31.2358 17.9604H36.2358C36.5808 17.9681 36.9096 18.1086 37.1536 18.3526C37.3977 18.5966 37.5381 18.9254 37.5458 19.2704C37.5224 19.6102 37.3769 19.93 37.1361 20.1708C36.8953 20.4116 36.5755 20.5571 36.2358 20.5804Z" fill="#B80000"/>
<path d="M43.8057 38.2504H31.1857C30.8567 38.2216 30.5505 38.0707 30.3274 37.8272C30.1042 37.5838 29.9805 37.2656 29.9805 36.9354C29.9805 36.6051 30.1042 36.2869 30.3274 36.0435C30.5505 35.8 30.8567 35.6491 31.1857 35.6204H43.8057C44.1524 35.6281 44.4826 35.7699 44.7269 36.0161C44.9713 36.2623 45.1106 36.5936 45.1157 36.9404C45.0903 37.2794 44.9441 37.598 44.7037 37.8384C44.4634 38.0788 44.1447 38.225 43.8057 38.2504Z" fill="#B80000"/>
<path d="M32.3959 34.4104H27.3459C27.0001 34.4052 26.6699 34.2655 26.4253 34.021C26.1807 33.7764 26.0411 33.4462 26.0359 33.1004C26.041 32.9345 26.0791 32.7712 26.148 32.6202C26.2169 32.4691 26.3152 32.3333 26.4372 32.2207C26.5591 32.108 26.7023 32.0208 26.8583 31.9641C27.0143 31.9074 27.1801 31.8823 27.3459 31.8904H32.3959C32.7417 31.8955 33.0719 32.0352 33.3165 32.2798C33.5611 32.5243 33.7007 32.8546 33.7059 33.2004C33.7021 33.3667 33.6649 33.5306 33.5965 33.6823C33.5281 33.834 33.4298 33.9704 33.3076 34.0833C33.1853 34.1962 33.0416 34.2833 32.885 34.3395C32.7284 34.3957 32.562 34.4198 32.3959 34.4104Z" fill="#B80000"/>
</svg>
