<svg width="64" height="64" viewBox="0 0 64 64" fill="none" xmlns="http://www.w3.org/2000/svg">
<path d="M46.5619 28.8261H23.8419V32.9561C23.8419 34.5085 23.2259 35.9975 22.1291 37.0962C21.0323 38.1949 19.5443 38.8134 17.9919 38.8161H6.90188C4.79143 42.2441 3.67331 46.1904 3.67188 50.2161H59.1819V28.7161H46.5619V28.8261Z" fill="#F9C801"/>
<path d="M49.092 33.8661H44.042V38.9161H49.092V33.8661Z" fill="white"/>
<path d="M39.0019 33.8661H33.9519V38.9161H39.0019V33.8661Z" fill="white"/>
<path d="M54.1418 33.8661H49.0918V38.9161H54.1418V33.8661Z" fill="white"/>
<path d="M44.0419 33.8661H38.9919V38.9161H44.0419V33.8661Z" fill="white"/>
<path d="M33.9519 33.8661H28.9019V38.9161H33.9519V33.8661Z" fill="white"/>
<path d="M23.8419 28.8261V32.9561C23.8419 34.5085 23.2258 35.9975 22.129 37.0962C21.0322 38.1949 19.5443 38.8134 17.9919 38.8161H6.90186C7.78407 37.4483 8.78816 36.163 9.90186 34.9761C13.6498 31.3047 18.6035 29.1193 23.8419 28.8261Z" fill="white"/>
<path d="M59.1818 16.2061V28.8261H46.5618V16.2061C46.5598 14.9541 46.9279 13.7295 47.6199 12.6862C48.3119 11.6428 49.2969 10.8273 50.451 10.3422C51.6051 9.85701 52.8769 9.72383 54.1065 9.95939C55.3361 10.195 56.4687 10.7887 57.3618 11.6661C58.5293 12.8893 59.181 14.5151 59.1818 16.2061Z" fill="white"/>
<path d="M18.802 42.6461H16.282V45.1661H18.802V42.6461Z" fill="black"/>
<path d="M15.072 42.6461H12.552V45.1661H15.072V42.6461Z" fill="black"/>
<path d="M11.2319 42.6461H8.71191V45.1661H11.2319V42.6461Z" fill="black"/>
<path d="M59.1819 29.6701C58.83 29.6701 58.4921 29.5341 58.2414 29.2913C57.9907 29.0486 57.8472 28.7186 57.8419 28.3727V16.0766C57.8503 15.4258 57.7194 14.7806 57.4575 14.1829C57.1956 13.5851 56.8087 13.0482 56.3219 12.607C55.3997 11.6889 54.1539 11.1541 52.8419 11.113C51.5158 11.113 50.2441 11.6308 49.3064 12.5524C48.3687 13.4741 47.8419 14.7241 47.8419 16.0275V28.4808C47.8419 28.8223 47.7039 29.1498 47.4582 29.3913C47.2126 29.6327 46.8794 29.7684 46.5319 29.7684C46.1845 29.7684 45.8513 29.6327 45.6056 29.3913C45.3599 29.1498 45.2219 28.8223 45.2219 28.4808V16.0766C45.2219 14.1033 46.0195 12.2107 47.4391 10.8154C48.8588 9.41999 50.7842 8.63608 52.7919 8.63608C54.7996 8.63608 56.7251 9.41999 58.1447 10.8154C59.5644 12.2107 60.3619 14.1033 60.3619 16.0766V28.4808C60.4919 29.0705 59.8919 29.6701 59.1819 29.6701Z" fill="black"/>
<path d="M33.9518 40.1261H28.9018C28.556 40.1209 28.2258 39.9812 27.9812 39.7367C27.7366 39.4921 27.597 39.1619 27.5918 38.8161V33.7661C27.597 33.4203 27.7366 33.09 27.9812 32.8455C28.2258 32.6009 28.556 32.4612 28.9018 32.4561H33.9518C34.2992 32.4561 34.6324 32.5941 34.8781 32.8398C35.1238 33.0854 35.2618 33.4187 35.2618 33.7661C35.2618 34.1135 35.1238 34.4467 34.8781 34.6924C34.6324 34.9381 34.2992 35.0761 33.9518 35.0761H30.1118V37.6061H33.9518C34.2976 37.6112 34.6278 37.7509 34.8724 37.9955C35.117 38.24 35.2566 38.5703 35.2618 38.9161C35.2567 39.082 35.2186 39.2453 35.1497 39.3963C35.0808 39.5473 34.9825 39.6832 34.8605 39.7958C34.7386 39.9084 34.5954 39.9957 34.4394 40.0524C34.2834 40.1091 34.1176 40.1341 33.9518 40.1261Z" fill="black"/>
<path d="M38.9919 40.1261H33.9919C33.6451 40.121 33.3138 39.9816 33.0676 39.7373C32.8215 39.493 32.6796 39.1628 32.6719 38.8161V33.7661C32.6796 33.4194 32.8215 33.0891 33.0676 32.8448C33.3138 32.6005 33.6451 32.4612 33.9919 32.4561H38.9919C39.3393 32.4561 39.6725 32.5941 39.9182 32.8398C40.1639 33.0854 40.3019 33.4187 40.3019 33.7661C40.3019 34.1135 40.1639 34.4467 39.9182 34.6924C39.6725 34.9381 39.3393 35.0761 38.9919 35.0761H35.1619V37.6061H38.9919C39.3387 37.6112 39.67 37.7505 39.9161 37.9948C40.1623 38.2391 40.3041 38.5694 40.3119 38.9161C40.3068 39.0829 40.2684 39.247 40.1989 39.3987C40.1293 39.5505 40.0301 39.6867 39.9071 39.7995C39.7841 39.9123 39.6397 39.9993 39.4825 40.0554C39.3253 40.1115 39.1585 40.1355 38.9919 40.1261Z" fill="black"/>
<path d="M44.0419 40.1261H38.9919C38.6461 40.1209 38.3158 39.9812 38.0713 39.7367C37.8267 39.4921 37.687 39.1619 37.6819 38.8161V33.7661C37.6895 33.4211 37.83 33.0923 38.074 32.8482C38.3181 32.6042 38.6469 32.4637 38.9919 32.4561H44.0419C44.3893 32.4561 44.7225 32.5941 44.9682 32.8398C45.2139 33.0854 45.3519 33.4187 45.3519 33.7661C45.3519 34.1135 45.2139 34.4467 44.9682 34.6924C44.7225 34.9381 44.3893 35.0761 44.0419 35.0761H40.2019V37.6061H44.0419C44.3877 37.6112 44.7179 37.7509 44.9625 37.9955C45.207 38.24 45.3467 38.5703 45.3519 38.9161C45.3481 39.0824 45.3109 39.2463 45.2425 39.398C45.1741 39.5497 45.0758 39.6861 44.9536 39.799C44.8313 39.9119 44.6876 39.999 44.531 40.0552C44.3744 40.1114 44.208 40.1355 44.0419 40.1261Z" fill="black"/>
<path d="M49.092 40.1261H44.092C43.7462 40.1209 43.4159 39.9812 43.1714 39.7367C42.9268 39.4921 42.7871 39.1619 42.782 38.8161V33.7661C42.7871 33.4203 42.9268 33.09 43.1714 32.8455C43.4159 32.6009 43.7462 32.4612 44.092 32.4561H49.092C49.4394 32.4561 49.7726 32.5941 50.0183 32.8398C50.264 33.0854 50.402 33.4187 50.402 33.7661C50.402 34.1135 50.264 34.4467 50.0183 34.6924C49.7726 34.9381 49.4394 35.0761 49.092 35.0761H45.252V37.6061H49.092C49.4378 37.6112 49.768 37.7509 50.0126 37.9955C50.2571 38.24 50.3968 38.5703 50.402 38.9161C50.3969 39.082 50.3587 39.2453 50.2899 39.3963C50.221 39.5473 50.1227 39.6832 50.0007 39.7958C49.8788 39.9084 49.7356 39.9957 49.5796 40.0524C49.4236 40.1091 49.2578 40.1341 49.092 40.1261Z" fill="black"/>
<path d="M54.1318 40.1261H49.1318C48.785 40.121 48.4537 39.9816 48.2075 39.7373C47.9614 39.493 47.8195 39.1628 47.8118 38.8161V33.7661C47.8195 33.4194 47.9614 33.0891 48.2075 32.8448C48.4537 32.6005 48.785 32.4612 49.1318 32.4561H54.1318C54.4785 32.4612 54.8098 32.6005 55.056 32.8448C55.3022 33.0891 55.444 33.4194 55.4518 33.7661V38.8161C55.444 39.1628 55.3022 39.493 55.056 39.7373C54.8098 39.9816 54.4785 40.121 54.1318 40.1261ZM50.4018 37.6061H52.9218V35.0761H50.4018V37.6061Z" fill="black"/>
<path d="M59.1819 45.1761H21.3319C21.003 45.1474 20.6967 44.9964 20.4736 44.753C20.2505 44.5095 20.1267 44.1913 20.1267 43.8611C20.1267 43.5309 20.2505 43.2126 20.4736 42.9692C20.6967 42.7258 21.003 42.5748 21.3319 42.5461H59.1819C59.5109 42.5748 59.8171 42.7258 60.0403 42.9692C60.2634 43.2126 60.3871 43.5309 60.3871 43.8611C60.3871 44.1913 60.2634 44.5095 60.0403 44.753C59.8171 44.9964 59.5109 45.1474 59.1819 45.1761Z" fill="black"/>
<path d="M18.0018 40.1261H6.9018C6.55436 40.1261 6.22116 39.9881 5.97549 39.7424C5.72981 39.4967 5.5918 39.1635 5.5918 38.8161C5.5918 38.4686 5.72981 38.1354 5.97549 37.8898C6.22116 37.6441 6.55436 37.5061 6.9018 37.5061H17.9018C19.1293 37.4905 20.3019 36.9952 21.169 36.1263C22.0361 35.2573 22.5288 34.0836 22.5418 32.8561V28.7161C22.5705 28.3871 22.7215 28.0809 22.9649 27.8577C23.2084 27.6346 23.5266 27.5109 23.8568 27.5109C24.187 27.5109 24.5052 27.6346 24.7487 27.8577C24.9921 28.0809 25.1431 28.3871 25.1718 28.7161V32.8561C25.1784 33.8042 24.9982 34.7444 24.6414 35.6229C24.2846 36.5014 23.7583 37.301 23.0925 37.9761C22.4267 38.6512 21.6345 39.1885 20.761 39.5574C19.8875 39.9263 18.9499 40.1195 18.0018 40.1261Z" fill="black"/>
<path d="M59.1818 51.5361H3.67181C3.32412 51.5284 2.9928 51.3869 2.74689 51.141C2.50098 50.8951 2.35945 50.5638 2.35181 50.2161C2.38658 45.9677 3.59433 41.8115 5.84181 38.2061C6.77081 36.76 7.8538 35.4188 9.07181 34.2061C13.0215 30.286 18.2501 27.9184 23.8018 27.5361H59.0818C59.4285 27.5438 59.7588 27.6857 60.0031 27.9318C60.2474 28.178 60.3867 28.5093 60.3918 28.8561V50.2161C60.4104 50.3846 60.3927 50.5552 60.34 50.7163C60.2873 50.8775 60.2008 51.0255 60.0862 51.1505C59.9716 51.2755 59.8316 51.3745 59.6757 51.441C59.5197 51.5075 59.3513 51.5399 59.1818 51.5361ZM4.98181 49.0061H57.9818V30.0061H23.9818C19.0394 30.3309 14.3773 32.4171 10.8418 35.8861C9.75772 36.9806 8.81076 38.2029 8.02181 39.5261C6.20195 42.3682 5.15419 45.6356 4.98181 49.0061Z" fill="black"/>
<path d="M60.4919 55.2761H2.49188C2.14445 55.2761 1.81125 55.1381 1.56557 54.8924C1.3199 54.6467 1.18188 54.3135 1.18188 53.9661C1.18188 53.6186 1.3199 53.2854 1.56557 53.0398C1.81125 52.7941 2.14445 52.6561 2.49188 52.6561H60.4919C60.8429 52.6507 61.1819 52.7844 61.4348 53.0279C61.6877 53.2714 61.834 53.6051 61.8419 53.9561C61.8039 54.2982 61.6487 54.6166 61.4026 54.8572C61.1566 55.0978 60.8347 55.2458 60.4919 55.2761Z" fill="black"/>
</svg>
