<svg width="57" height="62" viewBox="0 0 57 62" fill="none" xmlns="http://www.w3.org/2000/svg">
<g clip-path="url(#clip0_80_11698)">
<path d="M14.8844 45.596L23.6549 50.6231L25.7444 50.8928L25.3718 27.9548L27.341 25.8792L31.5986 26.6243V33.5429L35.1644 30.669L41.0186 32.1592L32.3437 40.1422V50.6231L35.4305 49.9348L43.3603 44.5595L47.4583 33.809L46.181 24.389L39.5817 16.6188L40.4864 12.6805L38.464 6.56019L33.4613 2.9412L28.4054 1.87695L22.1254 3.84611C20.7813 5.81928 18.0931 9.91536 18.0931 10.5143V15.862C17.0235 17.0385 14.7774 19.52 14.3496 20.0334C13.8148 20.6752 9.85742 27.8413 9.85742 28.483C9.85742 29.1247 10.3922 36.7187 10.4992 37.3604C10.5847 37.8738 13.4583 43.0647 14.8844 45.596Z" fill="#F9C801"/>
<path d="M55.3961 58.5889H47.8361V53.5889C47.8361 53.2414 47.698 52.9082 47.4524 52.6626C47.2067 52.4169 46.8735 52.2789 46.5261 52.2789C46.1786 52.2789 45.8454 52.4169 45.5997 52.6626C45.3541 52.9082 45.2161 53.2414 45.2161 53.5889V58.5889H40.2161V56.0389C40.2161 55.6914 40.078 55.3582 39.8324 55.1126C39.5867 54.8669 39.2535 54.7289 38.9061 54.7289C38.5586 54.7289 38.2254 54.8669 37.9797 55.1126C37.7341 55.3582 37.5961 55.6914 37.5961 56.0389V58.5889H33.1161V51.8089C36.8504 50.9565 40.2654 49.06 42.9628 46.3404C45.6602 43.6209 47.5288 40.1905 48.3506 36.4493C49.1724 32.7082 48.9136 28.8104 47.6044 25.2108C46.2951 21.6111 43.9893 18.4579 40.9561 16.1189C41.3155 15.1851 41.4855 14.189 41.4561 13.1889C41.4561 9.84714 40.1286 6.64228 37.7656 4.27932C35.4026 1.91636 32.1978 0.588867 28.8561 0.588867C25.5143 0.588867 22.3095 1.91636 19.9465 4.27932C17.5835 6.64228 16.2561 9.84714 16.2561 13.1889C16.2568 14.1732 16.3573 15.1548 16.5561 16.1189C13.5189 18.4571 11.2101 21.6116 9.89957 25.2135C8.58901 28.8154 8.33082 32.716 9.1552 36.4593C9.97957 40.2025 11.8524 43.6338 14.5549 46.3519C17.2573 49.0701 20.6776 50.9628 24.4161 51.8089V58.5889H18.8061V53.5889C18.7984 53.2438 18.6579 52.9151 18.4139 52.671C18.1699 52.427 17.8411 52.2865 17.4961 52.2789C17.3301 52.284 17.1669 52.3221 17.0158 52.391C16.8648 52.4599 16.729 52.5582 16.6163 52.6801C16.5037 52.8021 16.4165 52.9452 16.3598 53.1013C16.3031 53.2573 16.278 53.4231 16.2861 53.5889V58.5889H12.5461V56.0389C12.5461 55.6914 12.408 55.3582 12.1624 55.1126C11.9167 54.8669 11.5835 54.7289 11.2361 54.7289C10.8886 54.7289 10.5554 54.8669 10.3097 55.1126C10.0641 55.3582 9.92605 55.6914 9.92605 56.0389V58.5889H8.61605V48.4789C8.61089 48.133 8.47122 47.8028 8.22666 47.5583C7.98209 47.3137 7.65188 47.174 7.30605 47.1689C7.14012 47.174 6.97687 47.2121 6.82583 47.281C6.67479 47.3499 6.53899 47.4482 6.42635 47.5701C6.31371 47.6921 6.22649 47.8352 6.16978 47.9913C6.11307 48.1473 6.08801 48.3131 6.09605 48.4789V58.5889H2.26605C1.91862 58.5889 1.58542 58.7269 1.33974 58.9726C1.09407 59.2182 0.956055 59.5514 0.956055 59.8989C0.956055 60.2463 1.09407 60.5795 1.33974 60.8252C1.58542 61.0709 1.91862 61.2089 2.26605 61.2089H55.1961C55.5419 61.2037 55.8721 61.064 56.1167 60.8195C56.3612 60.5749 56.5009 60.2447 56.5061 59.8989C56.5255 59.7388 56.5117 59.5765 56.4654 59.422C56.4191 59.2676 56.3415 59.1244 56.2372 59.0014C56.133 58.8784 56.0045 58.7782 55.8597 58.7072C55.715 58.6363 55.5571 58.596 55.3961 58.5889ZM11.2361 32.1489C11.2327 29.3114 11.9202 26.5157 13.2391 24.0034C14.558 21.491 16.4686 19.3375 18.8061 17.7289C19.0063 17.5588 19.158 17.3388 19.2458 17.0912C19.3337 16.8435 19.3544 16.5771 19.3061 16.3189C18.997 15.3479 18.8286 14.3376 18.8061 13.3189C18.8845 10.7016 19.9784 8.21752 21.8561 6.39254C23.7339 4.56755 26.248 3.54487 28.8665 3.54097C31.485 3.53708 34.0022 4.55226 35.8854 6.37165C37.7685 8.19103 38.8698 10.6718 38.9561 13.2889C38.9335 14.3076 38.7651 15.3179 38.4561 16.2889C38.3575 16.5449 38.3537 16.8277 38.4454 17.0863C38.5371 17.3448 38.7182 17.5621 38.9561 17.6989C41.7332 19.6144 43.9002 22.2889 45.1981 25.403C46.496 28.5171 46.8699 31.939 46.2751 35.2598C45.6803 38.5807 44.142 41.6601 41.844 44.1301C39.546 46.6001 36.5854 48.3563 33.3161 49.1889V41.1189L42.3961 32.9489C42.582 32.7923 42.7186 32.5854 42.7896 32.353C42.8606 32.1205 42.8628 31.8725 42.7961 31.6389C42.7422 31.4042 42.6173 31.1918 42.4384 31.0308C42.2594 30.8697 42.0351 30.7678 41.7961 30.7389L35.4361 29.5889C35.241 29.5371 35.0357 29.5375 34.8409 29.5902C34.646 29.6428 34.4685 29.7459 34.3261 29.8889L33.3261 30.8889V28.8889C33.2719 27.7491 32.781 26.6739 31.9552 25.8864C31.1294 25.0989 30.0321 24.6595 28.8911 24.6595C27.75 24.6595 26.6527 25.0989 25.8269 25.8864C25.0011 26.6739 24.5102 27.7491 24.4561 28.8889V49.1889C20.6746 48.2172 17.3235 46.0158 14.9303 42.931C12.537 39.8462 11.2374 36.0532 11.2361 32.1489ZM26.9561 58.5889V28.9189C26.9561 28.6672 27.0058 28.418 27.1024 28.1856C27.199 27.9532 27.3406 27.7422 27.519 27.5647C27.6974 27.3873 27.9092 27.2468 28.1421 27.1514C28.3749 27.056 28.6244 27.0075 28.8761 27.0089C29.1295 26.999 29.3823 27.0417 29.6185 27.1342C29.8546 27.2267 30.0692 27.367 30.2485 27.5464C30.4279 27.7258 30.5682 27.9403 30.6607 28.1765C30.7532 28.4126 30.7959 28.6654 30.7861 28.9189V33.9189C30.7862 34.1781 30.8633 34.4314 31.0075 34.6468C31.1516 34.8622 31.3565 35.0299 31.5961 35.1289C31.8333 35.2306 32.0962 35.2563 32.3487 35.2026C32.6011 35.1489 32.8308 35.0183 33.0061 34.8289L35.7261 32.1089L38.9561 32.7089L31.4061 39.5889C31.2708 39.6975 31.1632 39.8365 31.0919 39.9947C31.0206 40.1528 30.9878 40.3256 30.9961 40.4989V58.5889H26.9561Z" fill="#B80000"/>
<path d="M30.9562 19.5889C30.7951 19.6395 30.6459 19.7223 30.5177 19.8321C30.3894 19.9419 30.2848 20.0766 30.21 20.228C30.1353 20.3794 30.0919 20.5444 30.0827 20.713C30.0734 20.8816 30.0984 21.0503 30.1562 21.2089C30.2044 21.3705 30.2853 21.5204 30.3939 21.6494C30.5025 21.7783 30.6365 21.8836 30.7874 21.9586C30.9384 22.0336 31.1032 22.0768 31.2716 22.0855C31.4399 22.0941 31.6083 22.0681 31.7662 22.0089L34.4862 21.1089L35.3362 22.5889C35.499 22.8696 35.7615 23.0785 36.0715 23.1742C36.3815 23.2699 36.7161 23.2453 37.0088 23.1053C37.3014 22.9653 37.5305 22.7201 37.6505 22.4187C37.7705 22.1173 37.7725 21.7818 37.6562 21.4789L36.3462 18.9589C36.2192 18.6844 35.9924 18.4685 35.7119 18.3552C35.4314 18.2419 35.1183 18.2396 34.8362 18.3489L30.9562 19.5889Z" fill="#B80000"/>
<path d="M27.7762 17.529C27.8871 17.7298 28.0471 17.8993 28.2411 18.0217C28.4352 18.1441 28.6571 18.2154 28.8862 18.229C29.0932 18.2162 29.294 18.1529 29.4709 18.0446C29.6478 17.9362 29.7955 17.7863 29.9011 17.6077C30.0066 17.4291 30.0669 17.2274 30.0765 17.0202C30.0861 16.813 30.0448 16.6065 29.9562 16.419L28.6462 13.899C28.5172 13.6237 28.2885 13.4076 28.0064 13.2943C27.7243 13.1811 27.4097 13.1792 27.1262 13.289L23.3362 14.589C23.1742 14.6383 23.0242 14.7203 22.8951 14.8299C22.7661 14.9394 22.6609 15.0743 22.5859 15.226C22.511 15.3778 22.4679 15.5433 22.4594 15.7124C22.4508 15.8814 22.4769 16.0504 22.5362 16.209C22.5844 16.3705 22.6653 16.5204 22.7739 16.6494C22.8825 16.7783 23.0164 16.8836 23.1674 16.9586C23.3184 17.0336 23.4832 17.0768 23.6516 17.0855C23.8199 17.0941 23.9883 17.0681 24.1462 17.009L26.8662 16.109L27.7762 17.529Z" fill="#B80000"/>
<path d="M29.2859 10.5888L32.0059 9.67883L32.8159 11.1988C32.9787 11.4794 33.2413 11.6884 33.5513 11.7841C33.8612 11.8798 34.1959 11.8552 34.4885 11.7152C34.7812 11.5752 35.0103 11.33 35.1303 11.0286C35.2503 10.7272 35.2523 10.3917 35.1359 10.0888L33.8259 7.58883C33.6989 7.31426 33.4721 7.09838 33.1916 6.98507C32.9111 6.87176 32.598 6.86953 32.3159 6.97883L28.4759 8.24883C28.3149 8.29943 28.1657 8.38215 28.0375 8.49198C27.9092 8.60182 27.8046 8.7365 27.7298 8.88789C27.655 9.03928 27.6117 9.20425 27.6025 9.37285C27.5932 9.54144 27.6182 9.71016 27.6759 9.86883C27.7275 10.0268 27.8116 10.1721 27.9227 10.2956C28.0339 10.4191 28.1697 10.5179 28.3213 10.5857C28.473 10.6535 28.6372 10.6889 28.8033 10.6894C28.9694 10.6899 29.1339 10.6557 29.2859 10.5888Z" fill="#B80000"/>
<path d="M21.826 24.9888L19.106 24.0788C18.8226 23.9914 18.5176 24.0043 18.2426 24.1154C17.9676 24.2265 17.7392 24.429 17.596 24.6888L15.876 28.3188C15.7872 28.5071 15.746 28.7144 15.7561 28.9223C15.7663 29.1303 15.8273 29.3326 15.934 29.5114C16.0407 29.6902 16.1897 29.84 16.368 29.9477C16.5462 30.0554 16.7481 30.1176 16.956 30.1288C17.1883 30.1288 17.4158 30.0631 17.6122 29.9392C17.8086 29.8153 17.966 29.6384 18.066 29.4288L19.376 26.7988L20.986 27.3088C21.1452 27.3678 21.3149 27.3936 21.4845 27.3844C21.654 27.3752 21.8199 27.3312 21.9718 27.2553C22.1237 27.1793 22.2583 27.073 22.3674 26.9429C22.4765 26.8127 22.5577 26.6616 22.606 26.4988C22.6684 26.3493 22.6972 26.188 22.6906 26.0262C22.684 25.8644 22.6421 25.706 22.5678 25.5621C22.4934 25.4182 22.3885 25.2924 22.2604 25.1933C22.1323 25.0943 21.984 25.0245 21.826 24.9888Z" fill="#B80000"/>
<path d="M21.1161 34.5889L18.3961 33.6789C18.1137 33.5925 17.8103 33.6049 17.5358 33.7139C17.2614 33.823 17.0322 34.0223 16.8861 34.2789L15.0761 37.7889C14.9889 37.9783 14.9497 38.1862 14.9619 38.3944C14.9741 38.6025 15.0373 38.8044 15.146 38.9823C15.2548 39.1602 15.4056 39.3086 15.5852 39.4144C15.7649 39.5202 15.9678 39.5801 16.1761 39.5889C16.4097 39.5893 16.6384 39.5225 16.8352 39.3967C17.032 39.2708 17.1885 39.0911 17.2861 38.8789L18.5961 36.2589L20.2161 36.7689C20.3748 36.8249 20.5432 36.8482 20.7112 36.8375C20.8792 36.8268 21.0432 36.7823 21.1936 36.7067C21.3439 36.6311 21.4774 36.5258 21.5861 36.3973C21.6948 36.2688 21.7765 36.1197 21.8261 35.9589C21.884 35.8233 21.9111 35.6765 21.9056 35.5291C21.9 35.3818 21.862 35.2375 21.7941 35.1065C21.7263 34.9756 21.6303 34.8613 21.5131 34.7718C21.3959 34.6823 21.2603 34.6199 21.1161 34.5889Z" fill="#B80000"/>
<path d="M41.2861 39.5891L38.5661 38.6791C38.2812 38.591 37.9747 38.6036 37.698 38.7146C37.4212 38.8257 37.1911 39.0285 37.0461 39.2891L35.2361 42.8091C35.1442 43.0001 35.1016 43.211 35.1122 43.4226C35.1227 43.6343 35.186 43.8399 35.2963 44.0208C35.4067 44.2018 35.5605 44.3522 35.7439 44.4584C35.9272 44.5647 36.1343 44.6233 36.3461 44.6291C36.5791 44.627 36.8069 44.5593 37.0032 44.4337C37.1995 44.3081 37.3565 44.1298 37.4561 43.9191L38.7661 41.2991L40.3761 41.8091C40.5316 41.8636 40.6964 41.8864 40.8609 41.876C41.0253 41.8656 41.186 41.8223 41.3333 41.7486C41.4807 41.6749 41.6118 41.5724 41.7188 41.447C41.8257 41.3217 41.9064 41.1762 41.9561 41.0191C42.0254 40.8834 42.0627 40.7337 42.0653 40.5814C42.0679 40.429 42.0356 40.2781 41.971 40.1402C41.9063 40.0022 41.811 39.8808 41.6923 39.7853C41.5736 39.6898 41.4347 39.6227 41.2861 39.5891Z" fill="#B80000"/>
</g>
<defs>
<clipPath id="clip0_80_11698">
<rect width="55.56" height="60.59" fill="white" transform="translate(0.956055 0.588867)"/>
</clipPath>
</defs>
</svg>
