<svg width="64" height="64" viewBox="0 0 64 64" fill="none" xmlns="http://www.w3.org/2000/svg">
<path d="M17.2498 32.7116C17.6938 33.3036 21.9856 38.7054 22.5032 39.1494L27.0173 43.5152H33.751L35.379 39.8894L37.7469 42.9233L41.2988 43.5152H47.6625V40.6293L42.8527 34.8576L48.2545 26.9399L47.1445 24.7199L39.0048 24.202L35.379 29.6778V25.7559L32.7891 23.61L25.3894 24.202L24.2794 26.9399L20.6535 24.202H14.7338L13.8459 26.9399C14.8326 28.6665 16.8946 32.2381 17.2498 32.7116Z" fill="#F9C801"/>
<mask id="path-2-inside-1_513_13429" fill="white">
<path fill-rule="evenodd" clip-rule="evenodd" d="M32.581 8.34791C45.6962 8.93888 55.8491 20.0499 55.2581 33.1651C54.6672 46.2803 43.5561 56.4332 30.4409 55.8422C17.3257 55.2513 7.17283 44.1402 7.7638 31.025C8.35477 17.9098 19.4658 7.75694 32.581 8.34791ZM32.4862 42.522H30.6218C30.6218 42.522 26.4947 42.772 22.8506 38.9923C18.8972 34.8737 15.4056 26.7041 15.4056 26.7041C15.4056 26.7041 15.1599 26.2211 15.4056 25.9118C15.6514 25.6025 16.3209 25.6025 16.3209 25.6025L20.7785 25.5728C21.0378 25.6187 21.2846 25.7183 21.5031 25.8652C21.6704 26.0066 21.8024 26.185 21.8887 26.3864C22.3785 27.5784 22.9446 28.7376 23.5836 29.8567C25.448 33.0771 26.3167 33.7804 26.948 33.4372C27.8718 32.933 27.5921 28.8864 27.5921 28.8864C27.5921 28.8864 27.6091 27.4203 27.1302 26.7677C26.7734 26.3678 26.2783 26.118 25.7447 26.0686C25.4947 26.0389 25.9057 25.4541 26.4396 25.1914C27.2404 24.7931 28.6387 24.7931 30.3336 24.7931H30.3337C31.0706 24.7649 31.8078 24.839 32.5243 25.0135C33.709 25.2974 33.6721 26.2147 33.5925 28.1913C33.5688 28.7811 33.5413 29.4653 33.5413 30.255C33.5413 30.434 33.536 30.6248 33.5306 30.8211C33.5027 31.8332 33.4709 32.9909 34.1345 33.4203C34.4777 33.6406 35.3125 33.4542 37.4015 29.9033C38.0724 28.7295 38.6545 27.5072 39.143 26.2465C39.2407 26.0462 39.3862 25.873 39.5667 25.7423C39.7534 25.6466 39.9646 25.6096 40.1727 25.6363L44.8676 25.6067C44.8676 25.6067 46.2701 25.4033 46.5074 26.0728C46.7447 26.7423 45.9778 28.3143 44.0625 30.8567C42.2415 33.2855 41.3561 34.1777 41.4392 34.9681C41.4997 35.5441 42.0747 36.0662 43.1769 37.0898C45.483 39.2275 46.0996 40.3559 46.2469 40.6254C46.259 40.6475 46.2679 40.6639 46.2744 40.6745C47.3083 42.3864 45.1303 42.522 45.1303 42.522L40.9608 42.5813C40.9608 42.5813 40.0667 42.7593 38.8845 41.95C38.2722 41.5278 37.675 40.8396 37.105 40.1828C36.2275 39.1716 35.4146 38.2349 34.7108 38.4584C33.5498 38.8271 33.5879 41.3313 33.5879 41.3313C33.594 41.6243 33.5048 41.9113 33.3337 42.1491C33.0945 42.3548 32.7994 42.4846 32.4862 42.522Z"/>
</mask>
<path d="M55.2581 33.1651L52.7607 33.0526L55.2581 33.1651ZM32.581 8.34791L32.6936 5.85045L32.581 8.34791ZM30.4409 55.8422L30.3284 58.3397L30.4409 55.8422ZM7.7638 31.025L10.2613 31.1376L7.7638 31.025ZM30.6218 42.522V40.022H30.5461L30.4706 40.0266L30.6218 42.522ZM32.4862 42.522V45.022H32.635L32.7827 45.0043L32.4862 42.522ZM22.8506 38.9923L21.047 40.7235L21.0508 40.7275L22.8506 38.9923ZM15.4056 26.7041L17.7045 25.7217L17.6717 25.6449L17.6338 25.5705L15.4056 26.7041ZM15.4056 25.9118L13.4482 24.3566L13.4482 24.3566L15.4056 25.9118ZM16.3209 25.6025V28.1024H16.3292L16.3375 28.1024L16.3209 25.6025ZM20.7785 25.5728L21.2145 23.1111L20.99 23.0713L20.7619 23.0729L20.7785 25.5728ZM21.5031 25.8652L23.1175 23.9563L23.0122 23.8672L22.8976 23.7903L21.5031 25.8652ZM21.8887 26.3864L24.2011 25.4362L24.1938 25.4185L24.1863 25.4009L21.8887 26.3864ZM23.5836 29.8567L21.4126 31.0963L21.4163 31.1028L21.4201 31.1093L23.5836 29.8567ZM26.948 33.4372L28.1421 35.6336L28.1459 35.6316L26.948 33.4372ZM27.5921 28.8864L25.0923 28.8575L25.0911 28.9582L25.0981 29.0587L27.5921 28.8864ZM27.1302 26.7677L29.1458 25.2887L29.0752 25.1925L28.9957 25.1034L27.1302 26.7677ZM25.7447 26.0686L25.4501 28.5511L25.4821 28.5549L25.5142 28.5579L25.7447 26.0686ZM26.4396 25.1914L27.5433 27.4346L27.5529 27.4299L26.4396 25.1914ZM30.3337 24.7931V27.2931H30.3816L30.4294 27.2913L30.3337 24.7931ZM32.5243 25.0135L31.933 27.4425L31.9417 27.4446L32.5243 25.0135ZM33.5925 28.1913L31.0946 28.0908V28.0908L33.5925 28.1913ZM33.5306 30.8211L31.0316 30.7523V30.7523L33.5306 30.8211ZM34.1345 33.4203L32.7764 35.5192L32.7839 35.5241L34.1345 33.4203ZM37.4015 29.9033L39.5562 31.171L39.5642 31.1575L39.5719 31.1439L37.4015 29.9033ZM39.143 26.2465L36.8957 25.1512L36.8498 25.2455L36.8119 25.3433L39.143 26.2465ZM39.5667 25.7423L38.4259 23.5177L38.2557 23.6051L38.1007 23.7172L39.5667 25.7423ZM40.1727 25.6363L39.8543 28.116L40.0207 28.1374L40.1885 28.1363L40.1727 25.6363ZM44.8676 25.6067L44.8834 28.1066L45.0558 28.1055L45.2264 28.0808L44.8676 25.6067ZM46.5074 26.0728L44.1511 26.908V26.908L46.5074 26.0728ZM44.0625 30.8567L42.0657 29.3524L42.0623 29.357L44.0625 30.8567ZM41.4392 34.9681L43.9255 34.7068V34.7068L41.4392 34.9681ZM43.1769 37.0898L41.4757 38.9216L41.4773 38.9232L43.1769 37.0898ZM46.2469 40.6254L44.0531 41.8242L44.0532 41.8244L46.2469 40.6254ZM46.2744 40.6745L48.4144 39.3821L48.4122 39.3785L46.2744 40.6745ZM45.1303 42.522L45.1659 45.0217L45.2258 45.0209L45.2857 45.0172L45.1303 42.522ZM40.9608 42.5813L40.9252 40.0816L40.6968 40.0848L40.4728 40.1294L40.9608 42.5813ZM38.8845 41.95L37.4656 44.0083L37.4723 44.0129L38.8845 41.95ZM37.105 40.1828L35.2168 41.8214H35.2168L37.105 40.1828ZM34.7108 38.4584L35.4674 40.8412H35.4674L34.7108 38.4584ZM33.5879 41.3313L31.0882 41.3694L31.0883 41.3765L31.0885 41.3836L33.5879 41.3313ZM33.3337 42.1491L34.9635 44.0448L35.1891 43.8508L35.3629 43.6093L33.3337 42.1491ZM57.7556 33.2777C58.4087 18.7832 47.1881 6.50357 32.6936 5.85045L32.4685 10.8454C44.2044 11.3742 53.2895 21.3167 52.7607 33.0526L57.7556 33.2777ZM30.3284 58.3397C44.8229 58.9928 57.1025 47.7722 57.7556 33.2777L52.7607 33.0526C52.2319 44.7885 42.2894 53.8736 30.5535 53.3448L30.3284 58.3397ZM5.26635 30.9125C4.61322 45.407 15.8339 57.6866 30.3284 58.3397L30.5535 53.3448C18.8176 52.816 9.73244 42.8735 10.2613 31.1376L5.26635 30.9125ZM32.6936 5.85045C18.199 5.19733 5.91947 16.418 5.26635 30.9125L10.2613 31.1376C10.7901 19.4017 20.7326 10.3165 32.4685 10.8454L32.6936 5.85045ZM30.6218 45.022H32.4862V40.022H30.6218V45.022ZM21.0508 40.7275C23.2348 42.9928 25.5955 44.0767 27.4384 44.5846C28.355 44.8373 29.1426 44.9476 29.72 44.994C30.0093 45.0172 30.2478 45.0245 30.426 45.0253C30.5151 45.0257 30.5893 45.0245 30.6475 45.0228C30.6766 45.022 30.7017 45.021 30.7226 45.02C30.7331 45.0196 30.7425 45.0191 30.7509 45.0187C30.7551 45.0184 30.7591 45.0182 30.7627 45.018C30.7646 45.0179 30.7663 45.0178 30.768 45.0177C30.7689 45.0177 30.7701 45.0176 30.7705 45.0176C30.7718 45.0175 30.7729 45.0174 30.6218 42.522C30.4706 40.0266 30.4718 40.0265 30.4729 40.0264C30.4733 40.0264 30.4744 40.0264 30.4752 40.0263C30.4766 40.0262 30.478 40.0261 30.4793 40.0261C30.482 40.0259 30.4844 40.0258 30.4866 40.0257C30.491 40.0254 30.4945 40.0253 30.497 40.0252C30.5022 40.0249 30.5036 40.0249 30.5016 40.025C30.4975 40.0251 30.4795 40.0255 30.4487 40.0254C30.3869 40.0251 30.2745 40.0224 30.12 40.01C29.8096 39.9851 29.3377 39.9217 28.767 39.7644C27.6354 39.4525 26.1104 38.7716 24.6503 37.2571L21.0508 40.7275ZM15.4056 26.7041C13.1068 27.6866 13.1069 27.6869 13.1071 27.6872C13.1071 27.6874 13.1073 27.6877 13.1074 27.688C13.1076 27.6886 13.1079 27.6893 13.1083 27.6902C13.109 27.6919 13.11 27.694 13.1111 27.6967C13.1134 27.702 13.1165 27.7093 13.1205 27.7185C13.1285 27.7369 13.1398 27.763 13.1543 27.7964C13.1834 27.8632 13.2256 27.9591 13.2801 28.0813C13.389 28.3256 13.5474 28.6752 13.7492 29.1059C14.1524 29.9661 14.7321 31.1565 15.4409 32.4824C16.8287 35.0785 18.8213 38.4048 21.047 40.7235L24.6541 37.2611C22.9264 35.4612 21.1965 32.6434 19.8503 30.1251C19.192 28.8938 18.6518 27.7844 18.2767 26.9841C18.0894 26.5845 17.9441 26.2637 17.8467 26.0451C17.798 25.9359 17.7613 25.8523 17.7373 25.7974C17.7253 25.7699 17.7165 25.7496 17.711 25.7369C17.7083 25.7305 17.7064 25.726 17.7053 25.7235C17.7047 25.7222 17.7044 25.7214 17.7042 25.7211C17.7042 25.7209 17.7042 25.7209 17.7042 25.721C17.7042 25.7211 17.7043 25.7212 17.7043 25.7212C17.7044 25.7214 17.7045 25.7217 15.4056 26.7041ZM13.4482 24.3566C12.6485 25.3631 12.7765 26.4707 12.8586 26.897C12.9089 27.1577 12.9806 27.3722 13.0365 27.5182C13.0656 27.5941 13.0935 27.6594 13.1173 27.712C13.1292 27.7386 13.1404 27.7624 13.1505 27.7833C13.1555 27.7938 13.1603 27.8035 13.1648 27.8126C13.1671 27.8172 13.1692 27.8215 13.1713 27.8257C13.1724 27.8278 13.1734 27.8299 13.1745 27.8319C13.175 27.8329 13.1755 27.8339 13.176 27.8349C13.1762 27.8354 13.1766 27.8361 13.1767 27.8363C13.1771 27.8371 13.1774 27.8378 15.4056 26.7041C17.6338 25.5705 17.6342 25.5712 17.6346 25.5719C17.6347 25.5722 17.635 25.5729 17.6353 25.5734C17.6358 25.5743 17.6362 25.5753 17.6367 25.5762C17.6377 25.5781 17.6386 25.58 17.6396 25.5819C17.6414 25.5856 17.6433 25.5893 17.6451 25.5929C17.6486 25.6001 17.6521 25.6072 17.6554 25.614C17.662 25.6277 17.6681 25.6408 17.6738 25.6535C17.6851 25.6786 17.6957 25.7037 17.7056 25.7295C17.7231 25.7752 17.7488 25.8496 17.7683 25.9509C17.789 26.0584 17.917 26.7697 17.363 27.467L13.4482 24.3566ZM16.3209 25.6025C16.3209 23.1025 16.3203 23.1025 16.3198 23.1025C16.3196 23.1025 16.319 23.1025 16.3186 23.1025C16.3178 23.1025 16.317 23.1025 16.3162 23.1025C16.3146 23.1025 16.313 23.1025 16.3113 23.1025C16.3079 23.1025 16.3042 23.1025 16.3004 23.1025C16.2928 23.1026 16.2844 23.1027 16.2753 23.1028C16.257 23.1031 16.2355 23.1036 16.2113 23.1044C16.163 23.1059 16.1021 23.1087 16.0315 23.1138C15.8947 23.1238 15.6996 23.1439 15.4765 23.1874C15.2065 23.2401 14.1712 23.4466 13.4482 24.3566L17.363 27.467C17.0896 27.8111 16.7913 27.9622 16.6724 28.0154C16.541 28.0741 16.4507 28.0916 16.4344 28.0948C16.4094 28.0997 16.3969 28.1005 16.3934 28.1007C16.3893 28.101 16.3827 28.1014 16.372 28.1018C16.3665 28.1019 16.3597 28.1021 16.3513 28.1022C16.3471 28.1023 16.3425 28.1023 16.3375 28.1024C16.335 28.1024 16.3323 28.1024 16.3295 28.1024C16.3282 28.1024 16.3268 28.1024 16.3253 28.1024C16.3246 28.1024 16.3239 28.1024 16.3231 28.1024C16.3228 28.1024 16.3222 28.1024 16.322 28.1024C16.3215 28.1024 16.3209 28.1024 16.3209 25.6025ZM20.7619 23.0729L16.3043 23.1025L16.3375 28.1024L20.7952 28.0727L20.7619 23.0729ZM22.8976 23.7903C22.39 23.4491 21.8168 23.2178 21.2145 23.1111L20.3425 28.0345C20.2588 28.0196 20.1791 27.9875 20.1086 27.9401L22.8976 23.7903ZM24.1863 25.4009C23.947 24.843 23.5811 24.3484 23.1175 23.9563L19.8887 27.774C19.7596 27.6648 19.6577 27.5271 19.5911 27.3718L24.1863 25.4009ZM25.7547 28.6171C25.169 27.5913 24.65 26.5288 24.2011 25.4362L19.5763 27.3365C20.1069 28.6279 20.7203 29.8838 21.4126 31.0963L25.7547 28.6171ZM25.754 31.2408C25.9456 31.1367 26.1962 31.0472 26.4909 31.0227C26.7846 30.9982 27.0372 31.0452 27.2252 31.1093C27.5523 31.2208 27.6497 31.371 27.5065 31.2261C27.2205 30.9367 26.6716 30.2008 25.7472 28.6041L21.4201 31.1093C22.3601 32.7329 23.1777 33.9589 23.9499 34.7405C24.3359 35.1311 24.8853 35.594 25.6111 35.8416C26.4671 36.1335 27.3658 36.0557 28.1421 35.6336L25.754 31.2408ZM27.5921 28.8864C25.0981 29.0587 25.0981 29.0585 25.098 29.0582C25.098 29.0581 25.098 29.0579 25.098 29.0578C25.098 29.0575 25.098 29.0573 25.098 29.0571C25.0979 29.0569 25.0979 29.0568 25.098 29.057C25.098 29.0574 25.0981 29.0587 25.0982 29.0609C25.0985 29.0653 25.099 29.0733 25.0997 29.0848C25.1011 29.1076 25.1032 29.1439 25.1058 29.1919C25.1108 29.288 25.1173 29.4297 25.1225 29.6026C25.1332 29.9531 25.1381 30.41 25.1187 30.8668C25.0984 31.3461 25.0551 31.7223 25.0021 31.9525C24.9752 32.0694 24.9667 32.0539 25.0122 31.9643C25.0436 31.9026 25.2409 31.5209 25.7502 31.2429L28.1459 35.6316C28.8862 35.2275 29.2768 34.609 29.4696 34.2295C29.6767 33.8221 29.7979 33.4078 29.8746 33.0744C30.029 32.404 30.089 31.674 30.1142 31.0786C30.1404 30.4607 30.1331 29.8745 30.1202 29.4505C30.1137 29.2361 30.1056 29.0577 30.0989 28.9306C30.0956 28.8669 30.0926 28.8158 30.0903 28.7791C30.0892 28.7608 30.0883 28.746 30.0876 28.7351C30.0872 28.7296 30.0869 28.7251 30.0867 28.7216C30.0866 28.7198 30.0865 28.7183 30.0864 28.717C30.0863 28.7164 30.0863 28.7158 30.0862 28.7153C30.0862 28.7151 30.0862 28.7147 30.0862 28.7146C30.0862 28.7143 30.0862 28.714 27.5921 28.8864ZM25.1147 28.2467C24.9889 28.0753 24.9759 27.9747 25.0013 28.0633C25.0198 28.1278 25.0419 28.2357 25.0598 28.3797C25.0769 28.5173 25.0854 28.6488 25.0893 28.7468C25.0912 28.7943 25.0918 28.8302 25.0921 28.8506C25.0922 28.8607 25.0922 28.8667 25.0922 28.8681C25.0922 28.8688 25.0922 28.8683 25.0922 28.8665C25.0922 28.8656 25.0922 28.8645 25.0922 28.863C25.0922 28.8622 25.0922 28.8614 25.0923 28.8605C25.0923 28.86 25.0923 28.8595 25.0923 28.859C25.0923 28.8588 25.0923 28.8584 25.0923 28.8583C25.0923 28.8579 25.0923 28.8575 27.5921 28.8864C30.0919 28.9153 30.0919 28.9148 30.0919 28.9144C30.0919 28.9143 30.092 28.9139 30.092 28.9136C30.092 28.913 30.092 28.9124 30.092 28.9117C30.092 28.9105 30.092 28.9091 30.092 28.9076C30.092 28.9047 30.0921 28.9014 30.0921 28.8978C30.0921 28.8904 30.0922 28.8816 30.0922 28.8714C30.0922 28.851 30.0921 28.8248 30.0917 28.7936C30.091 28.7312 30.0893 28.6475 30.0853 28.5474C30.0774 28.35 30.0602 28.0743 30.0217 27.7638C29.9634 27.2938 29.8008 26.1814 29.1458 25.2887L25.1147 28.2467ZM25.5142 28.5579C25.4181 28.549 25.329 28.504 25.2648 28.4321L28.9957 25.1034C28.2179 24.2315 27.1385 23.6869 25.9751 23.5792L25.5142 28.5579ZM25.3358 22.9483C24.6922 23.265 24.1593 23.74 23.8044 24.2091C23.6656 24.3926 23.3344 24.8549 23.2147 25.4994C23.1531 25.8314 23.0837 26.5663 23.5391 27.3226C24.0565 28.182 24.8855 28.4841 25.4501 28.5511L26.0392 23.586C26.5413 23.6455 27.3285 23.9229 27.8226 24.7437C28.2547 25.4613 28.1806 26.1435 28.1306 26.4125C28.0344 26.9307 27.7925 27.2249 27.7919 27.2257C27.7135 27.3293 27.653 27.3806 27.5433 27.4346L25.3358 22.9483ZM30.3336 22.2931C29.5146 22.2931 28.6384 22.2917 27.8637 22.35C27.1317 22.4051 26.1784 22.5292 25.3263 22.953L27.5529 27.4299C27.5016 27.4554 27.6478 27.3803 28.2389 27.3359C28.7873 27.2946 29.4578 27.2931 30.3336 27.2931V22.2931ZM30.3337 22.2931H30.3336V27.2931H30.3337V22.2931ZM33.1157 22.5844C32.1744 22.3553 31.2059 22.2579 30.2379 22.295L30.4294 27.2913C30.9352 27.2719 31.4412 27.3228 31.933 27.4425L33.1157 22.5844ZM36.0905 28.2919C36.1233 27.476 36.1959 26.3066 35.9568 25.3571C35.8115 24.7802 35.5224 24.1187 34.9416 23.5561C34.3689 23.0014 33.6998 22.7244 33.107 22.5823L31.9417 27.4446C31.9412 27.4445 31.7117 27.3886 31.4628 27.1475C31.2058 26.8986 31.1246 26.6432 31.1082 26.5782C31.1008 26.5489 31.1228 26.6266 31.1259 26.9271C31.129 27.2187 31.1153 27.5768 31.0946 28.0908L36.0905 28.2919ZM36.0413 30.255C36.0413 29.5212 36.0667 28.8827 36.0905 28.2918L31.0946 28.0908C31.0709 28.6796 31.0413 29.4093 31.0413 30.255H36.0413ZM36.0297 30.89C36.0349 30.7013 36.0413 30.4748 36.0413 30.255H31.0413C31.0413 30.3932 31.0372 30.5484 31.0316 30.7523L36.0297 30.89ZM35.4926 31.3214C35.7853 31.5107 35.9383 31.746 36.0042 31.8813C36.0611 31.9984 36.0576 32.0475 36.0448 31.9629C36.0329 31.8851 36.0223 31.7577 36.0197 31.5602C36.017 31.3625 36.0225 31.1518 36.0297 30.89L31.0316 30.7523C31.0192 31.2019 30.99 31.9819 31.1017 32.7155C31.2056 33.3978 31.5239 34.7087 32.7764 35.5192L35.4926 31.3214ZM35.2467 28.6357C34.2314 30.3615 33.6569 31.0228 33.438 31.2204C33.3297 31.3182 33.4766 31.1464 33.8585 31.0457C34.3552 30.9147 34.963 30.9813 35.4851 31.3165L32.7839 35.5241C33.4776 35.9694 34.3184 36.0953 35.1335 35.8804C35.8337 35.6957 36.3842 35.2968 36.7887 34.9315C37.5952 34.2034 38.4826 32.996 39.5562 31.171L35.2467 28.6357ZM36.8119 25.3433C36.3685 26.4877 35.8401 27.5972 35.231 28.6627L39.5719 31.1439C40.3047 29.8619 40.9406 28.5267 41.4741 27.1497L36.8119 25.3433ZM38.1007 23.7172C37.5873 24.0889 37.1734 24.5814 36.8957 25.1512L41.3903 27.3419C41.3079 27.5109 41.1851 27.657 41.0327 27.7673L38.1007 23.7172ZM40.491 23.1567C39.782 23.0657 39.062 23.1915 38.4259 23.5177L40.7075 27.9668C40.4447 28.1016 40.1472 28.1536 39.8543 28.116L40.491 23.1567ZM44.8518 23.1067L40.1569 23.1364L40.1885 28.1363L44.8834 28.1066L44.8518 23.1067ZM48.8638 25.2376C48.5057 24.2273 47.74 23.6941 47.1873 23.4424C46.6572 23.201 46.1426 23.1264 45.8136 23.098C45.4595 23.0674 45.1442 23.0769 44.9316 23.0904C44.8209 23.0975 44.727 23.1064 44.656 23.1141C44.6202 23.1181 44.5897 23.1218 44.5651 23.1249C44.5527 23.1265 44.5418 23.128 44.5324 23.1293C44.5277 23.1299 44.5234 23.1305 44.5195 23.1311C44.5175 23.1313 44.5156 23.1316 44.5139 23.1318C44.513 23.132 44.5121 23.1321 44.5113 23.1322C44.5108 23.1323 44.5102 23.1324 44.51 23.1324C44.5094 23.1325 44.5088 23.1326 44.8676 25.6067C45.2264 28.0808 45.2258 28.0809 45.2252 28.081C45.225 28.081 45.2244 28.0811 45.2241 28.0811C45.2233 28.0812 45.2226 28.0813 45.2218 28.0815C45.2204 28.0817 45.219 28.0819 45.2178 28.082C45.2152 28.0824 45.2129 28.0827 45.2108 28.083C45.2067 28.0836 45.2037 28.084 45.2017 28.0842C45.1978 28.0847 45.1976 28.0847 45.2007 28.0844C45.2073 28.0836 45.2248 28.0819 45.2493 28.0803C45.3071 28.0766 45.3572 28.0771 45.3835 28.0794C45.4348 28.0838 45.3153 28.0839 45.1149 27.9927C44.8919 27.8911 44.3905 27.5836 44.1511 26.908L48.8638 25.2376ZM46.0593 32.361C47.0536 31.041 47.8248 29.8767 48.3235 28.89C48.5718 28.3986 48.7937 27.8715 48.9239 27.3365C49.0443 26.8419 49.1562 26.0626 48.8638 25.2376L44.1511 26.908C43.9773 26.4177 44.0823 26.086 44.0658 26.1539C44.0591 26.1814 44.0141 26.3317 43.8609 26.6349C43.5566 27.2371 42.9866 28.13 42.0657 29.3525L46.0593 32.361ZM43.9255 34.7068C43.9616 35.051 43.8707 35.2837 43.8557 35.3189C43.8533 35.3245 43.8961 35.2297 44.0837 34.9622C44.2644 34.7045 44.5074 34.3861 44.8516 33.9404C45.1853 33.5081 45.5945 32.9809 46.0627 32.3564L42.0623 29.357C41.2524 30.4372 40.447 31.4397 39.9899 32.0914C39.5761 32.6815 38.8035 33.808 38.9529 35.2293L43.9255 34.7068ZM44.8781 35.2579C44.5946 34.9946 44.3721 34.7886 44.1821 34.6058C43.9916 34.4225 43.8739 34.3007 43.799 34.215C43.6196 34.0099 43.8742 34.2192 43.9255 34.7068L38.9529 35.2293C39.0646 36.293 39.6371 37.0514 40.0358 37.5072C40.4321 37.9602 40.9725 38.4543 41.4757 38.9216L44.8781 35.2579ZM48.4407 39.4266C48.1526 38.8994 47.3623 37.5607 44.8765 35.2564L41.4773 38.9232C43.6037 40.8943 44.0466 41.8124 44.0531 41.8242L48.4407 39.4266ZM48.4122 39.3785C48.4244 39.3987 48.4335 39.4144 48.4383 39.4227C48.4433 39.4314 48.4466 39.4375 48.4476 39.4392C48.4486 39.441 48.4487 39.4413 48.4473 39.4385C48.4457 39.4358 48.4439 39.4324 48.4406 39.4264L44.0532 41.8244C44.0578 41.8328 44.0679 41.8514 44.0779 41.8694C44.0864 41.8845 44.1085 41.9242 44.1366 41.9706L48.4122 39.3785ZM45.1303 42.522C45.2857 45.0172 45.2867 45.0171 45.2877 45.017C45.288 45.017 45.289 45.0169 45.2897 45.0169C45.2911 45.0168 45.2926 45.0167 45.294 45.0166C45.297 45.0164 45.3001 45.0162 45.3034 45.016C45.3099 45.0155 45.317 45.015 45.3248 45.0144C45.3402 45.0133 45.3582 45.0118 45.3783 45.01C45.4185 45.0064 45.4683 45.0013 45.526 44.9943C45.64 44.9803 45.7923 44.9576 45.9679 44.9208C46.2868 44.8538 46.8285 44.711 47.3715 44.3868C47.9275 44.0549 48.7022 43.3923 48.9671 42.2503C49.2271 41.1296 48.8609 40.1214 48.4144 39.3821L44.1344 41.967C44.2048 42.0836 43.9541 41.7343 44.0965 41.1205C44.2438 40.4854 44.6679 40.1777 44.8087 40.0936C44.9364 40.0173 44.9982 40.0154 44.941 40.0274C44.9355 40.0285 44.93 40.0295 44.9252 40.0303C44.9204 40.0311 44.9177 40.0314 44.9178 40.0314C44.9179 40.0314 44.9219 40.0309 44.9307 40.0301C44.9352 40.0297 44.941 40.0292 44.9483 40.0287C44.9519 40.0284 44.956 40.0281 44.9604 40.0278C44.9626 40.0276 44.9649 40.0275 44.9674 40.0273C44.9686 40.0272 44.9698 40.0272 44.9711 40.0271C44.9717 40.027 44.9727 40.027 44.973 40.027C44.974 40.0269 44.975 40.0268 45.1303 42.522ZM40.9964 45.0811L45.1659 45.0217L45.0947 40.0223L40.9252 40.0816L40.9964 45.0811ZM37.4723 44.0129C38.3884 44.64 39.2647 44.93 39.9888 45.0405C40.3452 45.0949 40.654 45.1043 40.9013 45.0945C41.0248 45.0896 41.1332 45.08 41.2248 45.0687C41.2706 45.0631 41.3123 45.0571 41.3497 45.051C41.3684 45.048 41.386 45.045 41.4025 45.042C41.4108 45.0405 41.4188 45.039 41.4265 45.0376C41.4304 45.0368 41.4342 45.0361 41.4379 45.0354C41.4398 45.035 41.4416 45.0346 41.4434 45.0343C41.4443 45.0341 41.4457 45.0338 41.4462 45.0337C41.4475 45.0335 41.4489 45.0332 40.9608 42.5813C40.4728 40.1294 40.4741 40.1292 40.4754 40.1289C40.4759 40.1288 40.4772 40.1285 40.4781 40.1284C40.4799 40.128 40.4816 40.1277 40.4834 40.1273C40.4869 40.1267 40.4904 40.126 40.4938 40.1253C40.5007 40.124 40.5074 40.1228 40.5139 40.1216C40.527 40.1192 40.5394 40.1171 40.5513 40.1152C40.575 40.1114 40.5963 40.1084 40.6154 40.106C40.6534 40.1014 40.6827 40.0993 40.704 40.0984C40.7467 40.0968 40.7581 40.1 40.7432 40.0978C40.7247 40.0949 40.5628 40.0692 40.2968 39.8871L37.4723 44.0129ZM35.2168 41.8214C35.722 42.4035 36.5374 43.3684 37.4656 44.0083L40.3035 39.8917C40.007 39.6873 39.6279 39.2757 38.9932 38.5443L35.2168 41.8214ZM35.4674 40.8412C34.9802 40.9959 34.5697 40.9045 34.366 40.8267C34.1979 40.7624 34.1524 40.7036 34.2464 40.7815C34.3283 40.8495 34.4512 40.9666 34.6288 41.1576C34.8049 41.347 34.9914 41.5616 35.2168 41.8214L38.9932 38.5443C38.5992 38.0903 38.0316 37.4253 37.4392 36.9337C36.9641 36.5395 35.6403 35.5403 33.9542 36.0757L35.4674 40.8412ZM33.5879 41.3313C36.0876 41.2933 36.0876 41.2938 36.0876 41.2944C36.0876 41.2945 36.0876 41.2951 36.0876 41.2954C36.0876 41.2961 36.0877 41.2968 36.0877 41.2974C36.0877 41.2986 36.0877 41.2997 36.0877 41.3007C36.0877 41.3026 36.0877 41.304 36.0877 41.3048C36.0878 41.3065 36.0877 41.306 36.0877 41.3037C36.0877 41.2989 36.0878 41.2864 36.0881 41.2672C36.0888 41.2286 36.0907 41.1653 36.0955 41.0854C36.1056 40.9178 36.1267 40.7152 36.1646 40.5275C36.2068 40.3181 36.2457 40.2504 36.2294 40.2796C36.2139 40.3074 36.0045 40.6706 35.4674 40.8412L33.9542 36.0757C32.8366 36.4305 32.1965 37.245 31.8616 37.846C31.526 38.4485 31.3567 39.076 31.2633 39.5387C31.1656 40.0232 31.1236 40.4696 31.1047 40.7831C31.0949 40.9438 31.0907 41.079 31.0889 41.1787C31.088 41.2288 31.0878 41.2705 31.0878 41.3025C31.0878 41.3186 31.0878 41.3323 31.0879 41.3434C31.0879 41.349 31.088 41.354 31.088 41.3583C31.0881 41.3605 31.0881 41.3625 31.0881 41.3643C31.0881 41.3653 31.0881 41.3661 31.0882 41.367C31.0882 41.3674 31.0882 41.368 31.0882 41.3682C31.0882 41.3688 31.0882 41.3694 33.5879 41.3313ZM35.3629 43.6093C35.8506 42.9316 36.1048 42.1138 36.0873 41.279L31.0885 41.3836C31.0832 41.1348 31.159 40.891 31.3044 40.6889L35.3629 43.6093ZM32.7827 45.0043C33.5887 44.9081 34.3479 44.574 34.9635 44.0448L31.7038 40.2534C31.841 40.1355 32.0101 40.0611 32.1897 40.0396L32.7827 45.0043Z" fill="black" mask="url(#path-2-inside-1_513_13429)"/>
</svg>
