<svg width="63" height="64" viewBox="0 0 63 64" fill="none" xmlns="http://www.w3.org/2000/svg">
<path d="M50.256 32.1002H58.636C58.6531 39.1335 55.9391 45.8987 51.066 50.9702C49.8302 49.6343 48.4405 48.4494 46.926 47.4402C49.172 42.6412 50.31 37.3985 50.256 32.1002Z" fill="#F9C801"/>
<path d="M46.9662 47.4402C43.5362 54.6002 37.8862 59.4402 31.3262 59.4402C35.3262 59.4402 38.7962 53.1802 40.4062 44.1002C42.7393 44.8988 44.9479 46.0233 46.9662 47.4402Z" fill="#F9C801"/>
<path d="M31.3262 32.1002H41.4162C41.4162 36.0912 41.0817 40.0751 40.4162 44.0102C37.5001 42.9826 34.4279 42.4683 31.3362 42.4902V32.1002H31.3262Z" fill="#F9C801"/>
<path d="M31.3261 42.4902V59.4902C27.2561 59.4502 23.8561 53.1902 22.2561 44.1002C25.1508 42.9963 28.2283 42.45 31.3261 42.4902Z" fill="#F9C801"/>
<path d="M15.6761 47.4402C19.1161 54.6002 24.7661 59.4402 31.3261 59.4402C27.6254 59.4544 23.9611 58.7101 20.5591 57.2533C17.1572 55.7966 14.0898 53.6583 11.5461 50.9702L11.6461 50.8702C12.8476 49.57 14.2006 48.4184 15.6761 47.4402Z" fill="#F9C801"/>
<path d="M21.2561 32.1002C21.256 36.0912 21.5905 40.0751 22.2561 44.0102C19.9165 44.8408 17.7049 45.9953 15.6861 47.4402C13.5227 42.617 12.4179 37.3863 12.4461 32.1002H21.2561Z" fill="#F9C801"/>
<path d="M51.1062 50.9703C48.5634 53.6601 45.4964 55.8003 42.0944 57.2588C38.6924 58.7172 35.0276 59.4631 31.3262 59.4503C37.8862 59.4503 43.5362 54.7103 46.9662 47.4503C48.4605 48.4821 49.8475 49.6613 51.1062 50.9703Z" fill="white"/>
<path d="M46.9661 32.1002H50.2561C50.2906 37.3848 49.1926 42.6155 47.0361 47.4402C44.9941 46.0333 42.7877 44.8814 40.4661 44.0102C41.1273 40.0746 41.4617 36.091 41.4661 32.1002H46.9661Z" fill="white"/>
<path d="M40.4062 44.0102C38.7962 53.0902 35.4062 59.3502 31.3262 59.3502V42.4902C34.4179 42.4683 37.4901 42.9826 40.4062 44.0102Z" fill="white"/>
<path d="M31.3261 32.1002V42.4902C28.2377 42.4695 25.169 42.9838 22.2561 44.0102C21.5949 40.0746 21.2604 36.091 21.2561 32.1002H31.3261Z" fill="white"/>
<path d="M22.256 44.0103C23.856 53.1003 27.256 59.3503 31.326 59.3503C24.766 59.3503 19.116 54.6003 15.676 47.3503C17.7464 46.0096 19.9518 44.8901 22.256 44.0103Z" fill="white"/>
<path d="M31.3261 21.7002V32.1002H21.2561C21.2556 28.1092 21.5901 24.1252 22.2561 20.1902C25.1829 21.1607 28.2428 21.6701 31.3261 21.7002Z" fill="#F9C801"/>
<path d="M31.3261 4.74023V21.7402C28.2364 21.7463 25.1685 21.2221 22.2561 20.1902C23.8561 11.0002 27.2561 4.74023 31.3261 4.74023Z" fill="white"/>
<path d="M31.326 4.74023C27.256 4.74023 23.856 11.0002 22.256 20.1002C19.9164 19.2697 17.7049 18.1151 15.686 16.6702C19.116 9.49023 24.766 4.74023 31.326 4.74023Z" fill="#F9C801"/>
<path d="M22.256 20.1002C21.5959 24.0326 21.2615 28.0128 21.256 32.0002H12.446C12.4132 26.7115 13.5147 21.4772 15.676 16.6502C17.6732 18.1408 19.8941 19.3053 22.256 20.1002Z" fill="white"/>
<path d="M31.3261 4.74019C24.7661 4.74019 19.1161 9.49019 15.6761 16.7402C14.1865 15.7025 12.8031 14.5201 11.5461 13.2102C14.096 10.5302 17.1645 8.39715 20.5651 6.941C23.9656 5.48486 27.627 4.73606 31.3261 4.74019Z" fill="white"/>
<path d="M15.676 16.7502C13.5147 21.5772 12.4133 26.8115 12.446 32.1002H4.07603C4.05639 25.0635 6.77055 18.2942 11.646 13.2202C12.8452 14.552 14.198 15.7369 15.676 16.7502Z" fill="#F9C801"/>
<path d="M31.6592 21.7002V32.1002H41.7292C41.7297 28.1092 41.3952 24.1252 40.7292 20.1902C37.8025 21.1607 34.7426 21.6701 31.6592 21.7002Z" fill="#F9C801"/>
<path d="M31.6592 4.74023V21.7402C34.749 21.7463 37.8169 21.2221 40.7292 20.1902C39.1292 11.0002 35.7292 4.74023 31.6592 4.74023Z" fill="white"/>
<path d="M31.6593 4.74023C35.7293 4.74023 39.1293 11.0002 40.7293 20.1002C43.0689 19.2697 45.2805 18.1151 47.2993 16.6702C43.8693 9.49023 38.2193 4.74023 31.6593 4.74023Z" fill="#F9C801"/>
<path d="M40.7293 20.1002C41.3894 24.0326 41.7239 28.0128 41.7293 32.0002H50.5393C50.5721 26.7115 49.4707 21.4772 47.3093 16.6502C45.3122 18.1408 43.0913 19.3053 40.7293 20.1002Z" fill="white"/>
<path d="M31.6592 4.74019C38.2192 4.74019 43.8692 9.49019 47.3092 16.7402C48.7988 15.7025 50.1822 14.5201 51.4392 13.2102C48.8894 10.5302 45.8208 8.39715 42.4203 6.941C39.0197 5.48486 35.3584 4.73606 31.6592 4.74019Z" fill="white"/>
<path d="M47.3093 16.7502C49.4707 21.5772 50.5721 26.8115 50.5393 32.1002H58.9093C58.929 25.0635 56.2148 18.2942 51.3393 13.2202C50.1402 14.552 48.7874 15.7369 47.3093 16.7502Z" fill="#F9C801"/>
<path d="M12.4461 32.1002C12.4147 37.3856 13.5161 42.6163 15.6761 47.4402C14.2539 48.4756 12.9163 49.6226 11.6761 50.8702L11.5761 50.9702C6.7151 45.8885 3.99404 39.1324 3.97607 32.1002H12.4461Z" fill="white"/>
<path d="M31.3262 60.6602C29.6062 60.6602 27.1862 59.8537 24.7662 55.682C22.896 52.0874 21.6004 48.2243 20.9262 44.2321C20.2251 40.2182 19.8904 36.1493 19.9262 32.0753C19.8947 27.9981 20.2293 23.9264 20.9262 19.9085C21.5068 15.8937 22.8075 12.0154 24.7662 8.45865C27.0862 4.47607 29.6062 3.53021 31.3262 3.53021C31.6736 3.53021 32.0068 3.66763 32.2525 3.91223C32.4982 4.15683 32.6362 4.48858 32.6362 4.8345C32.6362 5.18042 32.4982 5.51218 32.2525 5.75678C32.0068 6.00138 31.6736 6.1388 31.3262 6.1388C29.9162 6.1388 28.3962 7.45305 26.9862 9.76294C25.2165 13.0913 24.0231 16.6929 23.4562 20.4163C22.7491 24.2619 22.4142 28.1661 22.4562 32.0753C22.4147 35.9812 22.7496 39.8821 23.4562 43.7243C24.0231 47.4477 25.2165 51.0493 26.9862 54.3777C28.2962 56.6876 29.9162 58.0018 31.3262 58.0018C32.7362 58.0018 34.2562 56.7374 35.6662 54.4275C37.427 51.0954 38.6199 47.4953 39.1962 43.7741C39.9028 39.9319 40.2376 36.031 40.1962 32.1251C40.1803 31.9435 40.2024 31.7607 40.2613 31.5882C40.3201 31.4156 40.4144 31.2571 40.5381 31.1228C40.6617 30.9885 40.8121 30.8812 40.9796 30.8078C41.1471 30.7344 41.3282 30.6966 41.5112 30.6966C41.6942 30.6966 41.8752 30.7344 42.0427 30.8078C42.2103 30.8812 42.3606 30.9885 42.4843 31.1228C42.6079 31.2571 42.7022 31.4156 42.7611 31.5882C42.8199 31.7607 42.8421 31.9435 42.8262 32.1251C42.8573 36.1989 42.5226 40.2674 41.8262 44.2819C41.2455 48.2968 39.9448 52.175 37.9862 55.7318C35.4662 59.8537 33.0462 60.6602 31.3262 60.6602Z" fill="black"/>
<path d="M31.6592 60.6602C33.3792 60.6602 35.7992 59.8537 38.2192 55.682C40.0893 52.0874 41.3849 48.2243 42.0592 44.2321C42.7602 40.2182 43.0949 36.1493 43.0592 32.0753C43.0907 27.9981 42.756 23.9264 42.0592 19.9085C41.4785 15.8937 40.1778 12.0154 38.2192 8.45865C35.8992 4.47607 33.3792 3.53021 31.6592 3.53021C31.3117 3.53021 30.9785 3.66763 30.7329 3.91223C30.4872 4.15683 30.3492 4.48858 30.3492 4.8345C30.3492 5.18042 30.4872 5.51218 30.7329 5.75678C30.9785 6.00138 31.3117 6.1388 31.6592 6.1388C33.0692 6.1388 34.5892 7.45305 35.9992 9.76294C37.7689 13.0913 38.9622 16.6929 39.5292 20.4163C40.2362 24.2619 40.5711 28.1661 40.5292 32.0753C40.5706 35.9812 40.2358 39.8821 39.5292 43.7243C38.9622 47.4477 37.7689 51.0493 35.9992 54.3777C34.6892 56.6876 33.0692 58.0018 31.6592 58.0018C30.2492 58.0018 28.7292 56.7374 27.3192 54.4275C25.5584 51.0954 24.3655 47.4953 23.7892 43.7741C23.0826 39.9319 22.7477 36.031 22.7892 32.1251C22.8051 31.9435 22.7829 31.7607 22.7241 31.5882C22.6652 31.4156 22.571 31.2571 22.4473 31.1228C22.3236 30.9885 22.1733 30.8812 22.0057 30.8078C21.8382 30.7344 21.6572 30.6966 21.4742 30.6966C21.2912 30.6966 21.1101 30.7344 20.9426 30.8078C20.7751 30.8812 20.6247 30.9885 20.5011 31.1228C20.3774 31.2571 20.2832 31.4156 20.2243 31.5882C20.1654 31.7607 20.1433 31.9435 20.1592 32.1251C20.1281 36.1989 20.4627 40.2674 21.1592 44.2819C21.7399 48.2968 23.0405 52.175 24.9992 55.7318C27.5192 59.8537 29.9392 60.6602 31.6592 60.6602Z" fill="black"/>
<path d="M31.3261 60.6602C24.5661 60.6602 18.3261 55.9202 14.5661 47.9402C12.2713 42.9769 11.1001 37.5683 11.1361 32.1002C11.0989 26.6288 12.2701 21.2167 14.5661 16.2502C18.3061 8.25021 24.5661 3.53021 31.3261 3.53021C31.6551 3.55893 31.9613 3.7099 32.1844 3.95334C32.4076 4.19677 32.5313 4.515 32.5313 4.84521C32.5313 5.17543 32.4076 5.49365 32.1844 5.73709C31.9613 5.98053 31.6551 6.1315 31.3261 6.16021C25.5761 6.16021 20.1261 10.3902 16.7861 17.3602C14.6933 22.0257 13.6292 27.087 13.6661 32.2002C13.6396 37.3092 14.7033 42.365 16.7861 47.0302C20.1261 54.1002 25.5761 58.2402 31.3261 58.2402C37.0761 58.2402 42.5261 54.0002 45.8561 47.0302C47.957 42.3705 49.0247 37.3114 48.9861 32.2002C49.0148 31.8712 49.1658 31.565 49.4092 31.3419C49.6527 31.1188 49.9709 30.995 50.3011 30.995C50.6313 30.995 50.9496 31.1188 51.193 31.3419C51.4364 31.565 51.5874 31.8712 51.6161 32.2002C51.6521 37.6683 50.481 43.0769 48.1861 48.0402C44.3461 55.9202 38.0861 60.6602 31.3261 60.6602Z" fill="black"/>
<path d="M31.6592 60.6602C38.4192 60.6602 44.6592 55.9202 48.4192 47.9402C50.7141 42.9769 51.8853 37.5683 51.8492 32.1002C51.8864 26.6288 50.7152 21.2167 48.4192 16.2502C44.6792 8.25021 38.4192 3.53021 31.6592 3.53021C31.3303 3.55893 31.024 3.7099 30.8009 3.95334C30.5778 4.19677 30.454 4.515 30.454 4.84521C30.454 5.17543 30.5778 5.49365 30.8009 5.73709C31.024 5.98053 31.3303 6.1315 31.6592 6.16021C37.4092 6.16021 42.8592 10.3902 46.1992 17.3602C48.2921 22.0257 49.3562 27.087 49.3192 32.2002C49.3457 37.3092 48.2821 42.365 46.1992 47.0302C42.8592 54.1002 37.4092 58.2402 31.6592 58.2402C25.9092 58.2402 20.4592 54.0002 17.1292 47.0302C15.0284 42.3705 13.9606 37.3114 13.9992 32.2002C13.9705 31.8712 13.8196 31.565 13.5761 31.3419C13.3327 31.1188 13.0145 30.995 12.6842 30.995C12.354 30.995 12.0358 31.1188 11.7924 31.3419C11.5489 31.565 11.398 31.8712 11.3692 32.2002C11.3332 37.6683 12.5044 43.0769 14.7992 48.0402C18.6392 55.9202 24.8992 60.6602 31.6592 60.6602Z" fill="black"/>
<path d="M31.3262 22.9102C28.0929 22.9336 24.8808 22.3886 21.8362 21.3002C19.4036 20.4274 17.097 19.2371 14.9762 17.7602C13.4497 16.6778 12.0299 15.4522 10.7362 14.1002C10.6146 13.9819 10.518 13.8404 10.452 13.6841C10.386 13.5278 10.3521 13.3599 10.3521 13.1902C10.3521 13.0206 10.386 12.8526 10.452 12.6963C10.518 12.54 10.6146 12.3985 10.7362 12.2802C10.9779 12.0396 11.3051 11.9045 11.6462 11.9045C11.9872 11.9045 12.3144 12.0396 12.5562 12.2802C13.7442 13.5266 15.0617 14.6429 16.4862 15.6102C18.4268 16.949 20.5305 18.0344 22.7462 18.8402C25.526 19.8593 28.4654 20.374 31.4262 20.3602C31.772 20.3654 32.1022 20.505 32.3468 20.7496C32.5913 20.9942 32.731 21.3244 32.7362 21.6702C32.6965 22.0149 32.5304 22.3325 32.2699 22.5616C32.0093 22.7907 31.673 22.915 31.3262 22.9102Z" fill="black"/>
<path d="M31.634 22.9102C34.8673 22.9336 38.0794 22.3886 41.124 21.3002C43.5566 20.4274 45.8632 19.2371 47.984 17.7602C49.5105 16.6778 50.9303 15.4522 52.224 14.1002C52.3456 13.9819 52.4422 13.8404 52.5082 13.6841C52.5742 13.5278 52.6082 13.3599 52.6082 13.1902C52.6082 13.0206 52.5742 12.8526 52.5082 12.6963C52.4422 12.54 52.3456 12.3985 52.224 12.2802C51.9823 12.0396 51.6551 11.9045 51.314 11.9045C50.973 11.9045 50.6458 12.0396 50.404 12.2802C49.216 13.5266 47.8986 14.6429 46.474 15.6102C44.5334 16.949 42.4297 18.0344 40.214 18.8402C37.4342 19.8593 34.4948 20.374 31.534 20.3602C31.1882 20.3654 30.858 20.505 30.6134 20.7496C30.3689 20.9942 30.2292 21.3244 30.224 21.6702C30.2637 22.0149 30.4298 22.3325 30.6903 22.5616C30.9509 22.7907 31.2872 22.915 31.634 22.9102Z" fill="black"/>
<path d="M51.1061 52.1803C50.9339 52.1881 50.7622 52.1561 50.6043 52.0867C50.4465 52.0174 50.3068 51.9125 50.1962 51.7803C49.0023 50.5361 47.6819 49.42 46.2561 48.4503C44.3132 47.1154 42.21 46.0302 39.9962 45.2203C37.216 44.2022 34.2768 43.6875 31.3162 43.7003C28.3569 43.7038 25.4205 44.218 22.6362 45.2203C20.4223 46.0302 18.3191 47.1154 16.3762 48.4503C15.0091 49.4519 13.728 50.5657 12.5462 51.7803C12.3044 52.0209 11.9772 52.1559 11.6362 52.1559C11.2951 52.1559 10.9679 52.0209 10.7262 51.7803C10.6046 51.6619 10.508 51.5204 10.442 51.3641C10.376 51.2078 10.342 51.0399 10.342 50.8703C10.342 50.7006 10.376 50.5327 10.442 50.3764C10.508 50.2201 10.6046 50.0786 10.7262 49.9603C12.0434 48.6423 13.461 47.4287 14.9662 46.3303C17.0619 44.8146 19.3747 43.6245 21.8262 42.8003C24.8689 41.7038 28.0819 41.1553 31.3162 41.1803C34.5504 41.1553 37.7634 41.7038 40.8062 42.8003C43.2401 43.6655 45.5473 44.8527 47.6662 46.3303C49.1892 47.4059 50.6087 48.6211 51.9062 49.9603C52.1467 50.202 52.2818 50.5292 52.2818 50.8703C52.2818 51.2113 52.1467 51.5385 51.9062 51.7803C51.8178 51.9095 51.698 52.014 51.558 52.084C51.418 52.154 51.2625 52.1871 51.1061 52.1803Z" fill="black"/>
<path d="M58.6866 33.3102H4.46163C4.28088 33.3261 4.09883 33.304 3.92704 33.2451C3.75525 33.1863 3.59746 33.092 3.46371 32.9684C3.32996 32.8447 3.22316 32.6943 3.1501 32.5268C3.07704 32.3593 3.03931 32.1783 3.03931 31.9952C3.03931 31.8122 3.07704 31.6312 3.1501 31.4637C3.22316 31.2961 3.32996 31.1458 3.46371 31.0221C3.59746 30.8985 3.75525 30.8042 3.92704 30.7453C4.09883 30.6865 4.28088 30.6643 4.46163 30.6802H58.5874C58.9311 30.688 59.2585 30.8298 59.5007 31.076C59.7429 31.3222 59.881 31.6535 59.8861 32.0002C59.894 32.166 59.8692 32.3318 59.813 32.4878C59.7568 32.6439 59.6703 32.787 59.5586 32.909C59.447 33.0309 59.3123 33.1292 59.1626 33.1981C59.0129 33.267 58.8511 33.3051 58.6866 33.3102Z" fill="black"/>
<path d="M31.3261 60.6602C30.9803 60.6552 30.6501 60.5177 30.4055 60.2769C30.161 60.0362 30.0213 59.7111 30.0161 59.3707V5.61304C30.0161 5.27103 30.1541 4.94303 30.3998 4.70119C30.6455 4.45935 30.9787 4.32349 31.3261 4.32349C31.6735 4.32349 32.0067 4.45935 32.2524 4.70119C32.4981 4.94303 32.6361 5.27103 32.6361 5.61304V59.3707C32.6309 59.7111 32.4913 60.0362 32.2467 60.2769C32.0022 60.5177 31.6719 60.6552 31.3261 60.6602Z" fill="black"/>
<path d="M31.3261 60.6602C27.395 60.6635 23.5073 59.8389 19.9161 58.2402C16.4377 56.7008 13.2873 54.5078 10.6361 51.7802C7.46299 48.46 5.13961 44.422 3.86389 40.0101C2.58817 35.5982 2.39792 30.9434 3.30937 26.4421C4.22082 21.9409 6.20693 17.7267 9.09848 14.1586C11.99 10.5906 15.7013 7.77447 19.9161 5.95022C23.5073 4.35155 27.395 3.52699 31.3261 3.53022C31.655 3.55894 31.9613 3.70991 32.1844 3.95335C32.4075 4.19678 32.5313 4.51501 32.5313 4.84522C32.5313 5.17544 32.4075 5.49366 32.1844 5.7371C31.9613 5.98054 31.655 6.13151 31.3261 6.16022C24.4304 6.16022 17.8172 8.8995 12.9413 13.7754C8.06533 18.6514 5.32605 25.2646 5.32605 32.1602C5.32605 39.0559 8.06533 45.6691 12.9413 50.545C17.8172 55.4209 24.4304 58.1602 31.3261 58.1602C34.7404 58.1602 38.1214 57.4877 41.2758 56.1811C44.4303 54.8745 47.2965 52.9593 49.7108 50.545C52.1252 48.1307 54.0403 45.2645 55.3469 42.11C56.6535 38.9555 57.3261 35.5746 57.3261 32.1602C57.3261 31.8128 57.4641 31.4796 57.7097 31.2339C57.9554 30.9882 58.2886 30.8502 58.6361 30.8502C58.9835 30.8502 59.3167 30.9882 59.5624 31.2339C59.808 31.4796 59.9461 31.8128 59.9461 32.1602C59.9442 39.5165 57.1285 46.5934 52.0761 51.9402C49.4488 54.6959 46.2924 56.8931 42.7961 58.4002C39.1409 59.8413 35.2546 60.607 31.3261 60.6602Z" fill="black"/>
<path d="M31.6593 60.6602C35.5903 60.6635 39.478 59.8389 43.0693 58.2402C46.5476 56.7008 49.698 54.5078 52.3493 51.7802C55.5224 48.46 57.8457 44.422 59.1215 40.0101C60.3972 35.5982 60.5874 30.9434 59.676 26.4421C58.7645 21.9409 56.7784 17.7267 53.8869 14.1586C50.9953 10.5906 47.284 7.77447 43.0693 5.95022C39.478 4.35155 35.5903 3.52699 31.6593 3.53022C31.3303 3.55894 31.0241 3.70991 30.801 3.95335C30.5778 4.19678 30.4541 4.51501 30.4541 4.84522C30.4541 5.17544 30.5778 5.49366 30.801 5.7371C31.0241 5.98054 31.3303 6.13151 31.6593 6.16022C38.5549 6.16022 45.1681 8.8995 50.0441 13.7754C54.92 18.6514 57.6593 25.2646 57.6593 32.1602C57.6593 39.0559 54.92 45.6691 50.0441 50.545C45.1681 55.4209 38.5549 58.1602 31.6593 58.1602C28.2449 58.1602 24.864 57.4877 21.7095 56.1811C18.5551 54.8745 15.6888 52.9593 13.2745 50.545C10.8602 48.1307 8.94505 45.2645 7.63843 42.11C6.33181 38.9555 5.6593 35.5746 5.6593 32.1602C5.6593 31.8128 5.52128 31.4796 5.27561 31.2339C5.02993 30.9882 4.69673 30.8502 4.3493 30.8502C4.00186 30.8502 3.66866 30.9882 3.42299 31.2339C3.17731 31.4796 3.0393 31.8128 3.0393 32.1602C3.04113 39.5165 5.85688 46.5934 10.9093 51.9402C13.5366 54.6959 16.6929 56.8931 20.1893 58.4002C23.8444 59.8413 27.7307 60.607 31.6593 60.6602Z" fill="black"/>
</svg>
