<svg width="64" height="64" viewBox="0 0 64 64" fill="none" xmlns="http://www.w3.org/2000/svg">
<path d="M56.2467 40.6841L8.7433 39.8494L7.6809 47.3619C9.09744 48.6267 11.9153 51.232 11.8546 51.5355C11.7787 51.915 8.13631 52.6738 7.6809 52.8256C7.31657 52.947 7.5291 55.355 7.6809 56.5439L56.2467 57.3786V49.7143L52.0731 45.4648L56.2467 43.1883V40.6841Z" fill="#F9C801"/>
<path d="M42.4734 23.6542L41.8186 15.7499L49.863 12.7566C49.8942 14.3 49.9379 17.4804 49.863 17.8546C49.7882 18.2287 44.9054 21.8769 42.4734 23.6542Z" fill="#F9C801"/>
<path d="M55.9354 39.1511H43.3354V36.6111C43.3354 35.0582 40.8154 34.9647 40.8154 36.6111V39.1511H38.2954V29.0411C38.2889 28.8756 38.2499 28.713 38.1806 28.5625C38.1112 28.4121 38.0129 28.2769 37.8912 28.1645C37.7696 28.0521 37.6269 27.9648 37.4715 27.9076C37.316 27.8504 37.1508 27.8244 36.9853 27.8311C36.6552 27.8324 36.3376 27.9574 36.0951 28.1814C35.8526 28.4054 35.7029 28.7121 35.6754 29.0411V39.1511H23.1654V8.88108H26.5954L30.0254 11.2011C30.2315 11.347 30.4778 11.4254 30.7304 11.4254C30.9829 11.4254 31.2292 11.347 31.4354 11.2011L34.8654 8.88108H36.9853V11.4011C36.9853 11.7485 37.1234 12.0817 37.369 12.3274C37.6147 12.5731 37.9479 12.7111 38.2954 12.7111C38.6428 12.7111 38.976 12.5731 39.2217 12.3274C39.4673 12.0817 39.6054 11.7485 39.6054 11.4011V8.88108H40.9154L40.8154 36.6111C40.8159 36.6504 43.3433 36.7506 43.3354 36.6111L43.4354 24.5111L50.5954 18.5611C50.7506 18.4446 50.8766 18.2937 50.9634 18.1201C51.0502 17.9465 51.0954 17.7551 51.0954 17.5611V12.5611C51.0889 12.3506 51.0301 12.145 50.9244 11.9629C50.8187 11.7807 50.6694 11.6277 50.4899 11.5176C50.3104 11.4076 50.1063 11.3438 49.896 11.3322C49.6858 11.3206 49.4759 11.3614 49.2854 11.4511L43.2854 14.4511V7.67108C43.284 7.34097 43.159 7.02335 42.935 6.78086C42.711 6.53836 42.4043 6.38859 42.0754 6.36108H34.5654C34.3179 6.38073 34.0767 6.44868 33.8554 6.56108L30.7354 8.56108L27.6054 6.56108C27.3899 6.43433 27.1453 6.36543 26.8954 6.36108H21.8954C21.5495 6.36625 21.2193 6.50592 20.9748 6.75048C20.7302 6.99505 20.5905 7.32526 20.5854 7.67108V22.1511L12.2154 19.0211C12.0218 18.9521 11.8146 18.9306 11.611 18.9586C11.4075 18.9866 11.2137 19.0632 11.046 19.1818C10.8783 19.3005 10.7416 19.4578 10.6475 19.6404C10.5534 19.823 10.5046 20.0256 10.5054 20.2311V26.4811C10.5074 26.6519 10.5439 26.8205 10.6126 26.9768C10.6814 27.1332 10.7809 27.2741 10.9054 27.3911L20.5854 35.8611V39.1511H8.04535C7.69953 39.1562 7.36931 39.2959 7.12475 39.5405C6.88019 39.785 6.74051 40.1153 6.73535 40.4611V48.0211C6.73683 48.192 6.77306 48.3608 6.84182 48.5172C6.91059 48.6736 7.01045 48.8145 7.13535 48.9311L9.45535 51.2511L7.64535 51.8511C7.3863 51.9325 7.15924 52.0929 6.99603 52.3099C6.83282 52.527 6.74167 52.7896 6.73535 53.0611V56.8911C6.75308 57.2281 6.89829 57.5458 7.14153 57.7798C7.38478 58.0137 7.70788 58.1465 8.04535 58.1511H55.9354C56.2812 58.1459 56.6114 58.0062 56.856 57.7617C57.1005 57.5171 57.2402 57.1869 57.2454 56.8411V49.2111C57.2451 49.04 57.2094 48.8709 57.1405 48.7142C57.0717 48.5576 56.9712 48.417 56.8454 48.3011L54.1254 45.5811L56.6454 43.8711C56.8133 43.7593 56.9542 43.6116 57.058 43.4387C57.1618 43.2657 57.2258 43.0718 57.2454 42.8711V40.3411C57.2153 40.0149 57.0642 39.7117 56.8217 39.4914C56.5792 39.2711 56.263 39.1497 55.9354 39.1511ZM48.3754 14.7311V17.1511L43.3754 21.3811V17.2511L48.3754 14.7311ZM13.0854 25.9211V21.9911L16.9154 23.4011V26.4011C16.9154 26.5731 16.9492 26.7435 17.0151 26.9024C17.0809 27.0613 17.1774 27.2057 17.299 27.3274C17.4207 27.449 17.5651 27.5455 17.724 27.6114C17.883 27.6772 18.0533 27.7111 18.2254 27.7111C18.3974 27.7111 18.5677 27.6772 18.7267 27.6114C18.8856 27.5455 19.03 27.449 19.1517 27.3274C19.2733 27.2057 19.3698 27.0613 19.4356 26.9024C19.5015 26.7435 19.5354 26.5731 19.5354 26.4011V24.3111L20.7454 24.8111V32.4711L13.0854 25.9211ZM54.7254 42.2511L51.5054 44.3711C51.3508 44.4721 51.2205 44.6062 51.1239 44.7636C51.0273 44.921 50.9668 45.0979 50.9467 45.2815C50.9266 45.4651 50.9475 45.6508 51.0078 45.8254C51.068 46 51.1663 46.159 51.2954 46.2911L54.7254 49.7111V50.4211H52.2054C51.886 50.4262 51.5813 50.5554 51.3554 50.7812C51.1296 51.007 51.0005 51.3118 50.9954 51.6311C50.999 51.9605 51.1247 52.2769 51.3483 52.5189C51.5718 52.7609 51.8772 52.9114 52.2054 52.9411H54.7254V55.4611H9.35535V53.8511L12.2854 52.8511C12.4871 52.7757 12.6672 52.6517 12.8096 52.4901C12.952 52.3285 13.0524 52.1343 13.1018 51.9247C13.1512 51.715 13.1482 51.4965 13.093 51.2883C13.0378 51.0801 12.9322 50.8887 12.7854 50.7311L9.35535 47.2911V41.5511H54.7254V42.2511Z" fill="#B80000"/>
<path d="M25.6853 15.2311V24.0011C25.714 24.33 25.865 24.6363 26.1084 24.8594C26.3519 25.0825 26.6701 25.2063 27.0003 25.2063C27.3305 25.2063 27.6487 25.0825 27.8922 24.8594C28.1356 24.6363 28.2866 24.33 28.3153 24.0011V15.1511C28.3077 14.806 28.1672 14.4772 27.9232 14.2332C27.6791 13.9892 27.3503 13.8487 27.0053 13.8411C26.6584 13.8841 26.3372 14.0463 26.0965 14.2997C25.8557 14.5532 25.7104 14.8824 25.6853 15.2311Z" fill="#B80000"/>
<path d="M30.7354 24.0012V30.2512C30.7354 30.5986 30.8734 30.9318 31.119 31.1775C31.3647 31.4231 31.6979 31.5612 32.0454 31.5612C32.3928 31.5612 32.726 31.4231 32.9717 31.1775C33.2173 30.9318 33.3554 30.5986 33.3554 30.2512V24.0012C33.3554 23.6537 33.2173 23.3205 32.9717 23.0749C32.726 22.8292 32.3928 22.6912 32.0454 22.6912C31.6979 22.6912 31.3647 22.8292 31.119 23.0749C30.8734 23.3205 30.7354 23.6537 30.7354 24.0012Z" fill="#B80000"/>
<path d="M16.9154 45.4812H13.0854C12.9134 45.4812 12.743 45.5151 12.5841 45.5809C12.4251 45.6468 12.2807 45.7432 12.1591 45.8649C12.0374 45.9865 11.9409 46.1309 11.8751 46.2899C11.8093 46.4488 11.7754 46.6192 11.7754 46.7912C11.7754 46.9632 11.8093 47.1336 11.8751 47.2925C11.9409 47.4515 12.0374 47.5959 12.1591 47.7175C12.2807 47.8392 12.4251 47.9356 12.5841 48.0015C12.743 48.0673 12.9134 48.1012 13.0854 48.1012H16.9154C17.2612 48.096 17.5914 47.9564 17.836 47.7118C18.0806 47.4672 18.2202 47.137 18.2254 46.7912C18.2041 46.4507 18.0593 46.1297 17.8181 45.8885C17.5768 45.6473 17.2559 45.5025 16.9154 45.4812Z" fill="#B80000"/>
<path d="M30.7355 48.001H23.1655C22.818 48.001 22.4848 48.139 22.2392 48.3847C21.9935 48.6303 21.8555 48.9635 21.8555 49.311C21.8555 49.6584 21.9935 49.9916 22.2392 50.2373C22.4848 50.483 22.818 50.621 23.1655 50.621H30.7355C31.0829 50.621 31.4161 50.483 31.6618 50.2373C31.9075 49.9916 32.0455 49.6584 32.0455 49.311C32.0455 48.9635 31.9075 48.6303 31.6618 48.3847C31.4161 48.139 31.0829 48.001 30.7355 48.001Z" fill="#B80000"/>
<path d="M33.2553 42.9612C32.9277 42.9598 32.6115 43.0812 32.369 43.3015C32.1265 43.5218 31.9753 43.8249 31.9453 44.1512C31.9505 44.497 32.0902 44.8272 32.3347 45.0718C32.5793 45.3163 32.9095 45.456 33.2553 45.4612H42.1253C42.2908 45.4547 42.4534 45.4157 42.6039 45.3464C42.7543 45.277 42.8895 45.1787 43.0019 45.057C43.1143 44.9354 43.2016 44.7927 43.2588 44.6373C43.316 44.4819 43.342 44.3167 43.3353 44.1512C43.3302 43.8319 43.201 43.5271 42.9752 43.3013C42.7494 43.0754 42.4446 42.9463 42.1253 42.9412L33.2553 42.9612Z" fill="#B80000"/>
<path d="M36.9854 49.2111C36.9905 49.5569 37.1302 49.8872 37.3748 50.1317C37.6193 50.3763 37.9495 50.516 38.2954 50.5211H47.1654C47.3374 50.5211 47.5077 50.4872 47.6667 50.4214C47.8256 50.3556 47.97 50.2591 48.0917 50.1374C48.2133 50.0158 48.3098 49.8714 48.3756 49.7124C48.4415 49.5535 48.4754 49.3832 48.4754 49.2111C48.4754 49.0391 48.4415 48.8687 48.3756 48.7098C48.3098 48.5509 48.2133 48.4065 48.0917 48.2848C47.97 48.1632 47.8256 48.0667 47.6667 48.0008C47.5077 47.935 47.3374 47.9011 47.1654 47.9011H38.2954C37.9549 47.9224 37.6339 48.0672 37.3927 48.3084C37.1515 48.5497 37.0066 48.8707 36.9854 49.2111Z" fill="#B80000"/>
</svg>
